<?xml version="1.0" encoding="utf-8"?>
<!-- Generator: Adobe Illustrator 21.0.0, SVG Export Plug-In . SVG Version: 6.00 Build 0)  -->
<svg version="1.1" id="Layer_1" xmlns="http://www.w3.org/2000/svg" xmlns:xlink="http://www.w3.org/1999/xlink" x="0px" y="0px"
	 viewBox="0 0 633.9 633.9" style="enable-background:new 0 0 633.9 633.9;" xml:space="preserve">
<style type="text/css">
	.st0{display:none;}
	.st1{display:inline;}
	.st2{fill:#CFD1D1;}
	.st3{fill:#FFFFFF;}
	.st4{fill:#ECF0F3;}
	.st5{fill:#0C2433;}
	.st6{fill:#DDDEDF;}
	.st7{fill:none;}
	.st8{fill:#04A4AD;}
	.st9{fill:#0A7A7A;}
	.st10{fill:#9BBB59;}
	.st11{fill:#758E39;}
	.st12{fill:#2E93EF;}
	.st13{fill:#CE816A;}
	.st14{fill:#0968AF;}
	.st15{fill:#8CA1AA;}
	.st16{fill:#5A7684;}
	.st17{fill:#E3F3FF;}
	.st18{fill:#B2EFFF;}
	.st19{fill:#28A1BD;}
	.st20{fill:#39CE4A;}
	.st21{fill:#138E1C;}
	.st22{fill:#EDED58;}
	.st23{fill:#DB9D03;}
	.st24{fill:#2487B9;}
</style>
<g id="Layer_1_2_" class="st0">
	<g id="Layer_1_1_" class="st1">
		<title>Abacus</title>
	</g>
</g>
<g id="Layer_2_1_" class="st0">
	<g class="st1">
		<circle class="st2" cx="316.9" cy="316.9" r="289.9"/>
		<path class="st3" d="M0,0L0,0L0,0z"/>
		<path class="st3" d="M633.9,633.9L633.9,633.9L633.9,633.9z"/>
		<path class="st3" d="M0,0L0,0L0,0z"/>
		<path class="st3" d="M633.9,633.9L633.9,633.9L633.9,633.9z"/>
		<path class="st3" d="M0,0L0,0L0,0z"/>
		<path class="st3" d="M633.9,633.9L633.9,633.9L633.9,633.9z"/>
		<path class="st3" d="M0,0L0,0L0,0z"/>
		<path class="st3" d="M633.9,633.9L633.9,633.9L633.9,633.9z"/>
	</g>
</g>
<g id="Layer_2_copy" class="st0">
	<g class="st1">
		<circle cx="316.9" cy="316.9" r="289.9"/>
		<path class="st3" d="M0,0L0,0L0,0z"/>
		<path class="st3" d="M633.9,633.9L633.9,633.9L633.9,633.9z"/>
		<path class="st3" d="M0,0L0,0L0,0z"/>
		<path class="st3" d="M633.9,633.9L633.9,633.9L633.9,633.9z"/>
		<path class="st3" d="M0,0L0,0L0,0z"/>
		<path class="st3" d="M633.9,633.9L633.9,633.9L633.9,633.9z"/>
		<path class="st3" d="M0,0L0,0L0,0z"/>
		<path class="st3" d="M633.9,633.9L633.9,633.9L633.9,633.9z"/>
	</g>
</g>
<g>
	<g id="Layer_3">
		<g id="Layer_15">
			<circle class="st2" cx="318.7" cy="317.4" r="289.9"/>
			<circle class="st4" cx="318.7" cy="317.4" r="276.5"/>
			<rect x="96.1" y="456.1" class="st5" width="442.7" height="11"/>
			<polygon class="st5" points="532.1,461 522.1,487.6 555.8,461 522.1,433.6 			"/>
			<rect x="443.6" y="458.1" class="st5" width="13" height="26.3"/>
			<rect x="343.6" y="458.1" class="st5" width="13" height="26.3"/>
			<rect x="249.6" y="458.1" class="st5" width="13" height="26.3"/>
			<rect x="154.6" y="458.1" class="st5" width="13" height="26.3"/>
			<rect x="96.1" y="456.1" class="st5" width="442.7" height="11"/>
			<polygon class="st5" points="532.1,461 522.1,487.6 555.8,461 522.1,433.6 			"/>
			<rect x="443.6" y="458.1" class="st5" width="13" height="26.3"/>
			<rect x="343.6" y="458.1" class="st5" width="13" height="26.3"/>
			<rect x="249.6" y="458.1" class="st5" width="13" height="26.3"/>
			<rect x="154.6" y="458.1" class="st5" width="13" height="26.3"/>
			<rect x="96.1" y="456.1" class="st5" width="442.7" height="11"/>
			<polygon class="st5" points="532.1,461 522.1,487.6 555.8,461 522.1,433.6 			"/>
			<rect x="443.6" y="458.1" class="st5" width="13" height="26.3"/>
			<rect x="343.6" y="458.1" class="st5" width="13" height="26.3"/>
			<rect x="249.6" y="458.1" class="st5" width="13" height="26.3"/>
			<rect x="154.6" y="458.1" class="st5" width="13" height="26.3"/>
			<rect x="96.1" y="456.1" class="st5" width="442.7" height="11"/>
			<polygon class="st5" points="532.1,461 522.1,487.6 555.8,461 522.1,433.6 			"/>
			<rect x="443.6" y="458.1" class="st5" width="13" height="26.3"/>
			<rect x="343.6" y="458.1" class="st5" width="13" height="26.3"/>
			<rect x="249.6" y="458.1" class="st5" width="13" height="26.3"/>
			<rect x="154.6" y="458.1" class="st5" width="13" height="26.3"/>
			<circle class="st2" cx="315.3" cy="316.6" r="290.1"/>
			<circle class="st4" cx="315.3" cy="316.6" r="279.6"/>
			<path class="st6" d="M557.3,176.6V220h-65v-65h51.1c-1.2-1.7-2.4-3.3-3.6-5h-47.5v-49.8c-1.7-1.4-3.3-2.7-5-4V150h-65V85h49.6
				c-2.5-1.7-5.1-3.4-7.7-5h-41.9V58.3c-1.7-0.7-3.3-1.4-5-2V80h-65V39.5c-1.7-0.2-3.3-0.4-5-0.6V80h-65V39c-1.7,0.2-3.3,0.4-5,0.6
				V80h-65V56.6c-1.7,0.7-3.3,1.3-5,2V80h-41.1c-2.6,1.6-5.1,3.3-7.7,5h48.7v65h-65V96.9c-1.7,1.3-3.3,2.7-5,4V150H90.7
				c-1.2,1.7-2.4,3.3-3.6,5h50.2v65h-65v-41.9c-1.7,3-3.4,6.1-5,9.2V220H52.8c-0.6,1.7-1.2,3.3-1.8,5h16.3v65H37
				c-0.2,1.7-0.3,3.3-0.4,5h30.8v65H39.1c0.3,1.7,0.5,3.3,0.8,5h27.4v65h-7.6c0.7,1.7,1.5,3.3,2.3,5h5.4v10.8c1.6,3.1,3.3,6.1,5,9.2
				v-20h65v65h-33c1.5,1.7,3,3.4,4.5,5h28.6v27.2c1.7,1.4,3.3,2.7,5,4V505h65v65h-10.2c5,2.3,10,4.5,15.2,6.6V575h65v18.6
				c1.7,0.2,3.3,0.4,5,0.6V575h65v19.3c1.7-0.2,3.3-0.4,5-0.6V575h65v1.9c5.4-2.1,10.8-4.4,16.1-6.9h-11.1v-65h65v31.9
				c1.7-1.3,3.3-2.7,5-4V505h29.4c1.5-1.6,3-3.3,4.5-5h-33.9v-65h65v21.5c1.7-3,3.4-6,5-9V435h6.2c0.8-1.7,1.5-3.3,2.3-5h-8.5v-65
				h28.3c0.3-1.7,0.6-3.3,0.8-5h-29.1v-65H594c-0.1-1.7-0.3-3.3-0.4-5h-31.2v-65h17.1c-0.6-1.7-1.2-3.3-1.8-5h-15.4v-34.3
				C560.7,182.6,559.1,179.6,557.3,176.6z M137.3,430h-65v-65h65V430z M137.3,360h-65v-65h65V360z M137.3,290h-65v-65h65V290z
				 M207.3,500h-65v-65h65V500z M207.3,430h-65v-65h65V430z M207.3,360h-65v-65h65V360z M207.3,290h-65v-65h65V290z M207.3,220h-65
				v-65h65V220z M277.3,570h-65v-65h65V570z M277.3,500h-65v-65h65V500z M277.3,430h-65v-65h65V430z M277.3,360h-65v-65h65V360z
				 M277.3,290h-65v-65h65V290z M277.3,220h-65v-65h65V220z M277.3,150h-65V85h65V150z M347.3,570h-65v-65h65V570z M347.3,500h-65
				v-65h65V500z M347.3,430h-65v-65h65V430z M347.3,360h-65v-65h65V360z M347.3,290h-65v-65h65V290z M347.3,220h-65v-65h65V220z
				 M347.3,150h-65V85h65V150z M417.3,570h-65v-65h65V570z M417.3,500h-65v-65h65V500z M417.3,430h-65v-65h65V430z M417.3,360h-65
				v-65h65V360z M417.3,290h-65v-65h65V290z M417.3,220h-65v-65h65V220z M417.3,150h-65V85h65V150z M487.3,500h-65v-65h65V500z
				 M487.3,430h-65v-65h65V430z M487.3,360h-65v-65h65V360z M487.3,290h-65v-65h65V290z M487.3,220h-65v-65h65V220z M557.3,430h-65
				v-65h65V430z M557.3,360h-65v-65h65V360z M557.3,290h-65v-65h65V290z"/>
			<line class="st7" x1="473.8" y1="546.3" x2="163.6" y2="546.3"/>
			<path class="st8" d="M595.1,326.3c-0.5-2.3-0.9-4.6-1.4-7c-20-107-91.5-252.9-120.3-135.6c-10.5,42.7-53.7,111.9-94.2,52.5
				C315.2,142.4,311,83.9,266.9,91s-56.1,115.1-68.2,175.7s-26.1,88.7-74.2,35.2s-56.1,81.6-56.1,81.6v51.7
				c21.2,44.9,54.1,83.3,95.2,111.2h310.1C547.2,496.7,592.3,414.8,595.1,326.3z"/>
			<path class="st9" d="M556.4,200.2c-18.5-38.9-37.2-60.5-52.7-61c-0.2,0-0.3,0-0.5,0c-13.2,0-23.5,14.9-30.7,44.2
				c-6.7,27.2-28.7,69.6-54.8,74.3c-13.2,2.4-25.9-5.1-37.6-22.2c-22.8-33.5-38-62.3-50.2-85.6c-21.9-41.8-34-64.8-63-60.1
				c-17.1,2.8-31,20.3-42.3,53.6c-9.7,28.4-15.9,63.4-21.4,94.2c-1.8,10.3-3.6,20-5.3,28.7c-6.9,34.6-14.3,58.4-28.2,62.2
				c-10.5,2.9-25-6.1-44.3-27.5c-9.6-10.7-18.5-14.8-26.4-12c-26.2,9.1-31.3,90.8-31.5,94.3V433c0.7,1.4,1.3,2.9,2,4.3v-53.8
				c0-0.8,5.3-83.8,30.2-92.5c7-2.5,15.2,1.4,24.2,11.5c20.1,22.3,34.8,31.3,46.3,28.1c14.9-4.1,22.6-28.5,29.6-63.8
				c1.7-8.8,3.5-18.5,5.3-28.8c10.5-59.2,25-140.2,62-146.2c27.6-4.5,39.5,18.1,61,59c12.2,23.3,27.4,52.2,50.3,85.8
				c12.2,17.8,25.5,25.6,39.6,23c27.3-4.9,49.4-47.3,56.4-75.8c7-28.7,16.9-43,29.2-42.7c14.7,0.4,32.8,21.7,51,59.8
				c16.5,34.6,30.7,78.9,38.1,118.4c0.2,1.1,1.2,5.9,2.2,11.1c0.1-2.9,0.2-5.9,0.3-8.9c-0.3-1.3-0.4-2.2-0.5-2.6
				C587.2,279.4,572.9,235,556.4,200.2z"/>
			<path class="st10" d="M525.8,408.6c-41.2,43.1-21.9,8.2-41.2-59C430.4,161,433.6,244,402,318.1c-59,138.5-60.6-106-113.7,65.5
				c-21.9,70.7-26.9-183.8-61.7-179.3s-36.4,113.5-45.9,152c-9.5,38.6-34.8,40.8-72.8,6.8s-38,27.2-38,27.2v47.9
				c15.5,31.8,37,60.4,63.2,84.1l180.1,10.6l190.9-10.7c36.3-32.9,63.3-74.8,78.1-121.5C573.9,390.9,555.1,378,525.8,408.6z"/>
			<path class="st11" d="M578.1,395.2c-10.4-8.6-28.1-13.3-53,12.7c-11.5,12-19.9,19.8-23.7,18.5c-3.3-1.1-4.2-9.4-5.6-22
				c-1.5-13.7-3.7-32.5-10.2-55.1C458,253,446.9,233.6,437.9,233.4h-0.1c-7.9,0-13.3,16.7-20.7,39.8c-4.4,13.7-9.4,29.2-15.9,44.5
				c-12.3,28.8-22.9,43.2-32.5,44c-9.1,0.8-16.5-10.8-23.7-22.1c-7.2-11.2-14-21.8-22.6-20.7c-10.6,1.4-21.7,21.9-34.9,64.4
				c-3.3,10.8-5.6,11.8-6.5,11.7c-1.4-0.1-4.4-3.1-8.4-21.6c-2.9-13.5-5.7-31.9-8.7-51.5c-8.7-56.7-18.6-121-37.3-118.5
				c-26.3,3.4-33.9,62.7-40.1,110.3c-2.2,17.3-4.1,32.2-6.7,42.4c-4,16.3-10.9,26.1-20.4,29c-12.5,3.9-29.6-3.8-50.7-22.7
				c-10.3-9.3-19-12.5-25.7-9.5c-13.8,6.2-14,36.2-14,37.4v45.8c0.7,1.4,1.3,2.7,2,4.1v-49.9c0-0.3,0.2-30,12.8-35.6
				c5.9-2.6,13.8,0.4,23.5,9.1c21.7,19.4,39.4,27.2,52.7,23.1c10.3-3.2,17.6-13.4,21.8-30.4c2.5-10.3,4.5-25.3,6.7-42.7
				c6-47,13.6-105.4,38.3-108.6c16.8-2.2,26.9,63.8,35.1,116.9c7.3,47.4,11.8,74.3,18.9,74.8c3,0.2,5.7-3.8,8.5-13.1
				c12.7-41.1,23.6-61.7,33.2-63c7.3-1,13.8,9.1,20.7,19.8c7.5,11.7,15.3,23.8,25.6,23c10.6-0.9,21.4-15.2,34.2-45.2
				c6.5-15.3,11.5-30.9,15.9-44.6c6.9-21.5,12.4-38.5,18.8-38.5h0.1c9.3,0.1,22.6,33.3,45.9,114.5c6.4,22.5,8.6,41.2,10.1,54.8
				c1.6,14.3,2.5,22.1,7,23.6c4.3,1.4,10.8-3.4,25.8-19c23.8-24.9,40.5-20.6,50.2-12.5c1.5,1.2,2.8,2.5,4.1,4c0.1,0.1,0.5,0.5,0.9,1
				l0.2,0.2c0.2-0.7,0.5-1.4,0.7-2.2c-0.2-0.2-0.3-0.3-0.4-0.4C581,397.9,579.6,396.5,578.1,395.2z"/>
			<line class="st7" x1="473.8" y1="546.3" x2="163.6" y2="546.3"/>
			<path class="st12" d="M574,423.9c-5.5-2.1-13.2,0-23.9,9.8c-38.1,34.9-44.4,25.9-49.5-10.6c-32.2-229.3-25.3,44.5-61.4,33.9
				c-34.4-10.1-30.5-191.1-69.9-2.5c-17.1,82-66.6,102.3-101.5,27.9s-79.3-132.5-95.2-62.8s0,104.6-41.2,60.4
				c-21-22.5-36.7-22.1-47-16.2c20.5,32.7,47.5,60.7,79.4,82.4H474C518.4,516.1,553.2,473.5,574,423.9z"/>
			<path class="st13" d="M573.6,424.8l0.4-0.9C573.8,424.2,573.7,424.5,573.6,424.8L573.6,424.8z"/>
			<path class="st13" d="M84.7,464.8L84.7,464.8c-0.1-0.3-0.3-0.6-0.5-0.9L84.7,464.8z"/>
			<path class="st14" d="M549.4,432.9c-18.8,17.2-29.6,23.6-36.2,21.2c-6.4-2.3-9.2-13.6-11.7-31.2c-11.4-81.4-17.1-92.6-21.4-92.7
				l0,0c-5.1,0-7.9,15.9-12.9,46.4c-5.2,31.9-11.6,71.6-22.7,78.6c-1.5,1-3.4,1.3-5.1,0.8c-12.2-3.6-19.8-31.2-25.9-53.4
				c-5.3-19.4-9.6-34.8-16-34.6c-5.6,0.2-13.4,10.6-29.2,86.2c-9,43.2-27.2,70.5-48.7,73c-18.1,2.1-36.2-14-50.9-45.3
				c-13.8-29.4-48.7-97.4-75.3-94.6c-9.9,1.1-17.2,11.8-21.8,32c-4.8,20.9-6.7,38.9-8.1,52.1c-1.7,15.4-2.8,25.6-6.8,27
				c-3.7,1.2-10.8-4.3-24.6-19.1c-22.1-23.7-38.4-22-48.2-16.4l0.5,0.9c0.2,0.3,0.4,0.6,0.5,0.9c13.2-7.5,29-1.9,45.7,16
				c15,16.1,22,21.2,26.7,19.7c5.2-1.7,6.3-11.3,8.1-28.7c1.4-13.1,3.3-31.1,8.1-51.9c4.4-19.3,11.1-29.5,20-30.5
				c17.5-1.9,44.9,33,73.3,93.4c14.2,30.2,31.7,46.6,49.6,46.6c1.1,0,2.3-0.1,3.4-0.2c22.4-2.6,41.2-30.5,50.4-74.5
				c4.4-20.9,17.6-84.4,27.3-84.7c0,0,0,0,0.1,0c4.9,0,9.5,16.8,14,33.1c6.6,23.8,14,50.9,27.3,54.7c2.3,0.7,4.7,0.3,6.7-1
				c11.9-7.5,18.2-46,23.6-80c2-12.2,3.8-23.7,5.7-32c2.7-11.8,4.6-12.7,5.2-12.7c0.7,0,3.3,1.4,7.5,19.6c3.4,14.9,7.3,38.2,12,71.3
				c2.6,18.8,5.6,30.1,13,32.8c7.4,2.7,18.5-3.6,38.2-21.6c9.3-8.5,17-11.8,22.9-9.6c0.1-0.3,0.3-0.6,0.4-0.9l0.3-0.9
				C567.7,420.4,559.3,423.8,549.4,432.9z"/>
			<polygon class="st12" points="84.7,464.8 77.4,470.1 74.4,550.4 185.2,550.4 153.2,525.1 97.2,466.1 			"/>
			<polygon class="st14" points="83.7,463.1 84.7,464.8 78.8,469.1 78.3,466.8 			"/>
			<polygon class="st10" points="84,462.9 79.2,466.2 76.6,459.2 77.9,455.3 80.3,455 83.4,455.4 85.4,458.1 			"/>
			<line class="st7" x1="66.5" y1="546.3" x2="66.5" y2="559"/>
			<path class="st5" d="M557.4,520.4"/>
			<path class="st5" d="M557.4,582.6"/>
			<rect x="351.7" y="548.6" class="st5" width="15" height="30.3"/>
			<rect x="243.4" y="548.6" class="st5" width="15" height="30.3"/>
			<rect x="133.9" y="548.6" class="st5" width="15" height="30.3"/>
			<rect x="66.7" y="48.5" class="st15" width="12.7" height="510.1"/>
			<polygon class="st15" points="73.2,56.2 104,67.7 73.2,28.9 41.7,67.7 			"/>
			<rect x="69" y="143.2" class="st15" width="30.3" height="15"/>
			<rect x="69" y="258.4" class="st15" width="30.3" height="15"/>
			<rect x="69" y="366.8" class="st15" width="30.3" height="15"/>
			<rect x="69" y="476.2" class="st15" width="30.3" height="15"/>
			<path class="st15" d="M66.5,546.3V559h117.7c-7.1-3.9-13.9-8.2-20.6-12.7H66.5z"/>
			<path class="st15" d="M163.6,546.3c6.7,4.5,13.5,8.7,20.6,12.7h269.1c7.1-3.9,13.9-8.2,20.6-12.7H163.6z"/>
			<path class="st16" d="M467,550.8c1.1-0.7,2.2-1.5,3.4-2.2H467V550.8z"/>
			<rect x="351.7" y="548.6" class="st15" width="15" height="30.3"/>
			<rect x="243.4" y="548.6" class="st15" width="15" height="30.3"/>
			<rect x="133.9" y="548.6" class="st15" width="15" height="30.3"/>
			<circle class="st4" cx="319" cy="317.1" r="276.5"/>
			<rect x="96.5" y="455.8" class="st5" width="442.7" height="11"/>
			<polygon class="st5" points="532.5,460.6 522.5,487.3 556.1,460.6 522.5,433.3 			"/>
			<rect x="444" y="457.8" class="st5" width="13" height="26.3"/>
			<rect x="344" y="457.8" class="st5" width="13" height="26.3"/>
			<rect x="250" y="457.8" class="st5" width="13" height="26.3"/>
			<rect x="155" y="457.8" class="st5" width="13" height="26.3"/>
			<rect x="96.5" y="455.8" class="st5" width="442.7" height="11"/>
			<polygon class="st5" points="532.5,460.6 522.5,487.3 556.1,460.6 522.5,433.3 			"/>
			<rect x="444" y="457.8" class="st5" width="13" height="26.3"/>
			<rect x="344" y="457.8" class="st5" width="13" height="26.3"/>
			<rect x="250" y="457.8" class="st5" width="13" height="26.3"/>
			<rect x="155" y="457.8" class="st5" width="13" height="26.3"/>
			<rect x="96.5" y="455.8" class="st5" width="442.7" height="11"/>
			<polygon class="st5" points="532.5,460.6 522.5,487.3 556.1,460.6 522.5,433.3 			"/>
			<rect x="444" y="457.8" class="st5" width="13" height="26.3"/>
			<rect x="344" y="457.8" class="st5" width="13" height="26.3"/>
			<rect x="250" y="457.8" class="st5" width="13" height="26.3"/>
			<rect x="155" y="457.8" class="st5" width="13" height="26.3"/>
			<rect x="96.5" y="455.8" class="st5" width="442.7" height="11"/>
			<polygon class="st5" points="532.5,460.6 522.5,487.3 556.1,460.6 522.5,433.3 			"/>
			<rect x="444" y="457.8" class="st5" width="13" height="26.3"/>
			<rect x="344" y="457.8" class="st5" width="13" height="26.3"/>
			<rect x="250" y="457.8" class="st5" width="13" height="26.3"/>
			<rect x="155" y="457.8" class="st5" width="13" height="26.3"/>
			<circle class="st17" cx="315.6" cy="316.2" r="279.6"/>
			<path class="st18" d="M557.7,176.3v43.4h-65v-65h51.1c-1.2-1.7-2.4-3.3-3.6-5h-47.5V99.9c-1.7-1.4-3.3-2.7-5-4v53.8h-65v-65h49.6
				c-2.5-1.7-5.1-3.4-7.7-5h-41.9V57.9c-1.7-0.7-3.3-1.4-5-2v23.8h-65V39.1c-1.7-0.2-3.3-0.4-5-0.6v41.2h-65V38.6
				c-1.7,0.2-3.3,0.4-5,0.6v40.4h-65V56.2c-1.7,0.7-3.3,1.3-5,2v21.4h-41.1c-2.6,1.6-5.1,3.3-7.7,5h48.7v65h-65v-53
				c-1.7,1.3-3.3,2.7-5,4v49.1H91.1c-1.2,1.7-2.4,3.3-3.6,5h50.2v65h-65v-41.9c-1.7,3-3.4,6.1-5,9.2v32.7H53.2
				c-0.6,1.7-1.2,3.3-1.8,5h16.3v65H37.3c-0.2,1.7-0.3,3.3-0.4,5h30.8v65H39.4c0.3,1.7,0.5,3.3,0.8,5h27.4v65H60
				c0.7,1.7,1.5,3.3,2.3,5h5.4v10.8c1.6,3.1,3.3,6.1,5,9.2v-20h65v65h-33c1.5,1.7,3,3.4,4.5,5h28.6v27.2c1.7,1.4,3.3,2.7,5,4v-31.2
				h65v65h-10.2c5,2.3,10,4.5,15.2,6.6v-1.6h65v18.6c1.7,0.2,3.3,0.4,5,0.6v-19.2h65V594c1.7-0.2,3.3-0.4,5-0.6v-18.7h65v1.9
				c5.4-2.1,10.8-4.4,16.1-6.9h-11.1v-65h65v31.9c1.7-1.3,3.3-2.7,5-4v-27.9h29.4c1.5-1.6,3-3.3,4.5-5h-33.9v-65h65v21.5
				c1.7-3,3.4-6,5-9v-12.5h6.2c0.8-1.7,1.5-3.3,2.3-5h-8.5v-65H591c0.3-1.7,0.6-3.3,0.8-5h-29.1v-65h31.7c-0.1-1.7-0.3-3.3-0.4-5
				h-31.2v-65h17.1c-0.6-1.7-1.2-3.3-1.8-5h-15.4v-34.3C561,182.3,559.4,179.3,557.7,176.3z M137.7,429.7h-65v-65h65V429.7z
				 M137.7,359.7h-65v-65h65V359.7z M137.7,289.7h-65v-65h65V289.7z M207.7,499.7h-65v-65h65V499.7z M207.7,429.7h-65v-65h65V429.7z
				 M207.7,359.7h-65v-65h65V359.7z M207.7,289.7h-65v-65h65V289.7z M207.7,219.7h-65v-65h65V219.7z M277.7,569.7h-65v-65h65V569.7z
				 M277.7,499.7h-65v-65h65V499.7z M277.7,429.7h-65v-65h65V429.7z M277.7,359.7h-65v-65h65V359.7z M277.7,289.7h-65v-65h65V289.7z
				 M277.7,219.7h-65v-65h65V219.7z M277.7,149.7h-65v-65h65V149.7z M347.7,569.7h-65v-65h65V569.7z M347.7,499.7h-65v-65h65V499.7z
				 M347.7,429.7h-65v-65h65V429.7z M347.7,359.7h-65v-65h65V359.7z M347.7,289.7h-65v-65h65V289.7z M347.7,219.7h-65v-65h65V219.7z
				 M347.7,149.7h-65v-65h65V149.7z M417.7,569.7h-65v-65h65V569.7z M417.7,499.7h-65v-65h65V499.7z M417.7,429.7h-65v-65h65V429.7z
				 M417.7,359.7h-65v-65h65V359.7z M417.7,289.7h-65v-65h65V289.7z M417.7,219.7h-65v-65h65V219.7z M417.7,149.7h-65v-65h65V149.7z
				 M487.7,499.7h-65v-65h65V499.7z M487.7,429.7h-65v-65h65V429.7z M487.7,359.7h-65v-65h65V359.7z M487.7,289.7h-65v-65h65V289.7z
				 M487.7,219.7h-65v-65h65V219.7z M557.7,429.7h-65v-65h65V429.7z M557.7,359.7h-65v-65h65V359.7z M557.7,289.7h-65v-65h65V289.7z
				"/>
			<line class="st7" x1="474.1" y1="546" x2="164" y2="546"/>
			<path class="st19" d="M595.4,325.9c-0.5-2.3-0.9-4.6-1.4-7c-20-107-91.5-252.9-120.3-135.6c-10.5,42.7-53.7,111.9-94.2,52.5
				c-64-93.8-68.2-152.3-112.3-145.2c-44.1,7.1-56.1,115.1-68.2,175.7s-26,88.7-74.1,35.2s-56.1,81.6-56.1,81.6v51.7
				C90,479.7,122.9,518.1,164,546h310.1C547.5,496.3,592.6,414.5,595.4,325.9z"/>
			<path class="st9" d="M556.7,199.8c-18.5-38.9-37.2-60.5-52.7-61c-0.2,0-0.3,0-0.5,0c-13.2,0-23.5,14.9-30.7,44.2
				c-6.7,27.2-28.7,69.6-54.8,74.3c-13.2,2.4-25.9-5.1-37.6-22.2c-22.8-33.5-38-62.3-50.2-85.6c-21.9-41.8-34-64.8-63-60.1
				c-17.1,2.8-31,20.3-42.3,53.6c-9.7,28.4-15.9,63.4-21.4,94.2c-1.8,10.3-3.6,20-5.3,28.7c-6.9,34.6-14.3,58.4-28.2,62.2
				c-10.5,2.9-25-6.1-44.3-27.5c-9.6-10.7-18.5-14.8-26.4-12c-26.2,9.1-31.3,90.8-31.5,94.3v49.5c0.7,1.4,1.3,2.9,2,4.3v-53.8
				c0-0.8,5.3-83.8,30.2-92.5c7-2.5,15.2,1.4,24.2,11.5c20.1,22.3,34.8,31.3,46.3,28.1c14.9-4.1,22.6-28.5,29.6-63.8
				c1.7-8.8,3.5-18.5,5.3-28.8c10.5-59.2,25-140.2,62-146.2c27.6-4.5,39.5,18.1,61,59c12.2,23.3,27.4,52.2,50.3,85.8
				c12.2,17.8,25.5,25.6,39.6,23c27.3-4.9,49.4-47.3,56.4-75.8c7-28.7,16.9-43,29.2-42.7c14.7,0.4,32.8,21.7,51,59.8
				c16.5,34.6,30.7,78.9,38.1,118.4c0.2,1.1,1.2,5.9,2.2,11.1c0.1-2.9,0.2-5.9,0.3-8.9c-0.3-1.3-0.4-2.2-0.5-2.6
				C587.6,279.1,573.3,234.6,556.7,199.8z"/>
			<path class="st20" d="M526.2,408.3c-41.2,43.1-21.9,8.2-41.2-59c-54.2-188.6-51-105.6-82.6-31.5c-59,138.5-60.6-106-113.7,65.5
				C266.8,454,261.8,199.5,227,204.1s-36.4,113.5-45.9,152c-9.5,38.6-34.8,40.8-72.8,6.8s-38,27.2-38,27.2V438
				c15.5,31.8,37,60.4,63.2,84.1l180.1,10.6l191-10.7c36.3-32.9,63.3-74.8,78.1-121.5C574.2,390.5,555.4,377.6,526.2,408.3z"/>
			<path class="st21" d="M578.4,394.9c-10.4-8.6-28.1-13.3-53,12.7c-11.5,12-19.9,19.8-23.7,18.5c-3.3-1.1-4.2-9.4-5.6-22
				c-1.5-13.7-3.7-32.5-10.2-55.1c-27.7-96.3-38.8-115.8-47.8-115.9H438c-7.9,0-13.3,16.7-20.7,39.8c-4.4,13.7-9.4,29.2-15.9,44.5
				c-12.3,28.8-22.9,43.2-32.5,44c-9.1,0.8-16.5-10.8-23.7-22.1c-7.2-11.2-14-21.8-22.6-20.7c-10.6,1.4-21.7,21.9-34.9,64.4
				c-3.3,10.8-5.6,11.8-6.5,11.7c-1.4-0.1-4.4-3.1-8.4-21.6c-2.9-13.5-5.7-31.9-8.7-51.5c-8.7-56.7-18.6-121-37.3-118.5
				c-26.3,3.4-33.9,62.7-40.1,110.3c-2.2,17.3-4.1,32.2-6.7,42.4c-4,16.3-10.9,26.1-20.4,29c-12.5,3.9-29.6-3.8-50.7-22.7
				c-10.3-9.3-19-12.5-25.7-9.5c-13.8,6.2-14,36.2-14,37.4v45.8c0.7,1.4,1.3,2.7,2,4.1V390c0-0.3,0.2-30,12.8-35.6
				c5.9-2.6,13.8,0.4,23.5,9.1c21.7,19.4,39.4,27.2,52.7,23.1c10.3-3.2,17.6-13.4,21.8-30.4c2.5-10.3,4.5-25.3,6.7-42.7
				c6-47,13.6-105.4,38.3-108.6c16.8-2.2,26.9,63.8,35.1,116.9c7.3,47.4,11.8,74.3,18.9,74.8c3,0.2,5.7-3.8,8.5-13.1
				c12.7-41.1,23.6-61.7,33.2-63c7.3-1,13.8,9.1,20.7,19.8c7.5,11.7,15.3,23.8,25.6,23c10.6-0.9,21.4-15.2,34.2-45.2
				c6.5-15.3,11.5-30.9,15.9-44.6C426,252,431.5,235,437.9,235h0.1c9.3,0.1,22.6,33.3,45.9,114.5c6.4,22.5,8.6,41.2,10.1,54.8
				c1.6,14.3,2.5,22.1,7,23.6c4.3,1.4,10.8-3.4,25.8-19c23.8-24.9,40.5-20.6,50.2-12.5c1.5,1.2,2.8,2.5,4.1,4c0.1,0.1,0.5,0.5,0.9,1
				l0.2,0.2c0.2-0.7,0.5-1.4,0.7-2.2c-0.2-0.2-0.3-0.3-0.4-0.4C581.4,397.5,579.9,396.1,578.4,394.9z"/>
			<line class="st7" x1="474.2" y1="546" x2="164" y2="546"/>
			<path class="st22" d="M574.3,423.5c-5.5-2.1-13.2,0-23.9,9.8c-38.1,34.9-44.4,25.9-49.5-10.6c-32.2-229.3-25.3,44.5-61.4,33.9
				c-34.4-10.1-30.5-191.1-69.9-2.5c-17.1,82-66.6,102.3-101.5,27.9s-79.3-132.5-95.2-62.8s0,104.6-41.2,60.4
				c-21-22.5-36.7-22.1-47-16.2c20.5,32.7,47.5,60.7,79.4,82.4h310.2C518.7,515.7,553.5,473.2,574.3,423.5z"/>
			<path class="st13" d="M574,424.4l0.4-0.9C574.2,423.8,574.1,424.1,574,424.4L574,424.4z"/>
			<path class="st13" d="M85,464.5L85,464.5c-0.1-0.3-0.3-0.6-0.5-0.9L85,464.5z"/>
			<path class="st23" d="M549.7,432.6c-18.8,17.2-29.6,23.6-36.2,21.2c-6.4-2.3-9.2-13.6-11.7-31.2c-11.4-81.4-17.1-92.6-21.4-92.7
				l0,0c-5.1,0-7.9,15.9-12.9,46.4c-5.2,31.9-11.6,71.6-22.7,78.6c-1.5,1-3.4,1.3-5.1,0.8c-12.2-3.6-19.8-31.2-25.9-53.4
				c-5.3-19.4-9.6-34.8-16-34.6c-5.6,0.2-13.4,10.6-29.2,86.2c-9,43.2-27.2,70.5-48.7,73c-18.1,2.1-36.2-14-50.9-45.3
				c-13.8-29.4-48.7-97.4-75.3-94.6c-9.9,1.1-17.2,11.8-21.8,32c-4.8,20.9-6.7,38.9-8.1,52.1c-1.7,15.4-2.8,25.6-6.8,27
				c-3.7,1.2-10.8-4.3-24.6-19.1c-22.1-23.7-38.4-22-48.2-16.4l0.5,0.9c0.2,0.3,0.4,0.6,0.5,0.9c13.2-7.5,29-1.9,45.7,16
				c15,16.1,22,21.2,26.7,19.7c5.2-1.7,6.3-11.3,8.1-28.7c1.4-13.1,3.3-31.1,8.1-51.9c4.4-19.3,11.1-29.5,20-30.5
				c17.5-1.9,44.9,33,73.3,93.4c14.2,30.2,31.7,46.6,49.6,46.6c1.1,0,2.3-0.1,3.4-0.2c22.4-2.6,41.2-30.5,50.4-74.5
				c4.4-20.9,17.6-84.4,27.3-84.7c0,0,0,0,0.1,0c4.9,0,9.5,16.8,14,33.1c6.6,23.8,14,50.9,27.3,54.7c2.3,0.7,4.7,0.3,6.7-1
				c11.9-7.5,18.2-46,23.6-80c2-12.2,3.8-23.7,5.7-32c2.7-11.8,4.6-12.7,5.2-12.7c0.7,0,3.3,1.4,7.5,19.6c3.4,14.9,7.3,38.2,12,71.3
				c2.6,18.8,5.6,30.1,13,32.8c7.4,2.7,18.5-3.6,38.2-21.6c9.3-8.5,17-11.8,22.9-9.6c0.1-0.3,0.3-0.6,0.4-0.9l0.3-0.9
				C568,420.1,559.7,423.5,549.7,432.6z"/>
			<polygon class="st22" points="85.1,464.4 77.7,469.7 74.7,550 185.5,550 153.5,524.7 97.5,465.7 			"/>
			<polygon class="st23" points="84,462.7 85.1,464.4 79.1,468.8 78.6,466.4 			"/>
			<polygon class="st20" points="84.3,462.6 79.5,465.8 76.9,458.9 78.2,455 80.6,454.6 83.7,455.1 85.8,457.8 			"/>
			<line class="st7" x1="66.9" y1="546" x2="66.9" y2="558.7"/>
			<path class="st5" d="M557.8,520.1"/>
			<path class="st5" d="M557.8,582.3"/>
			<rect x="352.1" y="548.3" class="st5" width="15" height="30.3"/>
			<rect x="243.8" y="548.3" class="st5" width="15" height="30.3"/>
			<rect x="134.3" y="548.3" class="st5" width="15" height="30.3"/>
			<rect x="67" y="48.2" class="st24" width="12.7" height="510.1"/>
			<polygon class="st24" points="73.6,55.8 104.3,67.4 73.6,28.6 42.1,67.4 			"/>
			<rect x="69.3" y="142.8" class="st24" width="30.3" height="15"/>
			<rect x="69.3" y="258.1" class="st24" width="30.3" height="15"/>
			<rect x="69.3" y="366.4" class="st24" width="30.3" height="15"/>
			<rect x="69.3" y="475.9" class="st24" width="30.3" height="15"/>
			<path class="st24" d="M66.9,546v12.7h117.7c-7.1-3.9-13.9-8.2-20.6-12.7H66.9z"/>
			<path class="st24" d="M163.9,546c6.7,4.5,13.5,8.7,20.6,12.7h269.1c7.1-3.9,13.9-8.2,20.6-12.7H163.9z"/>
			<path class="st24" d="M467.3,550.5c1.1-0.7,2.2-1.5,3.4-2.2h-3.4V550.5z"/>
			<rect x="352.1" y="548.3" class="st24" width="15" height="30.3"/>
			<rect x="243.8" y="548.3" class="st24" width="15" height="30.3"/>
			<rect x="134.3" y="548.3" class="st24" width="15" height="30.3"/>
		</g>
	</g>
	<path class="st3" d="M0,0L0,0L0,0z"/>
	<path class="st3" d="M633.9,633.9L633.9,633.9L633.9,633.9z"/>
	<path class="st3" d="M0,0L0,0L0,0z"/>
	<path class="st3" d="M633.9,633.9L633.9,633.9L633.9,633.9z"/>
	<path class="st3" d="M0,0L0,0L0,0z"/>
	<path class="st3" d="M633.9,633.9L633.9,633.9L633.9,633.9z"/>
	<path class="st3" d="M0,0L0,0L0,0z"/>
	<path class="st3" d="M633.9,633.9L633.9,633.9L633.9,633.9z"/>
</g>
</svg>
