<?xml version="1.0" encoding="utf-8"?>
<!-- Generator: Adobe Illustrator 21.0.0, SVG Export Plug-In . SVG Version: 6.00 Build 0)  -->
<svg version="1.1" id="Layer_1" xmlns="http://www.w3.org/2000/svg" xmlns:xlink="http://www.w3.org/1999/xlink" x="0px" y="0px"
	 viewBox="0 0 633.9 633.9" style="enable-background:new 0 0 633.9 633.9;" xml:space="preserve">
<style type="text/css">
	.st0{display:none;}
	.st1{display:inline;}
	.st2{fill:#FFFFFF;}
	.st3{fill:#CFD1D1;}
	.st4{fill:#ECF0F3;}
	.st5{fill:#D7FFDF;}
	.st6{fill:#FFA2A2;}
	.st7{fill:#EFAC9C;}
	.st8{fill:#E87C7C;}
	.st9{fill:#C4B637;}
	.st10{fill:#F0F042;}
	.st11{fill:#EFD343;}
	.st12{opacity:0.15;}
	.st13{fill:#3EC151;}
	.st14{fill:#42DF5A;}
	.st15{fill:#3DB24A;}
	.st16{fill:#3FB3CA;}
	.st17{fill:#43CEE5;}
	.st18{fill:#3CA3B4;}
</style>
<g id="Layer_1_2_" class="st0">
	<g id="Layer_1_1_" class="st1">
		<title>Abacus</title>
	</g>
</g>
<g id="Layer_2_copy" class="st0">
	<g class="st1">
		<circle cx="316.9" cy="316.9" r="289.9"/>
		<path class="st2" d="M0,0L0,0L0,0z"/>
		<path class="st2" d="M633.9,633.9L633.9,633.9L633.9,633.9z"/>
		<path class="st2" d="M0,0L0,0L0,0z"/>
		<path class="st2" d="M633.9,633.9L633.9,633.9L633.9,633.9z"/>
		<path class="st2" d="M0,0L0,0L0,0z"/>
		<path class="st2" d="M633.9,633.9L633.9,633.9L633.9,633.9z"/>
		<path class="st2" d="M0,0L0,0L0,0z"/>
		<path class="st2" d="M633.9,633.9L633.9,633.9L633.9,633.9z"/>
	</g>
</g>
<g>
	<g id="Layer_2_1_">
		<g>
			<circle class="st3" cx="316.9" cy="316.9" r="289.9"/>
			<path class="st2" d="M0,0L0,0L0,0z"/>
			<path class="st2" d="M633.9,633.9L633.9,633.9L633.9,633.9z"/>
			<path class="st2" d="M0,0L0,0L0,0z"/>
			<path class="st2" d="M633.9,633.9L633.9,633.9L633.9,633.9z"/>
			<path class="st2" d="M0,0L0,0L0,0z"/>
			<path class="st2" d="M633.9,633.9L633.9,633.9L633.9,633.9z"/>
			<path class="st2" d="M0,0L0,0L0,0z"/>
			<path class="st2" d="M633.9,633.9L633.9,633.9L633.9,633.9z"/>
		</g>
	</g>
	<g id="Layer_4">
		<g id="Layer_1_3_">
			<title>Abacus</title>
			<g id="Layer_2">
				<g id="Layer_14">
					<circle class="st3" cx="316.9" cy="316.5" r="289.9"/>
					<circle class="st4" cx="316.9" cy="316.5" r="276.5"/>
					<circle class="st5" cx="317" cy="316.1" r="276.5"/>
					<path class="st6" d="M593.5,297.9c0.1,3.3,0.2,17.3,0.2,20.6c0,71.9-28,137.4-73.9,186.5V121.2l0,0v-60c0-20,16.6-36.2,37-36.2
						s37,16.2,37,36.2v233.1C593.6,295.5,593.6,296.7,593.5,297.9z"/>
					<path class="st7" d="M590.7,52.2c-6.5-19.4-27.5-29.8-46.8-23.3c-11,3.7-19.6,12.3-23.3,23.3H590.7z"/>
					<path class="st8" d="M521.3,501.3v-442c0-6.1,1.5-12.1,4.4-17.4c6.1-6.5,16.2-6.8,22.7-0.7c3.2,3,5.1,7.3,5.1,11.7v405.8
						C544.1,473.9,533.3,488.2,521.3,501.3z"/>
					<path class="st9" d="M536.1,284.9c1,0,1.9,0.3,2.7,0.9c-1.8-4-4.2-6.4-6.8-6.4H43c-0.2,1.8-0.5,3.6-0.7,5.4h493.8V284.9z"/>
					<path class="st9" d="M538.8,320.7c-0.8,0.6-1.7,1-2.7,0.9H40.6c0,1.8,0.1,3.6,0.2,5.4H532C534.7,327,537,324.6,538.8,320.7z"/>
					<path class="st10" d="M539.1,320.1c-0.1,0.2-0.2,0.4-0.2,0.6c2.9-2.4,3.2-9.3,3.2-17.4c0,3.6-0.3,7.2-1.1,10.8
						C540.8,316.6,540.3,318.8,539.1,320.1z"/>
					<path class="st10" d="M538.8,285.8c2,4.3,3.2,10.5,3.2,17.4C542,295.1,541.7,288.2,538.8,285.8z"/>
					<path class="st10" d="M535.1,321.6h1c1,0,1.9-0.3,2.7-0.9c0.1-0.2,0.2-0.4,0.2-0.6C538,321.2,536.6,321.7,535.1,321.6z"/>
					<path class="st10" d="M42.3,284.9c-0.5,4.9-1,9.8-1.3,14.7h494.1c5.5,0,5.9,4.9,5.9,11c0,1.2,0,2.4-0.1,3.5
						c0.7-3.6,1.1-7.2,1.1-10.8c0-6.9-1.2-13.1-3.2-17.4c-0.8-0.6-1.7-1-2.7-0.9L42.3,284.9z"/>
					<path class="st11" d="M540.9,314c-0.4,2.1-1,4.1-1.8,6.1C540.3,318.8,540.8,316.6,540.9,314z"/>
					<path class="st11" d="M539.1,320.1c0.8-2,1.4-4,1.8-6.1c0.1-1.1,0.1-2.2,0.1-3.5c0-6.1-0.4-11-5.9-11H41
						c-0.3,5.5-0.5,11-0.5,16.5c0,1.9,0,3.7,0.1,5.6h494.5C536.6,321.7,538,321.2,539.1,320.1z"/>
					<path class="st9" d="M535.1,137.6h-6.9c1.5,1.8,3,3.6,4.4,5.4c2.4-0.4,4.5-2.7,6.1-6.3c-0.8,0.6-1.7,1-2.7,0.9L535.1,137.6
						L535.1,137.6z"/>
					<path class="st9" d="M536.1,100.9c1,0,1.9,0.3,2.7,0.9c-1.8-4-4.2-6.4-6.8-6.4h-48.3c2.3,1.8,4.7,3.6,7,5.4L536.1,100.9z"/>
					<path class="st9" d="M532.7,143c-1.5-1.8-2.9-3.6-4.4-5.4H105.9c-1.5,1.8-3,3.6-4.5,5.4H532C532.3,143,532.5,143,532.7,143z"/>
					<path class="st9" d="M490.7,100.9c-2.3-1.8-4.6-3.7-7-5.4H150.4c-2.3,1.8-4.7,3.6-7,5.4H490.7z"/>
					<path class="st10" d="M538.8,101.8c2,4.3,3.2,10.5,3.2,17.4C542,111.1,541.7,104.2,538.8,101.8z"/>
					<path class="st10" d="M539.1,136.1c-0.1,0.2-0.2,0.4-0.2,0.6c2.9-2.4,3.2-9.3,3.2-17.4c0,3.6-0.3,7.2-1.1,10.8
						C540.8,132.6,540.3,134.8,539.1,136.1z"/>
					<path class="st10" d="M535.1,137.6h1c1,0,1.9-0.3,2.7-0.9c0.1-0.2,0.2-0.4,0.2-0.6C538,137.2,536.6,137.7,535.1,137.6z"/>
					<path class="st10" d="M490.7,100.9c5.8,4.7,11.4,9.6,16.8,14.7h27.7c5.5,0,5.9,4.9,5.9,11c0,1.2,0,2.4-0.1,3.5
						c0.7-3.6,1.1-7.2,1.1-10.8c0-6.9-1.2-13.1-3.2-17.4c-0.8-0.6-1.7-1-2.7-0.9L490.7,100.9z"/>
					<path class="st10" d="M490.7,100.9H143.4c-5.8,4.7-11.4,9.6-16.8,14.7h380.8C502.1,110.4,496.5,105.5,490.7,100.9z"/>
					<path class="st11" d="M540.9,130c-0.4,2.1-1,4.1-1.8,6.1C540.3,134.8,540.8,132.6,540.9,130z"/>
					<path class="st11" d="M539.1,136.1c0.8-2,1.4-4,1.8-6.1c0.1-1.1,0.1-2.2,0.1-3.5c0-6.1-0.4-11-5.9-11h-27.7
						c7.3,7,14.3,14.3,20.8,22h6.9C536.6,137.7,538,137.2,539.1,136.1z"/>
					<path class="st11" d="M507.5,115.6H126.6c-7.3,7-14.3,14.3-20.8,22h422.4C521.7,129.9,514.8,122.5,507.5,115.6z"/>
					<path class="st9" d="M110.3,499.6c1.6,1.8,3.3,3.6,5,5.4h403.6c1.7-1.8,3.3-3.6,5-5.4H110.3z"/>
					<path class="st9" d="M536.1,462.9c1,0,1.9,0.3,2.7,0.9c-1.8-4-4.2-6.4-6.8-6.4H79.4c1.1,1.8,2.2,3.6,3.3,5.4h453.4V462.9z"/>
					<path class="st10" d="M538.8,463.8c1.7,4.2,2.8,8.7,3,13.3c0-0.1,0.1-0.1,0.1-0.2C541.8,470.7,541.2,465.8,538.8,463.8z"/>
					<path class="st10" d="M536.1,462.9H82.7c3.1,5,6.4,9.9,9.9,14.7h442.5c1.9-0.2,3.7,0.8,4.6,2.4c0.7-1,1.4-1.9,2.1-2.9
						c-0.3-4.6-1.3-9-3-13.3C538.1,463.2,537.1,462.9,536.1,462.9z"/>
					<path class="st11" d="M535.1,477.6H92.6c5.5,7.6,11.4,15,17.7,22h413.5c5.6-6.3,10.9-12.8,15.9-19.6
						C538.8,478.3,537,477.4,535.1,477.6z"/>
					<g class="st12">
						<path d="M536.2,284.9c1,0,1.9,0.3,2.7,0.9c-1.8-4-4.1-6.4-6.7-6.4H319.8l-3.1,5.4h219.5L536.2,284.9L536.2,284.9z"/>
						<path d="M221.2,279.4H43c-0.2,1.8-0.5,3.6-0.7,5.4h179.2L221.2,279.4z"/>
						<path d="M40.6,321.6c0,1.8,0.1,3.6,0.2,5.4H224l-0.3-5.4H40.6z"/>
						<path d="M535.2,321.6H295.9l-3.1,5.4h239.3c2.6,0,4.9-2.4,6.7-6.4c-0.7,0.6-1.7,1-2.7,0.9h-0.9L535.2,321.6L535.2,321.6z"/>
						<path d="M540.9,314c-0.2,2.6-0.6,4.7-1.8,6.1c-0.1,0.2-0.2,0.4-0.2,0.6c2.9-2.4,3.2-9.3,3.2-17.4
							C542,306.9,541.6,310.5,540.9,314z"/>
						<path d="M538.8,285.8c2,4.3,3.2,10.5,3.2,17.4C542,295.1,541.7,288.2,538.8,285.8z"/>
						<path d="M535.1,321.6h1c1,0,1.9-0.3,2.7-0.9c0.1-0.2,0.2-0.4,0.2-0.6C538,321.2,536.6,321.7,535.1,321.6z"/>
						<path d="M316.7,284.9l-8.3,14.7h226.8c5.4,0,5.8,4.9,5.8,11c0,1.2,0,2.4-0.1,3.5c0.7-3.6,1.1-7.2,1.1-10.8
							c0-6.9-1.2-13.1-3.1-17.4c-0.7-0.6-1.7-1-2.7-0.9H316.7V284.9z"/>
						<path d="M221.5,284.9H42.3c-0.5,4.9-1,9.8-1.3,14.7h181.3L221.5,284.9z"/>
						<path d="M540.9,314c-0.4,2.1-1,4.1-1.8,6.1C540.3,318.8,540.8,316.6,540.9,314z"/>
						<path d="M222.4,299.6H41c-0.3,5.5-0.5,11-0.5,16.5c0,1.9,0,3.7,0.1,5.6h183.1L222.4,299.6z"/>
						<path d="M535.2,299.6H308.4l-12.5,22h239.3c1.5,0.1,2.9-0.4,3.9-1.5c0.8-2,1.4-4,1.8-6.1c0.1-1.1,0.1-2.2,0.1-3.5
							C541,304.5,540.6,299.6,535.2,299.6z"/>
					</g>
					<g class="st12">
						<path d="M105.9,137.6c-1.5,1.8-3,3.6-4.5,5.4h117.5l-0.6-5.4H105.9z"/>
						<polygon points="307.6,137.6 306.1,143 478.6,143 477.1,137.6 						"/>
						<path d="M213.6,95.4h-63.2c-2.3,1.8-4.7,3.6-7,5.4h70.8L213.6,95.4z"/>
						<polygon points="465.3,95.4 319.2,95.4 317.7,100.9 466.8,100.9 						"/>
						<polygon points="466.8,100.9 317.7,100.9 313.7,115.6 470.9,115.6 						"/>
						<path d="M214.2,100.9h-70.8c-5.8,4.7-11.4,9.6-16.8,14.7h89.2L214.2,100.9z"/>
						<path d="M215.8,115.6h-89.2c-7.3,7-14.3,14.3-20.8,22h112.5L215.8,115.6z"/>
						<polygon points="470.9,115.6 313.7,115.6 307.6,137.6 477.1,137.6 						"/>
					</g>
					<g class="st12">
						<path d="M280,505h238.9c1.7-1.8,3.3-3.6,5-5.4H281.2L280,505z"/>
						<path d="M110.3,499.6c1.6,1.8,3.3,3.6,5,5.4h136.1l-0.5-5.4H110.3z"/>
						<path d="M246.7,457.4H79.4c1.1,1.8,2.2,3.6,3.3,5.4h164.5L246.7,457.4z"/>
						<path d="M536.1,462.9c1,0,1.9,0.3,2.7,0.9c-1.8-4-4.2-6.4-6.8-6.4H291.1l-1.3,5.4h246.3L536.1,462.9L536.1,462.9z"/>
						<path d="M538.8,463.8c1.7,4.2,2.8,8.7,3,13.3c0-0.1,0.1-0.1,0.1-0.2C541.8,470.7,541.2,465.8,538.8,463.8z"/>
						<path d="M247.2,462.9H82.7c3.1,5,6.4,9.9,9.9,14.7h156.1L247.2,462.9z"/>
						<path d="M536.1,462.9H289.8l-3.4,14.7h248.7c1.9-0.2,3.7,0.8,4.6,2.4c0.7-1,1.4-1.9,2.1-2.9c-0.3-4.6-1.3-9-3-13.3
							C538.1,463.2,537.1,462.9,536.1,462.9z"/>
						<path d="M535.1,477.6H286.4l-5.2,22h242.6c5.6-6.3,10.9-12.8,15.9-19.6C538.8,478.3,537,477.4,535.1,477.6z"/>
						<path d="M248.7,477.6H92.6c5.5,7.6,11.4,15,17.7,22h140.5L248.7,477.6z"/>
					</g>
					<path class="st13" d="M205.6,82.1v81.6c0,16.9-13.7,30.6-30.6,30.6s-30.6-13.7-30.6-30.6v-63.6C161.8,86.2,180.8,74.4,201,65
						C204,70.2,205.6,76.1,205.6,82.1z M130.3,112.3v51.5c0,16.9-13.7,30.6-30.6,30.6c-9.8,0-18.5-5.6-24.1-12.8
						C90,155.7,108.5,132.3,130.3,112.3z M109.1,374.7c-16.9,0-30.6-13.7-30.6-30.6v-81.6c0-16.9,13.7-30.6,30.6-30.6
						s30.6,13.7,30.6,30.6v81.6C139.7,361,126,374.7,109.1,374.7z M108.3,497.5v-56.1c0-16.9,13.7-30.6,30.6-30.6
						s30.6,13.7,30.6,30.6l0,0l0,0V523c0,8-3.1,15.7-8.7,21.4C141.4,531,123.7,515.3,108.3,497.5L108.3,497.5z M146,344.1v-81.6
						c0-16.9,13.7-30.6,30.6-30.6s30.6,13.7,30.6,30.6v81.6c0,16.9-13.7,30.6-30.6,30.6S146,361,146,344.1z M241.7,441.4V523
						c0,16.9-13.7,30.6-30.6,30.6s-30.6-13.7-30.6-30.6v-81.6c0-16.9,13.7-30.6,30.6-30.6S241.7,424.5,241.7,441.4L241.7,441.4
						L241.7,441.4L241.7,441.4z M69.1,262.6v81.6c0,13.7-9.1,25.8-22.4,29.4c-9.6-45.8-7.4-93.2,6.2-138
						C62.9,240.9,69.1,251.3,69.1,262.6z"/>
					<path class="st14" d="M204.8,450c-7.4,0-13.3-6-13.3-13.3c0-7.4,6-13.3,13.3-13.3c7.4,0,13.3,6,13.3,13.3l0,0l0,0
						C218.1,444.1,212.2,450,204.8,450z M170.3,271.2c-7.4,0-13.3-6-13.3-13.3c0-7.4,6-13.3,13.3-13.3s13.3,6,13.3,13.3l0,0l0,0
						C183.6,265.2,177.6,271.2,170.3,271.2z M131.1,450c-7.4,0-13.3-6-13.3-13.3c0-7.4,6-13.3,13.3-13.3c7.4,0,13.3,6,13.3,13.3l0,0
						l0,0C144.4,444.1,138.4,450,131.1,450z M102.8,271.2c-7.4,0-13.3-6-13.3-13.3c0-7.4,6-13.3,13.3-13.3s13.3,6,13.3,13.3l0,0l0,0
						C116.2,265.2,110.2,271.2,102.8,271.2z"/>
					<path class="st15" d="M191.2,70.8c2.9-1.5,5.8-2.9,8.7-4.3c2.6,4.1,4,9,4.1,13.9v83.5c0,15.1-13,27.3-29,27.3s-29-12.2-29-27.3
						v-6.6c5.1,5.3,12.2,8.3,19.6,8.2c14.6,0,26.5-11.1,26.5-24.9V82.8C192.2,78.8,191.9,74.8,191.2,70.8z M111.5,239.8
						c0,0-9.5-4.7-2.4-4.7c16,0,29,12.2,29,27.3v83.5c0,15.1-13,27.3-29,27.3s-29-12.2-29-27.3v-6.6c5.1,5.3,12.2,8.3,19.6,8.2
						c14.6,0,26.5-11.1,26.5-24.9v-57.8C126.2,251.1,124.9,242.2,111.5,239.8z M152.8,501.4v-57.8c0-13.7-1.3-22.6-14.7-25
						c0,0-9.5-4.7-2.4-4.7c16,0,29,12.2,29,27.3v83.5c0,6.5-2.5,12.8-6.9,17.7c-7.8-5.5-15.2-11.4-22.4-17.6
						C145.6,521.3,152.8,512.2,152.8,501.4z M178.9,239.8c0,0-9.5-4.7-2.4-4.7c16,0,29,12.2,29,27.3v83.5c0,15.1-13,27.3-29,27.3
						s-29-12.2-29-27.3v-6.6c5.1,5.3,12.2,8.3,19.6,8.2c14.6,0,26.5-11.1,26.5-24.9v-57.8C193.6,251.1,192.4,242.2,178.9,239.8
						L178.9,239.8z M213.4,418.7c0,0-9.5-4.7-2.4-4.7c16,0,29,12.2,29,27.3v83.5c0,15.1-13,27.3-29,27.3s-29-12.2-29-27.3v-6.6
						c5.1,5.3,12.2,8.3,19.6,8.2c14.6,0,26.5-11.1,26.5-24.9v-57.8C228.1,429.9,226.9,421,213.4,418.7L213.4,418.7z M67.5,262.4
						v83.5c0,12.5-8.9,23-21.1,26.2c-1.9-9.2-3.3-18.5-4.2-27.9c8.1-4.2,13.2-12.5,13.4-21.6v-57.8c0-9.3-0.6-16.3-5.1-20.6
						c0.5-2,1.1-3.9,1.7-5.9C61.3,242.9,67.5,252,67.5,262.4z M128.7,114.7v49.2c0,15.1-13,27.3-29,27.3c-8.9,0.1-17.3-3.8-23-10.6
						c3-5.2,6.1-10.4,9.4-15.4c1.4,0.2,2.8,0.3,4.2,0.3c14.6,0,26.5-11.1,26.5-24.9v-14.1C120.6,122.5,124.6,118.5,128.7,114.7z"/>
					<path class="st16" d="M349.1,51.6c16.9,0,30.6,13.7,30.6,30.6v81.6c0,16.9-13.7,30.6-30.6,30.6s-30.6-13.7-30.6-30.6V82.1
						C318.5,65.2,332.2,51.6,349.1,51.6z M506.8,441.4v75.8c-13.3,12.6-27.8,23.8-43.4,33.6c-10.9-5-17.8-15.8-17.8-27.8v-81.6
						c0-16.9,13.7-30.6,30.6-30.6S506.8,424.5,506.8,441.4L506.8,441.4L506.8,441.4z M455,344.1c0,16.9-13.7,30.6-30.6,30.6
						s-30.6-13.7-30.6-30.6l0,0v-81.6c0-16.9,13.7-30.6,30.6-30.6s30.6,13.7,30.6,30.6V344.1z M424.4,51.6
						c16.9,0,30.6,13.7,30.6,30.6v81.6c0,16.9-13.7,30.6-30.6,30.6s-30.6-13.7-30.6-30.6V82.1C393.8,65.2,407.5,51.6,424.4,51.6z
						 M349.1,374.7c-16.9,0-30.6-13.7-30.6-30.6v-81.6c0-16.9,13.7-30.6,30.6-30.6s30.6,13.7,30.6,30.6l0,0v81.6
						C379.7,361,366,374.7,349.1,374.7z M402.5,410.8c16.9,0,30.6,13.7,30.6,30.6V523c0,16.9-13.7,30.6-30.6,30.6
						s-30.6-13.7-30.6-30.6l0,0v-81.6C371.9,424.5,385.6,410.8,402.5,410.8L402.5,410.8z M357.8,441.4V523
						c0,16.9-13.7,30.6-30.6,30.6s-30.6-13.7-30.6-30.6l0,0v-81.6c0-16.9,13.7-30.6,30.6-30.6S357.7,424.5,357.8,441.4L357.8,441.4
						L357.8,441.4L357.8,441.4z M499.7,374.7c-16.9,0-30.6-13.7-30.6-30.6v-81.6c0-16.9,13.7-30.6,30.6-30.6
						c16.9,0,30.6,13.7,30.6,30.6v81.6C530.3,361,516.6,374.7,499.7,374.7L499.7,374.7z"/>
					<path class="st17" d="M495,271.2c-7.4,0-13.3-6-13.3-13.3c0-7.4,6-13.3,13.3-13.3c7.4,0,13.3,6,13.3,13.3l0,0l0,0
						C508.4,265.2,502.4,271.2,495,271.2z M488,436.7c0,7.4-6,13.3-13.3,13.3c-7.4,0-13.3-6-13.3-13.3c0-7.4,6-13.3,13.3-13.3l0,0
						l0,0C482,423.4,488,429.3,488,436.7z M419.7,271.2c-7.4,0-13.3-6-13.3-13.3c0-7.4,6-13.3,13.3-13.3c7.4,0,13.3,6,13.3,13.3l0,0
						l0,0C433.1,265.2,427.1,271.2,419.7,271.2z M418.2,90.8c-7.4,0-13.3-6-13.3-13.3c0-7.4,6-13.3,13.3-13.3
						c7.4,0,13.3,6,13.3,13.3l0,0l0,0C431.5,84.8,425.5,90.8,418.2,90.8z M412.7,436.7c0,7.4-6,13.3-13.3,13.3
						c-7.4,0-13.3-6-13.3-13.3c0-7.4,6-13.3,13.3-13.3l0,0l0,0C406.7,423.4,412.7,429.3,412.7,436.7z M342.9,90.8
						c-7.4,0-13.3-6-13.3-13.3c0-7.4,6-13.3,13.3-13.3c7.4,0,13.3,6,13.3,13.3l0,0l0,0C356.2,84.8,350.2,90.8,342.9,90.8z
						 M341.3,244.5c7.4,0,13.3,6,13.3,13.3c0,7.4-6,13.3-13.3,13.3c-7.4,0-13.3-6-13.3-13.3l0,0l0,0
						C328,250.5,333.9,244.5,341.3,244.5L341.3,244.5z M334.2,436.7c0,7.4-6,13.3-13.3,13.3c-7.4,0-13.3-6-13.3-13.3
						c0-7.4,6-13.3,13.3-13.3l0,0l0,0C328.3,423.4,334.2,429.3,334.2,436.7z"/>
					<path class="st18" d="M528.8,262.4v83.5c0,15.1-13,27.3-29,27.3s-29-12.2-29-27.3v-6.6c5.1,5.3,12.2,8.3,19.6,8.2
						c14.6,0,26.5-11.1,26.5-24.9v-57.8c0-13.7-1.3-22.6-14.7-25c0,0-9.5-4.7-2.4-4.7C515.8,235.1,528.8,247.3,528.8,262.4z
						 M440.4,69.7c4.3,2.1,8.5,4.4,12.7,6.8c0.2,1.3,0.3,2.6,0.3,4V164c0,15.1-13,27.3-29,27.3s-29-12.2-29-27.3v-6.6
						c5.1,5.3,12.2,8.3,19.6,8.2c14.6,0,26.5-11.1,26.5-24.9V82.8C441.7,78.4,441.3,74,440.4,69.7z M419.5,501.4v-57.8
						c0-13.7-1.3-22.6-14.7-25c0,0-9.5-4.7-2.4-4.7c16,0,29,12.2,29,27.3v83.5c0,15.1-13,27.3-29,27.3s-29-12.2-29-27.3v-6.6
						c5.1,5.3,12.2,8.3,19.6,8.2C407.7,526.3,419.5,515.2,419.5,501.4z M378.2,345.9c0,15.1-13,27.3-29,27.3s-29-12.2-29-27.3v-6.6
						c5.1,5.3,12.2,8.3,19.6,8.2c14.6,0,26.5-11.1,26.5-24.9v-57.8c0-13.7-1.3-22.6-14.7-25c0,0-9.5-4.7-2.4-4.7
						c16,0,29,12.2,29,27.3V345.9z M351.5,57.8c0,0-9.5-4.7-2.4-4.7c16,0,29,12.2,29,27.3v83.5c0,15.1-13,27.3-29,27.3
						s-29-12.2-29-27.3v-6.6c5.1,5.3,12.2,8.3,19.6,8.2c14.6,0,26.5-11.1,26.5-24.9V82.8C366.2,69.1,364.9,60.2,351.5,57.8z
						 M426.8,239.8c0,0-9.5-4.7-2.4-4.7c16,0,29,12.2,29,27.3v83.5c0,15.1-13,27.3-29,27.3s-29-12.2-29-27.3v-6.6
						c5.1,5.3,12.2,8.3,19.6,8.2c14.6,0,26.5-11.1,26.5-24.9v-57.8C441.5,251.1,440.2,242.2,426.8,239.8L426.8,239.8z M480.1,418.7
						c0,0-9.5-4.7-2.4-4.7c16,0,29,12.2,29,27.3v75.9c-12.7,12-26.5,22.8-41.2,32.3c-9.9-4.3-16.8-13.8-16.8-24.7v-6.6
						c5.1,5.3,12.2,8.3,19.6,8.2c14.6,0,26.5-11.1,26.5-24.9v-57.8C494.8,429.9,493.6,421,480.1,418.7z M344.2,501.4v-57.8
						c0-13.7-1.3-22.6-14.7-25c0,0-9.5-4.7-2.4-4.7c16,0,29,12.2,29,27.3v83.5c0,15.1-13,27.3-29,27.3s-29-12.2-29-27.3v-6.6
						c5.1,5.3,12.2,8.3,19.6,8.2C332.4,526.3,344.2,515.2,344.2,501.4L344.2,501.4z"/>
				</g>
			</g>
		</g>
	</g>
	<path class="st2" d="M0,0L0,0L0,0z"/>
	<path class="st2" d="M633.9,633.9L633.9,633.9L633.9,633.9z"/>
	<path class="st2" d="M0,0L0,0L0,0z"/>
	<path class="st2" d="M633.9,633.9L633.9,633.9L633.9,633.9z"/>
	<path class="st2" d="M0,0L0,0L0,0z"/>
	<path class="st2" d="M633.9,633.9L633.9,633.9L633.9,633.9z"/>
	<path class="st2" d="M0,0L0,0L0,0z"/>
	<path class="st2" d="M633.9,633.9L633.9,633.9L633.9,633.9z"/>
</g>
</svg>
