<?xml version="1.0" encoding="utf-8"?>
<!-- Generator: Adobe Illustrator 21.0.0, SVG Export Plug-In . SVG Version: 6.00 Build 0)  -->
<svg version="1.1" id="Layer_2_2_" xmlns="http://www.w3.org/2000/svg" xmlns:xlink="http://www.w3.org/1999/xlink" x="0px" y="0px"
	 viewBox="0 0 633.9 633.9" style="enable-background:new 0 0 633.9 633.9;" xml:space="preserve">
<style type="text/css">
	.st0{fill:#CFD1D1;}
	.st1{fill:#6ED9FF;}
	.st2{fill:#FAFCFF;}
	.st3{fill:#DCDEE2;}
	.st4{fill:#F4D038;}
	.st5{fill:#F2AC3B;}
	.st6{fill:#FFFFFF;}
	.st7{fill:#EDEEF0;}
	.st8{fill:#99856A;}
	.st9{fill:#A59174;}
	.st10{opacity:0.6;fill:#89663F;enable-background:new    ;}
	.st11{fill:#AA8A57;}
	.st12{opacity:0.5;fill:#96764B;enable-background:new    ;}
	.st13{opacity:0.4;fill:#96764B;enable-background:new    ;}
	.st14{fill:#C6D7E2;}
	.st15{fill:#878787;}
	.st16{fill:#D8D9DD;}
	.st17{fill:#B7B9C0;}
</style>
<g>
	<g id="Layer_7_1_">
		<g>
			<circle class="st0" cx="316.9" cy="316.9" r="289.9"/>
			<ellipse class="st1" cx="317.2" cy="317" rx="276.5" ry="276.5"/>
			<path class="st2" d="M150.6,227.5h-21.1v99.7c-16.2,9.3-30,22.4-40,38.3c-11.6,18.3-17.7,39.4-17.7,61.1
				c0,63.1,51.3,114.5,114.5,114.5s114.5-51.3,114.5-114.5c0-21.7-6.1-42.8-17.7-61.1c-10-15.9-23.8-29-40-38.3v-99.7H222
				L150.6,227.5L150.6,227.5z"/>
			<path class="st3" d="M283,365.4c-10-15.9-23.8-29-40-38.3v-99.7h-21.1h-35.6V541c63.1,0,114.5-51.3,114.5-114.5
				C300.7,404.8,294.5,383.7,283,365.4z"/>
			<path class="st4" d="M96.3,401.3c-2.3,8.1-3.5,16.6-3.5,25.2c0,51.5,41.9,93.3,93.3,93.3s93.3-41.9,93.3-93.3
				c0-8.6-1.2-17.1-3.5-25.2H96.3z"/>
			<path class="st5" d="M276.1,401.3h-89.9v118.5c51.5,0,93.3-41.9,93.3-93.3C279.5,417.9,278.3,409.5,276.1,401.3z"/>
			<circle class="st6" cx="136" cy="460.9" r="11.9"/>
			<circle class="st7" cx="233.9" cy="480" r="11.9"/>
			<g>
				<path class="st8" d="M544.9,530H542c-6.6,0-12,5.4-12,12v47.9c0,2,1.6,3.6,3.6,3.6h19.6c2,0,3.6-1.6,3.6-3.6V542
					C556.9,535.4,551.5,530,544.9,530z"/>
				<path class="st8" d="M406.7,536h-27.1v50.4c9.2-2.1,18.3-4.7,27.1-7.7V536z"/>
				<path class="st8" d="M560.9,544h-189c-6.6,0-12-5.4-12-12v-4.2c0-6.6,5.4-12,12-12h189c6.6,0,12,5.4,12,12v4.2
					C572.9,538.6,567.5,544,560.9,544z"/>
				<path class="st9" d="M560.9,540h-189c-6.6,0-12-5.4-12-12v-4.2c0-6.6,5.4-12,12-12h189c6.6,0,12,5.4,12,12v4.2
					C572.9,534.6,567.5,540,560.9,540z"/>
				<path class="st9" d="M316.9,573.7v-8c0-5.7-4.7-2.4-10.4-2.4h-115c9.4,4.8,19.1,9.1,29.1,12.8h86
					C312.2,576,316.9,579.4,316.9,573.7z"/>
				<path class="st8" d="M316.9,573.7v-8c0-5.7-4.7,1.6-10.4,1.6h-107c9.4,4.8,11.1,5.1,21.1,8.8h86
					C312.2,576,316.9,579.4,316.9,573.7z"/>
				<path class="st9" d="M306.5,398c-5.7,0-10.4,4.7-10.4,10.4v184.2c6.9,0.5,13.8,0.8,20.8,0.8v-185
					C316.9,402.7,312.3,398,306.5,398z"/>
				<path class="st8" d="M306.5,398c-5.7,0-10.4,4.7-10.4,10.4v184.2c6.9,0.5,3.8,0.8,10.8,0.8v-185
					C306.9,402.7,312.3,398,306.5,398z"/>
				<polygon class="st10" points="299.7,563.5 303.4,568 302.7,576 289.4,576 296.4,567.3 				"/>
				<path class="st8" d="M316.9,411.1c0,0-9.8,5.7-20.8,0.4l-0.3,11.7c0,0,10,6.9,21-0.2L316.9,411.1z"/>
				<path class="st8" d="M316.9,415.3c0,0-6.8,3.3-20.7,0v18c0,0,9.9,5.9,20.7-0.1V415.3z"/>
				<path class="st11" d="M316.9,412.3c0,0-10.1,5.3-21,0v12c0,0,10,6.9,21-0.2V412.3z"/>
				<path class="st11" d="M316.9,412.3c0,0-10.1,5.3-21,0v12c0,0,10,6.9,21-0.2V412.3z"/>
				<path class="st9" d="M316.9,412.3c0,0-9.8,5.4-20.7,0.1l-0.3,11.8c0,0,10,6.9,21-0.2V412.3z"/>
				<polyline class="st12" points="296.3,412.3 296.3,433 279.5,433 295.5,412.3 296.3,412.3 				"/>
				<polyline class="st13" points="316.9,412.3 316.9,433 328.7,433 317.7,412.3 316.9,412.3 				"/>
			</g>
			<g>
				<path class="st14" d="M391.2,351.5V511c0,7.9,7,12.5,15.4,16.9c8.5,4.4,31.6,7.9,64.2,7.9c36.5,0,54.1-7,60.2-10.4
					c6.1-3.4,14.4-6.5,14.4-14.4V351.5H391.2z"/>
				<path class="st2" d="M400.5,351.5V501c0,7.4,5.7,13.5,12.7,13.5h110.5c7,0,12.7-6.1,12.7-13.5V351.5H400.5z"/>
				<path class="st6" d="M406.7,511.9c0,4.4,27.8,7.9,61.8,7.9s61.5-3.5,61.5-7.9s-27.6-7.9-61.5-7.9
					C434.5,504,406.7,507.6,406.7,511.9z"/>
				<path class="st4" d="M530,428v76c0,4.4-27.5,7.9-61.5,7.9s-61.8-3.6-61.8-7.9v-76H530z"/>
				
					<ellipse transform="matrix(3.407130e-02 -0.9994 0.9994 3.407130e-02 -43.6804 957.0401)" class="st6" cx="473.3" cy="501.1" rx="6.4" ry="6.4"/>
				
					<ellipse transform="matrix(3.416100e-02 -0.9994 0.9994 3.416100e-02 -13.9415 945.8401)" class="st6" cx="482.4" cy="480.1" rx="3.2" ry="3.2"/>
				
					<ellipse transform="matrix(3.369226e-02 -0.9994 0.9994 3.369226e-02 3.229 958.1001)" class="st6" cx="497.1" cy="477.4" rx="0.8" ry="0.9"/>
				
					<ellipse transform="matrix(3.435068e-02 -0.9994 0.9994 3.435068e-02 -31.4343 890.1609)" class="st6" cx="444.9" cy="461.3" rx="4.4" ry="4.4"/>
				
					<ellipse transform="matrix(3.400155e-02 -0.9994 0.9994 3.400155e-02 0.7102 930.1423)" class="st6" cx="481.5" cy="464.7" rx="2.3" ry="2.3"/>
				
					<ellipse transform="matrix(3.421116e-02 -0.9994 0.9994 3.421116e-02 -58.4205 919.2365)" class="st6" cx="446.4" cy="489.8" rx="5.1" ry="5.1"/>
				
					<ellipse transform="matrix(0.3746 -0.9272 0.9272 0.3746 -116.903 695.7289)" class="st6" cx="457.3" cy="434.5" rx="5.4" ry="5.4"/>
				
					<ellipse transform="matrix(0.3748 -0.9271 0.9271 0.3748 -74.1378 693.6722)" class="st6" cx="477.3" cy="401.8" rx="2.5" ry="2.5"/>
				
					<ellipse transform="matrix(0.3745 -0.9272 0.9272 0.3745 -96.9603 660.1388)" class="st6" cx="440.8" cy="401.9" rx="5" ry="5"/>
				
					<ellipse transform="matrix(0.3746 -0.9272 0.9272 0.3746 -47.4487 692.2938)" class="st6" cx="489.5" cy="381.3" rx="2.5" ry="2.5"/>
				<ellipse class="st14" cx="468.4" cy="351.5" rx="88.5" ry="14.3"/>
				<ellipse class="st6" cx="468.4" cy="351.5" rx="77.9" ry="10"/>
				
					<ellipse transform="matrix(3.422113e-02 -0.9994 0.9994 3.422113e-02 -18.806 862.3195)" class="st6" cx="436.8" cy="440.9" rx="4.4" ry="4.4"/>
			</g>
			<path class="st3" d="M466.2,366.6l32.2-1.1l31.4-3.6l0.3,142c0,4.4-27.5,7.9-61.5,7.9"/>
			<path class="st5" d="M466.9,428H530v76c0,4.4-27.5,7.9-61.5,7.9"/>
			<path class="st15" d="M525.6,161.4c-8.3-0.8-18.1,2.7-25.1,9.1c-5.3,4.9-11.6,13.6-11.3,27.7c0.7,31.1,0,228.7,0,231.4h16
				c0-11,0.7-200.5,0-231.8c-0.1-6.5,1.9-11.7,6.1-15.6c4.6-4.2,10.3-5.3,12.9-5l20.1,0.5c3.8,0.1,7.6-0.3,11.2-1.1
				c-3-5.1-6.1-10-9.4-14.9c-0.5,0-1,0-1.5,0L525.6,161.4z"/>
			<path class="st15" d="M173.4,401.2l-5.1-284.8c-0.1-2.1-0.1-16.5,10.8-27.3c8.6-8.5,21.1-12.3,37.3-11.3l34.9,2.1
				c10.4,0.6,20.3,4.7,27.7,11.4c7.6,6.8,12.1,15.7,13.2,25.7c1.6,14.7,6.6,40.5,22.3,47.6c4.9,2.2,10.7,0.8,14.6-0.8
				c1-0.4,2-0.9,3-1.4c-7.8-8.2-13.7-19.8-17.7-34.9c-7.2-27.4,2.4-52,15.6-62.1c8.8-6.8,19-7.7,28.1-2.5c24.7,14,21.7,56,11.9,80
				c-2.5,6.1-6.1,12-10.4,17.2c1.8,0.3,3.3,0.4,4.3,0.5c4,0.3,10.8-1.9,18.5-6.5c-10.6-20.9-4.2-47.9-1.1-55.3l0.1-0.2
				c4.6-11.1,11.6-27.9,28-32.3c8.9-2.4,18.8,1.2,25,9.1c4.3,5.5,12.9,21.1-1.6,48c-8.2,15.2-18.3,26.1-27.2,33.6
				c0.2,0.1,0.3,0.2,0.5,0.3c4.8,3,10.5,4.6,16.7,4.5l20.7-0.5c3.5-0.5,14.6-1.4,23.6,6.2c7.6,6.4,11.3,16.7,11.1,30.6
				c-0.5,31.1,0,228.8,0,231.5h-16c0-2.7-0.5-200.5,0-231.7c0.1-6.1-0.8-14.2-5.4-18.2c-4.4-3.7-10.8-2.6-11.1-2.5l-0.6,0.1l-22,0.5
				c-9.3,0.1-18.1-2.3-25.5-7c-2-1.2-3.8-2.6-5.4-4c-10.8,6.6-21.5,10.2-29.4,9.7c-6.1-0.4-11.7-1.7-16.7-4
				c-3.6,2.5-7.4,4.6-11.2,6.2c-9.8,3.9-19.2,4.1-27.1,0.5c-17.3-7.8-28.3-28.7-31.7-60.5c-0.7-6.1-3.3-11.3-8-15.5
				c-4.8-4.3-11.2-6.9-18-7.3l-34.9-2.1c-11.5-0.7-19.9,1.5-25.1,6.7c-6.4,6.3-6.1,15.2-6.1,15.3v0.3l5.1,284.9L173.4,401.2z
				 M346.4,75.5c-1.7,0-3.9,0.6-6.3,2.5c-8.8,6.8-15.3,25-9.9,45.4c3.9,14.9,9.5,23.8,15.1,29.1c4.3-4.6,8-10.1,10.3-15.7
				c8.9-22,8.7-52.3-5-60.1C349.8,76.3,348.4,75.5,346.4,75.5z M415.3,81.5c-0.5,0-1,0.1-1.4,0.2c-8.8,2.3-13.8,14.3-17.4,23
				l-0.1,0.2c-1.8,4.2-6.8,24.3-0.4,39.6c8.4-7.2,16.7-16.8,23.1-28.7c6.9-12.8,8.1-24.2,3.1-30.5C420.1,82.6,417.4,81.5,415.3,81.5
				z"/>
			<rect x="129.7" y="244.6" class="st16" width="113.3" height="22.2"/>
			<rect x="186.3" y="244.6" class="st17" width="56.6" height="22.2"/>
			<path class="st2" d="M123.6,216.9h125.1c5.1,0,9.2,4.1,9.2,9.2v15.7c0,5.1-4.1,9.2-9.2,9.2H123.6c-5.1,0-9.2-4.1-9.2-9.2v-15.7
				C114.3,221,118.5,216.9,123.6,216.9z"/>
			<rect x="392.1" y="364.6" class="st16" width="153.3" height="22.2"/>
			<rect x="468.7" y="364.6" class="st17" width="76.7" height="22.2"/>
			<path class="st2" d="M375.1,337.9h180.8c3.7,0,6.8,3,6.8,6.8v20.6c0,3.7-3,6.8-6.8,6.8H375.1c-3.7,0-6.8-3-6.8-6.8v-20.6
				C368.3,340.9,371.4,337.9,375.1,337.9z"/>
			<path class="st3" d="M465.6,336.9H562c2,0,3.6,3,3.6,6.8v20.6c0,3.7-1.6,6.8-3.6,6.8h-96.4c-2,0-3.6-3-3.6-6.8v-20.6
				C462,339.9,463.6,336.9,465.6,336.9z"/>
			<path class="st3" d="M186.3,216.9h63.5c4.5,0,8.1,3.6,8.1,8.1v17.9c0,4.5-3.6,8.1-8.1,8.1h-63.5L186.3,216.9L186.3,216.9z"/>
		</g>
		<path class="st9" d="M339.9,422.7c0-5.7-4.7-10.4-10.4-10.4H57.6c2.6,7.1,5.5,14,8.6,20.8h263.3
			C335.2,433,339.9,428.4,339.9,422.7z"/>
		<path class="st8" d="M339.9,422.7c0-5.7-4.7-0.4-10.4-0.4h-268c2.6,7.1,1.6,4,4.7,10.8h263.3C335.2,433,339.9,428.4,339.9,422.7z"
			/>
	</g>
	<path class="st6" d="M0,0L0,0L0,0z"/>
	<path class="st6" d="M633.9,633.9L633.9,633.9L633.9,633.9z"/>
	<path class="st6" d="M0,0L0,0L0,0z"/>
	<path class="st6" d="M633.9,633.9L633.9,633.9L633.9,633.9z"/>
	<path class="st6" d="M0,0L0,0L0,0z"/>
	<path class="st6" d="M633.9,633.9L633.9,633.9L633.9,633.9z"/>
	<path class="st6" d="M0,0L0,0L0,0z"/>
	<path class="st6" d="M633.9,633.9L633.9,633.9L633.9,633.9z"/>
</g>
</svg>
