<?xml version="1.0" encoding="utf-8"?>
<!-- Generator: Adobe Illustrator 21.0.0, SVG Export Plug-In . SVG Version: 6.00 Build 0)  -->
<svg version="1.1" id="Layer_1" xmlns="http://www.w3.org/2000/svg" xmlns:xlink="http://www.w3.org/1999/xlink" x="0px" y="0px"
	 viewBox="0 0 633.9 633.9" style="enable-background:new 0 0 633.9 633.9;" xml:space="preserve">
<style type="text/css">
	.st0{fill:#CFD1D1;}
	.st1{fill:#F4F4F4;}
	.st2{fill:#FFFFFF;}
	.st3{fill:none;stroke:#CFD1D1;stroke-width:10;stroke-linecap:square;stroke-linejoin:round;}
	.st4{opacity:0.15;fill:#005141;enable-background:new    ;}
	.st5{fill:#26DBBC;}
	.st6{fill:#19AE91;}
	.st7{fill:#009FCA;}
	.st8{fill:#28DDF8;}
	.st9{fill:#089CC4;}
	.st10{fill:#28DCF8;}
	.st11{opacity:0.15;enable-background:new    ;}
	.st12{fill:#DDA0EE;}
	.st13{fill:#C25EE4;}
	.st14{fill:#B16BCE;}
	.st15{opacity:0.1;fill:#FFFFFF;enable-background:new    ;}
</style>
<title>shape sort</title>
<g id="Layer_2">
	<g id="Layer_4">
		<circle class="st0" cx="316" cy="316.9" r="289.9"/>
		<circle class="st1" cx="309.6" cy="315.6" r="275.1"/>
		<circle class="st1" cx="316.6" cy="315.6" r="275.1"/>
		<polygon class="st2" points="0,0 0,0 0,0 		"/>
		<polygon class="st2" points="633.9,633.9 633.9,633.9 633.9,633.9 		"/>
		<path class="st0" d="M354.9,100.7l259.9,31.7l-31.7,259.9l-259.9-31.7L354.9,100.7 M354.9,90.7c-5,0-9.3,3.8-9.9,8.8l-31.7,259.9
			c-0.7,5.5,3.2,10.5,8.7,11.1l0,0l0,0l259.9,31.7c5.5,0.7,10.5-3.2,11.1-8.7l0,0l31.7-259.9c0.7-5.5-3.2-10.5-8.7-11.1l0,0
			L356.1,90.8C355.7,90.7,355.3,90.7,354.9,90.7z"/>
		<path class="st0" d="M364.9,113.4l237.2,28.9l-28.9,237.2L336,350.6L364.9,113.4 M364.9,103.4c-5.1,0-9.3,3.8-9.9,8.8l-29,237.2
			c-0.7,5.5,3.2,10.5,8.7,11.1l237.2,28.9c5.5,0.7,10.5-3.2,11.1-8.7l29-237.1c0.7-5.5-3.2-10.5-8.7-11.1l-237.2-28.9
			C365.7,103.5,365.3,103.4,364.9,103.4L364.9,103.4z"/>
		<path class="st0" d="M374.3,125.5L590,151.8l-26.3,215.6L348,341.2L374.3,125.5 M374.3,115.5c-5.1,0-9.3,3.8-9.9,8.8l-26.3,215.6
			c-0.7,5.5,3.2,10.5,8.7,11.1l215.6,26.3c5.5,0.7,10.5-3.2,11.1-8.7l0,0L599.9,153c0.7-5.5-3.2-10.5-8.7-11.1l-215.6-26.3
			C375.2,115.6,374.7,115.5,374.3,115.5L374.3,115.5z"/>
		<path class="st0" d="M320.3,80.2l215.3,25l79.2,27.2l-259.9-31.7l-31.3,256.9L291,328.2L320.3,80.2 M320.2,70.2
			c-5.1,0-9.3,3.8-9.9,8.8L281,327c-0.4,3.2,0.8,6.4,3.2,8.6l32.6,29.4c4.1,3.7,10.4,3.4,14.1-0.7c1.4-1.5,2.2-3.4,2.5-5.5l30.1-247
			l250,30.5c5.5,0.7,10.5-3.2,11.1-8.7c0.6-4.7-2.2-9.1-6.7-10.7l-79.2-27.2c-0.7-0.2-1.4-0.4-2.1-0.5l-215.3-25
			C321,70.2,320.6,70.2,320.2,70.2L320.2,70.2z"/>
		<path class="st0" d="M315.9,116.9c0,0,112.3,48.5,64.7,250.7l-57.4-7l-32.3-32.4L315.9,116.9 M315.9,106.9c-5.1,0-9.3,3.8-9.9,8.8
			L281,327c-0.4,3,0.7,6.1,2.8,8.2l32.3,32.4c1.6,1.6,3.7,2.6,5.9,2.9l57.4,7c5.1,0.6,9.8-2.7,10.9-7.6
			c11.1-47.3,14.6-90.3,10.2-128c-3.5-30.6-12.2-57.7-25.8-80.6c-23.5-39.7-53.6-53.1-54.9-53.6
			C318.6,107.2,317.3,106.9,315.9,106.9L315.9,106.9z"/>
		<path class="st0" d="M189.6,83.2c90.2,0,163.3,73.1,163.3,163.3s-73.1,163.3-163.3,163.3s-163.3-73-163.3-163.3l0,0
			C26.3,156.3,99.4,83.2,189.6,83.2L189.6,83.2L189.6,83.2 M189.6,73.2C94.1,73.3,16.9,150.8,17,246.2S94.6,419,190,418.9
			s172.7-77.6,172.6-173c-0.1-69.4-41.7-132-105.6-159C235.7,77.8,212.8,73.2,189.6,73.2z"/>
		<path class="st0" d="M189.6,100.2c90.2,0,163.3,73.1,163.3,163.3s-73.1,163.3-163.3,163.3s-163.3-73-163.3-163.3
			S99.4,100.2,189.6,100.2L189.6,100.2 M189.6,90.2C94.1,90.3,16.9,167.8,17,263.2S94.6,436,190,435.9s172.7-77.6,172.6-173
			c-0.1-69.4-41.7-132-105.6-159C235.7,94.8,212.8,90.2,189.6,90.2z"/>
		<path class="st0" d="M189.6,116.9c81,0,146.7,65.7,146.7,146.7s-65.7,146.7-146.7,146.7S42.9,344.5,42.9,263.5
			S108.6,116.9,189.6,116.9L189.6,116.9L189.6,116.9 M189.6,106.9c-86.5,0-156.7,70.1-156.7,156.7S103,420.3,189.6,420.3
			s156.7-70.1,156.7-156.7c0-41.6-16.5-81.4-45.9-110.8S231.1,106.9,189.6,106.9z"/>
		<path class="st0" d="M189.6,129.5c74,0,134,60,134,134s-60,134-134,134s-134-60-134-134S115.6,129.5,189.6,129.5L189.6,129.5
			L189.6,129.5 M189.6,119.5c-79.5,0-144,64.5-144,144s64.5,144,144,144s144-64.5,144-144c0-38.2-15.2-74.8-42.2-101.8
			S227.8,119.5,189.6,119.5z"/>
		<path class="st0" d="M350.1,233.3C366.7,322,308.3,407.4,219.6,424c-33.1,6.2-67.3,2-97.9-11.9L350.1,233.3 M350.1,223.3
			c-2.2,0-4.4,0.7-6.2,2.1L115.6,404.3c-4.3,3.4-5.1,9.7-1.7,14c1,1.3,2.3,2.3,3.7,2.9c87.2,39.7,190,1.3,229.7-85.9
			c14.8-32.5,19.2-68.8,12.6-103.9C359.1,226.8,354.9,223.3,350.1,223.3L350.1,223.3z"/>
		<path class="st0" d="M420.9,218.9l59,370l-330-107L420.9,218.9 M420.9,208.9c-2.6,0-5.1,1-7,2.8l-271,263
			c-4,3.8-4.1,10.2-0.2,14.1c1.1,1.2,2.5,2,4.1,2.5l330,107c5.3,1.7,10.9-1.2,12.6-6.4c0.5-1.5,0.6-3.1,0.4-4.7l-59-370
			C430,212.5,425.8,208.9,420.9,208.9L420.9,208.9z"/>
		<polyline class="st3" points="460.4,561.2 410.5,248.5 181.5,470.8 		"/>
		<polyline class="st3" points="450.9,546.2 405.9,263.6 198.9,464.4 		"/>
		<path class="st0" d="M392.3,210.9l28.7,8l-271,263l14.3-46.3L392.3,210.9 M392.3,200.9c-2.6,0-5.1,1-7,2.9l-228,224.7
			c-1.2,1.2-2,2.6-2.5,4.2L140.5,479c-1.6,5.3,1.3,10.9,6.6,12.5c3.5,1.1,7.3,0.2,9.9-2.4l271-263c4-3.8,4.1-10.2,0.2-14.1
			c-1.2-1.3-2.8-2.2-4.5-2.7l-28.7-8C394.1,201,393.2,200.9,392.3,200.9L392.3,200.9z"/>
		<path class="st4" d="M315.9,116.9c0,0,112.3,48.5,64.7,250.7l-57.4-7l-32.3-32.4L315.9,116.9z"/>
		
			<rect x="338.1" y="115.5" transform="matrix(0.121 -0.9927 0.9927 0.121 167.6228 682.2282)" class="st5" width="261.9" height="261.9"/>
		
			<rect x="349.5" y="127" transform="matrix(0.121 -0.9927 0.9927 0.121 167.5305 682.2112)" class="st6" width="239" height="239"/>
		
			<rect x="360.4" y="137.9" transform="matrix(0.121 -0.9927 0.9927 0.121 167.5306 682.2112)" class="st5" width="217.2" height="217.2"/>
		<polygon class="st6" points="535.6,105.2 614.8,132.4 354.9,100.7 323.6,357.6 290.9,328.2 320.3,80.2 		"/>
		<circle class="st7" cx="189.6" cy="246.5" r="163.3"/>
		<circle class="st8" cx="189.6" cy="263.5" r="163.3"/>
		<circle class="st9" cx="189.6" cy="263.5" r="146.7"/>
		<circle class="st10" cx="189.6" cy="263.5" r="134"/>
		<path class="st11" d="M121.8,412.2c82.1,37.4,179,1.2,216.5-80.9c14-30.6,18.1-64.8,11.9-97.9L121.8,412.2z"/>
		<polygon class="st12" points="420.9,218.9 149.9,481.9 479.9,588.9 		"/>
		<polyline class="st13" points="460.4,561.2 410.5,248.5 181.5,470.8 		"/>
		<polyline class="st12" points="450.9,546.2 405.9,263.6 198.9,464.4 		"/>
		<polygon class="st14" points="164.3,435.5 149.9,481.9 420.9,218.9 392.3,210.9 		"/>
	</g>
</g>
<path class="st2" d="M0,0L0,0L0,0z"/>
<path class="st2" d="M633.9,633.9L633.9,633.9L633.9,633.9z"/>
<path class="st2" d="M0,0L0,0L0,0z"/>
<path class="st2" d="M633.9,633.9L633.9,633.9L633.9,633.9z"/>
<path class="st2" d="M0,0L0,0L0,0z"/>
<path class="st2" d="M633.9,633.9L633.9,633.9L633.9,633.9z"/>
<path class="st2" d="M0,0L0,0L0,0z"/>
<path class="st2" d="M633.9,633.9L633.9,633.9L633.9,633.9z"/>
<rect x="633.6" y="633.6" class="st15" width="0.2" height="0.3"/>
<polygon class="st15" points="0,0 0,0 0,0 "/>
<rect class="st15" width="0.2" height="0.3"/>
</svg>
