<?xml version="1.0" encoding="utf-8"?>
<!-- Generator: Adobe Illustrator 21.0.0, SVG Export Plug-In . SVG Version: 6.00 Build 0)  -->
<svg version="1.1" id="Layer_1" xmlns="http://www.w3.org/2000/svg" xmlns:xlink="http://www.w3.org/1999/xlink" x="0px" y="0px"
	 viewBox="0 0 633.9 633.9" style="enable-background:new 0 0 633.9 633.9;" xml:space="preserve">
<style type="text/css">
	.st0{fill:#CFD1D1;}
	.st1{display:none;fill:#ECF0F3;}
	.st2{display:none;fill:#0C2433;}
	.st3{display:none;fill:#CFD1D1;}
	.st4{display:none;fill:#DDDEDF;}
	.st5{display:none;fill:none;}
	.st6{display:none;fill:#04A4AD;}
	.st7{display:none;fill:#0A7A7A;}
	.st8{display:none;fill:#9BBB59;}
	.st9{display:none;fill:#758E39;}
	.st10{display:none;fill:#2E93EF;}
	.st11{display:none;fill:#CE816A;}
	.st12{display:none;fill:#0968AF;}
	.st13{display:none;fill:#8CA1AA;}
	.st14{display:none;fill:#5A7684;}
	.st15{fill:#E3F3FF;}
	.st16{fill:#B2EFFF;}
	.st17{display:none;fill:#2487B9;}
	.st18{display:none;fill:#FFFFFF;}
	.st19{opacity:0.12;fill:#3A3839;enable-background:new    ;}
	.st20{fill:#61A2EF;}
	.st21{fill:#528ACF;}
	.st22{fill:#9ED04D;}
	.st23{fill:#86B143;}
	.st24{fill:#F9D026;}
	.st25{fill:#E7C224;}
	.st26{fill:#444242;}
	.st27{fill:#3A3839;}
	.st28{fill:#FFFFFF;}
</style>
<g id="Layer_4">
	<g id="Layer_2">
		<g id="Layer_15">
			<circle class="st0" cx="316.9" cy="316.9" r="289.9"/>
			<circle class="st1" cx="318.7" cy="317.4" r="276.5"/>
			<rect x="96.1" y="456.1" class="st2" width="442.7" height="11"/>
			<polygon class="st2" points="532.1,461 522.1,487.6 555.8,461 522.1,433.6 			"/>
			<rect x="443.6" y="458.1" class="st2" width="13" height="26.3"/>
			<rect x="343.6" y="458.1" class="st2" width="13" height="26.3"/>
			<rect x="249.6" y="458.1" class="st2" width="13" height="26.3"/>
			<rect x="154.6" y="458.1" class="st2" width="13" height="26.3"/>
			<rect x="96.1" y="456.1" class="st2" width="442.7" height="11"/>
			<polygon class="st2" points="532.1,461 522.1,487.6 555.8,461 522.1,433.6 			"/>
			<rect x="443.6" y="458.1" class="st2" width="13" height="26.3"/>
			<rect x="343.6" y="458.1" class="st2" width="13" height="26.3"/>
			<rect x="249.6" y="458.1" class="st2" width="13" height="26.3"/>
			<rect x="154.6" y="458.1" class="st2" width="13" height="26.3"/>
			<rect x="96.1" y="456.1" class="st2" width="442.7" height="11"/>
			<polygon class="st2" points="532.1,461 522.1,487.6 555.8,461 522.1,433.6 			"/>
			<rect x="443.6" y="458.1" class="st2" width="13" height="26.3"/>
			<rect x="343.6" y="458.1" class="st2" width="13" height="26.3"/>
			<rect x="249.6" y="458.1" class="st2" width="13" height="26.3"/>
			<rect x="154.6" y="458.1" class="st2" width="13" height="26.3"/>
			<rect x="96.1" y="456.1" class="st2" width="442.7" height="11"/>
			<polygon class="st2" points="532.1,461 522.1,487.6 555.8,461 522.1,433.6 			"/>
			<rect x="443.6" y="458.1" class="st2" width="13" height="26.3"/>
			<rect x="343.6" y="458.1" class="st2" width="13" height="26.3"/>
			<rect x="249.6" y="458.1" class="st2" width="13" height="26.3"/>
			<rect x="154.6" y="458.1" class="st2" width="13" height="26.3"/>
			<circle class="st3" cx="315.3" cy="316.6" r="290.1"/>
			<circle class="st1" cx="315.3" cy="316.6" r="279.6"/>
			<path class="st4" d="M557.3,176.6V220h-65v-65h51.1c-1.2-1.7-2.4-3.3-3.6-5h-47.5v-49.8c-1.7-1.4-3.3-2.7-5-4V150h-65V85h49.6
				c-2.5-1.7-5.1-3.4-7.7-5h-41.9V58.3c-1.7-0.7-3.3-1.4-5-2V80h-65V39.5c-1.7-0.2-3.3-0.4-5-0.6V80h-65V39c-1.7,0.2-3.3,0.4-5,0.6
				V80h-65V56.6c-1.7,0.7-3.3,1.3-5,2V80h-41.1c-2.6,1.6-5.1,3.3-7.7,5h48.7v65h-65V96.9c-1.7,1.3-3.3,2.7-5,4V150H90.7
				c-1.2,1.7-2.4,3.3-3.6,5h50.2v65h-65v-41.9c-1.7,3-3.4,6.1-5,9.2V220H52.8c-0.6,1.7-1.2,3.3-1.8,5h16.3v65H37
				c-0.2,1.7-0.3,3.3-0.4,5h30.8v65H39.1c0.3,1.7,0.5,3.3,0.8,5h27.4v65h-7.6c0.7,1.7,1.5,3.3,2.3,5h5.4v10.8c1.6,3.1,3.3,6.1,5,9.2
				v-20h65v65h-33c1.5,1.7,3,3.4,4.5,5h28.6v27.2c1.7,1.4,3.3,2.7,5,4V505h65v65h-10.2c5,2.3,10,4.5,15.2,6.6V575h65v18.6
				c1.7,0.2,3.3,0.4,5,0.6V575h65v19.3c1.7-0.2,3.3-0.4,5-0.6V575h65v1.9c5.4-2.1,10.8-4.4,16.1-6.9h-11.1v-65h65v31.9
				c1.7-1.3,3.3-2.7,5-4V505h29.4c1.5-1.6,3-3.3,4.5-5h-33.9v-65h65v21.5c1.7-3,3.4-6,5-9V435h6.2c0.8-1.7,1.5-3.3,2.3-5h-8.5v-65
				h28.3c0.3-1.7,0.6-3.3,0.8-5h-29.1v-65H594c-0.1-1.7-0.3-3.3-0.4-5h-31.2v-65h17.1c-0.6-1.7-1.2-3.3-1.8-5h-15.4v-34.3
				C560.7,182.6,559.1,179.6,557.3,176.6z M137.3,430h-65v-65h65V430z M137.3,360h-65v-65h65V360z M137.3,290h-65v-65h65V290z
				 M207.3,500h-65v-65h65V500z M207.3,430h-65v-65h65V430z M207.3,360h-65v-65h65V360z M207.3,290h-65v-65h65V290z M207.3,220h-65
				v-65h65V220z M277.3,570h-65v-65h65V570z M277.3,500h-65v-65h65V500z M277.3,430h-65v-65h65V430z M277.3,360h-65v-65h65V360z
				 M277.3,290h-65v-65h65V290z M277.3,220h-65v-65h65V220z M277.3,150h-65V85h65V150z M347.3,570h-65v-65h65V570z M347.3,500h-65
				v-65h65V500z M347.3,430h-65v-65h65V430z M347.3,360h-65v-65h65V360z M347.3,290h-65v-65h65V290z M347.3,220h-65v-65h65V220z
				 M347.3,150h-65V85h65V150z M417.3,570h-65v-65h65V570z M417.3,500h-65v-65h65V500z M417.3,430h-65v-65h65V430z M417.3,360h-65
				v-65h65V360z M417.3,290h-65v-65h65V290z M417.3,220h-65v-65h65V220z M417.3,150h-65V85h65V150z M487.3,500h-65v-65h65V500z
				 M487.3,430h-65v-65h65V430z M487.3,360h-65v-65h65V360z M487.3,290h-65v-65h65V290z M487.3,220h-65v-65h65V220z M557.3,430h-65
				v-65h65V430z M557.3,360h-65v-65h65V360z M557.3,290h-65v-65h65V290z"/>
			<line class="st5" x1="473.8" y1="546.3" x2="163.6" y2="546.3"/>
			<path class="st6" d="M595.1,326.3c-0.5-2.3-0.9-4.6-1.4-7c-20-107-91.5-252.9-120.3-135.6c-10.5,42.7-53.7,111.9-94.2,52.5
				C315.2,142.4,311,83.9,266.9,91s-56.1,115.1-68.2,175.7s-26.1,88.7-74.2,35.2s-56.1,81.6-56.1,81.6v51.7
				c21.2,44.9,54.1,83.3,95.2,111.2h310.1C547.2,496.7,592.3,414.8,595.1,326.3z"/>
			<path class="st7" d="M556.4,200.2c-18.5-38.9-37.2-60.5-52.7-61c-0.2,0-0.3,0-0.5,0c-13.2,0-23.5,14.9-30.7,44.2
				c-6.7,27.2-28.7,69.6-54.8,74.3c-13.2,2.4-25.9-5.1-37.6-22.2c-22.8-33.5-38-62.3-50.2-85.6c-21.9-41.8-34-64.8-63-60.1
				c-17.1,2.8-31,20.3-42.3,53.6c-9.7,28.4-15.9,63.4-21.4,94.2c-1.8,10.3-3.6,20-5.3,28.7c-6.9,34.6-14.3,58.4-28.2,62.2
				c-10.5,2.9-25-6.1-44.3-27.5c-9.6-10.7-18.5-14.8-26.4-12c-26.2,9.1-31.3,90.8-31.5,94.3V433c0.7,1.4,1.3,2.9,2,4.3v-53.8
				c0-0.8,5.3-83.8,30.2-92.5c7-2.5,15.2,1.4,24.2,11.5c20.1,22.3,34.8,31.3,46.3,28.1c14.9-4.1,22.6-28.5,29.6-63.8
				c1.7-8.8,3.5-18.5,5.3-28.8c10.5-59.2,25-140.2,62-146.2c27.6-4.5,39.5,18.1,61,59c12.2,23.3,27.4,52.2,50.3,85.8
				c12.2,17.8,25.5,25.6,39.6,23c27.3-4.9,49.4-47.3,56.4-75.8c7-28.7,16.9-43,29.2-42.7c14.7,0.4,32.8,21.7,51,59.8
				c16.5,34.6,30.7,78.9,38.1,118.4c0.2,1.1,1.2,5.9,2.2,11.1c0.1-2.9,0.2-5.9,0.3-8.9c-0.3-1.3-0.4-2.2-0.5-2.6
				C587.2,279.4,572.9,235,556.4,200.2z"/>
			<path class="st8" d="M525.8,408.6c-41.2,43.1-21.9,8.2-41.2-59C430.4,161,433.6,244,402,318.1c-59,138.5-60.6-106-113.7,65.5
				c-21.9,70.7-26.9-183.8-61.7-179.3s-36.4,113.5-45.9,152c-9.5,38.6-34.8,40.8-72.8,6.8s-38,27.2-38,27.2v47.9
				c15.5,31.8,37,60.4,63.2,84.1l180.1,10.6l190.9-10.7c36.3-32.9,63.3-74.8,78.1-121.5C573.9,390.9,555.1,378,525.8,408.6z"/>
			<path class="st9" d="M578.1,395.2c-10.4-8.6-28.1-13.3-53,12.7c-11.5,12-19.9,19.8-23.7,18.5c-3.3-1.1-4.2-9.4-5.6-22
				c-1.5-13.7-3.7-32.5-10.2-55.1C458,253,446.9,233.6,437.9,233.4h-0.1c-7.9,0-13.3,16.7-20.7,39.8c-4.4,13.7-9.4,29.2-15.9,44.5
				c-12.3,28.8-22.9,43.2-32.5,44c-9.1,0.8-16.5-10.8-23.7-22.1c-7.2-11.2-14-21.8-22.6-20.7c-10.6,1.4-21.7,21.9-34.9,64.4
				c-3.3,10.8-5.6,11.8-6.5,11.7c-1.4-0.1-4.4-3.1-8.4-21.6c-2.9-13.5-5.7-31.9-8.7-51.5c-8.7-56.7-18.6-121-37.3-118.5
				c-26.3,3.4-33.9,62.7-40.1,110.3c-2.2,17.3-4.1,32.2-6.7,42.4c-4,16.3-10.9,26.1-20.4,29c-12.5,3.9-29.6-3.8-50.7-22.7
				c-10.3-9.3-19-12.5-25.7-9.5c-13.8,6.2-14,36.2-14,37.4v45.8c0.7,1.4,1.3,2.7,2,4.1v-49.9c0-0.3,0.2-30,12.8-35.6
				c5.9-2.6,13.8,0.4,23.5,9.1c21.7,19.4,39.4,27.2,52.7,23.1c10.3-3.2,17.6-13.4,21.8-30.4c2.5-10.3,4.5-25.3,6.7-42.7
				c6-47,13.6-105.4,38.3-108.6c16.8-2.2,26.9,63.8,35.1,116.9c7.3,47.4,11.8,74.3,18.9,74.8c3,0.2,5.7-3.8,8.5-13.1
				c12.7-41.1,23.6-61.7,33.2-63c7.3-1,13.8,9.1,20.7,19.8c7.5,11.7,15.3,23.8,25.6,23c10.6-0.9,21.4-15.2,34.2-45.2
				c6.5-15.3,11.5-30.9,15.9-44.6c6.9-21.5,12.4-38.5,18.8-38.5h0.1c9.3,0.1,22.6,33.3,45.9,114.5c6.4,22.5,8.6,41.2,10.1,54.8
				c1.6,14.3,2.5,22.1,7,23.6c4.3,1.4,10.8-3.4,25.8-19c23.8-24.9,40.5-20.6,50.2-12.5c1.5,1.2,2.8,2.5,4.1,4c0.1,0.1,0.5,0.5,0.9,1
				l0.2,0.2c0.2-0.7,0.5-1.4,0.7-2.2c-0.2-0.2-0.3-0.3-0.4-0.4C581,397.9,579.6,396.5,578.1,395.2z"/>
			<line class="st5" x1="473.8" y1="546.3" x2="163.6" y2="546.3"/>
			<path class="st10" d="M574,423.9c-5.5-2.1-13.2,0-23.9,9.8c-38.1,34.9-44.4,25.9-49.5-10.6c-32.2-229.3-25.3,44.5-61.4,33.9
				c-34.4-10.1-30.5-191.1-69.9-2.5c-17.1,82-66.6,102.3-101.5,27.9s-79.3-132.5-95.2-62.8s0,104.6-41.2,60.4
				c-21-22.5-36.7-22.1-47-16.2c20.5,32.7,47.5,60.7,79.4,82.4H474C518.4,516.1,553.2,473.5,574,423.9z"/>
			<path class="st11" d="M573.6,424.8l0.4-0.9C573.8,424.2,573.7,424.5,573.6,424.8L573.6,424.8z"/>
			<path class="st11" d="M84.7,464.8L84.7,464.8c-0.1-0.3-0.3-0.6-0.5-0.9L84.7,464.8z"/>
			<path class="st12" d="M549.4,432.9c-18.8,17.2-29.6,23.6-36.2,21.2c-6.4-2.3-9.2-13.6-11.7-31.2c-11.4-81.4-17.1-92.6-21.4-92.7
				l0,0c-5.1,0-7.9,15.9-12.9,46.4c-5.2,31.9-11.6,71.6-22.7,78.6c-1.5,1-3.4,1.3-5.1,0.8c-12.2-3.6-19.8-31.2-25.9-53.4
				c-5.3-19.4-9.6-34.8-16-34.6c-5.6,0.2-13.4,10.6-29.2,86.2c-9,43.2-27.2,70.5-48.7,73c-18.1,2.1-36.2-14-50.9-45.3
				c-13.8-29.4-48.7-97.4-75.3-94.6c-9.9,1.1-17.2,11.8-21.8,32c-4.8,20.9-6.7,38.9-8.1,52.1c-1.7,15.4-2.8,25.6-6.8,27
				c-3.7,1.2-10.8-4.3-24.6-19.1c-22.1-23.7-38.4-22-48.2-16.4l0.5,0.9c0.2,0.3,0.4,0.6,0.5,0.9c13.2-7.5,29-1.9,45.7,16
				c15,16.1,22,21.2,26.7,19.7c5.2-1.7,6.3-11.3,8.1-28.7c1.4-13.1,3.3-31.1,8.1-51.9c4.4-19.3,11.1-29.5,20-30.5
				c17.5-1.9,44.9,33,73.3,93.4c14.2,30.2,31.7,46.6,49.6,46.6c1.1,0,2.3-0.1,3.4-0.2c22.4-2.6,41.2-30.5,50.4-74.5
				c4.4-20.9,17.6-84.4,27.3-84.7c0,0,0,0,0.1,0c4.9,0,9.5,16.8,14,33.1c6.6,23.8,14,50.9,27.3,54.7c2.3,0.7,4.7,0.3,6.7-1
				c11.9-7.5,18.2-46,23.6-80c2-12.2,3.8-23.7,5.7-32c2.7-11.8,4.6-12.7,5.2-12.7c0.7,0,3.3,1.4,7.5,19.6c3.4,14.9,7.3,38.2,12,71.3
				c2.6,18.8,5.6,30.1,13,32.8c7.4,2.7,18.5-3.6,38.2-21.6c9.3-8.5,17-11.8,22.9-9.6c0.1-0.3,0.3-0.6,0.4-0.9l0.3-0.9
				C567.7,420.4,559.3,423.8,549.4,432.9z"/>
			<polygon class="st8" points="84,462.9 79.2,466.2 76.6,459.2 77.9,455.3 80.3,455 83.4,455.4 85.4,458.1 			"/>
			<line class="st5" x1="66.5" y1="546.3" x2="66.5" y2="559"/>
			<path class="st2" d="M557.4,520.4"/>
			<path class="st2" d="M557.4,582.6"/>
			<rect x="351.7" y="548.6" class="st2" width="15" height="30.3"/>
			<rect x="243.4" y="548.6" class="st2" width="15" height="30.3"/>
			<rect x="69" y="258.4" class="st13" width="30.3" height="15"/>
			<rect x="69" y="366.8" class="st13" width="30.3" height="15"/>
			<path class="st13" d="M163.6,546.3c6.7,4.5,13.5,8.7,20.6,12.7h269.1c7.1-3.9,13.9-8.2,20.6-12.7H163.6z"/>
			<path class="st14" d="M467,550.8c1.1-0.7,2.2-1.5,3.4-2.2H467V550.8z"/>
			<rect x="351.7" y="548.6" class="st13" width="15" height="30.3"/>
			<rect x="243.4" y="548.6" class="st13" width="15" height="30.3"/>
			<circle class="st1" cx="319" cy="317.1" r="276.5"/>
			<rect x="96.5" y="455.8" class="st2" width="442.7" height="11"/>
			<polygon class="st2" points="532.5,460.6 522.5,487.3 556.1,460.6 522.5,433.3 			"/>
			<rect x="444" y="457.8" class="st2" width="13" height="26.3"/>
			<rect x="344" y="457.8" class="st2" width="13" height="26.3"/>
			<rect x="250" y="457.8" class="st2" width="13" height="26.3"/>
			<rect x="155" y="457.8" class="st2" width="13" height="26.3"/>
			<rect x="96.5" y="455.8" class="st2" width="442.7" height="11"/>
			<polygon class="st2" points="532.5,460.6 522.5,487.3 556.1,460.6 522.5,433.3 			"/>
			<rect x="444" y="457.8" class="st2" width="13" height="26.3"/>
			<rect x="344" y="457.8" class="st2" width="13" height="26.3"/>
			<rect x="250" y="457.8" class="st2" width="13" height="26.3"/>
			<rect x="155" y="457.8" class="st2" width="13" height="26.3"/>
			<rect x="96.5" y="455.8" class="st2" width="442.7" height="11"/>
			<polygon class="st2" points="532.5,460.6 522.5,487.3 556.1,460.6 522.5,433.3 			"/>
			<rect x="444" y="457.8" class="st2" width="13" height="26.3"/>
			<rect x="344" y="457.8" class="st2" width="13" height="26.3"/>
			<rect x="250" y="457.8" class="st2" width="13" height="26.3"/>
			<rect x="155" y="457.8" class="st2" width="13" height="26.3"/>
			<rect x="96.5" y="455.8" class="st2" width="442.7" height="11"/>
			<polygon class="st2" points="532.5,460.6 522.5,487.3 556.1,460.6 522.5,433.3 			"/>
			<rect x="444" y="457.8" class="st2" width="13" height="26.3"/>
			<rect x="344" y="457.8" class="st2" width="13" height="26.3"/>
			<rect x="250" y="457.8" class="st2" width="13" height="26.3"/>
			<rect x="155" y="457.8" class="st2" width="13" height="26.3"/>
			<circle class="st15" cx="315.6" cy="316.2" r="279.6"/>
			<path class="st16" d="M557.7,176.3v43.4h-65v-65h51.1c-1.2-1.7-2.4-3.3-3.6-5h-47.5V99.9c-1.7-1.4-3.3-2.7-5-4v53.8h-65v-65h49.6
				c-2.5-1.7-5.1-3.4-7.7-5h-41.9V57.9c-1.7-0.7-3.3-1.4-5-2v23.8h-65V39.1c-1.7-0.2-3.3-0.4-5-0.6v41.2h-65V38.6
				c-1.7,0.2-3.3,0.4-5,0.6v40.4h-65V56.2c-1.7,0.7-3.3,1.3-5,2v21.4h-41.1c-2.6,1.6-5.1,3.3-7.7,5h48.7v65h-65v-53
				c-1.7,1.3-3.3,2.7-5,4v49.1H91.1c-1.2,1.7-2.4,3.3-3.6,5h50.2v65h-65v-41.9c-1.7,3-3.4,6.1-5,9.2v32.7H53.2
				c-0.6,1.7-1.2,3.3-1.8,5h16.3v65H37.3c-0.2,1.7-0.3,3.3-0.4,5h30.8v65H39.4c0.3,1.7,0.5,3.3,0.8,5h27.4v65H60
				c0.7,1.7,1.5,3.3,2.3,5h5.4v10.8c1.6,3.1,3.3,6.1,5,9.2v-20h65v65h-33c1.5,1.7,3,3.4,4.5,5h28.6v27.2c1.7,1.4,3.3,2.7,5,4v-31.2
				h65v65h-10.2c5,2.3,10,4.5,15.2,6.6v-1.6h65v18.6c1.7,0.2,3.3,0.4,5,0.6v-19.2h65V594c1.7-0.2,3.3-0.4,5-0.6v-18.7h65v1.9
				c5.4-2.1,10.8-4.4,16.1-6.9h-11.1v-65h65v31.9c1.7-1.3,3.3-2.7,5-4v-27.9h29.4c1.5-1.6,3-3.3,4.5-5h-33.9v-65h65v21.5
				c1.7-3,3.4-6,5-9v-12.5h6.2c0.8-1.7,1.5-3.3,2.3-5h-8.5v-65H591c0.3-1.7,0.6-3.3,0.8-5h-29.1v-65h31.7c-0.1-1.7-0.3-3.3-0.4-5
				h-31.2v-65h17.1c-0.6-1.7-1.2-3.3-1.8-5h-15.4v-34.3C561,182.3,559.4,179.3,557.7,176.3z M137.7,429.7h-65v-65h65V429.7z
				 M137.7,359.7h-65v-65h65V359.7z M137.7,289.7h-65v-65h65V289.7z M207.7,499.7h-65v-65h65V499.7z M207.7,429.7h-65v-65h65V429.7z
				 M207.7,359.7h-65v-65h65V359.7z M207.7,289.7h-65v-65h65V289.7z M207.7,219.7h-65v-65h65V219.7z M277.7,569.7h-65v-65h65V569.7z
				 M277.7,499.7h-65v-65h65V499.7z M277.7,429.7h-65v-65h65V429.7z M277.7,359.7h-65v-65h65V359.7z M277.7,289.7h-65v-65h65V289.7z
				 M277.7,219.7h-65v-65h65V219.7z M277.7,149.7h-65v-65h65V149.7z M347.7,569.7h-65v-65h65V569.7z M347.7,499.7h-65v-65h65V499.7z
				 M347.7,429.7h-65v-65h65V429.7z M347.7,359.7h-65v-65h65V359.7z M347.7,289.7h-65v-65h65V289.7z M347.7,219.7h-65v-65h65V219.7z
				 M347.7,149.7h-65v-65h65V149.7z M417.7,569.7h-65v-65h65V569.7z M417.7,499.7h-65v-65h65V499.7z M417.7,429.7h-65v-65h65V429.7z
				 M417.7,359.7h-65v-65h65V359.7z M417.7,289.7h-65v-65h65V289.7z M417.7,219.7h-65v-65h65V219.7z M417.7,149.7h-65v-65h65V149.7z
				 M487.7,499.7h-65v-65h65V499.7z M487.7,429.7h-65v-65h65V429.7z M487.7,359.7h-65v-65h65V359.7z M487.7,289.7h-65v-65h65V289.7z
				 M487.7,219.7h-65v-65h65V219.7z M557.7,429.7h-65v-65h65V429.7z M557.7,359.7h-65v-65h65V359.7z M557.7,289.7h-65v-65h65V289.7z
				"/>
			<line class="st5" x1="474.1" y1="546" x2="164" y2="546"/>
			<line class="st5" x1="474.2" y1="546" x2="164" y2="546"/>
			<path class="st11" d="M574,424.4l0.4-0.9C574.2,423.8,574.1,424.1,574,424.4L574,424.4z"/>
			<path class="st11" d="M85,464.5L85,464.5c-0.1-0.3-0.3-0.6-0.5-0.9L85,464.5z"/>
			<line class="st5" x1="66.9" y1="546" x2="66.9" y2="558.7"/>
			<path class="st2" d="M557.8,520.1"/>
			<path class="st2" d="M557.8,582.3"/>
			<path class="st17" d="M467.3,550.5c1.1-0.7,2.2-1.5,3.4-2.2h-3.4V550.5z"/>
			<path class="st18" d="M0,0L0,0L0,0z"/>
			<path class="st18" d="M633.9,633.9L633.9,633.9L633.9,633.9z"/>
			<path class="st18" d="M0,0L0,0L0,0z"/>
			<path class="st18" d="M633.9,633.9L633.9,633.9L633.9,633.9z"/>
		</g>
	</g>
</g>
<path class="st19" d="M475.8,216.3c11,40.6,15.8,82.5-16,114.2c-16.8,16.8-36.3,23.4-57.1,24.2c-18.5,0.8-38-3-57.2-8.3
	c8.2,30.3,13,61.3,1.7,88.3c-3.9,9.2-9.6,17.9-17.7,26c-0.6,0.6-1.2,1.2-1.9,1.8c-0.5,0.5-1.1,1-1.7,1.5s-1.1,1-1.7,1.5
	c-0.1,0.1-0.1,0.1-0.2,0.2c-0.5,0.4-1,0.8-1.5,1.2c-0.5,0.4-0.9,0.8-1.4,1.1c-0.1,0.1-0.2,0.1-0.3,0.2c-0.1,0.1-0.2,0.2-0.3,0.3
	c-0.5,0.3-0.9,0.7-1.4,1c0,0,0,0-0.1,0c-0.1,0.1-0.2,0.2-0.3,0.2c-0.4,0.3-0.8,0.6-1.2,0.9c-0.1,0-0.1,0.1-0.2,0.1c0,0,0,0-0.1,0
	l0,0l0,0c-0.3,0.2-0.5,0.4-0.8,0.5c-0.3,0.2-0.6,0.4-0.9,0.6c-0.5,0.3-0.9,0.6-1.4,0.9l0,0c-0.1,0.1-0.3,0.2-0.4,0.2
	s-0.2,0.1-0.2,0.1s0,0-0.1,0c-0.4,0.2-0.8,0.5-1.2,0.7c-0.1,0-0.1,0.1-0.2,0.1c-0.6,0.3-1.1,0.6-1.7,1c-0.1,0-0.1,0.1-0.2,0.1
	c-0.4,0.2-0.8,0.4-1.1,0.6l0,0c-0.1,0.1-0.2,0.1-0.3,0.2c-0.3,0.2-0.6,0.3-0.9,0.5c-0.5,0.3-1.1,0.5-1.6,0.8c0,0,0,0-0.1,0
	c-0.3,0.1-0.5,0.3-0.8,0.4c-0.1,0-0.2,0.1-0.3,0.1c-0.1,0-0.2,0.1-0.3,0.1c-0.1,0-0.1,0.1-0.2,0.1s-0.2,0.1-0.3,0.1
	c-0.3,0.1-0.5,0.2-0.8,0.3c-0.2,0.1-0.4,0.2-0.6,0.2c-0.2,0.1-0.5,0.2-0.7,0.3c-0.4,0.2-0.8,0.3-1.1,0.5c-0.6,0.2-1.3,0.5-1.9,0.7
	c-0.5,0.2-1,0.3-1.5,0.5c-0.3,0.1-0.5,0.2-0.8,0.3c-0.2,0.1-0.3,0.1-0.5,0.2c-0.3,0.1-0.6,0.2-1,0.3c-0.1,0-0.1,0-0.2,0.1
	c-0.6,0.2-1.1,0.3-1.7,0.5s-1.3,0.3-1.9,0.5c-0.5,0.1-1,0.2-1.5,0.3c-0.5,0.1-1,0.2-1.5,0.3c-0.3,0.1-0.7,0.2-1.1,0.2c0,0,0,0-0.1,0
	s-0.2,0.1-0.3,0.1c-0.4,0.1-0.8,0.2-1.3,0.2h-0.1h-0.1c-0.5,0.1-1,0.2-1.5,0.2c-0.2,0-0.5,0.1-0.7,0.1l0,0c-0.6,0.1-1.1,0.2-1.7,0.2
	c-0.2,0-0.3,0-0.5,0.1l0,0c-0.2,0-0.3,0-0.5,0.1c-0.1,0-0.3,0-0.5,0c-0.4,0-0.7,0.1-1.1,0.1c-0.5,0.1-1,0.1-1.5,0.1
	c-0.3,0-0.7,0.1-1,0.1c-0.1,0-0.3,0-0.4,0l0,0c-0.4,0-0.7,0.1-1.1,0.1c-0.6,0-1.2,0.1-1.8,0.1l0,0c-0.2,0-0.4,0-0.5,0l0,0
	c-0.2,0-0.4,0-0.6,0c-0.4,0-0.8,0-1.2,0c-0.2,0-0.3,0-0.5,0c-0.5,0-1,0-1.5,0c-1.1,0-2.2,0-3.2,0c-0.4,0-0.8,0-1.2,0h-0.2
	c-0.4,0-0.8,0-1.3,0c-0.7,0-1.3,0-2-0.1c-0.8,0-1.6-0.1-2.4-0.1c-0.4,0-0.8-0.1-1.3-0.1c-0.4,0-0.8-0.1-1.2-0.1c0,0,0,0-0.1,0
	c-1-0.1-2.1-0.2-3.2-0.3c-1.1-0.1-2.2-0.2-3.3-0.4l0,0c-0.5-0.1-1.1-0.1-1.6-0.2c-0.8-0.1-1.6-0.2-2.4-0.3c-0.2,0-0.3,0-0.5-0.1
	c-0.8-0.1-1.5-0.2-2.3-0.4c-0.9-0.1-1.8-0.3-2.7-0.5c-0.1,0-0.2,0-0.3,0c-1.1-0.2-2.2-0.4-3.3-0.6s-2.2-0.4-3.3-0.7
	c-0.5-0.1-1.1-0.2-1.6-0.3c-1.1-0.2-2.2-0.5-3.3-0.7c-4.4-1-8.8-2.1-13.1-3.3c7.6,27.9,12.2,56.4,4,81.8c-0.2,0.7-0.5,1.4-0.7,2.2
	c-0.4,1.2-0.9,2.5-1.4,3.7c-0.4,0.9-0.8,1.8-1.2,2.7c-0.6,1.4-1.3,2.8-2,4.2s-1.5,2.8-2.3,4.1c-0.8,1.4-1.7,2.7-2.7,4.1
	c-10.6-4.5-20.8-9.6-30.6-15.3c1.4-1.7,2.7-3.4,3.9-5.2l0,0l0,0c1.7-2.6,3-5.3,4.2-8.2c0.6-1.6,1.1-3.2,1.6-4.9
	c0.4-1.4,0.7-2.8,1-4.3c0.2-1.1,0.4-2.2,0.5-3.3c0.6-4.9,0.7-10.2,0.3-16.1c0-0.3-0.1-0.7-0.1-1c-0.1-0.8-0.1-1.6-0.2-2.4l0,0l0,0
	c-0.1-0.5-0.1-1.1-0.2-1.6c-0.1-0.7-0.1-1.3-0.2-2c-0.1-0.6-0.2-1.1-0.2-1.7c-0.1-0.6-0.2-1.3-0.3-1.9s-0.2-1.2-0.3-1.8
	c-0.1-0.6-0.2-1.3-0.3-1.9s-0.2-1.2-0.3-1.8c-0.1-0.6-0.3-1.3-0.4-1.9c-0.1-0.6-0.3-1.2-0.4-1.8c-0.1-0.6-0.3-1.3-0.4-1.9
	c-0.1-0.6-0.3-1.2-0.4-1.9c-0.1-0.6-0.3-1.3-0.5-2c-0.3-1.2-0.6-2.5-0.9-3.7c-0.2-0.6-0.3-1.2-0.4-1.7c-0.2-0.7-0.4-1.5-0.6-2.2
	c-0.1-0.5-0.3-1.1-0.4-1.6c-0.2-0.8-0.4-1.5-0.6-2.3c-0.1-0.5-0.3-1-0.4-1.6c-0.2-0.8-0.5-1.6-0.7-2.4c-0.1-0.5-0.3-1-0.4-1.5
	c-0.2-0.9-0.5-1.7-0.7-2.5c-0.1-0.4-0.3-0.8-0.4-1.3c-0.3-0.9-0.6-1.9-0.8-2.8c-0.1-0.3-0.2-0.5-0.2-0.8c-0.7-2.3-1.4-4.6-2.1-7l0,0
	l26.8-26.8l0,0c0.1,0,0.1,0,0.2,0.1c0.3,0.1,0.5,0.2,0.8,0.3c1.1,0.3,2.1,0.7,3.2,1c0.5,0.2,1,0.3,1.5,0.5c0.8,0.3,1.7,0.5,2.5,0.8
	c0.6,0.2,1.1,0.3,1.7,0.5c0.8,0.2,1.6,0.5,2.3,0.7c0.6,0.2,1.2,0.3,1.7,0.5c0.8,0.2,1.5,0.4,2.3,0.7c0.6,0.2,1.1,0.3,1.7,0.5
	c0.8,0.2,1.6,0.4,2.3,0.7c0.5,0.1,1.1,0.3,1.6,0.4c0.9,0.2,1.7,0.5,2.6,0.7c0.4,0.1,0.9,0.2,1.3,0.3c1.3,0.3,2.5,0.7,3.8,1
	c0.3,0.1,0.6,0.1,0.9,0.2c1,0.2,1.9,0.5,2.9,0.7c0.5,0.1,0.9,0.2,1.4,0.3c0.8,0.2,1.6,0.3,2.4,0.5c0.5,0.1,1,0.2,1.5,0.3
	c0.7,0.1,1.5,0.3,2.2,0.4c0.5,0.1,1,0.2,1.5,0.3c0.7,0.1,1.5,0.3,2.2,0.4c0.5,0.1,1,0.2,1.5,0.3c0.8,0.1,1.5,0.2,2.2,0.3
	c0.3,0,0.7,0.1,1,0.2c0.1,0,0.3,0,0.4,0c0.8,0.1,1.6,0.2,2.4,0.3c0.4,0,0.8,0.1,1.2,0.1c1.2,0.1,2.4,0.2,3.5,0.3h0.1
	c8.7,0.6,16.2,0.1,22.9-1.6c4.2-1.1,8-2.6,11.5-4.6c3.8-2.1,7.3-4.8,10.6-8.1c2-2,3.7-4,5.3-6.2l0,0l0,0c7.3-10,10.1-22.3,9.1-38.4
	l0,0l0,0l0,0c0-0.2,0-0.3,0-0.5s0-0.4,0-0.6c-0.1-1-0.2-2-0.3-3c0-0.5-0.1-0.9-0.2-1.4c-0.1-0.7-0.2-1.5-0.3-2.2
	c-0.1-0.5-0.1-1-0.2-1.5c-0.1-0.7-0.2-1.4-0.3-2.1c-0.1-0.5-0.2-1.1-0.3-1.6c-0.1-0.7-0.2-1.4-0.3-2.1c-0.1-0.5-0.2-1.1-0.3-1.6
	c-0.1-0.7-0.3-1.4-0.4-2.1c-0.1-0.5-0.2-1.1-0.3-1.6c-0.2-0.8-0.3-1.5-0.5-2.3c-0.1-0.5-0.2-1-0.3-1.5c-0.2-0.9-0.4-1.8-0.6-2.7
	c-0.1-0.4-0.2-0.7-0.3-1.1c-0.3-1.3-0.6-2.5-0.9-3.8c-0.1-0.5-0.3-1-0.4-1.5c-0.2-0.8-0.4-1.6-0.6-2.4c-0.2-0.6-0.3-1.2-0.5-1.8
	c-0.2-0.7-0.4-1.4-0.6-2.1l-0.5-1.9c-0.2-0.7-0.4-1.4-0.6-2c-0.2-0.7-0.4-1.3-0.6-2s-0.4-1.3-0.6-2s-0.4-1.4-0.6-2s-0.4-1.2-0.6-1.9
	c-0.2-0.7-0.5-1.5-0.7-2.2c-0.1-0.4-0.3-0.9-0.4-1.3c-0.3-0.9-1.5-2.8-1.8-3.7l26.8-26.8c1.5,0.5,3.9,1.9,5.4,2.4
	c0.3,0.1,0.6,0.2,0.8,0.3c1,0.3,2.1,0.6,3.2,0.9c0.4,0.1,0.8,0.3,1.3,0.4c0.9,0.3,1.8,0.5,2.7,0.8c0.5,0.1,1,0.3,1.5,0.4
	c0.9,0.3,1.7,0.5,2.6,0.7c0.5,0.1,1,0.3,1.5,0.4c0.9,0.3,1.8,0.5,2.6,0.7c0.5,0.1,0.9,0.3,1.4,0.4c1,0.3,2,0.5,3,0.8
	c0.3,0.1,0.6,0.2,1,0.3c1.3,0.3,2.6,0.7,3.9,1c0.2,0.1,0.4,0.1,0.5,0.1c1.1,0.3,2.2,0.5,3.3,0.8c0.4,0.1,0.8,0.2,1.2,0.3
	c0.8,0.2,1.7,0.4,2.5,0.5c0.5,0.1,1,0.2,1.4,0.3c0.8,0.2,1.6,0.3,2.3,0.5c0.5,0.1,1,0.2,1.5,0.3c0.8,0.1,1.5,0.3,2.3,0.4
	c0.5,0.1,1,0.1,1.5,0.2c0.8,0.1,1.5,0.2,2.3,0.3c0.4,0,0.7,0.1,1.1,0.1l0,0l0,0c0.1,0,0.2,0,0.3,0c0.8,0.1,1.6,0.2,2.5,0.3
	c0.4,0,0.8,0.1,1.1,0.1c1.2,0.1,2.4,0.2,3.6,0.3c2.5,0.2,4.9,0.3,7.2,0.3c4.1,0,7.8-0.3,11.4-0.9c4.7-0.8,9.1-2.1,13-4
	c1-0.5,2-1,2.9-1.5l0,0c3.8-2.1,7.3-4.8,10.5-8c0.5-0.5,1-1,1.4-1.5c0.2-0.3,0.5-0.5,0.7-0.8c0.5-0.5,0.9-1,1.3-1.6
	c0.2-0.3,0.4-0.5,0.6-0.8c0.4-0.5,0.8-1.1,1.2-1.6l0,0c0.3-0.4,0.6-0.9,0.9-1.3l0,0c0.1-0.1,0.1-0.2,0.2-0.3
	c0.1-0.1,0.1-0.2,0.2-0.2c0.1-0.2,0.3-0.4,0.4-0.6s0.3-0.4,0.4-0.6c0,0,0,0,0-0.1c0,0,0-0.1,0.1-0.1c0.1-0.1,0.1-0.2,0.2-0.3
	c0.2-0.3,0.4-0.6,0.5-0.9c0.1-0.1,0.1-0.2,0.2-0.3c0-0.1,0.1-0.1,0.1-0.1c0.1-0.1,0.1-0.2,0.2-0.3c0.1-0.2,0.2-0.3,0.3-0.5
	c0.1-0.2,0.2-0.3,0.3-0.5c0.1-0.1,0.1-0.2,0.1-0.3c0-0.1,0.1-0.1,0.1-0.2s0.1-0.2,0.1-0.2c0-0.1,0.1-0.2,0.1-0.3l0,0
	c0-0.1,0.1-0.1,0.1-0.2c0.2-0.4,0.4-0.8,0.5-1.2l0,0c0.5-1.2,1-2.5,1.4-3.8l0,0c0.2-0.5,0.3-1.1,0.5-1.6c0,0,0-0.1,0.1-0.1
	c0-0.1,0-0.1,0-0.2l0,0v-0.1c0,0,0,0,0-0.1c0,0,0,0,0-0.1c0.2-0.6,0.3-1.2,0.5-1.8l0,0c0-0.1,0.1-0.2,0.1-0.3
	c0.1-0.6,0.3-1.1,0.4-1.7l0,0c0.1-0.3,0.1-0.7,0.2-1s0.1-0.6,0.1-0.8v-0.2c0-0.1,0-0.2,0-0.3c0.1-0.5,0.2-1,0.2-1.6
	c0-0.1,0-0.2,0.1-0.3c0-0.1,0-0.2,0-0.2c0.1-0.6,0.1-1.2,0.2-1.8c0-0.1,0-0.1,0-0.2v-0.1c0-0.1,0-0.1,0-0.2c0.1-0.6,0.1-1.3,0.2-2
	l0,0c0-0.1,0-0.1,0-0.2c0-0.7,0.1-1.4,0.1-2.2l0,0c0-0.8,0-1.6,0-2.4c0-0.5,0-1.1,0-1.6v-0.1c0-0.3,0-0.6,0-0.9s0-0.5,0-0.8
	c0-0.4,0-0.8-0.1-1.1c0-0.6-0.1-1.2-0.1-1.9l0,0c0,0,0-0.1,0-0.2v-0.2c0-0.6-0.1-1.1-0.1-1.7s-0.1-1.2-0.2-1.8
	c-0.1-0.6-0.1-1.3-0.2-1.9c-0.1-0.5-0.1-1.1-0.2-1.6c-0.1-0.7-0.2-1.3-0.3-2c-0.1-0.5-0.2-1.1-0.2-1.6c-0.1-0.7-0.2-1.4-0.3-2.1
	c-0.1-0.5-0.2-1-0.3-1.6c-0.1-0.7-0.3-1.4-0.4-2.1c-0.1-0.5-0.2-1-0.3-1.5c-0.2-0.8-0.3-1.5-0.5-2.2c-0.1-0.4-0.2-0.9-0.3-1.3
	c-0.2-0.8-0.4-1.6-0.5-2.5c0-0.2-0.1-0.4-0.1-0.6c-0.8-3.3-1.6-6.7-2.5-10c0-0.1,0-0.2-0.1-0.2c-0.3-1.1-0.6-2.2-0.9-3.3
	c0-0.2-0.1-0.4-0.1-0.5c-0.3-1.1-0.6-2.2-0.9-3.3c0-0.2-0.1-0.3-0.1-0.4c-0.1-0.3-0.2-0.6-0.3-0.9c-1.3-4.6-2.7-9.2-4.2-14
	l26.8-26.8l0,0c0,0,0,0,0.1,0c0.5,0.2,1,0.3,1.6,0.5c0.8,0.3,1.7,0.5,2.5,0.8c0.6,0.2,1.2,0.4,1.7,0.5c0.8,0.2,1.5,0.5,2.3,0.7
	c0.6,0.2,1.2,0.4,1.8,0.5c0.8,0.2,1.5,0.5,2.3,0.7c0.6,0.2,1.2,0.3,1.8,0.5c0.8,0.2,1.5,0.4,2.2,0.6c0.6,0.2,1.2,0.3,1.8,0.5
	c0.8,0.2,1.5,0.4,2.3,0.6c0.5,0.2,1.1,0.3,1.7,0.5c0.9,0.2,1.7,0.5,2.6,0.7c0.4,0.1,0.9,0.2,1.3,0.3c1.3,0.3,2.5,0.7,3.8,1
	c0.3,0.1,0.6,0.1,0.9,0.2c1,0.2,1.9,0.5,2.9,0.7c0.5,0.1,0.9,0.2,1.4,0.3c0.8,0.2,1.6,0.3,2.4,0.5c0.5,0.1,1,0.2,1.5,0.3
	c0.8,0.1,1.5,0.3,2.2,0.4c0.5,0.1,1,0.2,1.5,0.3c0.7,0.1,1.5,0.3,2.2,0.4c0.5,0.1,1,0.2,1.5,0.2c0.8,0.1,1.5,0.2,2.2,0.3
	c0.5,0.1,1,0.1,1.4,0.2c0.8,0.1,1.6,0.2,2.4,0.3c0.4,0,0.8,0.1,1.2,0.1h0.1l0,0c1.2,0.1,2.3,0.2,3.4,0.3c2.5,0.2,4.9,0.3,7.2,0.2
	c0.5,0,1,0,1.5,0c0.6,0,1.3,0,1.9-0.1c10.3-0.5,18.8-3,26.2-7.7l0,0c0.8-0.5,1.6-1.1,2.4-1.6c1.7,3,3.4,6,5,9l0,0
	c0.9,1.7,1.8,3.3,2.6,5l0,0c2.7,5.3,5.2,10.8,7.6,16.3C546.1,230.6,510.5,225.8,475.8,216.3z"/>
<g id="Layer_3">
	<g>
		<path class="st15" d="M308.1,424.9c-1.5,2.1-3.3,4.2-5.3,6.2c-3.3,3.3-6.8,5.9-10.6,8.1L243,390l-49.2-49.2
			c2.1-3.8,4.8-7.3,8.1-10.6c2-2,4-3.7,6.2-5.3l49.9,50L308.1,424.9z"/>
		<path class="st15" d="M514.7,184.6L514.7,184.6c-0.5,0-0.9-0.1-1.3-0.1c-0.8-0.1-1.6-0.2-2.4-0.3c-0.5-0.1-1-0.1-1.4-0.2
			c-0.7-0.1-1.5-0.2-2.2-0.3c-0.5-0.1-1-0.2-1.5-0.2c-0.7-0.1-1.5-0.3-2.2-0.4c-0.5-0.1-1-0.2-1.5-0.3c-0.7-0.1-1.5-0.3-2.2-0.4
			c-0.5-0.1-1-0.2-1.5-0.3c-0.8-0.2-1.6-0.3-2.4-0.5c-0.5-0.1-0.9-0.2-1.4-0.3c-1-0.2-1.9-0.5-2.9-0.7c-0.3-0.1-0.6-0.1-0.9-0.2
			c-1.3-0.3-2.5-0.6-3.8-1c-0.4-0.1-0.9-0.2-1.3-0.3c-0.8-0.2-1.7-0.4-2.6-0.7c-0.5-0.1-1.1-0.3-1.7-0.5c-0.8-0.2-1.5-0.4-2.3-0.6
			c-0.6-0.2-1.2-0.3-1.8-0.5c-0.7-0.2-1.5-0.4-2.2-0.6c-0.6-0.2-1.2-0.3-1.8-0.5c-0.8-0.2-1.5-0.5-2.3-0.7c-0.6-0.2-1.2-0.4-1.8-0.5
			c-0.8-0.2-1.5-0.5-2.3-0.7c-0.6-0.2-1.2-0.3-1.7-0.5c-0.8-0.3-1.7-0.5-2.5-0.8c-0.5-0.2-1-0.3-1.6-0.5c0,0,0,0-0.1,0l0,0l0,0
			c-5.9-19-11.1-37-12.7-53.5l33.1,33.1L514.7,184.6z"/>
		<path class="st15" d="M186.6,512.7L186.6,512.7l-33.1-33.1l0,0l-33.2-33.2c16.5,1.6,34.6,6.8,53.6,12.7c0.7,2.3,1.4,4.7,2.1,7
			c0.1,0.3,0.2,0.5,0.2,0.8c0.3,0.9,0.6,1.9,0.8,2.8c0.1,0.4,0.2,0.8,0.4,1.3c0.3,0.8,0.5,1.7,0.7,2.5c0.1,0.5,0.3,1,0.4,1.5
			c0.2,0.8,0.5,1.6,0.7,2.4c0.2,0.5,0.3,1,0.4,1.6c0.2,0.8,0.4,1.5,0.6,2.3c0.1,0.5,0.3,1.1,0.4,1.6c0.2,0.7,0.4,1.5,0.6,2.2
			c0.2,0.6,0.3,1.1,0.4,1.7c0.3,1.2,0.6,2.5,0.9,3.7c0.2,0.7,0.3,1.3,0.5,2c0.1,0.6,0.3,1.2,0.4,1.9c0.1,0.6,0.3,1.3,0.4,1.9
			c0.1,0.6,0.3,1.2,0.4,1.8c0.1,0.6,0.3,1.3,0.4,1.9c0.1,0.6,0.2,1.2,0.3,1.8c0.1,0.6,0.2,1.3,0.3,1.9s0.2,1.2,0.3,1.8
			c0.1,0.6,0.2,1.3,0.3,1.9s0.2,1.2,0.2,1.7c0.1,0.7,0.2,1.3,0.2,2C186.5,511.6,186.5,512.2,186.6,512.7z"/>
		<path class="st15" d="M447.4,256L447.4,256l-35.2-35.2l0,0L377,185.6c0.1,0,0.2,0,0.4,0c17.3,1.2,36.2,6.6,56.3,12.8
			c0.3,0.1,0.5,0.1,0.8,0.2c1.5,4.7,2.9,9.4,4.2,14c0.1,0.3,0.2,0.6,0.3,0.9c0,0.1,0.1,0.3,0.1,0.4c0.3,1.1,0.6,2.2,0.9,3.3
			c0,0.2,0.1,0.4,0.1,0.5c0.3,1.1,0.6,2.2,0.9,3.3c0,0.1,0,0.2,0.1,0.2c0.9,3.4,1.8,6.7,2.5,10c0,0.2,0.1,0.4,0.1,0.6
			c0.2,0.8,0.4,1.6,0.5,2.5c0.1,0.4,0.2,0.9,0.3,1.3c0.2,0.8,0.3,1.5,0.5,2.2c0.1,0.5,0.2,1,0.3,1.5c0.1,0.7,0.3,1.4,0.4,2.1
			c0.1,0.5,0.2,1,0.3,1.6c0.1,0.7,0.2,1.4,0.3,2.1c0.1,0.5,0.2,1.1,0.2,1.6c0.1,0.7,0.2,1.3,0.3,2c0.1,0.6,0.1,1.1,0.2,1.6
			c0.1,0.6,0.1,1.3,0.2,1.9c0.1,0.6,0.1,1.2,0.2,1.8c0,0.6,0.1,1.1,0.1,1.7C447.5,255.8,447.5,255.8,447.4,256
			C447.4,255.9,447.4,256,447.4,256z"/>
		<path class="st15" d="M250.2,444.6c-0.3,0-0.7-0.1-1-0.1c-0.7-0.1-1.5-0.2-2.2-0.3c-0.5-0.1-1-0.2-1.5-0.3
			c-0.7-0.1-1.5-0.2-2.2-0.4c-0.5-0.1-1-0.2-1.5-0.3c-0.7-0.1-1.5-0.3-2.2-0.4c-0.5-0.1-1-0.2-1.5-0.3c-0.8-0.2-1.6-0.3-2.4-0.5
			c-0.5-0.1-0.9-0.2-1.4-0.3c-1-0.2-1.9-0.4-2.9-0.7c-0.3-0.1-0.6-0.1-0.9-0.2c-1.3-0.3-2.5-0.6-3.8-1c-0.4-0.1-0.9-0.2-1.3-0.3
			c-0.9-0.2-1.7-0.5-2.6-0.7c-0.5-0.1-1.1-0.3-1.6-0.4c-0.8-0.2-1.6-0.4-2.3-0.7c-0.6-0.2-1.1-0.3-1.7-0.5c-0.8-0.2-1.5-0.4-2.3-0.7
			c-0.6-0.2-1.2-0.3-1.7-0.5c-0.8-0.2-1.5-0.5-2.3-0.7c-0.5-0.2-1.1-0.3-1.7-0.5c-0.8-0.3-1.7-0.5-2.5-0.8c-0.5-0.2-1-0.3-1.5-0.5
			c-1.1-0.3-2.1-0.7-3.2-1c-0.3-0.1-0.5-0.2-0.8-0.3c-0.1,0-0.1,0-0.2-0.1l0,0c-5.4-17.4-10.2-34-12.3-49.5l30.8,30.9L250.2,444.6z"
			/>
		<path class="st15" d="M557.3,175.7c-0.8,0.6-1.6,1.1-2.4,1.6l0,0l-99.2-99.2c0.6-0.9,1.2-1.8,1.9-2.7
			C498.8,99.7,533.2,134.3,557.3,175.7z"/>
		<path class="st15" d="M380.5,314.4c-0.4,0-0.7-0.1-1.1-0.1c-0.8-0.1-1.5-0.2-2.3-0.3c-0.5-0.1-1-0.2-1.5-0.2
			c-0.8-0.1-1.5-0.3-2.3-0.4c-0.5-0.1-1-0.2-1.5-0.3c-0.8-0.1-1.5-0.3-2.3-0.5c-0.5-0.1-0.9-0.2-1.4-0.3c-0.8-0.2-1.7-0.4-2.5-0.5
			c-0.4-0.1-0.8-0.2-1.2-0.3c-1.1-0.2-2.2-0.5-3.3-0.8c-0.2,0-0.4-0.1-0.5-0.1c-1.3-0.3-2.6-0.6-3.9-1c-0.3-0.1-0.6-0.2-1-0.3
			c-1-0.3-2-0.5-3-0.8c-0.4-0.1-0.9-0.3-1.4-0.4c-0.9-0.2-1.7-0.5-2.6-0.7c-0.5-0.1-1-0.3-1.5-0.4c-0.9-0.3-1.7-0.5-2.6-0.7
			c-0.5-0.1-1-0.3-1.5-0.4c-0.9-0.3-1.8-0.5-2.7-0.8c-0.4-0.1-0.8-0.3-1.3-0.4c-1-0.3-2.1-0.6-3.2-0.9c-0.3-0.1-0.6-0.2-0.8-0.3
			c-1.5-0.5-2.9-0.9-4.4-1.4c-5.4-17.5-10.3-34.1-12.3-49.6l30.9,30.9L380.5,314.4z"/>
		<path class="st15" d="M438.3,294.6c-0.4,0.5-0.8,1.1-1.2,1.6c-0.2,0.3-0.4,0.5-0.6,0.8c-0.4,0.5-0.9,1-1.3,1.6
			c-0.2,0.3-0.5,0.5-0.7,0.8c-0.5,0.5-1,1-1.4,1.5c-3.3,3.3-6.7,5.9-10.5,8l0,0l-49.2-49.2l-49.2-49.2c2.1-3.8,4.8-7.3,8.1-10.5
			c2-2,4.1-3.8,6.2-5.3L438.3,294.6z"/>
		<path class="st15" d="M317.1,386.4l-35.3-35.3l-35.3-35.3c0.2,0,0.3,0,0.5,0c17.5,1.2,36.7,6.7,57,13l0,0c0.3,0.9,0.6,1.8,0.8,2.7
			c0.1,0.4,0.3,0.9,0.4,1.3c0.2,0.7,0.5,1.5,0.7,2.2c0.2,0.6,0.4,1.3,0.6,1.9c0.2,0.7,0.4,1.4,0.6,2c0.2,0.7,0.4,1.3,0.6,2
			s0.4,1.3,0.6,2s0.4,1.4,0.6,2l0.5,1.9c0.2,0.7,0.4,1.4,0.6,2.1c0.2,0.6,0.3,1.2,0.5,1.8c0.2,0.8,0.4,1.6,0.6,2.4
			c0.1,0.5,0.3,1,0.4,1.5c0.3,1.3,0.6,2.5,0.9,3.8c0.1,0.4,0.2,0.7,0.3,1.1c0.2,0.9,0.4,1.8,0.6,2.7c0.1,0.5,0.2,1,0.3,1.5
			c0.2,0.8,0.3,1.5,0.5,2.3c0.1,0.5,0.2,1.1,0.3,1.6c0.2,0.7,0.3,1.4,0.4,2.1c0.1,0.6,0.2,1.1,0.3,1.6c0.1,0.7,0.2,1.4,0.3,2.1
			c0.1,0.5,0.2,1.1,0.3,1.6c0.1,0.7,0.2,1.4,0.3,2.1c0.1,0.5,0.2,1,0.2,1.5c0.1,0.7,0.2,1.5,0.3,2.2c0.1,0.5,0.1,0.9,0.2,1.4
			c0.1,1,0.2,2,0.3,3c0,0.2,0,0.4,0,0.6C317.1,386.1,317.1,386.3,317.1,386.4z"/>
		<path class="st15" d="M179.3,552.9L179.3,552.9c-1.1,1.8-2.5,3.5-3.9,5.2C133.8,534,99,499.3,74.5,457.9c1.8-1.5,3.6-2.9,5.5-4.2
			L179.3,552.9z"/>
		<path class="st20" d="M438.3,294.6l-50-50l23.8-23.8l-35.2-35.2c-16.2-1.1-28.4,1.8-38.5,9L438.3,294.6L438.3,294.6z"/>
		<polygon class="st21" points="447.4,256.1 447.4,256.1 412.1,220.8 412.2,220.8 		"/>
		<path class="st21" d="M447.6,262.5c0,0.8,0,1.6,0,2.4l0,0c0,0.7-0.1,1.4-0.1,2.2c0,0.1,0,0.1,0,0.2l0,0c0,0.7-0.1,1.3-0.2,2
			c0,0.1,0,0.1,0,0.2v0.1c0,0.1,0,0.1,0,0.2c-0.1,0.6-0.1,1.2-0.2,1.8c0,0.1,0,0.2,0,0.2c0,0.1,0,0.2-0.1,0.3
			c-0.1,0.5-0.1,1.1-0.2,1.6c0,0.1,0,0.2,0,0.3v0.2c0,0.3-0.1,0.6-0.1,0.8c-0.1,0.3-0.1,0.7-0.2,1l0,0c-0.1,0.6-0.2,1.2-0.4,1.7
			c0,0.1,0,0.2-0.1,0.3l0,0c-0.1,0.6-0.3,1.2-0.5,1.8c0,0,0,0,0,0.1c0,0,0,0,0,0.1v0.1l0,0c0,0,0,0.1,0,0.2c0,0,0,0.1-0.1,0.1
			c-0.2,0.5-0.3,1.1-0.5,1.6l0,0c-0.4,1.3-0.9,2.5-1.4,3.8l0,0c-0.2,0.4-0.4,0.8-0.5,1.2c0,0.1,0,0.1-0.1,0.2l0,0
			c0,0.1-0.1,0.2-0.1,0.3c0,0.1-0.1,0.2-0.1,0.2c0,0.1-0.1,0.1-0.1,0.2s-0.1,0.2-0.1,0.3c-0.1,0.2-0.2,0.3-0.3,0.5
			c-0.1,0.3-0.3,0.5-0.4,0.8c0,0,0,0.1-0.1,0.1c0,0.1-0.1,0.2-0.2,0.3c-0.2,0.4-0.5,0.8-0.7,1.2c-0.2,0.3-0.3,0.5-0.5,0.8
			c-0.1,0.2-0.3,0.4-0.4,0.6c0,0.1-0.1,0.2-0.2,0.2c-0.4,0.6-0.8,1.1-1.1,1.7l-51-51l23.8-23.8l36.2,36.2c0.1,1.3,0.1,2.6,0.2,3.8
			c0,0.3,0,0.6,0,0.9v0.1C447.6,261.5,447.6,262,447.6,262.5z"/>
		<path class="st22" d="M380.5,314.4l-30.9-30.9l23.8-23.8l-49.2-49.2c-5.3,9.3-7.2,20.4-6.3,34.6c0.2,2.4,0.4,4.9,0.8,7.4
			L380.5,314.4L380.5,314.4z"/>
		<path class="st23" d="M422.5,308.8L422.5,308.8L422.5,308.8L422.5,308.8z"/>
		<path class="st23" d="M422.5,308.8L422.5,308.8c-1,0.6-1.9,1.1-2.9,1.5c-4,1.9-8.3,3.2-13,4c-3.6,0.6-7.3,0.9-11.4,0.9
			c-2.3,0-4.7-0.1-7.2-0.3c-1.2-0.1-2.4-0.2-3.6-0.3c-0.4,0-0.8-0.1-1.1-0.1c-0.8-0.1-1.7-0.2-2.5-0.3c-0.1,0-0.2,0-0.3,0l0,0
			l-31.9-31.9l23.8-23.8L422.5,308.8z"/>
		<path class="st24" d="M505.3,127.7l-23.8,23.8l-33.1-33.1c-0.1-1.2-0.2-2.3-0.3-3.5c-1-15.3,1.3-27,7.6-36.8L505.3,127.7z"/>
		<path class="st25" d="M554.9,177.3c-7.3,4.7-15.9,7.3-26.2,7.7c-0.6,0-1.3,0-1.9,0.1c-0.5,0-1,0-1.5,0c-2.3,0-4.7-0.1-7.2-0.2
			c-1.1-0.1-2.3-0.2-3.4-0.3l0,0l0,0l-33.2-33.2l23.8-23.8L554.9,177.3z"/>
		<path class="st24" d="M281.9,351.1l35.3,35.3l0,0l-70.5-70.5c-16.2-1-28.4,1.8-38.4,9.1l50,50L281.9,351.1z"/>
		<polygon class="st25" points="308.1,424.9 308.1,424.9 308.1,424.9 258.1,374.9 258.1,374.9 		"/>
		<path class="st25" d="M308.1,424.9L308.1,424.9l-50-50l23.8-23.8l35.3,35.3C318.2,402.6,315.3,414.8,308.1,424.9z"/>
		<path class="st20" d="M243.1,390l49.2,49.2l0,0L194,340.9c-5.2,9.3-7.2,20.4-6.2,34.5c0.2,2.5,0.4,5,0.8,7.6l30.9,30.9L243.1,390z
			"/>
		<polygon class="st21" points="219.3,413.7 250.1,444.6 250.1,444.6 		"/>
		<path class="st21" d="M292.2,439.1c-3.6,2-7.4,3.5-11.5,4.6c-6.7,1.7-14.2,2.2-22.9,1.6h-0.1c-1.2-0.1-2.4-0.2-3.5-0.3
			c-0.4,0-0.8-0.1-1.2-0.1c-0.8-0.1-1.6-0.2-2.4-0.3c-0.1,0-0.3,0-0.4-0.1l-30.9-30.9L243,390L292.2,439.1z"/>
		<path class="st22" d="M179.3,552.9L179.3,552.9l-99.2-99.2c9.7-6.3,21.5-8.6,36.8-7.6c1.1,0.1,2.3,0.2,3.5,0.3l33.2,33.2
			l-23.8,23.8L179.3,552.9z"/>
		<path class="st23" d="M186.6,512.7L186.6,512.7l-33.1-33.1l0,0L186.6,512.7z"/>
		<path class="st23" d="M186.6,532.2c-0.1,1.1-0.3,2.2-0.5,3.3c-0.3,1.5-0.6,2.9-1,4.3c-0.5,1.7-1,3.3-1.6,4.9
			c-1.1,2.9-2.5,5.6-4.2,8.2l-49.6-49.6l23.8-23.8l33.1,33.1c0.1,0.8,0.1,1.6,0.2,2.4c0,0.4,0.1,0.7,0.1,1
			C187.3,522,187.2,527.3,186.6,532.2z"/>
		<path class="st26" d="M572.6,206L572.6,206c5-3.2,9.8-7,14.5-11.6l-23.8-23.8l0,0l23.8,23.8C582.4,199,577.6,202.8,572.6,206z"/>
		<path class="st26" d="M514.7,184.6L514.7,184.6C514.7,184.6,514.6,184.6,514.7,184.6L514.7,184.6z"/>
		<path class="st26" d="M200.7,432.3L200.7,432.3L200.7,432.3z"/>
		<path class="st26" d="M461.1,171.9L461.1,171.9L461.1,171.9z"/>
		<path class="st26" d="M330.9,302.1L330.9,302.1L330.9,302.1z"/>
		<path class="st26" d="M461.1,171.9l-26.8,26.8c-0.3-0.1-0.5-0.2-0.8-0.2c-20-6.2-39-11.6-56.3-12.8c-0.1,0-0.3,0-0.4,0
			c-16.2-1.1-28.4,1.8-38.5,9c-2.2,1.6-4.2,3.3-6.2,5.3c-3.3,3.3-5.9,6.7-8.1,10.5c-5.3,9.3-7.2,20.4-6.3,34.6
			c0.2,2.4,0.4,4.9,0.8,7.4c1.9,14.4,6.5,30.9,12.3,49.6L304,328.9l0,0c-20.3-6.3-39.5-11.8-57-13c-0.2,0-0.3,0-0.5,0
			c-16.2-1-28.4,1.8-38.4,9.1c-2.2,1.5-4.2,3.3-6.2,5.3c-3.3,3.3-6,6.8-8.1,10.6c-5.2,9.3-7.2,20.4-6.2,34.5c0.2,2.5,0.4,5,0.8,7.6
			c2,15.4,6.8,32,12.3,49.5l-26.8,26.8l0,0c-19-5.9-37-11.1-53.6-12.7c-1.2-0.1-2.3-0.2-3.5-0.3c-15.3-1-27,1.3-36.8,7.6
			c-1.9,1.2-3.8,2.6-5.5,4.2c-5.8-9.8-11-20-15.5-30.5c30.1-21.3,67.2-16.5,103.2-6.7c-11-40.6-15.8-82.5,16-114.3s73.7-27,114.2-16
			c-11-40.6-15.8-82.5,16-114.3s73.7-27,114.3-16c-9.5-34.9-14.4-70.7,4.7-100.3c5.5,2.4,11,5,16.3,7.8c1.1,0.6,2.3,1.2,3.4,1.8
			c3.5,1.9,7,3.9,10.5,5.9c-0.7,0.9-1.3,1.8-1.9,2.7c-6.3,9.7-8.6,21.5-7.6,36.8c0.1,1.2,0.2,2.3,0.3,3.5
			C450.1,134.8,455.2,152.9,461.1,171.9C461.1,171.8,461.1,171.9,461.1,171.9z"/>
		<path class="st27" d="M447.3,255.7v0.2C447.3,255.8,447.3,255.8,447.3,255.7c0-0.6-0.1-1.1-0.1-1.7
			C447.3,254.6,447.3,255.2,447.3,255.7z"/>
		<ellipse class="st27" cx="304.1" cy="328.9" rx="0" ry="0"/>
		<path class="st27" d="M439.5,292.9c-0.1,0.1-0.1,0.2-0.2,0.3l0,0c-0.3,0.5-0.6,0.9-0.9,1.3l0,0C438.7,294,439.1,293.5,439.5,292.9
			z"/>
		<path class="st27" d="M441.2,290c-0.2,0.3-0.3,0.6-0.5,0.9c-0.1,0.1-0.1,0.2-0.2,0.3c0,0,0,0.1-0.1,0.1c0,0,0,0,0,0.1
			c-0.1,0.2-0.3,0.4-0.4,0.6c0.2-0.3,0.3-0.5,0.5-0.8C440.8,290.8,441,290.4,441.2,290z"/>
		<path class="st27" d="M441.9,288.8c-0.1,0.2-0.2,0.3-0.3,0.5c-0.1,0.1-0.1,0.2-0.2,0.3C441.6,289.3,441.8,289,441.9,288.8z"/>
		<path class="st27" d="M444.7,282.1c-0.4,1.3-0.9,2.5-1.4,3.8C443.8,284.7,444.3,283.4,444.7,282.1z"/>
		<path class="st27" d="M447.5,259.9c0-1.2-0.1-2.5-0.2-3.8c0,0.6,0.1,1.3,0.1,1.9c0,0.4,0,0.8,0.1,1.1
			C447.5,259.3,447.5,259.6,447.5,259.9z"/>
		<path class="st27" d="M380.5,314.4L380.5,314.4L380.5,314.4L380.5,314.4z"/>
		<path class="st27" d="M422.5,308.8L422.5,308.8L422.5,308.8L422.5,308.8z"/>
		<path class="st27" d="M380.8,314.4c-0.1,0-0.2,0-0.3,0l0,0l0,0C380.6,314.4,380.7,314.4,380.8,314.4z"/>
		<ellipse class="st27" cx="472.8" cy="210.3" rx="0" ry="0"/>
		<ellipse class="st27" cx="434.3" cy="198.7" rx="0" ry="0"/>
		<path class="st27" d="M304.1,328.9L304.1,328.9L304.1,328.9z"/>
		<path class="st27" d="M380.5,314.4L380.5,314.4L380.5,314.4L380.5,314.4z"/>
		<path class="st27" d="M440.5,291.2c0,0,0,0.1-0.1,0.1C440.5,291.3,440.5,291.3,440.5,291.2L440.5,291.2z"/>
		<path class="st27" d="M563.3,170.6L563.3,170.6c-1.9,1.9-3.9,3.6-6,5.1l0,0C559.4,174.2,561.4,172.5,563.3,170.6z"/>
		<path class="st27" d="M566.1,188.5l-1.2,1.2l0,0L566.1,188.5L566.1,188.5z"/>
		<ellipse class="st27" cx="434.3" cy="198.7" rx="0" ry="0"/>
		<path class="st27" d="M434.3,198.7L434.3,198.7L434.3,198.7z"/>
		<path class="st27" d="M330.9,302.1L330.9,302.1L330.9,302.1z"/>
		<path class="st27" d="M250.2,444.6c-0.3,0-0.7-0.1-1-0.2C249.5,444.5,249.8,444.5,250.2,444.6L250.2,444.6z"/>
		<path class="st27" d="M246.8,478c-1.1-0.1-2.2-0.3-3.3-0.4c-0.3,0-0.5-0.1-0.8-0.1c0.8,0.1,1.6,0.2,2.4,0.3
			C245.7,477.8,246.3,477.9,246.8,478z"/>
		<path class="st27" d="M253.3,478.6c-0.5,0-1-0.1-1.5-0.1c-0.1,0-0.3,0-0.4,0c-0.6,0-1.2-0.1-1.8-0.2c-0.1,0-0.1,0-0.2,0
			c-0.8-0.1-1.7-0.2-2.5-0.3c1.1,0.1,2.2,0.3,3.3,0.4C251.1,478.4,252.2,478.5,253.3,478.6z"/>
		<path class="st27" d="M262.9,479.1c-0.2,0-0.4,0-0.7,0c-0.3,0-0.5,0-0.8,0h0.2C262.1,479.1,262.5,479.1,262.9,479.1z"/>
		<path class="st27" d="M268.7,479c-0.4,0-0.7,0-1.1,0c0.2,0,0.3,0,0.5,0C268.3,479.1,268.5,479.1,268.7,479z"/>
		<path class="st27" d="M269.8,479c-0.4,0-0.7,0-1,0c0.2,0,0.3,0,0.5,0S269.7,479,269.8,479z"/>
		<path class="st27" d="M277.7,478.4c-0.3,0-0.7,0.1-1,0.1c-0.4,0.1-0.8,0.1-1.2,0.1c-0.1,0-0.2,0-0.3,0c-0.5,0-1,0.1-1.5,0.1
			c0.3,0,0.7-0.1,1-0.1c0.5,0,1-0.1,1.5-0.1c0.3,0,0.7-0.1,1.1-0.1C277.4,478.4,277.6,478.4,277.7,478.4z"/>
		<path class="st27" d="M280.4,478c-0.2,0-0.5,0.1-0.7,0.1c-0.3,0-0.7,0.1-1,0.1C279.3,478.2,279.8,478.1,280.4,478z"/>
		<path class="st27" d="M292.2,475.4C292.2,475.4,292.1,475.4,292.2,475.4c-0.6,0.2-1.2,0.3-1.7,0.5
			C291,475.7,291.6,475.6,292.2,475.4z"/>
		<path class="st27" d="M300.5,472.5c-0.2,0.1-0.4,0.2-0.6,0.2c-0.2,0.1-0.5,0.2-0.7,0.3c0.2-0.1,0.5-0.2,0.7-0.3
			C300.1,472.6,300.3,472.5,300.5,472.5z"/>
		<path class="st27" d="M301.3,472.1c-0.2,0.1-0.3,0.1-0.5,0.2c-0.1,0-0.2,0.1-0.3,0.1C300.8,472.3,301,472.2,301.3,472.1z"/>
		<path class="st27" d="M302.1,471.8c-0.1,0.1-0.2,0.1-0.3,0.1c-0.1,0-0.1,0.1-0.2,0.1c0.1,0,0.1-0.1,0.2-0.1
			C301.9,471.8,302,471.8,302.1,471.8z"/>
		<path class="st27" d="M312.7,466c-0.4,0.3-0.9,0.6-1.3,0.8c0,0,0,0-0.1,0C311.8,466.6,312.2,466.3,312.7,466z"/>
		<ellipse class="st27" cx="173.8" cy="459.1" rx="0" ry="0"/>
		<path class="st27" d="M317.2,386.4L317.2,386.4L317.2,386.4L317.2,386.4C317.1,386.4,317.1,386.4,317.2,386.4z"/>
		<path class="st27" d="M308.1,424.9L308.1,424.9L308.1,424.9L308.1,424.9L308.1,424.9z"/>
		<ellipse class="st27" cx="292.2" cy="439.1" rx="0" ry="0"/>
		<polygon class="st27" points="250.1,444.6 250.1,444.6 250.2,444.6 250.2,444.6 		"/>
		<path class="st27" d="M250.6,444.6c-0.1,0-0.3,0-0.4,0l0,0C250.3,444.6,250.4,444.6,250.6,444.6z"/>
		<ellipse class="st27" cx="200.7" cy="432.3" rx="0" ry="0"/>
		<path class="st27" d="M276.2,478.5c-0.5,0.1-1,0.1-1.5,0.1c0.2,0,0.3,0,0.5,0c0.1,0,0.2,0,0.3,0c0.4,0,0.8-0.1,1.2-0.1
			c0.2,0,0.4,0,0.5-0.1C276.9,478.5,276.5,478.5,276.2,478.5z M261.7,479.1c0.2,0,0.4,0,0.5,0c0.2,0,0.4,0,0.7,0
			C262.5,479.1,262.1,479.1,261.7,479.1z M250.1,478.3c0.4,0,0.8,0.1,1.2,0.1c0.1,0,0.3,0,0.4,0c0.5,0,1,0.1,1.5,0.1
			C252.2,478.5,251.1,478.4,250.1,478.3z"/>
		<path class="st27" d="M472.8,210.3c11,40.6,15.8,82.5-16,114.2c-16.8,16.8-36.3,23.4-57.1,24.2c-18.5,0.8-38-3-57.2-8.3
			c8.2,30.3,13,61.3,1.7,88.3c-3.9,9.2-9.6,17.9-17.7,26c-0.6,0.6-1.2,1.2-1.9,1.8c-0.5,0.5-1.1,1-1.7,1.5s-1.1,1-1.7,1.5
			c-0.1,0.1-0.1,0.1-0.2,0.2c-0.5,0.4-1,0.8-1.5,1.2c-0.5,0.4-0.9,0.8-1.4,1.1c-0.1,0.1-0.2,0.1-0.3,0.2c-0.1,0.1-0.2,0.2-0.3,0.3
			c-0.5,0.3-0.9,0.7-1.4,1c0,0,0,0-0.1,0c-0.1,0.1-0.2,0.2-0.3,0.2c-0.4,0.3-0.8,0.6-1.2,0.9c-0.1,0-0.1,0.1-0.2,0.1c0,0,0,0-0.1,0
			l0,0l0,0c-0.3,0.2-0.5,0.4-0.8,0.5c-0.3,0.2-0.6,0.4-0.9,0.6c-0.5,0.3-0.9,0.6-1.4,0.9l0,0c-0.1,0.1-0.3,0.2-0.4,0.2
			s-0.2,0.1-0.2,0.1s0,0-0.1,0c-0.4,0.2-0.8,0.5-1.2,0.7c-0.1,0-0.1,0.1-0.2,0.1c-0.6,0.3-1.1,0.6-1.7,1c-0.1,0-0.1,0.1-0.2,0.1
			c-0.4,0.2-0.8,0.4-1.1,0.6l0,0c-0.1,0.1-0.2,0.1-0.3,0.2c-0.3,0.2-0.6,0.3-0.9,0.5c-0.5,0.3-1.1,0.5-1.6,0.8c0,0,0,0-0.1,0
			c-0.3,0.1-0.5,0.3-0.8,0.4c-0.1,0-0.2,0.1-0.3,0.1c-0.1,0-0.2,0.1-0.3,0.1c-0.1,0-0.1,0.1-0.2,0.1s-0.2,0.1-0.3,0.1
			c-0.3,0.1-0.5,0.2-0.8,0.3c-0.2,0.1-0.4,0.2-0.6,0.2c-0.2,0.1-0.5,0.2-0.7,0.3c-0.4,0.2-0.8,0.3-1.1,0.5c-0.6,0.2-1.3,0.5-1.9,0.7
			c-0.5,0.2-1,0.3-1.5,0.5c-0.3,0.1-0.5,0.2-0.8,0.3c-0.2,0.1-0.3,0.1-0.5,0.2c-0.3,0.1-0.6,0.2-1,0.3c-0.1,0-0.1,0-0.2,0.1
			c-0.6,0.2-1.1,0.3-1.7,0.5s-1.3,0.3-1.9,0.5c-0.5,0.1-1,0.2-1.5,0.3c-0.5,0.1-1,0.2-1.5,0.3c-0.3,0.1-0.7,0.2-1.1,0.2
			c0,0,0,0-0.1,0s-0.2,0.1-0.3,0.1c-0.4,0.1-0.8,0.2-1.3,0.2h-0.1h-0.1c-0.5,0.1-1,0.2-1.5,0.2c-0.2,0-0.5,0.1-0.7,0.1l0,0
			c-0.6,0.1-1.1,0.2-1.7,0.2c-0.2,0-0.3,0-0.5,0.1l0,0c-0.2,0-0.3,0-0.5,0.1c-0.1,0-0.3,0-0.5,0c-0.4,0-0.7,0.1-1.1,0.1
			c-0.5,0.1-1,0.1-1.5,0.1c-0.3,0-0.7,0.1-1,0.1c-0.1,0-0.3,0-0.4,0l0,0c-0.4,0-0.7,0.1-1.1,0.1c-0.6,0-1.2,0.1-1.8,0.1l0,0
			c-0.2,0-0.4,0-0.5,0l0,0c-0.2,0-0.4,0-0.6,0c-0.4,0-0.8,0-1.2,0c-0.2,0-0.3,0-0.5,0c-0.5,0-1,0-1.5,0c-1.1,0-2.2,0-3.2,0
			c-0.4,0-0.8,0-1.2,0h-0.2c-0.4,0-0.8,0-1.3,0c-0.7,0-1.3,0-2-0.1c-0.8,0-1.6-0.1-2.4-0.1c-0.4,0-0.8-0.1-1.3-0.1
			c-0.4,0-0.8-0.1-1.2-0.1c0,0,0,0-0.1,0c-1-0.1-2.1-0.2-3.2-0.3c-1.1-0.1-2.2-0.2-3.3-0.4l0,0c-0.5-0.1-1.1-0.1-1.6-0.2
			c-0.8-0.1-1.6-0.2-2.4-0.3c-0.2,0-0.3,0-0.5-0.1c-0.8-0.1-1.5-0.2-2.3-0.4c-0.9-0.1-1.8-0.3-2.7-0.5c-0.1,0-0.2,0-0.3,0
			c-1.1-0.2-2.2-0.4-3.3-0.6s-2.2-0.4-3.3-0.7c-0.5-0.1-1.1-0.2-1.6-0.3c-1.1-0.2-2.2-0.5-3.3-0.7c-4.4-1-8.8-2.1-13.1-3.3
			c7.6,27.9,12.2,56.4,4,81.8c-0.2,0.7-0.5,1.4-0.7,2.2c-0.4,1.2-0.9,2.5-1.4,3.7c-0.4,0.9-0.8,1.8-1.2,2.7c-0.6,1.4-1.3,2.8-2,4.2
			s-1.5,2.8-2.3,4.1c-0.8,1.4-1.7,2.7-2.7,4.1c-10.6-4.5-20.8-9.6-30.6-15.3c1.4-1.7,2.7-3.4,3.9-5.2l0,0l0,0c1.7-2.6,3-5.3,4.2-8.2
			c0.6-1.6,1.1-3.2,1.6-4.9c0.4-1.4,0.7-2.8,1-4.3c0.2-1.1,0.4-2.2,0.5-3.3c0.6-4.9,0.7-10.2,0.3-16.1c0-0.3-0.1-0.7-0.1-1
			c-0.1-0.8-0.1-1.6-0.2-2.4l0,0l0,0c-0.1-0.5-0.1-1.1-0.2-1.6c-0.1-0.7-0.1-1.3-0.2-2c-0.1-0.6-0.2-1.1-0.2-1.7
			c-0.1-0.6-0.2-1.3-0.3-1.9s-0.2-1.2-0.3-1.8c-0.1-0.6-0.2-1.3-0.3-1.9s-0.2-1.2-0.3-1.8c-0.1-0.6-0.3-1.3-0.4-1.9
			c-0.1-0.6-0.3-1.2-0.4-1.8c-0.1-0.6-0.3-1.3-0.4-1.9c-0.1-0.6-0.3-1.2-0.4-1.9c-0.1-0.6-0.3-1.3-0.5-2c-0.3-1.2-0.6-2.5-0.9-3.7
			c-0.2-0.6-0.3-1.2-0.4-1.7c-0.2-0.7-0.4-1.5-0.6-2.2c-0.1-0.5-0.3-1.1-0.4-1.6c-0.2-0.8-0.4-1.5-0.6-2.3c-0.1-0.5-0.3-1-0.4-1.6
			c-0.2-0.8-0.5-1.6-0.7-2.4c-0.1-0.5-0.3-1-0.4-1.5c-0.2-0.9-0.5-1.7-0.7-2.5c-0.1-0.4-0.3-0.8-0.4-1.3c-0.3-0.9-0.6-1.9-0.8-2.8
			c-0.1-0.3-0.2-0.5-0.2-0.8c-0.7-2.3-1.4-4.6-2.1-7l0,0l26.8-26.8l0,0c0.1,0,0.1,0,0.2,0.1c0.3,0.1,0.5,0.2,0.8,0.3
			c1.1,0.3,2.1,0.7,3.2,1c0.5,0.2,1,0.3,1.5,0.5c0.8,0.3,1.7,0.5,2.5,0.8c0.6,0.2,1.1,0.3,1.7,0.5c0.8,0.2,1.6,0.5,2.3,0.7
			c0.6,0.2,1.2,0.3,1.7,0.5c0.8,0.2,1.5,0.4,2.3,0.7c0.6,0.2,1.1,0.3,1.7,0.5c0.8,0.2,1.6,0.4,2.3,0.7c0.5,0.1,1.1,0.3,1.6,0.4
			c0.9,0.2,1.7,0.5,2.6,0.7c0.4,0.1,0.9,0.2,1.3,0.3c1.3,0.3,2.5,0.7,3.8,1c0.3,0.1,0.6,0.1,0.9,0.2c1,0.2,1.9,0.5,2.9,0.7
			c0.5,0.1,0.9,0.2,1.4,0.3c0.8,0.2,1.6,0.3,2.4,0.5c0.5,0.1,1,0.2,1.5,0.3c0.7,0.1,1.5,0.3,2.2,0.4c0.5,0.1,1,0.2,1.5,0.3
			c0.7,0.1,1.5,0.3,2.2,0.4c0.5,0.1,1,0.2,1.5,0.3c0.8,0.1,1.5,0.2,2.2,0.3c0.3,0,0.7,0.1,1,0.2c0.1,0,0.3,0,0.4,0
			c0.8,0.1,1.6,0.2,2.4,0.3c0.4,0,0.8,0.1,1.2,0.1c1.2,0.1,2.4,0.2,3.5,0.3h0.1c8.7,0.6,16.2,0.1,22.9-1.6c4.2-1.1,8-2.6,11.5-4.6
			c3.8-2.1,7.3-4.8,10.6-8.1c2-2,3.7-4,5.3-6.2l0,0l0,0c7.3-10,10.1-22.3,9.1-38.4l0,0l0,0l0,0c0-0.2,0-0.3,0-0.5s0-0.4,0-0.6
			c-0.1-1-0.2-2-0.3-3c0-0.5-0.1-0.9-0.2-1.4c-0.1-0.7-0.2-1.5-0.3-2.2c-0.1-0.5-0.1-1-0.2-1.5c-0.1-0.7-0.2-1.4-0.3-2.1
			c-0.1-0.5-0.2-1.1-0.3-1.6c-0.1-0.7-0.2-1.4-0.3-2.1c-0.1-0.5-0.2-1.1-0.3-1.6c-0.1-0.7-0.3-1.4-0.4-2.1c-0.1-0.5-0.2-1.1-0.3-1.6
			c-0.2-0.8-0.3-1.5-0.5-2.3c-0.1-0.5-0.2-1-0.3-1.5c-0.2-0.9-0.4-1.8-0.6-2.7c-0.1-0.4-0.2-0.7-0.3-1.1c-0.3-1.3-0.6-2.5-0.9-3.8
			c-0.1-0.5-0.3-1-0.4-1.5c-0.2-0.8-0.4-1.6-0.6-2.4c-0.2-0.6-0.3-1.2-0.5-1.8c-0.2-0.7-0.4-1.4-0.6-2.1l-0.5-1.9
			c-0.2-0.7-0.4-1.4-0.6-2c-0.2-0.7-0.4-1.3-0.6-2s-0.4-1.3-0.6-2s-0.4-1.4-0.6-2s-0.4-1.2-0.6-1.9c-0.2-0.7-0.5-1.5-0.7-2.2
			c-0.1-0.4-0.3-0.9-0.4-1.3c-0.3-0.9-1.5-2.8-1.8-3.7l26.8-26.8c1.5,0.5,3.9,1.9,5.4,2.4c0.3,0.1,0.6,0.2,0.8,0.3
			c1,0.3,2.1,0.6,3.2,0.9c0.4,0.1,0.8,0.3,1.3,0.4c0.9,0.3,1.8,0.5,2.7,0.8c0.5,0.1,1,0.3,1.5,0.4c0.9,0.3,1.7,0.5,2.6,0.7
			c0.5,0.1,1,0.3,1.5,0.4c0.9,0.3,1.8,0.5,2.6,0.7c0.5,0.1,0.9,0.3,1.4,0.4c1,0.3,2,0.5,3,0.8c0.3,0.1,0.6,0.2,1,0.3
			c1.3,0.3,2.6,0.7,3.9,1c0.2,0.1,0.4,0.1,0.5,0.1c1.1,0.3,2.2,0.5,3.3,0.8c0.4,0.1,0.8,0.2,1.2,0.3c0.8,0.2,1.7,0.4,2.5,0.5
			c0.5,0.1,1,0.2,1.4,0.3c0.8,0.2,1.6,0.3,2.3,0.5c0.5,0.1,1,0.2,1.5,0.3c0.8,0.1,1.5,0.3,2.3,0.4c0.5,0.1,1,0.1,1.5,0.2
			c0.8,0.1,1.5,0.2,2.3,0.3c0.4,0,0.7,0.1,1.1,0.1l0,0l0,0c0.1,0,0.2,0,0.3,0c0.8,0.1,1.6,0.2,2.5,0.3c0.4,0,0.8,0.1,1.1,0.1
			c1.2,0.1,2.4,0.2,3.6,0.3c2.5,0.2,4.9,0.3,7.2,0.3c4.1,0,7.8-0.3,11.4-0.9c4.7-0.8,9.1-2.1,13-4c1-0.5,2-1,2.9-1.5l0,0
			c3.8-2.1,7.3-4.8,10.5-8c0.5-0.5,1-1,1.4-1.5c0.2-0.3,0.5-0.5,0.7-0.8c0.5-0.5,0.9-1,1.3-1.6c0.2-0.3,0.4-0.5,0.6-0.8
			c0.4-0.5,0.8-1.1,1.2-1.6l0,0c0.3-0.4,0.6-0.9,0.9-1.3l0,0c0.1-0.1,0.1-0.2,0.2-0.3c0.1-0.1,0.1-0.2,0.2-0.2
			c0.1-0.2,0.3-0.4,0.4-0.6s0.3-0.4,0.4-0.6c0,0,0,0,0-0.1c0,0,0-0.1,0.1-0.1c0.1-0.1,0.1-0.2,0.2-0.3c0.2-0.3,0.4-0.6,0.5-0.9
			c0.1-0.1,0.1-0.2,0.2-0.3c0-0.1,0.1-0.1,0.1-0.1c0.1-0.1,0.1-0.2,0.2-0.3c0.1-0.2,0.2-0.3,0.3-0.5c0.1-0.2,0.2-0.3,0.3-0.5
			c0.1-0.1,0.1-0.2,0.1-0.3c0-0.1,0.1-0.1,0.1-0.2s0.1-0.2,0.1-0.2c0-0.1,0.1-0.2,0.1-0.3l0,0c0-0.1,0.1-0.1,0.1-0.2
			c0.2-0.4,0.4-0.8,0.5-1.2l0,0c0.5-1.2,1-2.5,1.4-3.8l0,0c0.2-0.5,0.3-1.1,0.5-1.6c0,0,0-0.1,0.1-0.1c0-0.1,0-0.1,0-0.2l0,0v-0.1
			c0,0,0,0,0-0.1c0,0,0,0,0-0.1c0.2-0.6,0.3-1.2,0.5-1.8l0,0c0-0.1,0.1-0.2,0.1-0.3c0.1-0.6,0.3-1.1,0.4-1.7l0,0
			c0.1-0.3,0.1-0.7,0.2-1s0.1-0.6,0.1-0.8v-0.2c0-0.1,0-0.2,0-0.3c0.1-0.5,0.2-1,0.2-1.6c0-0.1,0-0.2,0.1-0.3c0-0.1,0-0.2,0-0.2
			c0.1-0.6,0.1-1.2,0.2-1.8c0-0.1,0-0.1,0-0.2v-0.1c0-0.1,0-0.1,0-0.2c0.1-0.6,0.1-1.3,0.2-2l0,0c0-0.1,0-0.1,0-0.2
			c0-0.7,0.1-1.4,0.1-2.2l0,0c0-0.8,0-1.6,0-2.4c0-0.5,0-1.1,0-1.6v-0.1c0-0.3,0-0.6,0-0.9s0-0.5,0-0.8c0-0.4,0-0.8-0.1-1.1
			c0-0.6-0.1-1.2-0.1-1.9l0,0c0,0,0-0.1,0-0.2v-0.2c0-0.6-0.1-1.1-0.1-1.7c0-0.6-0.1-1.2-0.2-1.8s-0.1-1.3-0.2-1.9
			c-0.1-0.5-0.1-1.1-0.2-1.6c-0.1-0.7-0.2-1.3-0.3-2c-0.1-0.5-0.2-1.1-0.2-1.6c-0.1-0.7-0.2-1.4-0.3-2.1c-0.1-0.5-0.2-1-0.3-1.6
			c-0.1-0.7-0.3-1.4-0.4-2.1c-0.1-0.5-0.2-1-0.3-1.5c-0.2-0.8-0.3-1.5-0.5-2.2c-0.1-0.4-0.2-0.9-0.3-1.3c-0.2-0.8-0.4-1.6-0.5-2.5
			c0-0.2-0.1-0.4-0.1-0.6c-0.8-3.3-1.6-6.7-2.5-10c0-0.1,0-0.2-0.1-0.2c-0.3-1.1-0.6-2.2-0.9-3.3c0-0.2-0.1-0.4-0.1-0.5
			c-0.3-1.1-0.6-2.2-0.9-3.3c0-0.2-0.1-0.3-0.1-0.4c-0.1-0.3-0.2-0.6-0.3-0.9c-1.3-4.6-2.7-9.2-4.2-14l26.8-26.8l0,0c0,0,0,0,0.1,0
			c0.5,0.2,1,0.3,1.6,0.5c0.8,0.3,1.7,0.5,2.5,0.8c0.6,0.2,1.2,0.4,1.7,0.5c0.8,0.2,1.5,0.5,2.3,0.7c0.6,0.2,1.2,0.4,1.8,0.5
			c0.8,0.2,1.5,0.5,2.3,0.7c0.6,0.2,1.2,0.3,1.8,0.5c0.8,0.2,1.5,0.4,2.2,0.6c0.6,0.2,1.2,0.3,1.8,0.5c0.8,0.2,1.5,0.4,2.3,0.6
			c0.5,0.2,1.1,0.3,1.7,0.5c0.9,0.2,1.7,0.5,2.6,0.7c0.4,0.1,0.9,0.2,1.3,0.3c1.3,0.3,2.5,0.7,3.8,1c0.3,0.1,0.6,0.1,0.9,0.2
			c1,0.2,1.9,0.5,2.9,0.7c0.5,0.1,0.9,0.2,1.4,0.3c0.8,0.2,1.6,0.3,2.4,0.5c0.5,0.1,1,0.2,1.5,0.3c0.8,0.1,1.5,0.3,2.2,0.4
			c0.5,0.1,1,0.2,1.5,0.3c0.7,0.1,1.5,0.3,2.2,0.4c0.5,0.1,1,0.2,1.5,0.2c0.8,0.1,1.5,0.2,2.2,0.3c0.5,0.1,1,0.1,1.4,0.2
			c0.8,0.1,1.6,0.2,2.4,0.3c0.4,0,0.8,0.1,1.2,0.1h0.1l0,0c1.2,0.1,2.3,0.2,3.4,0.3c2.5,0.2,4.9,0.3,7.2,0.2c0.5,0,1,0,1.5,0
			c0.6,0,1.3,0,1.9-0.1c10.3-0.5,18.8-3,26.2-7.7l0,0c0.8-0.5,1.6-1.1,2.4-1.6c1.7,3,3.4,6,5,9l0,0c0.9,1.7,1.8,3.3,2.6,5l0,0
			c2.7,5.3,5.2,10.8,7.6,16.3C543.1,224.6,507.5,219.8,472.8,210.3z"/>
		<path class="st27" d="M461.1,171.9l-26.8,26.8c1.5,4.7,2.9,9.4,4.2,14c-1.4-4.4-3.5-9.6-5-14.2c-0.1-0.3-0.2-0.5-0.2-0.8l27-27
			L461.1,171.9L461.1,171.9L461.1,171.9z"/>
		<path class="st27" d="M245.2,477.7c-0.5-0.1-1.1-0.1-1.6-0.2c-0.3,0-0.5-0.1-0.8-0.1C243.6,477.5,244.4,477.6,245.2,477.7z"/>
		<path class="st27" d="M250.1,478.3c-0.2,0-0.4,0-0.6,0c-0.1,0-0.1,0-0.2,0c-0.8-0.1-1.7-0.2-2.5-0.3
			C247.9,478.1,249,478.2,250.1,478.3z"/>
		<path class="st27" d="M274.7,478.7c0.7-0.1,1.3-0.1,2-0.2c-0.5,0.1-1,0.1-1.5,0.2C275,478.6,274.9,478.7,274.7,478.7z"/>
		<path class="st27" d="M277.7,478.4c-0.3,0-0.7,0.1-1,0.1c0.2,0,0.4,0,0.5-0.1C277.4,478.4,277.6,478.4,277.7,478.4z"/>
		<path class="st27" d="M280.4,478c-0.2,0-0.5,0.1-0.7,0.1c-0.3,0-0.7,0.1-1,0.1C279.3,478.2,279.8,478.1,280.4,478z"/>
		<path class="st27" d="M292.2,475.4C292.2,475.4,292.1,475.4,292.2,475.4c-0.6,0.2-1.2,0.3-1.7,0.5
			C291,475.7,291.6,475.6,292.2,475.4z"/>
		<path class="st27" d="M299.9,472.7L299.9,472.7c-0.2,0.1-0.5,0.2-0.7,0.3C299.5,472.9,299.7,472.8,299.9,472.7z"/>
		<path class="st27" d="M301.3,472.1c-0.2,0.1-0.3,0.1-0.5,0.2c-0.1,0-0.2,0.1-0.3,0.1C300.8,472.3,301,472.2,301.3,472.1z"/>
		<path class="st27" d="M301.8,471.9L301.8,471.9c-0.1,0-0.1,0.1-0.2,0.1C301.7,472,301.7,471.9,301.8,471.9z"/>
		<path class="st27" d="M312.7,466c-0.4,0.3-0.9,0.6-1.3,0.8c0,0,0,0-0.1,0C311.8,466.6,312.2,466.3,312.7,466z"/>
		<path class="st27" d="M317.2,386.4L317.2,386.4L317.2,386.4L317.2,386.4C317.1,386.4,317.1,386.4,317.2,386.4z"/>
		<path class="st27" d="M330.9,302.1L330.9,302.1L330.9,302.1z"/>
		<ellipse class="st27" cx="342.5" cy="340.6" rx="0" ry="0"/>
		<path class="st27" d="M330.9,302.1L330.9,302.1L330.9,302.1z"/>
		<ellipse class="st27" cx="173.9" cy="459.1" rx="0" ry="0"/>
		<ellipse class="st27" cx="212.3" cy="470.8" rx="0" ry="0"/>
		<ellipse class="st27" cx="304.1" cy="328.9" rx="0" ry="0"/>
		<ellipse class="st27" cx="304.1" cy="328.9" rx="0" ry="0"/>
	</g>
</g>
<path class="st28" d="M0,0L0,0L0,0z"/>
<path class="st28" d="M633.9,633.9L633.9,633.9L633.9,633.9z"/>
<path class="st28" d="M0,0L0,0L0,0z"/>
<path class="st28" d="M633.9,633.9L633.9,633.9L633.9,633.9z"/>
<path class="st28" d="M0,0L0,0L0,0z"/>
<path class="st28" d="M633.9,633.9L633.9,633.9L633.9,633.9z"/>
<path class="st28" d="M0,0L0,0L0,0z"/>
<path class="st28" d="M633.9,633.9L633.9,633.9L633.9,633.9z"/>
<path class="st28" d="M0,0L0,0L0,0z"/>
<path class="st28" d="M633.9,633.9L633.9,633.9L633.9,633.9z"/>
<path class="st28" d="M0,0L0,0L0,0z"/>
<path class="st28" d="M633.9,633.9L633.9,633.9L633.9,633.9z"/>
<path class="st28" d="M0,0L0,0L0,0z"/>
<path class="st28" d="M633.9,633.9L633.9,633.9L633.9,633.9z"/>
<path class="st28" d="M0,0L0,0L0,0z"/>
<path class="st28" d="M633.9,633.9L633.9,633.9L633.9,633.9z"/>
<path class="st28" d="M0,0L0,0L0,0z"/>
<path class="st28" d="M633.9,633.9L633.9,633.9L633.9,633.9z"/>
<path class="st28" d="M0,0L0,0L0,0z"/>
<path class="st28" d="M633.9,633.9L633.9,633.9L633.9,633.9z"/>
<path class="st28" d="M0,0L0,0L0,0z"/>
<path class="st28" d="M633.9,633.9L633.9,633.9L633.9,633.9z"/>
<path class="st28" d="M0,0L0,0L0,0z"/>
<path class="st28" d="M633.9,633.9L633.9,633.9L633.9,633.9z"/>
</svg>
