<?xml version="1.0" encoding="utf-8"?>
<!-- Generator: Adobe Illustrator 21.0.0, SVG Export Plug-In . SVG Version: 6.00 Build 0)  -->
<svg version="1.1" id="Layer_1" xmlns="http://www.w3.org/2000/svg" xmlns:xlink="http://www.w3.org/1999/xlink" x="0px" y="0px"
	 viewBox="0 0 633.9 633.9" style="enable-background:new 0 0 633.9 633.9;" xml:space="preserve">
<style type="text/css">
	.st0{fill:#CFD1D1;}
	.st1{fill:#ECF0F3;}
	.st2{display:none;fill:#CFD1D1;}
	.st3{display:none;fill:#ECF0F3;}
	.st4{fill:#FFFFFF;}
	.st5{opacity:4.000000e-02;fill:#DFECED;enable-background:new    ;}
	.st6{opacity:0.1;fill:#DFECED;enable-background:new    ;}
	.st7{fill:#E3F3FF;}
	.st8{fill:#ADACB2;}
	.st9{fill:#8A8891;}
	.st10{fill:#E0E0E2;}
	.st11{fill:#C7C5CA;}
	.st12{fill:#70CBE0;}
	.st13{fill:#4CB0C1;}
	.st14{fill:#D88532;}
	.st15{fill:#E5A870;}
	.st16{fill:#DB5800;}
	.st17{fill:#65EAE6;}
	.st18{fill:#5B5754;}
	.st19{fill:#FFBC00;}
	.st20{fill:#F9D026;}
	.st21{fill:#E7C224;}
	.st22{fill:#61A2EF;}
	.st23{fill:#528ACF;}
</style>
<g id="Layer_3">
</g>
<g id="Layer_4">
</g>
<g>
	<g id="Layer_2">
		<g>
			<g>
				<circle class="st0" cx="314.4" cy="319.6" r="290.1"/>
				<circle class="st1" cx="314.4" cy="319.6" r="279.6"/>
			</g>
			<g>
				<circle class="st2" cx="315.1" cy="321.1" r="289.9"/>
				<ellipse class="st3" cx="315.3" cy="321.1" rx="276.5" ry="276.5"/>
				<path class="st4" d="M633.9,633.9L633.9,633.9L633.9,633.9z"/>
				<path class="st4" d="M633.9,633.9L633.9,633.9L633.9,633.9z"/>
				<path class="st4" d="M0,0L0,0L0,0z"/>
				<path class="st4" d="M633.9,633.9L633.9,633.9L633.9,633.9z"/>
				<path class="st4" d="M0,0L0,0L0,0z"/>
				<path class="st4" d="M633.9,633.9L633.9,633.9L633.9,633.9z"/>
			</g>
		</g>
		<rect class="st5" width="0.1" height="0.1"/>
		<rect x="633.4" y="633.4" class="st6" width="0.5" height="0.5"/>
		<g>
			<g id="Layer_3_2_">
				<circle class="st0" cx="316.9" cy="316.9" r="289.9"/>
				<ellipse class="st7" cx="316.3" cy="317.1" rx="276.5" ry="276.5"/>
			</g>
			<g>
				<path class="st8" d="M236.9,177.6h106.4c9.3,0,16.9,7.6,16.9,16.9c0,9.3-7.6,16.9-16.9,16.9H236.9c-9.3,0-16.9-7.6-16.9-16.9
					C220,185.2,227.5,177.6,236.9,177.6z"/>
				<path class="st8" d="M236.9,211.4h106.4c9.3,0,16.9-7.6,16.9-16.9c0-9.3-7.6-16.9-16.9-16.9H236.9c-9.3,0-16.9,7.6-16.9,16.9
					C220,203.9,227.5,211.4,236.9,211.4z"/>
				<path class="st8" d="M503.2,177.6h-80.1c-9.3,0-16.9,7.6-16.9,16.9c0,9.3,7.6,16.9,16.9,16.9h80.1c7.1,0,12.9,5.8,12.9,12.9
					v283.9c12.6-13.2,24-27.7,33.8-43.2V224.3C549.9,198.6,529,177.6,503.2,177.6z"/>
				<path class="st8" d="M119.9,224.3c0-7.1,5.8-12.9,12.9-12.9h24.1c9.3,0,16.9-7.6,16.9-16.9c0-9.3-7.6-16.9-16.9-16.9h-24.1
					c-25.8,0-46.7,21-46.7,46.7v245.8c9.9,14.9,21.3,28.8,33.8,41.5C119.9,511.6,119.9,224.3,119.9,224.3z"/>
			</g>
			<g>
				<path class="st9" d="M343.3,177.6H318v33.8h25.3c9.3,0,16.9-7.6,16.9-16.9C360.2,185.2,352.6,177.6,343.3,177.6z"/>
			</g>
			<path class="st10" d="M439.1,308.5H327.3c-13,0-21.1-14.1-14.6-25.4l13.7-23.8V154.9c0-9.3,7.6-16.9,16.9-16.9h79.8
				c9.3,0,16.9,7.6,16.9,16.9v104.5c13.7,23.8,19.9,30.1,13.7,40.7C450.7,305.3,445.1,308.5,439.1,308.5z"/>
			<path class="st11" d="M440,259.4V154.9c0-9.3-7.6-16.9-16.9-16.9h-39.9v170.5h55.9c6,0,11.6-3.2,14.6-8.5
				C459.9,289.5,453.7,283.1,440,259.4z"/>
			<path class="st12" d="M497.1,388.3C496.5,389,449,276,448.8,274.7c-14.1,0-108.6,0-131.3,0l-4.9,8.5l0,0l-43.4,105.1
				c-15.4,26.7,3.8,60.1,34.7,60.1h158.4C493.2,448.4,512.5,415,497.1,388.3z"/>
			<path class="st13" d="M312.6,283.2L312.6,283.2z"/>
			<path class="st13" d="M387,448.4h75.3c30.9,0,50.2-33.4,34.7-60.1c-0.5,0.6-28.6-57.1-40.4-98c-2.8-9.6-7.5-15.5-7.5-15.5
				c-14.1,0-44.8,0-67.5,0L387,448.4z"/>
			<path class="st10" d="M236.9,271.3h-80c-9.3,0-16.9-7.6-16.9-16.9V155c0-9.3,7.6-16.9,16.9-16.9h80c9.3,0,16.9,7.6,16.9,16.9
				v99.4C253.8,263.7,246.2,271.3,236.9,271.3z"/>
			<path class="st8" d="M255.2,171.8H138.6c-9.3,0-16.9-7.6-16.9-16.9c0-9.3,7.6-16.9,16.9-16.9h116.7c9.3,0,16.9,7.6,16.9,16.9
				C272.1,164.2,264.6,171.8,255.2,171.8z"/>
			<path class="st14" d="M197.1,499c-31.4,0.1-57.1-26.5-57.1-57.9V237.4h113.8v204.7C253.8,473.5,228.4,498.9,197.1,499z"/>
			<g>
				<circle class="st15" cx="196.9" cy="307.4" r="9.1"/>
				<circle class="st15" cx="196.9" cy="349.2" r="17.7"/>
			</g>
			<path class="st11" d="M237.6,138h-40v133.3h40c9.3,0,16.9-7.6,16.9-16.9V155C254.5,145.6,247,138,237.6,138z"/>
			<path class="st16" d="M197.6,237.4V499c0.1,0,0.2,0,0.3,0c15.1-0.1,29.3-6,40-16.7c10.8-10.7,16.7-25,16.7-40.2V237.4H197.6
				L197.6,237.4z"/>
			<path class="st8" d="M441.5,171.8H324.8c-9.3,0-16.9-7.6-16.9-16.9c0-9.3,7.6-16.9,16.9-16.9h116.7c9.3,0,16.9,7.6,16.9,16.9
				S450.8,171.8,441.5,171.8z"/>
			<circle class="st17" cx="353.2" cy="346.5" r="10.9"/>
			<path class="st9" d="M441.5,138h-58.3v33.8h58.3c9.3,0,16.9-7.6,16.9-16.9C458.4,145.6,450.8,138,441.5,138z"/>
			<circle class="st12" cx="414.2" cy="346.5" r="21.1"/>
			<path class="st9" d="M256,138h-58.3v33.8H256c9.3,0,16.9-7.6,16.9-16.9C272.9,145.6,265.3,138,256,138z"/>
			<g>
				<path class="st14" d="M206.8,307.4c0-5-4.1-9.1-9.1-9.1v18.3C202.7,316.5,206.8,312.4,206.8,307.4z"/>
				<path class="st14" d="M215.4,349.2c0-9.8-7.9-17.7-17.7-17.7V367C207.4,367,215.4,359,215.4,349.2z"/>
			</g>
			<rect x="132.3" y="177.7" class="st18" width="130.7" height="38"/>
			<rect x="317.3" y="177.7" class="st18" width="130.7" height="38"/>
			<rect x="317.3" y="177.7" class="st9" width="65" height="38"/>
			<rect x="129.7" y="177.7" class="st9" width="68.7" height="38"/>
			<path class="st19" d="M189,128.7l-1-32.4c-0.5-3.2-1.7-14.6,5.2-23c3.1-3.8,9.1-8.3,19.8-8.3h152.3h0.3c9.1,0.7,26.4,6.9,26.4,25
				c0,15.5-0.8,38.1-0.8,38.3l-16-0.6c0-0.2,0.8-22.5,0.8-37.7c0-7.3-9.4-8.8-11.4-9H213c-3.6,0-6.1,0.8-7.4,2.5
				c-2.5,3.1-2,9.1-1.7,10.5l0.1,0.7l1,33.7L189,128.7z"/>
			<g>
				<path class="st20" d="M389,455.5l-29.6,35.7l-15.6-15.4c0,0-5.6,20.9-5,37.2c0.3,7.5,2.5,16.2,9.4,23.2H389
					C389,503.1,389,455.5,389,455.5z"/>
				<path class="st21" d="M389.1,536.1h40.7c6.9-7,9.1-15.7,9.4-23.2c0.6-16.3-5-37.2-5-37.2l-15.6,15.4L389,455.5
					c0,0,0,47.6,0,80.6H389.1z"/>
				<path class="st22" d="M389.1,549v34.9c-18,4.9-36.8,8-56.1,9.2v-56.9h56V549H389.1z"/>
				<path class="st22" d="M389,536.1c0,4.6,0,9,0,12.9h0.1v-12.9H389z"/>
				<polygon class="st23" points="444.2,536.1 444.2,562.3 444.2,562.3 				"/>
				<path class="st23" d="M444.1,536.1v26.2c-17.3,9.1-35.7,16.4-55,21.6v-47.8H444.1z"/>
			</g>
		</g>
	</g>
	<g id="Layer_2_copy">
		<g>
			<g>
				<circle class="st2" cx="315.1" cy="321.1" r="289.9"/>
				<ellipse class="st3" cx="315.3" cy="321.1" rx="276.5" ry="276.5"/>
				<path class="st4" d="M633.9,633.9L633.9,633.9L633.9,633.9z"/>
				<path class="st4" d="M633.9,633.9L633.9,633.9L633.9,633.9z"/>
				<path class="st4" d="M0,0L0,0L0,0z"/>
				<path class="st4" d="M633.9,633.9L633.9,633.9L633.9,633.9z"/>
				<path class="st4" d="M0,0L0,0L0,0z"/>
				<path class="st4" d="M633.9,633.9L633.9,633.9L633.9,633.9z"/>
			</g>
		</g>
		<rect class="st5" width="0.1" height="0.1"/>
		<rect x="633.4" y="633.4" class="st6" width="0.5" height="0.5"/>
	</g>
	<path class="st4" d="M0,0L0,0L0,0z"/>
	<path class="st4" d="M633.9,633.9L633.9,633.9L633.9,633.9z"/>
	<path class="st4" d="M0,0L0,0L0,0z"/>
	<path class="st4" d="M633.9,633.9L633.9,633.9L633.9,633.9z"/>
	<path class="st4" d="M0,0L0,0L0,0z"/>
	<path class="st4" d="M633.9,633.9L633.9,633.9L633.9,633.9z"/>
	<path class="st4" d="M0,0L0,0L0,0z"/>
	<path class="st4" d="M633.9,633.9L633.9,633.9L633.9,633.9z"/>
</g>
</svg>
