<?xml version="1.0" encoding="utf-8"?>
<!-- Generator: Adobe Illustrator 21.0.0, SVG Export Plug-In . SVG Version: 6.00 Build 0)  -->
<svg version="1.1" id="Layer_1" xmlns="http://www.w3.org/2000/svg" xmlns:xlink="http://www.w3.org/1999/xlink" x="0px" y="0px"
	 viewBox="0 0 633.9 633.9" style="enable-background:new 0 0 633.9 633.9;" xml:space="preserve">
<style type="text/css">
	.st0{fill:#CFD1D1;}
	.st1{fill:#FFFFFF;}
	.st2{fill:#F4F4F4;}
	.st3{fill:#EFC54D;stroke:#CE8919;stroke-width:8;stroke-miterlimit:10;}
	.st4{fill:#FFFFFF;stroke:#B79423;stroke-width:8;stroke-miterlimit:10;}
	.st5{fill:#39393B;}
	.st6{fill:#5FAC8F;}
	.st7{fill:#847F70;}
	.st8{opacity:0.15;fill:#FFFFFF;enable-background:new    ;}
	.st9{opacity:0.1;fill:#FFFFFF;enable-background:new    ;}
</style>
<title>time</title>
<g>
	<g id="Layer_2">
		<g id="Layer_3">
			<circle class="st0" cx="316.9" cy="316.9" r="290.1"/>
			<polygon class="st1" points="0,0 0,0 0,0 			"/>
			<polygon class="st1" points="633.9,633.9 633.9,633.9 633.9,633.9 			"/>
			<circle class="st2" cx="316.9" cy="316.9" r="275.1"/>
			<circle class="st3" cx="316.9" cy="316.9" r="275.1"/>
			<circle class="st4" cx="316.9" cy="316.9" r="219.2"/>
			<path class="st5" d="M313.5,111.7h6.9c2.3,0,4.1,1.8,4.1,4.1v36c0,2.3-1.8,4.1-4.1,4.1l0,0h-6.9c-2.3,0-4.1-1.8-4.1-4.1l0,0v-36
				C309.4,113.5,311.2,111.7,313.5,111.7z"/>
			<path class="st5" d="M240.1,168.7c1.6,2.7,0.6,6.2-2.1,7.8l0,0l-3.2,1.8c-2.7,1.6-6.2,0.6-7.8-2.1l0,0l-16.4-28.4
				c-1.6-2.7-0.6-6.2,2.1-7.8l0,0l3.2-1.9c2.7-1.6,6.2-0.6,7.8,2.1L240.1,168.7z"/>
			<path class="st5" d="M176.2,227c2.7,1.6,3.7,5.1,2.1,7.8l-1.9,3.2c-1.6,2.7-5.1,3.7-7.8,2.1l0,0l0,0l-28.4-16.4
				c-2.7-1.6-3.7-5.1-2.1-7.8l1.9-3.2c1.6-2.7,5.1-3.7,7.8-2.1L176.2,227z"/>
			<path class="st5" d="M111.7,320.4v-6.9c0-2.3,1.8-4.1,4.1-4.1l0,0h36c2.3,0,4.1,1.8,4.1,4.1v6.9c0,2.3-1.8,4.1-4.1,4.1h-36
				C113.5,324.5,111.7,322.7,111.7,320.4L111.7,320.4z"/>
			<path class="st5" d="M168.7,393.8c2.7-1.6,6.2-0.6,7.8,2.1l1.9,3.2c1.6,2.7,0.6,6.2-2.1,7.8l0,0l-28.4,16.4
				c-2.7,1.6-6.2,0.6-7.8-2.1l0,0l-1.9-3.2c-1.6-2.7-0.6-6.2,2.1-7.8l0,0L168.7,393.8z"/>
			<path class="st5" d="M227,457.6c1.6-2.7,5.1-3.7,7.8-2.1l3.2,1.9c2.7,1.6,3.7,5.1,2.1,7.8l-16.4,28.4c-1.6,2.7-5.1,3.7-7.8,2.1
				l0,0l-3.2-1.9c-2.7-1.6-3.7-5.1-2.1-7.8l0,0l0,0L227,457.6z"/>
			<path class="st5" d="M320.4,522.2h-6.9c-2.3,0-4.1-1.8-4.1-4.1l0,0v-36c0-2.3,1.8-4.1,4.1-4.1h6.9c2.3,0,4.1,1.8,4.1,4.1v36
				C324.5,520.4,322.6,522.2,320.4,522.2z"/>
			<path class="st5" d="M393.8,465.2c-1.6-2.7-0.6-6.2,2.1-7.8l3.2-1.8c2.7-1.6,6.2-0.6,7.8,2.1l0,0l0,0l16.4,28.4
				c1.6,2.7,0.6,6.2-2.1,7.8l0,0l0,0l-3.2,1.9c-2.7,1.6-6.2,0.6-7.8-2.1L393.8,465.2z"/>
			<path class="st5" d="M457.6,406.9c-2.7-1.6-3.7-5.1-2.1-7.8l0,0l0,0l1.8-3.2c1.6-2.7,5.1-3.7,7.8-2.1l28.4,16.4
				c2.7,1.6,3.7,5.1,2.1,7.8l-1.9,3.2c-1.6,2.7-5.1,3.7-7.8,2.1l0,0l0,0L457.6,406.9z"/>
			<path class="st5" d="M522.2,313.5v6.9c0,2.3-1.8,4.1-4.1,4.1l0,0h-36c-2.3,0-4.1-1.8-4.1-4.1l0,0v-6.9c0-2.3,1.8-4.1,4.1-4.1l0,0
				h36C520.4,309.4,522.2,311.2,522.2,313.5L522.2,313.5z"/>
			<path class="st5" d="M465.2,240.1c-2.7,1.6-6.2,0.6-7.8-2.1l-1.8-3.2c-1.6-2.7-0.6-6.2,2.1-7.8l0,0l28.4-16.4
				c2.7-1.6,6.2-0.6,7.8,2.1l0,0l1.9,3.2c1.6,2.7,0.6,6.2-2.1,7.8L465.2,240.1z"/>
			<path class="st5" d="M406.9,176.3c-1.6,2.7-5.1,3.7-7.8,2.1l0,0l-3.2-1.8c-2.7-1.6-3.7-5.1-2.1-7.8l16.4-28.4
				c1.6-2.7,5.1-3.7,7.8-2.1l3.2,1.9c2.7,1.6,3.7,5.1,2.1,7.8l0,0L406.9,176.3z"/>
			<path class="st6" d="M307.6,342.5V175c0-5.1,4.2-9.3,9.3-9.3s9.3,4.2,9.3,9.3v167.5H307.6z"/>
			<path class="st6" d="M316.9,300.5h84c5.6,0,10.2,4.6,10.2,10.2l0,0v11c0,5.6-4.6,10.2-10.2,10.2l0,0h-84V300.5z"/>
			<circle class="st7" cx="316.9" cy="316.9" r="34.3"/>
			<path class="st8" d="M550.3,316.9c0,128.9-104.5-63.5-233.3-63.5S83.6,445.8,83.6,316.9S188.1,83.6,316.9,83.6
				S550.3,188.1,550.3,316.9z"/>
		</g>
	</g>
	<rect x="633.6" y="633.6" class="st9" width="0.2" height="0.3"/>
	<polygon class="st9" points="0,0 0,0 0,0 	"/>
	<rect class="st9" width="0.2" height="0.3"/>
	<path class="st1" d="M0,0L0,0L0,0z"/>
	<path class="st1" d="M633.9,633.9L633.9,633.9L633.9,633.9z"/>
	<path class="st1" d="M0,0L0,0L0,0z"/>
	<path class="st1" d="M633.9,633.9L633.9,633.9L633.9,633.9z"/>
	<path class="st1" d="M0,0L0,0L0,0z"/>
	<path class="st1" d="M633.9,633.9L633.9,633.9L633.9,633.9z"/>
	<path class="st1" d="M0,0L0,0L0,0z"/>
	<path class="st1" d="M633.9,633.9L633.9,633.9L633.9,633.9z"/>
</g>
</svg>
