<?xml version="1.0" encoding="utf-8"?>
<!-- Generator: Adobe Illustrator 21.0.0, SVG Export Plug-In . SVG Version: 6.00 Build 0)  -->
<svg version="1.1" id="Layer_1" xmlns="http://www.w3.org/2000/svg" xmlns:xlink="http://www.w3.org/1999/xlink" x="0px" y="0px"
	 viewBox="0 0 633.9 633.9" style="enable-background:new 0 0 633.9 633.9;" xml:space="preserve">
<style type="text/css">
	.st0{fill:#CFD1D1;}
	.st1{fill:#E3F3FF;}
	.st2{fill:#C8E3FF;}
	.st3{clip-path:url(#SVGID_2_);}
	.st4{fill:#2487B9;}
	.st5{fill:#04A6C6;stroke:#FFFFFF;stroke-width:4;stroke-miterlimit:10;}
	.st6{fill:#C6C6C6;}
	.st7{fill:#E9563E;}
	.st8{fill:#F7E60F;}
	.st9{fill:#FFFFFF;}
	.st10{opacity:0.1;fill:#FFFFFF;enable-background:new    ;}
</style>
<title>log</title>
<g>
	<g id="Layer_2">
		<g id="Layer_18">
			<circle class="st0" cx="316.9" cy="317.4" r="290.1"/>
			<circle class="st1" cx="317.4" cy="317.6" r="279.6"/>
			<path class="st2" d="M559.5,177.6V221h-65v-65h51.1c-1.2-1.7-2.4-3.3-3.6-5h-47.5v-49.8c-1.7-1.4-3.3-2.7-5-4V151h-65V86h49.6
				c-2.5-1.7-5.1-3.4-7.7-5h-41.9V59.3c-1.7-0.7-3.3-1.4-5-2V81h-65V40.4c-1.7-0.2-3.3-0.4-5-0.6V81h-65V39.9
				c-1.7,0.2-3.3,0.4-5,0.6V81h-65V57.6c-1.7,0.7-3.3,1.3-5,2V81h-41.1c-2.6,1.6-5.1,3.3-7.7,5h48.7v65h-65V97.9
				c-1.7,1.3-3.3,2.7-5,4V151H92.9c-1.2,1.7-2.4,3.3-3.6,5h50.2v65h-65v-41.9c-1.7,3-3.4,6.1-5,9.2V221H55c-0.6,1.7-1.2,3.3-1.8,5
				h16.3v65H39.1c-0.2,1.7-0.3,3.3-0.4,5h30.8v65H41.2c0.3,1.7,0.5,3.3,0.8,5h27.4v65h-7.6c0.7,1.7,1.5,3.3,2.3,5h5.4v10.8
				c1.6,3.1,3.3,6.1,5,9.2v-20h65v65h-33c1.5,1.7,3,3.4,4.5,5h28.6v27.2c1.7,1.4,3.3,2.7,5,4V506h65v65h-10.2c5,2.3,10,4.5,15.2,6.6
				V576h65v18.6c1.7,0.2,3.3,0.4,5,0.6V576h65v19.3c1.7-0.2,3.3-0.4,5-0.6V576h65v1.9c5.4-2.1,10.8-4.4,16.1-6.9h-11.1v-65h65v31.9
				c1.7-1.3,3.3-2.7,5-4V506H524c1.5-1.6,3-3.3,4.5-5h-33.9v-65h65v21.5c1.7-3,3.4-6,5-9V436h6.2c0.8-1.7,1.5-3.3,2.3-5h-8.5v-65
				h28.3c0.3-1.7,0.6-3.3,0.8-5h-29.1v-65h31.7c-0.1-1.7-0.3-3.3-0.4-5h-31.2v-65h17.1c-0.6-1.7-1.2-3.3-1.8-5h-15.4v-34.3
				C562.9,183.6,561.2,180.6,559.5,177.6z M139.5,431h-65v-65h65V431z M139.5,361h-65v-65h65V361z M139.5,291h-65v-65h65V291z
				 M209.5,501h-65v-65h65V501z M209.5,431h-65v-65h65V431z M209.5,361h-65v-65h65V361z M209.5,291h-65v-65h65V291z M209.5,221h-65
				v-65h65V221z M279.5,571h-65v-65h65V571z M279.5,501h-65v-65h65V501z M279.5,431h-65v-65h65V431z M279.5,361h-65v-65h65V361z
				 M279.5,291h-65v-65h65V291z M279.5,221h-65v-65h65V221z M279.5,151h-65V86h65V151z M349.5,571h-65v-65h65V571z M349.5,501h-65
				v-65h65V501z M349.5,431h-65v-65h65V431z M349.5,361h-65v-65h65V361z M349.5,291h-65v-65h65V291z M349.5,221h-65v-65h65V221z
				 M349.5,151h-65V86h65V151z M419.5,571h-65v-65h65V571z M419.5,501h-65v-65h65V501z M419.5,431h-65v-65h65V431z M419.5,361h-65
				v-65h65V361z M419.5,291h-65v-65h65V291z M419.5,221h-65v-65h65V221z M419.5,151h-65V86h65V151z M489.5,501h-65v-65h65V501z
				 M489.5,431h-65v-65h65V431z M489.5,361h-65v-65h65V361z M489.5,291h-65v-65h65V291z M489.5,221h-65v-65h65V221z M559.5,431h-65
				v-65h65V431z M559.5,361h-65v-65h65V361z M559.5,291h-65v-65h65V291z"/>
			<g>
				<g>
					<g>
						<g>
							<defs>
								<path id="SVGID_1_" d="M406,273c135.3,68.8,174.8,324.2-86.3,324.2C165.3,597.2,36.1,472,36.1,317.6S8.7,75,98.7,17
									C228.4-66.6,248.1,192.7,406,273z"/>
							</defs>
							<clipPath id="SVGID_2_">
								<use xlink:href="#SVGID_1_"  style="overflow:visible;"/>
							</clipPath>
							<g class="st3">
								<polygon class="st4" points="147,24.1 120.3,34.1 147,0.4 174.3,34.1 								"/>
								<rect x="146.3" y="57.4" class="st4" width="26.3" height="13"/>
								<rect x="146.3" y="187.4" class="st4" width="26.3" height="13"/>
								<rect x="146.3" y="451.4" class="st5" width="26.3" height="13"/>
								<rect x="148.5" y="321.8" class="st4" width="292.7" height="11"/>
								<polygon class="st4" points="434.5,326.6 424.5,353.3 458.1,326.6 424.5,299.3 								"/>
								<rect x="346" y="323.8" class="st4" width="13" height="26.3"/>
								<path class="st4" d="M140.8,17.4v578c3.6-53.4,7.3-51.9,11,4.6V17.4H140.8z"/>
							</g>
						</g>
					</g>
				</g>
			</g>
			<path class="st6" d="M549.3,160.9c-3.9-4.3-5.6-8.9-9.7-13c-26.8,8.1-75.1,17.3-118,40.4c-51,27.5-117.1,69.3-166.3,131.5
				c-47,59.4-72.9,137.2-86.4,182c-5.2,17.2-9,32.6-11.7,45.4c4.9,3.2,10,6.2,15.1,9.1c9.4-46.4,34.5-152.2,96.4-230.5
				c47.5-60.1,109.6-95.6,159.3-122.3C475.9,177.7,526.3,167.1,549.3,160.9z"/>
			<path class="st7" d="M533.9,140.6c-3.7-4.5-7.5-8.9-11.5-13.2c-25.7,8.5-65.1,26.1-106.3,50.5c-49,28.9-117.3,77-164.5,142.5
				c-45.1,62.4-70,131.6-83,178.7c-5,18.1-8.6,34.3-11.2,47.7c4.7,3.3,9.6,6.5,14.5,9.5c9-48.8,33.1-144.2,92.6-226.6
				c45.7-63.2,112-109.9,159.7-138C470.1,164.6,511.8,147.1,533.9,140.6z"/>
			<circle class="st7" cx="255" cy="329.5" r="29.5"/>
			<circle class="st8" cx="255" cy="329.5" r="18.5"/>
			<path class="st5" d="M253.7,563.2V366.1h30.1v168.6H331v28.5H253.7z"/>
			<path class="st5" d="M344.3,411.6c0-15.5,4.2-27.7,12.7-36.5s20.1-13.2,35-13.2c14.1,0,25.2,4.5,33.5,13.6
				c8.2,9,12.3,21.4,12.3,37v101c0,17.3-4.1,30.6-12.2,39.9c-8.1,9.4-19.7,14-34.7,14c-15.2,0-26.7-4.7-34.7-14
				s-11.9-22.9-11.9-40.8L344.3,411.6L344.3,411.6z M406.6,519.7v-110c0-6.8-1.3-11.9-4-15.3c-2.6-3.4-6.5-5.1-11.7-5.1
				s-9.1,1.7-11.7,5.1s-4,8.5-4,15.3v110c0,6.8,1.3,12,4,15.4c2.6,3.5,6.5,5.2,11.7,5.2s9.1-1.7,11.7-5.2
				C405.3,531.7,406.6,526.5,406.6,519.7L406.6,519.7z"/>
			<path class="st5" d="M461.8,512.6v-101c0-15.5,4.2-27.7,12.7-36.5s20.1-13.2,35-13.2c14.4,0,25.3,4.3,32.7,12.8
				c7.5,8.5,11.2,21.1,11.2,37.8v18.1h-29.3v-20.9c0-6.8-1.3-11.9-4-15.3c-2.6-3.4-6.5-5.1-11.7-5.1s-9.1,1.7-11.7,5.1
				s-4,8.5-4,15.3v110c0,6.8,1.3,12,4,15.4c2.6,3.5,6.5,5.2,11.7,5.2s9.1-1.7,11.7-5.2c2.6-3.5,4-8.6,4-15.4v-30.8h-18.4v-25.1h47.7
				v99.4h-14.6l-5.9-13.6c-3.4,6.1-7.4,10.6-12.1,13.5c-4.7,2.9-10.5,4.4-17.2,4.4c-13.5,0-23.9-4.7-31.1-14
				C465.4,544,461.8,530.5,461.8,512.6z"/>
			<polygon class="st9" points="0,-1 0,-1 0,-1 			"/>
			<polygon class="st9" points="633.9,632.9 633.9,632.9 633.9,632.9 			"/>
			<polygon class="st9" points="0,-1 0,-1 0,-1 			"/>
			<polygon class="st9" points="633.9,632.9 633.9,632.9 633.9,632.9 			"/>
		</g>
	</g>
	<rect x="633.6" y="633.6" class="st10" width="0.2" height="0.3"/>
	<polygon class="st10" points="0,0 0,0 0,0 	"/>
	<rect class="st10" width="0.2" height="0.3"/>
	<path class="st9" d="M0,0L0,0L0,0z"/>
	<path class="st9" d="M633.9,633.9L633.9,633.9L633.9,633.9z"/>
	<path class="st9" d="M0,0L0,0L0,0z"/>
	<path class="st9" d="M633.9,633.9L633.9,633.9L633.9,633.9z"/>
	<path class="st9" d="M0,0L0,0L0,0z"/>
	<path class="st9" d="M633.9,633.9L633.9,633.9L633.9,633.9z"/>
	<path class="st9" d="M0,0L0,0L0,0z"/>
	<path class="st9" d="M633.9,633.9L633.9,633.9L633.9,633.9z"/>
</g>
</svg>
