<?xml version="1.0" encoding="utf-8"?>
<!-- Generator: Adobe Illustrator 21.0.0, SVG Export Plug-In . SVG Version: 6.00 Build 0)  -->
<svg version="1.1" id="Layer_10" xmlns="http://www.w3.org/2000/svg" xmlns:xlink="http://www.w3.org/1999/xlink" x="0px" y="0px"
	 viewBox="0 0 633.6 633.6" style="enable-background:new 0 0 633.6 633.6;" xml:space="preserve">
<style type="text/css">
	.st0{fill:#CFD1D1;}
	.st1{fill:#EFEFEF;}
	.st2{fill:#BDF9F4;}
	.st3{fill:#4BB9EC;}
	.st4{fill:#009BCA;}
	.st5{fill:#3482AC;}
	.st6{fill:#5C546A;}
	.st7{fill:#FFFFFF;}
</style>
<title>dictionary</title>
<g>
	<circle class="st0" cx="316.7" cy="315.7" r="289.9"/>
	<ellipse class="st1" cx="317" cy="315.8" rx="276.5" ry="276.5"/>
	<path class="st2" d="M85.9,467.5c0.6,0.9,1.2,1.9,1.8,2.8v-2.8H85.9z"/>
	<path class="st2" d="M87.7,161.3c-3.2,4.7-6.2,9.5-9.1,14.4h9.1V161.3z"/>
	<path class="st3" d="M545.3,159.8c-0.4-0.6-0.8-1.1-1.1-1.6c0.9,1.3,1.9,2.7,2.8,4C546.4,161.4,545.9,160.6,545.3,159.8z"/>
	<path class="st3" d="M525.8,29.8h-374V48c5,0,9.1,4.1,9.1,9.1v486.8c126.1,86.2,298.2,53.9,384.4-72.2c2.7-3.9,5.2-7.9,7.7-11.9
		V57.2C553,42.1,540.8,29.8,525.8,29.8z M250.6,312.5h0.6c0.1-0.3,0.1-0.6,0.2-0.9L303,148.3c-7.4-1.2-12.5-8.3-11.3-15.7
		c1.1-6.6,6.8-11.4,13.5-11.4h73c7.5,0,13.7,6.1,13.7,13.6c0,6.7-4.8,12.4-11.4,13.5l51.6,163.4c0.1,0.3,0.1,0.6,0.2,0.9h0.7
		c7.5,0,13.7,6.1,13.7,13.7c0,7.5-6.1,13.7-13.7,13.7l0,0h-36.5c-7.5,0-13.7-6.1-13.7-13.6c0-6.7,4.8-12.4,11.4-13.5l-10.1-32.1
		h-84.6l-10.2,32.1c7.4,1.2,12.5,8.3,11.2,15.7c-1.1,6.6-6.8,11.4-13.5,11.4h-36.5c-7.6,0-13.7-6.1-13.7-13.7
		C236.9,318.6,243,312.5,250.6,312.5z M448.1,476.7H229.9V459H448L448.1,476.7L448.1,476.7z M448.1,441.2H229.9v-17.7H448
		L448.1,441.2L448.1,441.2z M448.1,405.8H229.9v-17.7H448L448.1,405.8L448.1,405.8z M544.3,158.2c0.4,0.5,0.8,1.1,1.1,1.6
		c0.5,0.8,1.1,1.6,1.6,2.4C546.1,160.9,545.1,159.5,544.3,158.2z"/>
	<path class="st3" d="M529.4,138.8c1.4,1.7,2.8,3.4,4.1,5.1C532.3,142.1,530.8,140.4,529.4,138.8z"/>
	<path class="st3" d="M536.8,147.9c-1.1-1.4-2.1-2.7-3.2-4.1C534.6,145.2,535.8,146.6,536.8,147.9z"/>
	<path class="st3" d="M547,162.2c-0.9-1.3-1.8-2.7-2.8-4c0.4,0.5,0.8,1.1,1.1,1.6C545.9,160.6,546.4,161.4,547,162.2z"/>
	<path class="st3" d="M544.3,158.2c-0.7-1.1-1.5-2.1-2.2-3.2C542.8,156.1,543.4,157.1,544.3,158.2z"/>
	<path class="st3" d="M541.9,155c-0.5-0.7-1-1.4-1.5-2.1C540.9,153.6,541.5,154.3,541.9,155z"/>
	<path class="st3" d="M540.4,152.9c-0.9-1.2-1.8-2.5-2.7-3.7C538.8,150.5,539.6,151.7,540.4,152.9z"/>
	<path class="st3" d="M537.8,149.3c-0.3-0.4-0.7-0.9-1-1.3C537.1,148.4,537.4,148.8,537.8,149.3z"/>
	<path class="st3" d="M342.6,149.3c-0.1-0.3-0.1-0.6-0.2-0.9h-1.3c-0.1,0.3-0.1,0.6-0.2,0.9L311,244.1h61.6L342.6,149.3z"/>
	<path class="st4" d="M151.8,29.8V48l0,0c-5,0-9.1,4.1-9.1,9.1v473.2c-9.7-7.9-18.8-16.4-27.4-25.5c0-0.3,0-0.5,0-0.8
		c0-5-4-9-8.9-9.1c-3.2-3.8-6.3-7.6-9.3-11.6c-3.3-4.2-6.4-8.6-9.4-13v-2.8h18.5c5,0,9.1-4.1,9.1-9.1s-4.1-9.1-9.1-9.1H87.7v-27.4
		h18.5c5,0,9.1-4.1,9.1-9.1s-4.1-9.1-9.1-9.1H87.7v-27.4h18.5c5,0,9.1-4.1,9.1-9.1s-4.1-9.1-9.1-9.1H87.7v-27.3h18.5
		c5,0,9.1-4.1,9.1-9.1s-4.1-9.1-9.1-9.1H87.7v-27.4h18.5c5,0,9.1-4.1,9.1-9.1s-4.1-9.1-9.1-9.1H87.7v-27.3h18.5c5,0,9.1-4.1,9.1-9.1
		s-4.1-9.1-9.1-9.1H87.7v-27.4h18.5c5,0,9.1-4.1,9.1-9.1s-4.1-9.1-9.1-9.1H87.7v-27.3h18.5c3.2,0,6.1-1.7,7.8-4.3
		c2.6-4.3,1.3-9.9-3-12.5c-1.4-0.9-3.1-1.4-4.8-1.4H87.7v-27.6h18.5c5,0,9.1-4.1,9.1-9.1s-4.1-9.1-9.1-9.1H87.7V57.2
		c0-15.1,12.3-27.4,27.4-27.4C115.1,29.8,151.8,29.8,151.8,29.8z"/>
	<path class="st5" d="M250.6,339.8h36.5c7.5,0,13.7-6.1,13.7-13.6c0-6.7-4.8-12.4-11.4-13.5l10.2-32.1h84.6l10.2,32.1
		c-7.4,1.2-12.5,8.3-11.2,15.7c1.1,6.6,6.8,11.4,13.5,11.4h36.5c7.6,0,13.7-6.1,13.7-13.7s-6.1-13.7-13.7-13.7l0,0h-0.7
		c-0.1-0.3-0.1-0.6-0.2-0.9l-51.6-163.4c7.4-1.2,12.5-8.3,11.2-15.7c-1.1-6.6-6.8-11.4-13.5-11.4h-73c-7.5,0-13.7,6.1-13.7,13.6
		c0,6.7,4.8,12.4,11.4,13.5l-51.6,163.4c-0.1,0.3-0.1,0.6-0.2,0.9h-0.7c-7.6,0-13.7,6.1-13.7,13.7
		C236.9,333.7,243,339.8,250.6,339.8L250.6,339.8z M340.9,149.3c0.1-0.3,0.1-0.6,0.2-0.9h1.3c0.1,0.3,0.1,0.6,0.2,0.9l29.9,94.8
		h-61.6L340.9,149.3z"/>
	<path class="st6" d="M69.5,84.5c-5,0-9.1,4.1-9.1,9.1s4.1,9.1,9.1,9.1h18.2V84.5H69.5z"/>
	<rect x="87.7" y="84.5" class="st6" width="9.4" height="18.2"/>
	<path class="st6" d="M115.3,93.6c0-5-4.1-9.1-9.1-9.1l0,0h-9.1v18.3h9.1C111.2,102.8,115.3,98.7,115.3,93.6L115.3,93.6z"/>
	<path class="st6" d="M69.5,130.1c-5,0-9.1,4.1-9.1,9.1s4.1,9.1,9.1,9.1h18.2v-18.2L69.5,130.1L69.5,130.1z"/>
	<path class="st6" d="M97.1,148.3v-18.2h-9.4v18.2H97.1L97.1,148.3z"/>
	<path class="st6" d="M97,148.4L97,148.4L97,148.4L97,148.4z"/>
	<path class="st6" d="M106.2,130.1h-9.1v18.2c4.4-5.8,9-11.4,13.9-16.8C109.5,130.6,107.9,130.1,106.2,130.1z"/>
	<path class="st6" d="M115.3,139.2c0-3.2-1.6-6.1-4.3-7.8c-4.8,5.4-9.5,11-13.9,16.8v0.1h9.1C111.2,148.4,115.3,144.3,115.3,139.2
		L115.3,139.2z"/>
	<path class="st6" d="M69.5,175.7c-5,0-9.1,4.1-9.1,9.1c0,4.8,3.7,8.7,8.4,9.1c3.1-6.2,6.3-12.3,9.8-18.2L69.5,175.7L69.5,175.7z"/>
	<path class="st6" d="M87.7,194v-18.2h-9.1c-3.5,5.9-6.8,12-9.8,18.2c0.2,0,0.4,0,0.7,0H87.7z"/>
	<rect x="87.7" y="175.7" class="st6" width="9.4" height="18.2"/>
	<path class="st6" d="M106.2,194c5,0,9.1-4.1,9.1-9.1s-4.1-9.1-9.1-9.1l0,0h-9.1V194H106.2L106.2,194z"/>
	<path class="st6" d="M69.5,221.3c-5,0-9.1,4.1-9.1,9.1s4.1,9.1,9.1,9.1h18.2v-18.2L69.5,221.3L69.5,221.3z"/>
	<rect x="87.7" y="221.3" class="st6" width="9.4" height="18.2"/>
	<path class="st6" d="M106.2,239.5c5,0,9.1-4.1,9.1-9.1s-4.1-9.1-9.1-9.1l0,0h-9.1v18.2L106.2,239.5L106.2,239.5z"/>
	<path class="st6" d="M69.5,266.9c-5,0-9.1,4.1-9.1,9.1s4.1,9.1,9.1,9.1h18.2V267L69.5,266.9L69.5,266.9z"/>
	<rect x="87.7" y="266.9" class="st6" width="9.4" height="18.2"/>
	<path class="st6" d="M106.2,285.1c5,0,9.1-4.1,9.1-9.1s-4.1-9.1-9.1-9.1h-9.1v18.2H106.2z"/>
	<path class="st6" d="M69.5,312.5c-5,0-9.1,4.1-9.1,9.1s4.1,9.1,9.1,9.1h18.2v-18.2H69.5z"/>
	<rect x="87.7" y="312.5" class="st6" width="9.4" height="18.2"/>
	<path class="st6" d="M106.2,330.7c5,0,9.1-4.1,9.1-9.1s-4.1-9.1-9.1-9.1l0,0h-9.1v18.2H106.2z"/>
	<path class="st6" d="M69.5,358.1c-5,0-9.1,4.1-9.1,9.1s4.1,9.1,9.1,9.1h18.2v-18.2H69.5z"/>
	<rect x="87.7" y="358.1" class="st6" width="9.4" height="18.2"/>
	<path class="st6" d="M106.2,376.3c5,0,9.1-4.1,9.1-9.1s-4.1-9.1-9.1-9.1h-9.1v18.2H106.2z"/>
	<path class="st6" d="M69.5,403.7c-5,0-9.1,4.1-9.1,9.1s4.1,9.1,9.1,9.1h18.2v-18.2H69.5z"/>
	<rect x="87.7" y="403.7" class="st6" width="9.4" height="18.2"/>
	<path class="st6" d="M106.2,421.9c5,0,9.1-4.1,9.1-9.1s-4.1-9.1-9.1-9.1h-9.1v18.2H106.2z"/>
	<path class="st6" d="M115.3,458.4c0,5-4.1,9.1-9.1,9.1H85.8v-18.2h20.5C111.3,449.3,115.3,453.4,115.3,458.4z"/>
	<path class="st6" d="M74.8,449.3h12.8v18.2h-1.8C81.9,461.6,78.3,455.5,74.8,449.3z"/>
	<path class="st6" d="M106.4,494.9c2.9,3.4,5.8,6.7,8.9,9.9c0-0.3,0-0.5,0-0.8C115.3,499.1,111.3,495,106.4,494.9z"/>
	<path class="st5" d="M160.9,57.2V544c-3.1-2.1-6.1-4.3-9.1-6.5c-3.1-2.3-6.1-4.7-9.1-7.1V57.2c0-5,4.1-9.1,9.1-9.1l0,0
		C156.8,48.1,160.9,52.1,160.9,57.2z"/>
	<rect x="229.9" y="388" class="st5" width="218.1" height="17.7"/>
	<rect x="229.9" y="423.5" class="st5" width="218.1" height="17.7"/>
	<rect x="229.9" y="459" class="st5" width="218.1" height="17.7"/>
	<path class="st7" d="M0,0L0,0L0,0z"/>
	<path class="st7" d="M633.9,633.9L633.9,633.9L633.9,633.9z"/>
	<path class="st7" d="M0,0L0,0L0,0z"/>
	<path class="st7" d="M633.9,633.9L633.9,633.9L633.9,633.9z"/>
	<path class="st7" d="M0,0L0,0L0,0z"/>
	<path class="st7" d="M633.9,633.9L633.9,633.9L633.9,633.9z"/>
	<path class="st7" d="M0,0L0,0L0,0z"/>
	<path class="st7" d="M633.9,633.9L633.9,633.9L633.9,633.9z"/>
</g>
</svg>
