<svg id="Layer_1" data-name="Layer 1" xmlns="http://www.w3.org/2000/svg" viewBox="0 0 64 64"><title>error_how_to_draw</title><g id="Layer_1-2" data-name="Layer 1"><circle cx="32" cy="32" r="32" style="fill:#e0995e"/><g style="opacity:0.20000000298023224"><polygon points="48 26 48 18 16 18 16 26 16 50 48 50 48 26" style="fill:#231f20"/><path d="M48,14H16a4.00018,4.00018,0,0,0-4,4V50a4.00018,4.00018,0,0,0,4,4H48a4.00018,4.00018,0,0,0,4-4V18A4.00018,4.00018,0,0,0,48,14Z" style="fill:#231f20"/></g><path d="M16,50a2.002,2.002,0,0,1-2-2V16a2.002,2.002,0,0,1,2-2H48a2.002,2.002,0,0,1,2,2V48a2.002,2.002,0,0,1-2,2Z" style="fill:#77b3d4"/><path d="M48,16V48H16V16H48m0-4H16a4.00018,4.00018,0,0,0-4,4V48a4.00018,4.00018,0,0,0,4,4H48a4.00018,4.00018,0,0,0,4-4V16a4.00018,4.00018,0,0,0-4-4Z" style="fill:#fff"/><rect x="16" y="44" width="32" height="4" style="fill:#fff"/><path d="M13.99,44H48.886V41.079A39.74647,39.74647,0,0,0,45.6,36.236a2.7226,2.7226,0,0,0-4.464-.076l-2.752,2.643-5.999-7.629a4.93722,4.93722,0,0,0-8.124,0Z" style="fill:#4f5d73"/><circle cx="40" cy="24" r="3" style="fill:#f5cf87"/><path d="M48,16V48H16V16H48m0-4H16a4.00018,4.00018,0,0,0-4,4V48a4.00018,4.00018,0,0,0,4,4H48a4.00018,4.00018,0,0,0,4-4V16a4.00018,4.00018,0,0,0-4-4Z" style="fill:#fff"/></g></svg>