<?xml version="1.0" encoding="utf-8"?>
<!-- Generator: Adobe Illustrator 21.0.0, SVG Export Plug-In . SVG Version: 6.00 Build 0)  -->
<svg version="1.1" id="Layer_1" xmlns="http://www.w3.org/2000/svg" xmlns:xlink="http://www.w3.org/1999/xlink" x="0px" y="0px"
	 viewBox="0 0 634 634" style="enable-background:new 0 0 634 634;" xml:space="preserve">
<style type="text/css">
	.st0{fill:#CFD1D1;}
	.st1{fill:#ECF0F3;}
	.st2{opacity:0.2;enable-background:new    ;}
	.st3{fill:#14444E;}
	.st4{fill:#DDB576;stroke:#B57C4E;stroke-width:6;stroke-miterlimit:10;}
	.st5{opacity:0.15;fill:#FFFFFF;enable-background:new    ;}
	.st6{fill:#EE413F;}
	.st7{opacity:0.5;fill:#B51A25;enable-background:new    ;}
	.st8{fill:#BF3088;}
	.st9{fill:#692E6E;}
	.st10{fill:#84C341;}
	.st11{fill:#548417;}
	.st12{fill:#8552A0;}
	.st13{fill:#00A9CB;}
	.st14{fill:#0A808C;}
	.st15{fill:#DDB576;}
	.st16{fill:#FFCC27;}
	.st17{opacity:0.26;fill:#F2732C;enable-background:new    ;}
	.st18{opacity:0.41;fill:#F6F195;enable-background:new    ;}
	.st19{fill:#6AA9AB;}
	.st20{opacity:0.41;fill:#FFFFFF;enable-background:new    ;}
	.st21{opacity:0.5;fill:#386C6C;enable-background:new    ;}
	.st22{fill:#934E9D;}
	.st23{opacity:0.14;fill:#FFFFFF;enable-background:new    ;}
	.st24{opacity:0.48;}
	.st25{fill:#B57C4E;}
	.st26{fill:#E89B00;}
	.st27{fill:#179FDB;}
	.st28{opacity:0.1;fill:#FFFFFF;enable-background:new    ;}
	.st29{fill:#FFFFFF;}
</style>
<title>how to draw</title>
<g>
	<g id="Layer_4">
		<circle class="st0" cx="317" cy="316.5" r="289.9"/>
	</g>
	<g id="Layer_3">
		<circle class="st1" cx="317.3" cy="316.6" r="276.5"/>
	</g>
	<g id="Layer_6">
		<path class="st2" d="M499.8,238c-0.1,0.1-0.3,0.1-0.4,0.2c-2.1,1-4.1,2-6.2,2.9c-14.3,6.5-29.4,10.9-45,12.9
			c-26.2,3.1-47.5-3.1-54.9-18.2c-12-24.3,16.1-62.7,62.8-85.7c0.1-0.1,0.2-0.1,0.3-0.2c14.1-6.9,17.6-37,3.5-44.2
			c-74.8-38.3-184.7-5-262.2,72.5c-91.8,91.6-107.6,224.5-35.4,296.7s205.1,56.5,296.8-35.2c51.9-51.9,79.5-117,80.5-176.8
			C540,242.2,518.2,228.8,499.8,238z M464.8,354.9c-7.1,10.1-16.9,16.8-26.6,19.2c-3.2,7.2-5.1,11.4-5.1,11.4s-3,4.8-11.7-1.9
			s-8.8-8.6-8.8-8.6c0.5-1.9,1-3.8,1.5-5.8c-12.4-10.5-12.8-32.3-0.5-49.9c4.8-7.1,11.4-12.8,19.1-16.5c10.3-4.9,21.4-5,29.8,0.9
			c1.6,1.1,3,2.4,4.3,3.9C476.7,318.7,476.2,338.6,464.8,354.9z"/>
	</g>
	<g id="Layer_5">
		<path class="st3" d="M548.8,244.8c-1.7-22.3-26.6-34.6-45.6-22.9c-0.1,0.1-0.3,0.2-0.4,0.3c-48.1,29.6-99.6,33.2-115,8.1
			s11.1-69.4,59.1-99c0.1-0.1,0.2-0.1,0.3-0.2c14.6-8.9,13-30.7-2.9-37c-84.8-33.8-197.9,2.2-273.8,93.7
			c-89.8,108.3-93.4,253.5-8,324.3s227.4,40.3,317.2-68.1C530.5,382.7,553.7,309.6,548.8,244.8z M477.2,351.9
			c-12.1,21.3-35,31-51.3,21.8c-16.2-9.2-19.6-33.9-7.6-55.2s35-31,51.3-21.8C485.8,306,489.2,330.7,477.2,351.9z"/>
		<path class="st3" d="M548.8,244.8c-1.7-22.3-26.6-34.6-45.6-22.9c-0.1,0.1-0.3,0.2-0.4,0.3c-48.1,29.6-99.6,33.2-115,8.1
			s11.1-69.4,59.1-99c0.1-0.1,0.2-0.1,0.3-0.2c14.6-8.9,13-30.7-2.9-37c-84.8-33.8-197.9,2.2-273.8,93.7
			c-89.8,108.3-93.4,253.5-8,324.3s227.4,40.3,317.2-68.1C530.5,382.7,553.7,309.6,548.8,244.8z M477.2,351.9
			c-12.1,21.3-35,31-51.3,21.8c-16.2-9.2-19.6-33.9-7.6-55.2s35-31,51.3-21.8C485.8,306,489.2,330.7,477.2,351.9z"/>
		<path class="st3" d="M503.2,222c-0.1,0.1-0.3,0.2-0.4,0.3c-2.1,1.3-4.3,2.6-6.4,3.8c-14.8,8.5-30.8,14.7-47.4,18.5
			c-28,6-51.6,1.5-61.2-14.1c-15.4-25.1,11.1-69.4,59.2-99c0.1-0.1,0.2-0.1,0.3-0.2c14.6-8.9,13-30.7-2.9-37
			c-84.8-33.8-197.9,2.2-273.8,93.7c-89.8,108.3-93.4,253.5-8,324.3s227.4,40.3,317.2-68.1c50.8-61.3,74-134.5,69.1-199.2
			C547.1,222.5,522.2,210.2,503.2,222z M477.2,351.9c-6.6,11.7-16.5,19.9-26.8,23.4c-2.7,8.1-4.4,12.9-4.4,12.9s-2.8,5.5-12.8-0.9
			s-10.3-8.4-10.3-8.4c0.4-2.1,0.7-4.3,1.1-6.4c-14.5-10.1-17.1-33.6-5.6-53.9c4.5-8.1,11.1-15,19-19.8c10.7-6.3,22.7-7.5,32.3-2.1
			c1.8,1,3.5,2.3,5,3.7C486.4,311.5,487.9,333.1,477.2,351.9z"/>
		<path class="st4" d="M503.2,222c-0.1,0.1-0.3,0.2-0.4,0.3c-2.1,1.3-4.3,2.6-6.4,3.8c-14.8,8.5-30.8,14.7-47.4,18.5
			c-28,6-51.6,1.5-61.2-14.1c-15.4-25.1,11.1-69.4,59.2-99c0.1-0.1,0.2-0.1,0.3-0.2c14.6-8.9,13-30.7-2.9-37
			c-84.8-33.8-197.9,2.2-273.8,93.7c-89.8,108.3-93.4,253.5-8,324.3s227.4,40.3,317.2-68.1c50.8-61.3,74-134.5,69.1-199.2
			C547.1,222.5,522.2,210.2,503.2,222z M477.2,351.9c-6.6,11.7-16.5,19.9-26.8,23.4c-2.7,8.1-4.4,12.9-4.4,12.9s-2.8,5.5-12.8-0.9
			s-10.3-8.4-10.3-8.4c0.4-2.1,0.7-4.3,1.1-6.4c-14.5-10.1-17.1-33.6-5.6-53.9c4.5-8.1,11.1-15,19-19.8c10.7-6.3,22.7-7.5,32.3-2.1
			c1.8,1,3.5,2.3,5,3.7C486.4,311.5,487.9,333.1,477.2,351.9z"/>
		<path class="st5" d="M229.4,245c-3.4-35.8-1.3-71.9,6.2-107.1c-23.2,15.9-44,35-61.9,56.7C87.8,298.2,84.4,437.1,166,504.8
			c61.6,51,154,47,232.6-2.5C309.2,462.6,240.6,364.8,229.4,245z"/>
		
			<ellipse transform="matrix(0.8026 -0.5965 0.5965 0.8026 -31.7008 220.6155)" class="st6" cx="317.5" cy="158.2" rx="41.8" ry="37.2"/>
		<path class="st7" d="M295.9,135.2c18.5-13.8,43.5-11.6,55.7,4.9c3,4.1,5.1,8.7,6,13.7c0.1-7.4-2.3-14.6-6.7-20.6
			c-12.2-16.5-37.2-18.7-55.7-4.9c-13.9,10.3-20.2,26.6-17.4,41.1C277.9,156.9,284.2,143.9,295.9,135.2z"/>
		<path class="st5" d="M310.3,157c-16.7,12.4-12.9,37.3-23.9,22.4s-6.4-36.9,10.2-49.3s39.1-10.4,50.1,4.4
			C357.7,149.3,327,144.6,310.3,157z"/>
		
			<ellipse transform="matrix(0.5117 -0.8592 0.8592 0.5117 -99.5431 300.449)" class="st8" cx="214.5" cy="237.8" rx="41.8" ry="37.2"/>
		<path class="st9" d="M183.4,227.9c11.8-19.8,35.7-27.4,53.3-16.9c8.4,5.1,14.3,13.6,16.2,23.3c0.2-13.3-5.8-25.8-17-32.5
			c-17.6-10.5-41.5-2.9-53.3,16.9c-5.8,9.4-7.8,20.7-5.6,31.6C177.1,242.4,179.3,234.6,183.4,227.9z"/>
		<path class="st5" d="M206.5,232.9c-9.7,16.3,2.6,41.8-11.9,33.2s-18.4-28.9-8.7-45.2s29.4-22.6,43.9-13.9S216.3,216.5,206.5,232.9
			z"/>
		
			<ellipse transform="matrix(0.9995 -3.229854e-02 3.229854e-02 0.9995 -11.7785 5.8538)" class="st10" cx="175.3" cy="367.5" rx="37.2" ry="41.8"/>
		<path class="st11" d="M174.9,336.3c18-0.6,33.5,13.4,37.5,32.4v-2.5c-0.7-23.1-18-41.3-38.5-40.6s-36.6,19.9-35.8,43
			c0.1,2.8,0.4,5.5,1,8.2C139.5,354.9,155.1,337,174.9,336.3z"/>
		<path class="st5" d="M164.4,364.9c0.7,20.4,28.5,39.1,10.3,39.7s-33.4-15.5-34.1-35.9c-0.7-20.4,13.5-37.5,31.7-38.1
			S163.8,344.4,164.4,364.9z"/>
		
			<ellipse transform="matrix(0.4963 -0.8682 0.8682 0.4963 -279.8189 450.4955)" class="st12" cx="248.3" cy="466.4" rx="37.2" ry="41.8"/>
		<path class="st9" d="M212.9,455.6c10.2-17.8,34.7-23,54.8-11.5c11.3,6.5,18.8,16.8,21.3,27.8c0.6-14.4-7.6-29.3-22.2-37.7
			c-20.1-11.5-44.6-6.3-54.8,11.5c-4.3,7.7-5.5,16.7-3.5,25.2C208.8,465.5,210.3,460.3,212.9,455.6z"/>
		<path class="st5" d="M245,478.1c16.3,9.3,39.8-6.8,31.5,7.7s-28.3,18.7-44.6,9.4s-22.8-28.7-14.5-43.2S228.7,468.8,245,478.1z"/>
		
			<ellipse transform="matrix(0.8425 -0.5387 0.5387 0.8425 -177.7979 270.2661)" class="st13" cx="373.3" cy="439.2" rx="41.8" ry="37.2"/>
		<path class="st14" d="M354.2,417.6c19.5-12.4,44.2-8.5,55.3,8.8c2,3.1,3.5,6.6,4.4,10.2c0.4-7-1.5-14-5.3-19.9
			c-11.1-17.3-35.8-21.2-55.3-8.8c-15.8,10.1-23.3,28-19.6,43.6C334.3,438.6,341.6,425.6,354.2,417.6z"/>
		<path class="st15" d="M421.3,373.8c-1-0.6-2-1.2-2.9-1.9c-0.5,3.1-1,6.2-1.6,9.4c-0.8,4.7,0.4,3,15.2,12.4s18.8,1.3,18.8,1.3
			s2.4-7,6.4-18.9C444.8,380.3,432.1,379.9,421.3,373.8z"/>
		<path class="st5" d="M377.4,448.2c12.9-8.2,14.6-31.2,21.9-19.7s2.8,27.4-10.1,35.7s-29.3,5.6-36.6-5.8S364.6,456.5,377.4,448.2z"
			/>
		<path class="st16" d="M496.9,152.1c-5.5-2.5-12.7-0.2-16.6,3.6c-7.2,7-11.1,17.6-14.7,26.8c-5.5,13.7-8.4,28.3-12,42.6
			c-1.6,6.5-3.2,13-4.7,19.4c-4.2,18-8.1,36.2-11.7,54.3c-4.6,23.4-8.9,46.9-12.8,70.4c8.3,4.3,17.8,5.4,26.9,3.2
			c-9.1,2.3-18.6,1.1-26.9-3.2c-0.2,1.1-0.4,2.2-0.6,3.3c0.6,0.4,1.3,0.9,2,1.3c7.3,4.1,16,4.4,24.4,1.6
			c5.3-15.7,14.7-44.1,24.3-74.9c7.8-25.1,15.8-51.8,21.7-74.5C500,211.8,517.6,161.5,496.9,152.1z"/>
		<path class="st17" d="M497.4,152.4c3.1,20.3-7.4,52.3-10.1,63.5c-6.1,24.3-14.3,53-22.3,80c-9.4,31.3-18.5,60.3-24.1,77.7
			c3.5,0.1,7.1-0.3,10.5-1.2c-3.4,0.9-7,1.3-10.5,1.2c-0.3,0.9-0.6,1.9-0.9,2.7c-1,0.3-2,0.6-3,0.9c4.5,0.3,9.1-0.3,13.4-1.8
			c5.3-15.7,14.7-44.1,24.3-74.9c7.8-25.1,15.8-51.8,21.7-74.5C500,212,517.3,162.4,497.4,152.4z"/>
		<path class="st18" d="M496.9,152.1c-5.5-2.5-12.7-0.2-16.6,3.6c-7.2,7-11.1,17.6-14.7,26.8c-5.5,13.7-8.4,28.3-12,42.6
			c-1.6,6.5-3.2,13-4.7,19.4c-4.2,18-8.1,36.2-11.7,54.3c-4.3,21.8-8.3,43.7-12,65.6c-0.5,2.7-0.9,5.4-1.4,8.1
			c0.6,0.4,1.3,0.9,2,1.3c4,2.3,8.6,3.5,13.2,3.5c0.2-1.3,0.4-2.5,0.7-3.8c-5.3-0.3-10.5-1.8-15.3-4.2c4.7,2.5,10,3.9,15.3,4.2
			c4-23.4,8.3-46.8,12.9-70.2c3.8-19.1,7.9-38.1,12.4-57c1.6-6.8,3.2-13.6,5-20.4c3.8-15,6.9-30.3,12.7-44.7
			c3.8-9.6,7.9-20.8,15.5-28.1l0.2-0.2C497.9,152.6,497.4,152.3,496.9,152.1z"/>
		<path class="st19" d="M509,137.3c0.4,10.1,0,20.3-1,30.4c-1,11.2-4.2,28.6-4.2,28.6c-6.8,0.4-13.7-0.3-20.3-2.1
			c-2.3-0.6-4.5-1.4-6.6-2.3c-4.2-1.7-8.2-3.8-12-6.3c3.1-9.9,7-19.5,11.7-28.7c7.8-15.1,15.1-23.3,15.1-23.3l5.5,1.2l5.7,1.2
			L509,137.3z"/>
		<path class="st20" d="M497,134.8c-3.6,8.1-6.7,16.5-9.1,25.1c-4.5,16.5-9.6,32.3-9.6,32.3l-1.5-0.2c-4.2-1.7-8.2-3.8-12-6.3
			c3.1-9.9,7-19.5,11.7-28.7c7.8-15.1,15.1-23.3,15.1-23.3L497,134.8z"/>
		<path class="st21" d="M509,137.3c0.4,10.1,0,20.3-1,30.4c-1,11.2-4.2,28.6-4.2,28.6c-3.7,0.2-7.5,0.1-11.2-0.3
			c2.9-9.2,5.1-18.5,6.6-28c1.6-11.8,3-26.4,3.5-32L509,137.3z"/>
		<path class="st22" d="M492.9,132.6c0,0-24.6-27.1-7.5-65.5c17.2-38.4,78.5-47.5,78.5-47.5s-23.6,33.6-23.1,75.1
			c0.5,37.3-27.7,42.3-27.7,42.3s-7.5,1.3-11.8,0.2C498.3,136.2,495.4,134.6,492.9,132.6z"/>
		<path class="st23" d="M485.4,67.1c-3.8,8.2-5.8,17.1-6,26.1c0.7,1.2,1.5,2.4,2.5,3.4c1.4,1.1,3,2,4.7,2.5c2.4,0.6,6.5-0.1,6.5-0.1
			s15.6-2.8,15.3-23.4c-0.3-22.9,12.7-41.5,12.7-41.5s-0.7,0.1-1.9,0.3C505.4,41.7,492.1,52.2,485.4,67.1z"/>
		<g class="st24">
			<path class="st9" d="M563.7,19.9c0.1-0.1,0.1-0.2,0.2-0.3c0,0-0.5,0.1-1.3,0.2C563,19.8,563.3,19.8,563.7,19.9z"/>
			<path class="st9" d="M526.8,89c-6.8,36.7-35.4,36.1-35.4,36.1c-1.3,0-2.5-0.1-3.8-0.3c1.5,2.7,3.3,5.3,5.3,7.7
				c2.5,2,5.4,3.6,8.5,4.6c4.3,1.1,11.8-0.2,11.8-0.2s28.2-5,27.7-42.3c-0.5-37.4,18.7-68.5,22.4-74.1C558.9,25,533.6,51.9,526.8,89
				z"/>
		</g>
		<path class="st25" d="M423.5,368.5c0,0,13.4,8,31.2,2.1l-1.3,6.6c0,0-16.3,5.6-32.1-3.4L423.5,368.5z"/>
	</g>
	<g id="Layer_11">
		<path class="st25" d="M424.5,369.2l-1,5.7c3.3,1.6,6.7,2.7,10.3,3.3c5.2,0.8,10.5,0.8,15.7-0.2c0,0,0.9-2.6,1.9-5.8
			C442.4,374.6,432.8,373.5,424.5,369.2z"/>
		<path class="st26" d="M425,366l-0.5,3.2c8.3,4.3,17.8,5.4,26.9,3.2c1.5-4.4,3.3-9.7,3.3-10C447.2,372.5,425,366,425,366z"/>
	</g>
	<g id="Layer_9">
		<path class="st27" d="M500.6,47c24.5-21.7,63.3-27.4,63.3-27.4c-9.7,15-16.6,31.6-20.4,49C543.5,68.6,521.8,70.1,500.6,47z"/>
	</g>
	<path class="st28" d="M27.1,19.6L27.1,19.6L27.1,19.6z"/>
	<rect x="27.1" y="19.6" class="st28" width="0.2" height="0.3"/>
	<path class="st29" d="M0,0L0,0L0,0z"/>
	<path class="st29" d="M633.9,633.9L633.9,633.9L633.9,633.9z"/>
	<path class="st29" d="M0,0L0,0L0,0z"/>
	<path class="st29" d="M633.9,633.9L633.9,633.9L633.9,633.9z"/>
	<path class="st29" d="M0,0L0,0L0,0z"/>
	<path class="st29" d="M633.9,633.9L633.9,633.9L633.9,633.9z"/>
	<path class="st29" d="M0,0L0,0L0,0z"/>
	<path class="st29" d="M633.9,633.9L633.9,633.9L633.9,633.9z"/>
</g>
</svg>
