<?xml version="1.0" encoding="utf-8"?>
<!-- Generator: Adobe Illustrator 21.0.0, SVG Export Plug-In . SVG Version: 6.00 Build 0)  -->
<svg version="1.1" id="Layer_1" xmlns="http://www.w3.org/2000/svg" xmlns:xlink="http://www.w3.org/1999/xlink" x="0px" y="0px"
	 viewBox="0 0 633.9 633.9" style="enable-background:new 0 0 633.9 633.9;" xml:space="preserve">
<style type="text/css">
	.st0{fill:#CFD1D1;}
	.st1{fill:#ECF0F3;}
	.st2{fill:#E8EAEA;}
	.st3{fill:#FFFFFF;}
	.st4{fill:#F4B58A;}
	.st5{fill:#F4CAAE;}
	.st6{fill:none;}
	.st7{fill:#B8CD66;}
	.st8{fill:#89B039;}
	.st9{fill:#B7CB68;}
	.st10{fill:#B7CD6B;}
	.st11{fill:#F3E9D0;}
	.st12{fill:#EADAB8;}
	.st13{fill:#F3E8D4;}
	.st14{fill:#F1E9D2;}
	.st15{opacity:0.2;enable-background:new    ;}
	.st16{fill:#FF6374;}
	.st17{fill:#995247;}
	.st18{fill:#DE546D;}
	.st19{fill:#498CAF;}
	.st20{font-family:'MyriadPro-Bold';}
	.st21{font-size:160.1537px;}
</style>
<title>i maps</title>
<g>
	<g id="Layer_2">
		<g id="Layer_10">
			<circle class="st0" cx="316.9" cy="316.9" r="289.9"/>
			<path class="st1" d="M593.9,316.5c0,152.9-124,276.9-276.9,276.9c-153,0-277-124-277-276.9c0-153,124-276.9,277-276.9
				C469.9,39.6,593.9,163.5,593.9,316.5z"/>
			<path class="st2" d="M593.9,316.5c0,152.9-124,276.9-276.9,276.9c-153,0-277-124-277-276.9c0-153,124-276.9,277-276.9
				C469.9,39.6,593.9,163.5,593.9,316.5z"/>
			<path class="st3" d="M593.9,316.5c0.1-80.5-35-157.1-96-209.6l-76.6,26.4l-122.6-32.1l-85.8-22.4L139.4,104
				c-117.4,98-133,272.7-35,390.1c14,16.8,30,31.9,47.6,44.9l53.3-18.8l3.5-1.2l2.4-0.8l210.1,54.5l7.5-2.7
				C526,527,593.9,429.7,593.9,316.5z"/>
			<path class="st4" d="M592.8,341.1l0.2-46.9c-5-63.1-31.6-122.6-75.3-168.4l-101.9,34L207.3,102l-103.1,37.2
				c-93.8,112.5-83.7,278.6,23,379l80.1-28.1l210.1,57.7l90.5-30.7C556.7,470.7,586.9,408.1,592.8,341.1z"/>
			<path class="st5" d="M207.3,490.1V102l0,0l-103.1,37.2c-93.8,112.5-83.7,278.6,23,379L207.3,490.1L207.3,490.1z"/>
			<polygon class="st4" points="415.8,159.7 207.3,102 207.3,490.1 417.2,547.7 416.2,159.6 			"/>
			<path class="st5" d="M592.8,341.1l0.2-46.9c-5-63.1-31.6-122.6-75.3-168.4l-101.5,33.8l1,388.2l0.2,0.1l90.5-30.7
				C556.7,470.7,586.9,408.1,592.8,341.1z"/>
			<path class="st6" d="M40,316.5c-0.1-64.8,22.6-127.6,64.2-177.3l-10,3.6C4.8,256.8,16.3,420,120.9,520.4l6.3-2.2
				C71.5,465.9,39.9,392.9,40,316.5z"/>
			<path class="st6" d="M207.3,490.1V102l0,0l-103.1,37.2c-93.8,112.5-83.7,278.6,23,379L207.3,490.1L207.3,490.1z"/>
			<polygon class="st6" points="415.8,159.7 207.3,102 207.3,490.1 416.9,547.7 			"/>
			<path class="st6" d="M593.8,100.4l-76.1,25.4C561.4,171.6,588,231,593,294.1L593.8,100.4z"/>
			<path class="st6" d="M592.8,341.1c-5.9,67-36.1,129.6-84.9,176l84.3-28.6L592.8,341.1z"/>
			<path class="st6" d="M592.8,341.1l0.2-46.9c-5-63.1-31.6-122.6-75.3-168.4l-101.9,34l1.1,388l0.5,0.1l90.5-30.7
				C556.7,470.7,586.9,408.1,592.8,341.1z"/>
			<path class="st6" d="M40,316.5c-0.1-64.8,22.6-127.6,64.2-177.3l-10,3.6C4.8,256.8,16.3,420,120.9,520.4l6.3-2.2
				C71.5,465.9,39.9,392.9,40,316.5z"/>
			<path class="st6" d="M207.3,490.1V102l0,0l-103.1,37.2c-93.8,112.5-83.7,278.6,23,379L207.3,490.1L207.3,490.1z"/>
			<polygon class="st6" points="415.8,159.7 207.3,102 207.3,490.1 416.9,547.7 			"/>
			<path class="st6" d="M593.8,100.4l-76.1,25.4C561.4,171.6,588,231,593,294.1L593.8,100.4z"/>
			<path class="st6" d="M592.8,341.1c-5.9,67-36.1,129.6-84.9,176l84.3-28.6L592.8,341.1z"/>
			<path class="st6" d="M592.8,341.1l0.2-46.9c-5-63.1-31.6-122.6-75.3-168.4l-101.9,34l1.1,388l0.5,0.1l90.5-30.7
				C556.7,470.7,586.9,408.1,592.8,341.1z"/>
			<path class="st7" d="M207.3,325.3V102l0,0l-103.1,37.2C92.3,153.5,81.8,169,73,185.4l68.3,145.2
				C141.3,330.6,170.7,328.3,207.3,325.3z"/>
			<path class="st8" d="M415.8,159.7L207.3,102v223.3c55.7-4.5,128.1-10.7,139.4-12.6c9.3-1.6,40.5-7.3,69.5-12.6L415.8,159.7
				L415.8,159.7z"/>
			<path class="st9" d="M416.2,300.1c29.2-5.3,56.1-10.2,56.1-10.2l-4.9-24.5l-32.6-48.9l32.6-16.3l60.2-63.5
				c-3.2-3.7-6.5-7.4-9.9-11l-101.9,34L416.2,300.1z"/>
			<path class="st7" d="M136.4,488.8l-31-34.2l-33.5-9c14.3,27.1,33,51.7,55.3,72.7l8-2.8L136.4,488.8z"/>
			<polygon class="st8" points="400.5,449.6 395.6,431.7 358.1,449.6 325.5,474.1 326.9,522.9 416.9,547.7 416.7,468.6 			"/>
			<polygon class="st10" points="416.7,468.6 416.9,547.7 417.4,547.8 468.4,530.5 465.8,526.3 			"/>
			<path class="st6" d="M40,316.5c-0.1-64.8,22.6-127.6,64.2-177.3l-10,3.6C4.8,256.8,16.3,420,120.9,520.4l6.3-2.2
				C71.5,465.9,39.9,392.9,40,316.5z"/>
			<path class="st6" d="M207.3,490.1V102l0,0l-103.1,37.2c-93.8,112.5-83.7,278.6,23,379L207.3,490.1L207.3,490.1z"/>
			<path class="st6" d="M592.8,341.1c-5.9,67-36.1,129.6-84.9,176l84.3-28.6L592.8,341.1z"/>
			<path class="st6" d="M593.8,100.4l-76.1,25.4C561.4,171.6,588,231,593,294.1L593.8,100.4z"/>
			<path class="st6" d="M592.8,341.1l0.2-46.9c-5-63.1-31.6-122.6-75.3-168.4l-101.9,34l1.1,388l0.5,0.1l90.5-30.7
				C556.7,470.7,586.9,408.1,592.8,341.1z"/>
			<polygon class="st6" points="415.8,159.7 207.3,102 207.3,490.1 416.9,547.7 			"/>
			<polygon class="st6" points="415.8,159.7 207.3,102 207.3,490.1 416.9,547.7 			"/>
			<path class="st6" d="M592.8,341.1c-5.9,67-36.1,129.6-84.9,176l84.3-28.6L592.8,341.1z"/>
			<path class="st6" d="M593.8,100.4l-76.1,25.4C561.4,171.6,588,231,593,294.1L593.8,100.4z"/>
			<path class="st6" d="M592.8,341.1l0.2-46.9c-5-63.1-31.6-122.6-75.3-168.4l-101.9,34l1.1,388l0.5,0.1l90.5-30.7
				C556.7,470.7,586.9,408.1,592.8,341.1z"/>
			<path class="st6" d="M40,316.5c-0.1-64.8,22.6-127.6,64.2-177.3l-10,3.6C4.8,256.8,16.3,420,120.9,520.4l6.3-2.2
				C71.5,465.9,39.9,392.9,40,316.5z"/>
			<path class="st6" d="M207.3,490.1V102l0,0l-103.1,37.2c-93.8,112.5-83.7,278.6,23,379L207.3,490.1L207.3,490.1z"/>
			<polygon class="st11" points="180.9,111.5 169.7,115.6 189.2,228.1 159.8,233 159.8,244.4 203.9,237.9 195.7,190.6 207.3,189.6 
				207.3,177.6 192.4,179.2 			"/>
			<path class="st12" d="M331.1,503.7l1.6-30.2l52.9-26.9l31.1,33.8l-0.1-27.7L407,441l9.6-5.4v-13.7l-12.1,6.8l-18.7-98.4
				c6.8-1.8,14.1-5.6,18.9-10.2l11.6-3.6l-0.1-42.7L291,295.6l53.1-75.7l71.9,5.3l-0.1-22.3l-71.8-2.6l-24.5-32.6l-7.8-36.9l-13-3.6
				l6.1,40.5l-70.1,6.5l-10.1-67.5l-13-3.6l11.6,72.7l-16.1,1.7v12l105.8-8.8l14.7,29.4l-62,84.8l-58.5,8.6v36.6l42.2-6l2.7,0.3
				l-10.8,94.3l-34,10.3v35.2l40.6-14.6l71.7,14.7l-1.4,46.2L331,524v-12.2h85.8v-8.2h-85.7V503.7z M280.2,338.9l11.7-3.2l68.9-4.1
				l5.9,36.7h-91.1L280.2,338.9z M327.8,443.4l-58.7-14.7l3.3-44l97.2,1.6l5,31.3L327.8,443.4z"/>
			<path class="st13" d="M592.8,355.3l0.1-14.2c-0.5,5.1-1,10.2-1.8,15.3L592.8,355.3z"/>
			<path class="st13" d="M591,356.3c0.7-5,1.3-10.1,1.8-15.3v-0.1L543,370.4l-34.8-61.5l79.9-48.9c-0.9-4.2-1.9-8.5-2.9-12.6
				l-26.6,15.8l-50.3-86.3l30.4-26.3c-6.5-8.7-13.5-17-21-24.8l-13.8,4.6l-4.9,22.8l-65.2,50.6l-17.8-0.6l0.1,22.3l12.7,0.9l24.6,41
				l-37.2,6.5l0.1,42.7l6.1-1.9l11.4,37.5h8.2l-8.2-40.8l35.9-9.8l39.1,68.5L416.6,422v13.7l53.2-29.9l20.2,35.7l-0.7,0.4l4.9,9.8
				l1.2-0.7l0.4,0.7l9.8-6.5l-0.1-0.1l35.9-21.1l16.4,29.6c5.6-9.8,10.6-20,14.9-30.4L549.4,382L591,356.3z M458.1,220.3l41.6-36
				l50.6,83.8l-48.8,29L458.1,220.3z M500.4,435.6l-19.8-36.1l23.3-13.1l13-6.6l19.6,35.9L500.4,435.6z"/>
			<polygon class="st13" points="416.7,480.4 438.1,503.7 416.8,503.7 416.8,511.8 445.2,511.8 445.6,511.8 464.1,531.9 
				477.9,527.2 416.6,452.7 			"/>
			<path class="st14" d="M153.3,495.5l-0.6-1.7l54.6-19.6V439l-66.6,20.2l-0.4-1.2l-22.8-24.4l35.6-86l39.4-5.4l-3.3,40.8h13
				l1.6-42.4l3.5-0.5v-36.6l-67.6,9.9L82.1,169.8c-6.8,10.9-12.9,22.3-18.1,34l60,128.6l-6.8,15l-76-55.7c-0.4,4-0.6,8-0.8,12.1
				L67,324.3l-22.8,39.8c0.8,4.6,1.7,9.2,2.7,13.7L75,329.2l38,28.2l-25.3,64.7L59,417.5c4,10.2,8.6,20.2,13.8,29.8l13.6,2.6
				l35.9,48.9l-0.9,13.8c1.9,1.9,3.8,3.7,5.7,5.5l27.4-9.6L153.3,495.5z"/>
			<path class="st6" d="M207.3,490.1V102l0,0l-103.1,37.2c-93.8,112.5-83.7,278.6,23,379L207.3,490.1L207.3,490.1z"/>
			<polygon class="st6" points="415.8,159.7 207.3,102 207.3,490.1 416.9,547.7 			"/>
			<path class="st6" d="M592.8,341.1c-5.9,67-36.1,129.6-84.9,176l84.3-28.6L592.8,341.1z"/>
			<path class="st6" d="M592.8,341.1l0.2-46.9c-5-63.1-31.6-122.6-75.3-168.4l-101.9,34l1.1,388l0.5,0.1l90.5-30.7
				C556.7,470.7,586.9,408.1,592.8,341.1z"/>
			<ellipse class="st15" cx="280.1" cy="323.2" rx="52.3" ry="18.1"/>
			<path class="st16" d="M281.8,326.3c-98.7-135.6-106.9-171.1-106.9-207.6c0-59,47.9-106.9,106.9-106.9s106.9,47.8,106.9,106.9
				C388.7,155.2,377.8,190.8,281.8,326.3z"/>
			<circle class="st17" cx="281.8" cy="113.2" r="85.6"/>
			<circle class="st3" cx="281.8" cy="113.2" r="82.5"/>
			<path class="st18" d="M196.1,113.2c0-47.3,38.3-85.6,85.6-85.6V11.9c-59,0-106.9,47.9-106.9,106.9c0,36.5,8.2,72,106.9,207.6
				V198.8C234.5,198.8,196.1,160.5,196.1,113.2z"/>
			<text transform="matrix(1 0 0 1 247.6222 173.6105)" class="st19 st20 st21">?</text>
		</g>
	</g>
	<path class="st3" d="M0,0L0,0L0,0z"/>
	<path class="st3" d="M633.9,633.9L633.9,633.9L633.9,633.9z"/>
	<path class="st3" d="M0,0L0,0L0,0z"/>
	<path class="st3" d="M633.9,633.9L633.9,633.9L633.9,633.9z"/>
	<path class="st3" d="M0,0L0,0L0,0z"/>
	<path class="st3" d="M633.9,633.9L633.9,633.9L633.9,633.9z"/>
	<path class="st3" d="M0,0L0,0L0,0z"/>
	<path class="st3" d="M633.9,633.9L633.9,633.9L633.9,633.9z"/>
</g>
</svg>
