<?xml version="1.0" encoding="utf-8"?>
<!-- Generator: Adobe Illustrator 21.0.0, SVG Export Plug-In . SVG Version: 6.00 Build 0)  -->
<svg version="1.1" id="Layer_7" xmlns="http://www.w3.org/2000/svg" xmlns:xlink="http://www.w3.org/1999/xlink" x="0px" y="0px"
	 viewBox="0 0 633.9 633.9" style="enable-background:new 0 0 633.9 633.9;" xml:space="preserve">
<style type="text/css">
	.st0{fill:#CFD1D1;}
	.st1{fill:#ECF0F3;}
	.st2{fill:#CE9736;}
	.st3{fill:#EAB750;}
	.st4{fill:#468259;}
	.st5{fill:#468E5E;}
	.st6{fill:#EADDCE;}
	.st7{fill:#A37A28;}
	.st8{fill:#7ACC93;}
	.st9{fill:#FFFFFF;}
	.st10{opacity:0.1;fill:#FFFFFF;enable-background:new    ;}
</style>
<title>multiplication</title>
<g>
	<circle class="st0" cx="316.9" cy="316.9" r="290.1"/>
	<circle class="st1" cx="316.9" cy="316.9" r="278.6"/>
	<path class="st2" d="M301.8,440.8V595c5,0.3,10,0.4,15.1,0.4c8.8,0,17.5-0.4,26.1-1.2V440.8H301.8z"/>
	<path class="st3" d="M260.7,589.8h112.5c35.2-7.2,68.6-21.2,98.4-41.2H162.3C192.1,568.6,225.5,582.6,260.7,589.8z"/>
	<path class="st3" d="M181.8,429.2l-42,102.7c10.9,9,22.4,17.1,34.5,24.3l45.6-111.4L181.8,429.2z"/>
	<path class="st3" d="M463,424.5l-38.1,15.6l44.9,109.7c11.9-7.8,23.2-16.6,33.8-26.1L463,424.5z"/>
	<path class="st4" d="M86.7,434.1h235.7v-351h-157c-35.6,23.1-65.4,54-87.3,90.3v252.1C78.1,430.3,82,434.1,86.7,434.1z"/>
	<path class="st3" d="M558.1,83.1c4.7,0,8.5,3.8,8.5,8.5l0,0v101.7c8.4,16.9,15,34.6,19.8,52.8V91.7c0-15.6-12.7-28.3-28.3-28.3
		H432.4c12.5,5.7,24.5,12.3,36,19.8L558.1,83.1z"/>
	<path class="st3" d="M586.4,246.2c-4.8-18.2-11.4-35.9-19.8-52.8v232.1c0,4.7-3.8,8.5-8.5,8.5H86.7c-4.7,0-8.5-3.8-8.5-8.5l0,0
		V173.4c-7.6,12.7-14.2,26-19.8,39.7v207.6c4,9.9,8.5,19.6,13.6,29c4.4,2.7,9.5,4.1,14.7,4.1h471.5c0.5,0,1,0,1.5,0
		c11.8-20.8,20.8-43,26.8-66.1L586.4,246.2L586.4,246.2z"/>
	<path class="st3" d="M468.4,83.1c-11.5-7.5-23.5-14.1-36-19.8h-231c-12.5,5.7-24.5,12.3-36,19.8H468.4z"/>
	<path class="st5" d="M566.7,193.4V91.7c0-4.7-3.8-8.5-8.5-8.5h-89.7C474,127.9,529.3,173.4,566.7,193.4z"/>
	<path class="st5" d="M321.4,434.1h236.7c4.7,0,8.5-3.8,8.5-8.5V193.4c-22.3-44.9-56.2-83-98.2-110.3h-147L321.4,434.1L321.4,434.1z
		"/>
	<path class="st6" d="M383.5,422.5c0,6.4,5.2,11.5,11.5,11.5l0,0h39.1l8.3-23.1H395C388.6,411,383.5,416.2,383.5,422.5L383.5,422.5
		L383.5,422.5z"/>
	<polygon class="st7" points="161.1,479.7 205.6,479.7 216.2,453.8 171.7,453.8 	"/>
	<polygon class="st7" points="430.6,453.8 441.1,479.7 485.6,479.7 475,453.8 	"/>
	<rect x="301.8" y="453.8" class="st7" width="41.2" height="25.9"/>
	<path class="st7" d="M301.8,589.8v5.3c5,0.3,10,0.4,15.1,0.4c8.8,0,17.5-0.4,26.1-1.2v-4.5H301.8z"/>
	<path class="st8" d="M160.7,310.3v-21.4l19.3-17.4c33.3-29.8,49.3-46.8,49.6-64.4c0-12.3-7.2-22.1-24.7-22.1
		c-13,0-24.4,6.5-32.3,12.3l-10-25.1c11.2-8.6,29.1-15.6,49.3-15.6c34.4,0,53,20,53,47.2c0,25.6-18.1,45.8-40.2,65.4l-14,11.6v0.5
		H268v29.1L160.7,310.3z"/>
	<path class="st8" d="M321,196.5l11.2,19.1c3.3,5.8,6.3,11.4,9.3,17h0.5c3-6.3,5.8-11.9,8.8-17.4l10-18.6h38.4l-37.5,54.2l37.9,59.6
		h-40l-11.4-20.5c-3.3-5.6-6-11.4-8.8-17.2h-0.7c-2.8,6-5.8,11.6-8.6,17.2l-10.7,20.5h-38.9l38.6-57.9l-37.7-55.8H321V196.5z"/>
	<path class="st8" d="M410.6,310.3v-21.4l19.3-17.4c33.3-29.8,49.3-46.8,49.6-64.4c0-12.3-7.2-22.1-24.7-22.1
		c-13,0-24.4,6.5-32.3,12.3l-10-25.1c11.2-8.6,29.1-15.6,49.3-15.6c34.4,0,53,20,53,47.2c0,25.6-18.1,45.8-40.2,65.4l-14,11.6v0.5
		h57.2v29.1L410.6,310.3z"/>
	<path class="st9" d="M0,0L0,0L0,0z"/>
	<path class="st9" d="M633.9,633.9L633.9,633.9L633.9,633.9z"/>
	<path class="st9" d="M0,0L0,0L0,0z"/>
	<path class="st9" d="M633.9,633.9L633.9,633.9L633.9,633.9z"/>
	<rect x="633.6" y="633.6" class="st10" width="0.2" height="0.3"/>
	<path class="st10" d="M0,0L0,0L0,0z"/>
	<rect class="st10" width="0.2" height="0.3"/>
</g>
</svg>
