<svg id="Layer_1" data-name="Layer 1" xmlns="http://www.w3.org/2000/svg" xmlns:xlink="http://www.w3.org/1999/xlink" viewBox="0 0 457.01003 85.2859"><defs><linearGradient id="linear-gradient" x1="19.34863" y1="43.42758" x2="24.14863" y2="20.87758" gradientTransform="matrix(1, 0, 0, -1, -3.11, 83.09)" gradientUnits="userSpaceOnUse"><stop offset="0" stop-color="#369c35"/><stop offset="0.46" stop-color="#1a7832"/><stop offset="1" stop-color="#78ad29"/></linearGradient><linearGradient id="linear-gradient-2" x1="13.65639" y1="43.95923" x2="17.27639" y2="26.91923" xlink:href="#linear-gradient"/><linearGradient id="linear-gradient-3" x1="51.60454" y1="41.84637" x2="45.46454" y2="17.22638" xlink:href="#linear-gradient"/><linearGradient id="linear-gradient-4" x1="58.93802" y1="46.99061" x2="53.07802" y2="27.82061" xlink:href="#linear-gradient"/><linearGradient id="linear-gradient-5" x1="55.73264" y1="55.4259" x2="62.26264" y2="41.4359" xlink:href="#linear-gradient"/><linearGradient id="linear-gradient-6" x1="58.20518" y1="60.76708" x2="64.61518" y2="47.01707" xlink:href="#linear-gradient"/><linearGradient id="linear-gradient-7" x1="39.93991" y1="67.29916" x2="63.53991" y2="64.81916" xlink:href="#linear-gradient"/><linearGradient id="linear-gradient-8" x1="44.73016" y1="72.58156" x2="64.15017" y2="70.54156" xlink:href="#linear-gradient"/><linearGradient id="linear-gradient-9" x1="30.7989" y1="70.1852" x2="44.5389" y2="78.4452" xlink:href="#linear-gradient"/><linearGradient id="linear-gradient-10" x1="27.06057" y1="73.65905" x2="41.62057" y2="82.40905" xlink:href="#linear-gradient"/><linearGradient id="linear-gradient-11" x1="25.77868" y1="67.1094" x2="-1.27132" y2="63.3094" xlink:href="#linear-gradient"/><linearGradient id="linear-gradient-12" x1="37.17978" y1="74.34159" x2="15.84978" y2="71.34159" xlink:href="#linear-gradient"/><linearGradient id="linear-gradient-13" x1="14.06495" y1="52.17737" x2="6.38495" y2="37.72737" xlink:href="#linear-gradient"/><linearGradient id="linear-gradient-14" x1="14.48311" y1="63.29303" x2="7.27311" y2="49.73303" xlink:href="#linear-gradient"/></defs><title>ne_logo</title><path d="M214.49,80.76V67.18h-5.07V65.37h12.19v1.81h-5.07V80.76Zm8.4,0V69.6h1.7v1.71a4.58,4.58,0,0,1,1.2-1.57,2.09,2.09,0,0,1,1.21-.38,3.76,3.76,0,0,1,1.95.6l-.67,1.74a2.79,2.79,0,0,0-1.38-.39,1.79,1.79,0,0,0-1.11.37,2,2,0,0,0-.7,1,7.28974,7.28974,0,0,0-.32,2.2v5.83Zm14.71-1.4a7.08005,7.08005,0,0,1-2,1.26,5.81,5.81,0,0,1-2.09.37,4.06,4.06,0,0,1-2.83-.9,2.94,2.94,0,0,1-1-2.29,3.06,3.06,0,0,1,.37-1.49,3.0999,3.0999,0,0,1,1-1.08,4.62991,4.62991,0,0,1,1.36-.62,14.40008,14.40008,0,0,1,1.68-.28,17.23,17.23,0,0,0,3.38-.65v-.49a2.08,2.08,0,0,0-.54-1.62,3.18,3.18,0,0,0-2.16-.64,3.34,3.34,0,0,0-2,.47,2.85,2.85,0,0,0-.94,1.66l-1.85-.26a4.58,4.58,0,0,1,.83-1.92,3.67,3.67,0,0,1,1.68-1.13,7.49994,7.49994,0,0,1,2.54-.39,6.7201,6.7201,0,0,1,2.33.34,3.08,3.08,0,0,1,1.31.85,2.99989,2.99989,0,0,1,.59,1.29,10.91,10.91,0,0,1,.09,1.74v2.51a27.298,27.298,0,0,0,.12,3.33,4.29006,4.29006,0,0,0,.46,1.35h-2a4.21016,4.21016,0,0,1-.37-1.4Zm-.15-4.19a13.87977,13.87977,0,0,1-3.1.71,7.16016,7.16016,0,0,0-1.66.38,1.62889,1.62889,0,0,0-.44,2.76,2.49,2.49,0,0,0,1.68.5,3.91,3.91,0,0,0,1.95-.48,2.93,2.93,0,0,0,1.25-1.3,4.52,4.52,0,0,0,.3-1.88v-.69Zm5.06,5.59V69.6h1.7v1.59a4,4,0,0,1,3.54-1.82,4.6701,4.6701,0,0,1,1.85.36,2.92,2.92,0,0,1,1.27.95,3.63,3.63,0,0,1,.59,1.39,11.11054,11.11054,0,0,1,.1,1.84v6.85h-1.89V73.98a5.09,5.09,0,0,0-.22-1.73,1.84,1.84,0,0,0-.78-.91,2.5,2.5,0,0,0-1.31-.34,3,3,0,0,0-2.08.77,3.78,3.78,0,0,0-.87,2.91v6.09Zm11.44-3.33,1.87-.3a2.62,2.62,0,0,0,.88,1.72,3.07,3.07,0,0,0,2,.6,3,3,0,0,0,1.94-.53,1.58,1.58,0,0,0,.63-1.24,1.14,1.14,0,0,0-.57-1,8.53988,8.53988,0,0,0-1.93-.64,17.66009,17.66009,0,0,1-2.88-.95,2.76,2.76,0,0,1-1.63-2.55,2.88012,2.88012,0,0,1,.34-1.38,3.08015,3.08015,0,0,1,.93-1.05,4,4,0,0,1,1.2-.55,5.7198,5.7198,0,0,1,1.63-.23,6.36994,6.36994,0,0,1,2.3.38,3.13,3.13,0,0,1,1.47,1,4.06991,4.06991,0,0,1,.65,1.73l-1.85.26a2.05,2.05,0,0,0-.73-1.36,2.63,2.63,0,0,0-1.7-.49,3.08,3.08,0,0,0-1.85.43,1.26,1.26,0,0,0-.56,1,.99993.99993,0,0,0,.23.66,1.68,1.68,0,0,0,.72.5c.19.07.74.23,1.67.48a23.5,23.5,0,0,1,2.79.87,2.84,2.84,0,0,1,1.25,1,2.74009,2.74009,0,0,1,.45,1.62,3.15,3.15,0,0,1-.55,1.77,3.59006,3.59006,0,0,1-1.59,1.29,5.81006,5.81006,0,0,1-2.35.45,5.27,5.27,0,0,1-3.31-.9,4.2,4.2,0,0,1-1.46-2.67Zm12.19,3.33V71.09h-1.68V69.6h1.68V68.42a5.19058,5.19058,0,0,1,.2-1.67,2.42011,2.42011,0,0,1,1-1.19,3.44,3.44,0,0,1,1.92-.46,9.32973,9.32973,0,0,1,1.77.19l-.28,1.66a6.52991,6.52991,0,0,0-1.11-.1,1.67,1.67,0,0,0-1.22.37,1.99993,1.99993,0,0,0-.35,1.37v1h2.17v1.5h-2.15v9.7Zm5.05-5.58a5.73,5.73,0,0,1,1.7-4.58,5.19,5.19,0,0,1,3.51-1.24,5,5,0,0,1,3.76,1.5,5.72,5.72,0,0,1,1.46,4.15,7.34972,7.34972,0,0,1-.65,3.38,4.57006,4.57006,0,0,1-1.88,1.91,5.46,5.46,0,0,1-2.69.68,5,5,0,0,1-3.79-1.5,6,6,0,0,1-1.44-4.32Zm1.93,0a4.72,4.72,0,0,0,.94,3.2,3.12993,3.12993,0,0,0,4.71,0,4.84011,4.84011,0,0,0,.94-3.26,4.56993,4.56993,0,0,0-.94-3.12,3.14008,3.14008,0,0,0-4.7,0,4.7,4.7,0,0,0-.94,3.19Zm10.95,5.58V69.6h1.7v1.71a4.58008,4.58008,0,0,1,1.2-1.57,2.09,2.09,0,0,1,1.21-.38,3.76,3.76,0,0,1,1.95.6l-.67,1.74a2.79,2.79,0,0,0-1.38-.39,1.79,1.79,0,0,0-1.11.37,2.00008,2.00008,0,0,0-.7,1,7.29022,7.29022,0,0,0-.32,2.2v5.83Zm7.42,0V69.6h1.7v1.58a3.92,3.92,0,0,1,3.38-1.81,3.68,3.68,0,0,1,2,.51,2.74,2.74,0,0,1,1.11,1.44,4,4,0,0,1,3.46-1.95,3.41,3.41,0,0,1,2.56.92,3.91,3.91,0,0,1,.9,2.83v7.65h-1.89v-7a5.16937,5.16937,0,0,0-.19-1.63,1.57,1.57,0,0,0-.67-.8,2.08,2.08,0,0,0-1.14-.3,2.66,2.66,0,0,0-2,.78,3.44006,3.44006,0,0,0-.78,2.5V80.8h-1.89V73.52a3.17991,3.17991,0,0,0-.46-1.89,1.75,1.75,0,0,0-1.51-.63,2.75,2.75,0,0,0-1.47.42,2.38,2.38,0,0,0-1,1.23,7.00006,7.00006,0,0,0-.3,2.33v5.78Zm18.15-13.24V65.37h1.89v2.15Zm0,13.24V69.6h1.89V80.76Zm5,0V69.6h1.7v1.59a4,4,0,0,1,3.55-1.82,4.67,4.67,0,0,1,1.85.36,2.92,2.92,0,0,1,1.27.95,3.62981,3.62981,0,0,1,.59,1.39,11.11055,11.11055,0,0,1,.1,1.84v6.85h-1.89V73.98a5.09033,5.09033,0,0,0-.22-1.73,1.84,1.84,0,0,0-.78-.91A2.5,2.5,0,0,0,319.5,71a3,3,0,0,0-2.08.77,3.78,3.78,0,0,0-.87,2.91v6.09Zm11.85.92,1.83.26a1.75,1.75,0,0,0,.64,1.24,3.16994,3.16994,0,0,0,1.92.52,3.4,3.4,0,0,0,2-.52,2.58,2.58,0,0,0,1-1.47,12.09943,12.09943,0,0,0,.14-2.42,3.89,3.89,0,0,1-3.09,1.46,4.21,4.21,0,0,1-3.54-1.66,6.36,6.36,0,0,1-1.26-4,7.43023,7.43023,0,0,1,.58-2.95,4.60992,4.60992,0,0,1,1.67-2.05,4.52,4.52,0,0,1,2.58-.73,4,4,0,0,1,3.25,1.61V69.6h1.74v9.64a9.1096,9.1096,0,0,1-.53,3.69,3.87992,3.87992,0,0,1-1.68,1.72,5.83007,5.83007,0,0,1-2.83.63,5.32,5.32,0,0,1-3.22-.9,3,3,0,0,1-1.19-2.69Zm1.55-6.69a4.82,4.82,0,0,0,.85,3.2,2.89,2.89,0,0,0,4.38,0,4.66,4.66,0,0,0,.92-3.1,4.56,4.56,0,0,0-.91-3.08,2.81,2.81,0,0,0-2.19-1,2.74,2.74,0,0,0-2.15,1,4.5301,4.5301,0,0,0-.88,3Zm17,5.77V65.37h11.15v1.81h-9.07v4.73h8.49v1.81h-8.49v5.25h9.44v1.81Zm21.5,0V79.35A3.47,3.47,0,0,1,363.42,81a4.34,4.34,0,0,1-2.45-.73,4.85,4.85,0,0,1-1.73-2,7.08021,7.08021,0,0,1-.61-3,8,8,0,0,1,.56-3,4.39,4.39,0,0,1,1.7-2.18,4.43993,4.43993,0,0,1,2.48-.72,3.72,3.72,0,0,1,1.8.43,3.78014,3.78014,0,0,1,1.28,1.11V65.37h1.89V80.76Zm-6-5.56a4.81,4.81,0,0,0,.91,3.2,2.73,2.73,0,0,0,2.14,1.06,2.69,2.69,0,0,0,2.11-1,4.66,4.66,0,0,0,.87-3.09,5.2,5.2,0,0,0-.88-3.35,2.72,2.72,0,0,0-2.18-1.07,2.63,2.63,0,0,0-2.11,1,5.06012,5.06012,0,0,0-.85,3.24Zm18.35,5.56V79.09a4.06,4.06,0,0,1-3.53,1.9,4.51008,4.51008,0,0,1-1.84-.38,3.06014,3.06014,0,0,1-1.27-.95,3.56992,3.56992,0,0,1-.58-1.4,9.76976,9.76976,0,0,1-.11-1.76V69.6h1.89v6.17a11.20192,11.20192,0,0,0,.11,2,2,2,0,0,0,.76,1.17,2.33,2.33,0,0,0,1.42.43,3.09,3.09,0,0,0,1.59-.43,2.45013,2.45013,0,0,0,1.05-1.19,5.99985,5.99985,0,0,0,.31-2.17v-6h1.89V80.76Zm12.2-4.08,1.85.26a4.78,4.78,0,0,1-1.56,3,4.55,4.55,0,0,1-3.08,1.08,4.77,4.77,0,0,1-3.67-1.49,6,6,0,0,1-1.39-4.28,7.76025,7.76025,0,0,1,.6-3.16,4.14,4.14,0,0,1,1.82-2,5.38,5.38,0,0,1,2.66-.68,4.61,4.61,0,0,1,3,.92,4.21,4.21,0,0,1,1.48,2.61l-1.83.28a3.00018,3.00018,0,0,0-.93-1.69,2.41,2.41,0,0,0-1.61-.57,3,3,0,0,0-2.33,1,4.85008,4.85008,0,0,0-.89,3.24,5.00013,5.00013,0,0,0,.86,3.26,2.81,2.81,0,0,0,2.25,1,2.64,2.64,0,0,0,1.86-.68,3.35994,3.35994,0,0,0,.95-2.09Zm11,2.69a7.07962,7.07962,0,0,1-2,1.26A5.81,5.81,0,0,1,398,81a4.06,4.06,0,0,1-2.83-.9,2.94,2.94,0,0,1-1-2.29,3.06,3.06,0,0,1,.37-1.49,3.1,3.1,0,0,1,1-1.08,4.62021,4.62021,0,0,1,1.36-.62,14.40974,14.40974,0,0,1,1.68-.28,17.22936,17.22936,0,0,0,3.31-.65V73.2a2.08,2.08,0,0,0-.54-1.62,3.18,3.18,0,0,0-2.16-.64,3.35,3.35,0,0,0-2,.47,2.85,2.85,0,0,0-.94,1.66l-1.85-.26a4.58,4.58,0,0,1,.83-1.92,3.67,3.67,0,0,1,1.68-1.13,7.50008,7.50008,0,0,1,2.54-.39,6.72,6.72,0,0,1,2.33.34,3.07986,3.07986,0,0,1,1.31.85,3.00007,3.00007,0,0,1,.59,1.29,10.92076,10.92076,0,0,1,.09,1.74v2.5a27.30405,27.30405,0,0,0,.12,3.33,4.29041,4.29041,0,0,0,.46,1.35h-2a4.20942,4.20942,0,0,1-.37-1.4Zm-.2-4.2a13.87977,13.87977,0,0,1-3.1.71,7.16034,7.16034,0,0,0-1.66.38,1.62889,1.62889,0,0,0-.44,2.76,2.49,2.49,0,0,0,1.68.5,3.91011,3.91011,0,0,0,1.95-.48,2.9301,2.9301,0,0,0,1.25-1.3,4.52,4.52,0,0,0,.3-1.88v-.69Zm9.17,3.9.26,1.67a6.9997,6.9997,0,0,1-1.42.17,3.22,3.22,0,0,1-1.59-.33,1.83,1.83,0,0,1-.8-.86,6.81013,6.81013,0,0,1-.23-2.24V71.09h-1.39V69.6h1.4V66.85l1.89-1.14V69.6h1.89v1.49h-1.89v6.54a3.25948,3.25948,0,0,0,.1,1,.78005.78005,0,0,0,.32.37,1.27,1.27,0,0,0,.64.14,5.92944,5.92944,0,0,0,.82-.08Zm2.11-11.56V65.37h1.89v2.15Zm0,13.24V69.6h1.89V80.76Zm4.31-5.58a5.73,5.73,0,0,1,1.72-4.58,5.19,5.19,0,0,1,3.51-1.24,5,5,0,0,1,3.76,1.5,5.71006,5.71006,0,0,1,1.42,4.18,7.34972,7.34972,0,0,1-.65,3.38,4.57006,4.57006,0,0,1-1.88,1.91,5.46,5.46,0,0,1-2.69.68,5,5,0,0,1-3.79-1.5,6,6,0,0,1-1.44-4.32Zm1.93,0a4.72,4.72,0,0,0,.94,3.2,3.12993,3.12993,0,0,0,4.71,0,4.84011,4.84011,0,0,0,.94-3.26,4.58,4.58,0,0,0-.94-3.12,3.14008,3.14008,0,0,0-4.7,0,4.7,4.7,0,0,0-.94,3.19Zm11,5.58V69.6h1.7v1.59a4,4,0,0,1,3.54-1.82,4.67,4.67,0,0,1,1.85.36,2.92,2.92,0,0,1,1.27.95,3.62981,3.62981,0,0,1,.59,1.39,11.11054,11.11054,0,0,1,.1,1.84v6.85h-1.89V73.98a5.09033,5.09033,0,0,0-.22-1.73,1.84,1.84,0,0,0-.78-.91,2.5,2.5,0,0,0-1.31-.34,3,3,0,0,0-2.08.77,3.78,3.78,0,0,0-.87,2.91v6.09Z" transform="translate(0 0)" style="fill:#24211e"/><path d="M191.71,52.41a3.89,3.89,0,1,1-3.89,3.89h0A3.91,3.91,0,0,1,191.71,52.41Z" transform="translate(0 0)" style="fill:#fac900"/><path d="M139.65,70.99c0-.7,1.62-2.13.91-3.06-.42-.55-3-.71-4.47.73s-1.78,3.23-1.15,3.86,3.33-.93,3.65-.39c.23.38,2.94,14.14,24,12.86,25.19-1.55,38.3-25.28,38.3-25.28s3.39.79,4.18,0-1-2.86-2.21-3.75a5,5,0,0,0-4.35-.55c-1.12.54.91,3.56.91,3.56s-11.37,19.07-37,19.63S139.65,71.69,139.65,70.99Z" transform="translate(0 0)" style="fill:#fac900"/><path d="M97.24,28.81l12.65,19.14V28.76a6.45,6.45,0,0,1,.22-1.77,3.45,3.45,0,0,1,.68-1.31,2.94,2.94,0,0,1,1.07-.8,3.42,3.42,0,0,1,1.37-.27,3.61,3.61,0,0,1,1.41.26h0a2.93,2.93,0,0,1,1.09.79,3.43,3.43,0,0,1,.68,1.31h0a6.43,6.43,0,0,1,.22,1.78V55.22q0,4.68-3.92,4.68a5.73,5.73,0,0,1-.91-.07,4.47994,4.47994,0,0,1-.83-.21,4.08991,4.08991,0,0,1-.75-.36h0a4.76984,4.76984,0,0,1-.7-.52,7.53,7.53,0,0,1-.63-.65h0a8.99875,8.99875,0,0,1-.59-.74h0l-.55-.78-.55-.79h0L94.89,36.89V55.74a4.45,4.45,0,0,1-1,3.08h0a3.23,3.23,0,0,1-1.11.8,3.45,3.45,0,0,1-1.37.27,3.54,3.54,0,0,1-1.4-.27h0a3,3,0,0,1-1.1-.81h0a3.48,3.48,0,0,1-.71-1.32,6.07984,6.07984,0,0,1-.23-1.75V29.8a10.8197,10.8197,0,0,1,.09-1.5h0a5.37012,5.37012,0,0,1,.3-1.21h0a3.79008,3.79008,0,0,1,.62-1,4.27,4.27,0,0,1,.92-.8h0a4.40006,4.40006,0,0,1,1.12-.52,4.17,4.17,0,0,1,1.2-.17,4.8499,4.8499,0,0,1,.9.08,3.38,3.38,0,0,1,.78.24h0a4.31019,4.31019,0,0,1,.66.38,4.00021,4.00021,0,0,1,.57.48,6.9096,6.9096,0,0,1,.52.6,8.113,8.113,0,0,1,.52.75l.07.11h0c.31.47.63,1,1,1.56Zm74.05,5.67h.44V30.96q0-.74,0-1.36a4.8123,4.8123,0,0,1,.06-1,3.75014,3.75014,0,0,1,.48-1.58h0a2.93028,2.93028,0,0,1,.49-.64,3.22017,3.22017,0,0,1,.66-.5,3.09,3.09,0,0,1,.79-.33,3.46009,3.46009,0,0,1,.87-.11,3.32,3.32,0,0,1,2.32,1,2.92013,2.92013,0,0,1,.57.73h0a3,3,0,0,1,.32.87,8.21981,8.21981,0,0,1,.14,1.07q0,.62,0,1.42v4h2a4.22,4.22,0,0,1,1.25.17,2.51,2.51,0,0,1,1,.52,2.33993,2.33993,0,0,1,.59.81,2.45987,2.45987,0,0,1,.2,1,2.39014,2.39014,0,0,1-.28,1.2,2,2,0,0,1-.86.79,4.59,4.59,0,0,1-1.28.4,9.88012,9.88012,0,0,1-1.69.13h-.92v12.5a3.36217,3.36217,0,0,0,.08.94,2.52971,2.52971,0,0,0,.17.65,1.75993,1.75993,0,0,0,.31.49h0a1.15994,1.15994,0,0,0,.49.3h0a2.49,2.49,0,0,0,.79.11,4.89982,4.89982,0,0,0,.62,0,4.59654,4.59654,0,0,0,.81-.14h0l.85-.15a5.06008,5.06008,0,0,1,.66-.05,2,2,0,0,1,.83.18,2.42009,2.42009,0,0,1,.72.51,2.26007,2.26007,0,0,1,.51.77,2.44993,2.44993,0,0,1,.17.91,2.48,2.48,0,0,1-.46,1.48,3.42,3.42,0,0,1-1.25,1.04h0a7.67979,7.67979,0,0,1-2.08.63,16.80989,16.80989,0,0,1-2.78.2,12.22994,12.22994,0,0,1-2.63-.25,5.83,5.83,0,0,1-1.95-.77h0a4.81,4.81,0,0,1-2.09-2.88,12.99907,12.99907,0,0,1-.36-2.07,26.28208,26.28208,0,0,1-.12-2.64V39.49h-.57a4.31,4.31,0,0,1-1.27-.17,2.49,2.49,0,0,1-1-.53,2.32,2.32,0,0,1-.6-.81,2.48993,2.48993,0,0,1-.2-1,2.29,2.29,0,0,1,.83-1.8h0a2.77,2.77,0,0,1,1-.52h0a4.75006,4.75006,0,0,1,1.32-.17Zm-11.6,22.71-4.34-6.37-4.46,6.37h0q-.51.71-.94,1.21a7.84909,7.84909,0,0,1-.81.83h0a2.63014,2.63014,0,0,1-.88.49,3.33,3.33,0,0,1-1.06.16,3.43,3.43,0,0,1-1.19-.2,3.13984,3.13984,0,0,1-1-.61h0a2.93017,2.93017,0,0,1-.68-.88,2.26982,2.26982,0,0,1-.24-1,3.25,3.25,0,0,1,.35-1.3,10.86,10.86,0,0,1,1-1.66h0l5.56-8-4.91-6.63a7.99994,7.99994,0,0,1-1-1.61,3.56,3.56,0,0,1-.35-1.45,2.36991,2.36991,0,0,1,.22-1,2.63982,2.63982,0,0,1,.64-.85h0a2.79,2.79,0,0,1,1-.59,3.68,3.68,0,0,1,1.22-.19,3.37007,3.37007,0,0,1,1.07.18,2.71,2.71,0,0,1,.9.51h0a8.18967,8.18967,0,0,1,.81.83q.43.5.91,1.16h0l3.85,5.28,3.75-5.28h0q.5-.69.93-1.19a7.3095,7.3095,0,0,1,.82-.83h0a2.73992,2.73992,0,0,1,.89-.49,3.39006,3.39006,0,0,1,1.07-.16,3.76,3.76,0,0,1,1.21.19,2.99989,2.99989,0,0,1,1,.57h0a2.68,2.68,0,0,1,.67.86,2.33,2.33,0,0,1,.23,1,3.21007,3.21007,0,0,1-.36,1.48h0a8.26763,8.26763,0,0,1-.45.76q-.26.39-.6.83h0l-4.91,6.63,5.56,8h0a11.75,11.75,0,0,1,1,1.71,3.22008,3.22008,0,0,1,.36,1.3,2.4,2.4,0,0,1-.91,1.88,3.1001,3.1001,0,0,1-1,.58,3.63,3.63,0,0,1-1.2.19,3.32006,3.32006,0,0,1-1.07-.17h0a2.85012,2.85012,0,0,1-.91-.51h0a7.57125,7.57125,0,0,1-.83-.84q-.43-.5-.92-1.18Zm-21.73-8.48h-12a8.99924,8.99924,0,0,0,.22,1.7,7.31953,7.31953,0,0,0,.61,1.7,6.2601,6.2601,0,0,0,.93,1.37,5.17013,5.17013,0,0,0,1.2,1h0a5.45009,5.45009,0,0,0,1.39.59h0a5.8601,5.8601,0,0,0,1.54.2,8.17052,8.17052,0,0,0,1-.06,6.1601,6.1601,0,0,0,.94-.19h0a5.8599,5.8599,0,0,0,.88-.32,6.64963,6.64963,0,0,0,.85-.47h0q.44-.28.83-.57t.75-.61h0l.85-.76h0l1.06-1h0a2.28,2.28,0,0,1,1.53-.48,3,3,0,0,1,1,.15,2.28,2.28,0,0,1,.78.45h0a1.9,1.9,0,0,1,.51.73h0a2.52993,2.52993,0,0,1,.17.95,3.12992,3.12992,0,0,1-.18,1,6.26978,6.26978,0,0,1-.52,1.11h0a6.86992,6.86992,0,0,1-.88,1.16,9.52979,9.52979,0,0,1-1.2,1.08,9.79,9.79,0,0,1-1.56,1h0a13.55964,13.55964,0,0,1-1.88.79h0a12.55012,12.55012,0,0,1-2.22.53,17.35018,17.35018,0,0,1-2.53.18,15.74,15.74,0,0,1-5.45-.88,10.89007,10.89007,0,0,1-4.11-2.64,11.36,11.36,0,0,1-2.58-4.19,15.8499,15.8499,0,0,1-.85-5.37,17.21067,17.21067,0,0,1,.21-2.72,14.78029,14.78029,0,0,1,.63-2.52,12.35023,12.35023,0,0,1,1-2.24,11.24022,11.24022,0,0,1,1.43-1.92h0a10.33976,10.33976,0,0,1,1.81-1.54h0a11.37,11.37,0,0,1,2.18-1.13,13.10979,13.10979,0,0,1,2.59-.7,15.71007,15.71007,0,0,1,2.73-.23,12.39,12.39,0,0,1,6.42,1.59h0a11.35,11.35,0,0,1,2.35,1.82,9.90014,9.90014,0,0,1,1.68,2.29h0a11.73064,11.73064,0,0,1,1,2.54,10.18952,10.18952,0,0,1,.34,2.59,5.08986,5.08986,0,0,1-.36,2,2.47,2.47,0,0,1-1.16,1.29h0a6.15,6.15,0,0,1-1.7.55,12.40023,12.40023,0,0,1-2.22.18Zm-12-4.07h10.83a9.83954,9.83954,0,0,0-.51-2.47,5.45,5.45,0,0,0-1.13-1.91h0a4.65006,4.65006,0,0,0-1.65-1.17,5.65,5.65,0,0,0-2.12-.38,5.21,5.21,0,0,0-2,.38,4.71006,4.71006,0,0,0-1.63,1.15,5.88019,5.88019,0,0,0-1.16,1.93,10.24026,10.24026,0,0,0-.61,2.46Z" transform="translate(0 0)" style="fill:#fac900"/><path d="M209.89,59.85q.7-6.45,1.15-15t.55-18.76h25.08l-.26,6.16-3.61-.16H218.89a9.72013,9.72013,0,0,0-.26,1.37c-.07.54-.13,1.36-.2,2.44l-.15,3.28h10.31c1.58,0,2.75,0,3.53-.05s1.48-.09,2.13-.17l-.22,6.39c-.57-.05-1.18-.09-1.86-.12s-1.66,0-3,0H218.02l-.27,3.54c-.07,1-.12,1.85-.15,2.46s-.05,1.18-.05,1.69v.72l2.68.08h2.11c2.52,0,4.84,0,7-.13s4.08-.2,5.87-.37l-.25,6.67Zm49-19.81a10.24031,10.24031,0,0,0-1.93-.44,16.09976,16.09976,0,0,0-2.3-.15,8.31,8.31,0,0,0-6.25,2.28,8.87,8.87,0,0,0-2.22,6.44,7.08,7.08,0,0,0,1.5,4.79,5.24,5.24,0,0,0,4.17,1.73,6.23,6.23,0,0,0,4.93-2,9.1299,9.1299,0,0,0,1.9-5.82l.2-6.85Zm.1-5.69c.05-.85.08-1.72.11-2.61s0-1.78,0-2.69V26.09h7.32q-.65,7.64-1,16.15t-.53,17.61h-6.72V56.39a9.52993,9.52993,0,0,1-3.59,3.09,10.56,10.56,0,0,1-4.79,1.08q-5.22,0-8-3.05t-2.78-8.72q0-7.19,3.84-11.2t10.74-4a18.70007,18.70007,0,0,1,2.69.19,18.17009,18.17009,0,0,1,2.67.59Zm38.35-.47q-.6,5.83-.91,12.28t-.31,13.68h-6.63V56.68a10.2102,10.2102,0,0,1-3.74,3,12.52,12.52,0,0,1-5.07.92q-5.28,0-7.62-2t-2.34-6.7q0-.88.21-6.1c.14-3.48.21-6.67.21-9.54V33.89h7.11q-.37,4.36-.56,8.25t-.19,6.7c0,2.32.37,4,1.1,4.9a4.39,4.39,0,0,0,3.69,1.42,6.21,6.21,0,0,0,6.1-3.75q1.77-3.75,1.78-13.66V33.89Zm24.42,6.32a35.09945,35.09945,0,0,0-3.51-.87,14.63991,14.63991,0,0,0-2.57-.25,7.39,7.39,0,0,0-5.79,2.15,8.78,8.78,0,0,0-2,6.17,7.20007,7.20007,0,0,0,1.82,5.34,7.26,7.26,0,0,0,5.33,1.8,14.46,14.46,0,0,0,2.71-.3c1-.2,2.29-.53,3.81-1l-1,6.17a37.25039,37.25039,0,0,1-3.8.85,20.7207,20.7207,0,0,1-3.2.27q-6,0-9.29-3.41t-3.29-9.66q0-6.67,3.63-10.46t10-3.8a24.91986,24.91986,0,0,1,3.38.24,29.06042,29.06042,0,0,1,3.66.73v6Zm17.7,19.63c.12-.58.21-1.25.3-2s.17-1.89.25-3.41l.48-7.3a8.85016,8.85016,0,0,1-1.22.7,10.99973,10.99973,0,0,1-1.27.53l-3.38,1.12a7.99991,7.99991,0,0,0-2.94,1.38,2.38,2.38,0,0,0-.67,1.78,2.42,2.42,0,0,0,.86,2,3.71,3.71,0,0,0,2.41.71,8.8199,8.8199,0,0,0,1.53-.17c.6-.12,1.41-.32,2.42-.6l-1.51,5.31a22.83,22.83,0,0,1-2.33.49,14.58939,14.58939,0,0,1-2.1.17,8.66,8.66,0,0,1-6.05-2,7.05,7.05,0,0,1-2.35-5.52,7.16,7.16,0,0,1,1.61-4.84,10,10,0,0,1,5-2.83l5.3-1.57a14.20993,14.20993,0,0,0,3.69-1.45,1.93,1.93,0,0,0,.92-1.62,2.22,2.22,0,0,0-1-2,5,5,0,0,0-2.82-.62,15,15,0,0,0-4.08.64,33.40005,33.40005,0,0,0-5,2l.82-6.23a42.21091,42.21091,0,0,1,5.07-1,34.81964,34.81964,0,0,1,4.67-.31q5.07,0,7.26,1.67t2.18,5.58v2.28L346.89,55.53v4.32Zm21.43-9.33V52a3.21,3.21,0,0,0,.71,2.24,2.71,2.71,0,0,0,2.06.76,9.7,9.7,0,0,0,1.77-.19,22.30053,22.30053,0,0,0,2.26-.56l-1.25,5.84c-.82.16-1.69.29-2.58.38a26.85851,26.85851,0,0,1-2.79.14q-3.855,0-5.67-1.36a5,5,0,0,1-1.82-4.27c0-.33.06-1.19.17-2.58s.2-2.59.25-3.64l.49-9.58h-3.6l.25-5.25h3.85l.25-4.34,6.82-1.27-.25,5.61h6.12l-.25,5.25h-6.27l-.62,11.37Zm10.26-18.21.25-6.22h6.89l-.26,6.22Zm6.78,2q-.4,7.29-.59,13.79t-.19,11.71h-7.28q.57-6.15.85-12.51t.27-13Zm17.96,4.55a6,6,0,0,0-5,2.15q-1.7,2.15-1.69,6.42a8.74,8.74,0,0,0,1.54,5.68,5.62,5.62,0,0,0,4.62,1.9,5.91,5.91,0,0,0,5-2.13q1.65-2.13,1.64-6.43,0-3.79-1.5-5.67A5.49,5.49,0,0,0,395.89,38.84ZM382,47.44q0-6.62,3.75-10.44t10.28-3.83q6.26,0,9.68,3.4t3.43,9.6q0,6.8-3.74,10.59t-10.39,3.8q-6.225,0-9.61-3.43c-2.25-2.29-3.39-5.52-3.39-9.7Zm30.76,12.41q.62-6.06.94-12.55t.32-13.41h6.62v3.2a10,10,0,0,1,3.75-3,12.76,12.76,0,0,1,5.1-.91q5.23,0,7.56,2t2.33,6.68q0,.91-.19,6T439,57.24v2.54h-7.11q.37-4.58.59-8.57t.21-6.43c0-2.32-.37-4-1.09-4.88a4.43,4.43,0,0,0-3.71-1.32,6.25,6.25,0,0,0-6.12,3.77q-1.79,3.77-1.78,13.66v3.83Z" transform="translate(0 0)" style="fill:#24211e"/><path d="M444.89,33.49v-6.9h-2.58v-.92h6.21v.92h-2.59v6.9Zm4.66,0V25.66h1.56l1.85,5.54c.17.52.3.9.37,1.16q.13005-.43.42-1.26l1.87-5.45h1.39v7.84h-1V26.94l-2.28,6.55h-.84l-2.26-6.66v6.66Z" transform="translate(0 0)" style="fill:#24211e"/><path d="M33.19,70.85s-7.74-33.3,6-45.17c0,0-4.54,4.25-4.83,17.47,0,0-.16,5.43,2.48,2.21s6-8.33,11.79-7.18c0,0-17.77,2-10.69,32.16A13.16992,13.16992,0,0,1,33.19,70.85Z" transform="translate(0 0)" style="fill:#1a1a18"/><circle cx="36.97" cy="41.17" r="2.24" style="fill:#1a1a18"/><circle cx="27.01" cy="34.08" r="2.24" style="fill:#1a1a18"/><path d="M26.15,70.53s6.74-32.71-9.66-40.28a19.25,19.25,0,0,1,8.88,6.52s3.47,5,4.62-1.41a36.34,36.34,0,0,0-2.77-18,10.87,10.87,0,0,0,.9,1.3,28.46005,28.46005,0,0,1,1.89,3.62,27.67,27.67,0,0,1,1.88,13.11c-.26,4.57-1,9.09-1.22,13.7a86.14985,86.14985,0,0,0,.45,13.43,71.34,71.34,0,0,0,1.48,8.35A43.00025,43.00025,0,0,1,26.15,70.53Z" transform="translate(0 0)" style="fill:#1a1a18"/><path d="M23.65,50.58a66.61991,66.61991,0,0,1-7,9.31,6.54,6.54,0,0,0-1.38-5.11c-1.84-2.51-1.54-3.14-1.54-3.14l6-6.93s-.15.63,1.93,2.54S23.65,50.58,23.65,50.58Z" transform="translate(0 0)" style="fill:url(#linear-gradient)"/><path d="M13.16,41.52a66.64011,66.64011,0,0,0-8.2,8.25,6.55,6.55,0,0,1,5.25.62c2.76,1.46,3.33,1.07,3.33,1.07l6-6.93s-.61.24-2.79-1.54S13.16,41.52,13.16,41.52Z" transform="translate(0 0)" style="fill:url(#linear-gradient-2)"/><path d="M41.06,50.58a66.6401,66.6401,0,0,0,7,9.31,6.55,6.55,0,0,1,1.38-5.11c1.84-2.51,1.54-3.14,1.54-3.14l-6-6.93s.15.63-1.93,2.54S41.06,50.58,41.06,50.58Z" transform="translate(0 0)" style="fill:url(#linear-gradient-3)"/><path d="M51.54,41.52a66.61985,66.61985,0,0,1,8.2,8.25,6.55,6.55,0,0,0-5.25.62c-2.76,1.46-3.33,1.07-3.33,1.07l-6-6.93s.61.24,2.79-1.54S51.54,41.52,51.54,41.52Z" transform="translate(0 0)" style="fill:url(#linear-gradient-4)"/><path d="M52.4,38.74a66.62978,66.62978,0,0,0,11.56,1.35,6.55,6.55,0,0,1-2.75-4.52C60.66,32.5,60,32.29,60,32.29l-9.11-.42s.56.33.51,3.15S52.4,38.74,52.4,38.74Z" transform="translate(0 0)" style="fill:url(#linear-gradient-5)"/><path d="M53.08,24.9a66.62,66.62,0,0,1,11.63-.24,6.54,6.54,0,0,0-3.17,4.23c-.85,3-1.52,3.15-1.52,3.15l-9.13-.45s.59-.27.81-3.08S53.08,24.9,53.08,24.9Z" transform="translate(0 0)" style="fill:url(#linear-gradient-6)"/><path d="M51.66,22.36a66.61982,66.61982,0,0,0,9-7.42,6.55,6.55,0,0,1-5.17-1.13c-2.6-1.72-3.25-1.38-3.25-1.38L45.6,18.75s.63-.18,2.63,1.8S51.66,22.36,51.66,22.36Z" transform="translate(0 0)" style="fill:url(#linear-gradient-7)"/><path d="M42.1,12.33a66.61973,66.61973,0,0,1,7.85-8.59,6.55,6.55,0,0,0,.87,5.22c1.59,2.68,1.23,3.27,1.23,3.27l-6.64,6.32s.21-.62-1.67-2.71S42.1,12.33,42.1,12.33Z" transform="translate(0 0)" style="fill:url(#linear-gradient-8)"/><path d="M39.28,11.6A66.62988,66.62988,0,0,0,40.08,0,6.55,6.55,0,0,1,35.7,3c-3,.7-3.22,1.37-3.22,1.37v9.12s.3-.58,3.12-.66S39.28,11.6,39.28,11.6Z" transform="translate(0 0)" style="fill:url(#linear-gradient-9)"/><path d="M25.42,11.6A66.63007,66.63007,0,0,1,24.62,0,6.54,6.54,0,0,0,29,3c3,.7,3.22,1.37,3.22,1.37v9.12s-.3-.58-3.12-.66S25.42,11.6,25.42,11.6Z" transform="translate(0 0)" style="fill:url(#linear-gradient-10)"/><path d="M13.05,22.36a66.63,66.63,0,0,1-9-7.42,6.55,6.55,0,0,0,5.17-1.13c2.6-1.72,3.21-1.39,3.21-1.39l6.64,6.32s-.63-.18-2.63,1.8S13.05,22.36,13.05,22.36Z" transform="translate(0 0)" style="fill:url(#linear-gradient-11)"/><path d="M22.61,12.33a66.64009,66.64009,0,0,0-7.85-8.59,6.55,6.55,0,0,1-.87,5.22c-1.59,2.68-1.23,3.27-1.23,3.27l6.64,6.32s-.21-.62,1.67-2.71S22.61,12.33,22.61,12.33Z" transform="translate(0 0)" style="fill:url(#linear-gradient-12)"/><path d="M12.3,38.74A66.63,66.63,0,0,1,.75,40.09a6.55,6.55,0,0,0,2.75-4.5c.55-3.07,1.21-3.28,1.21-3.28l9.18-.44s-.56.33-.51,3.15S12.3,38.74,12.3,38.74Z" transform="translate(0 0)" style="fill:url(#linear-gradient-13)"/><path d="M11.63,24.9A66.61993,66.61993,0,0,0,0,24.66a6.54,6.54,0,0,1,3.18,4.23c.85,3,1.52,3.15,1.52,3.15l9.19-.45s-.59-.27-.81-3.08S11.63,24.9,11.63,24.9Z" transform="translate(0 0)" style="fill:url(#linear-gradient-14)"/></svg>