<?xml version="1.0" encoding="utf-8"?>
<!-- Generator: Adobe Illustrator 21.0.0, SVG Export Plug-In . SVG Version: 6.00 Build 0)  -->
<svg version="1.1" id="Layer_1" xmlns="http://www.w3.org/2000/svg" xmlns:xlink="http://www.w3.org/1999/xlink" x="0px" y="0px"
	 viewBox="0 0 633.9 633.9" style="enable-background:new 0 0 633.9 633.9;" xml:space="preserve">
<style type="text/css">
	.st0{fill:#CFD1D1;}
	.st1{fill:#E5E288;}
	.st2{fill:#D9ED89;}
	.st3{fill:#21CCBF;}
	.st4{fill:#13A89A;}
	.st5{fill:#1AC1A9;}
	.st6{fill:#189E94;}
	.st7{fill:#FFFFFF;}
	.st8{fill:#B8BBC0;}
	.st9{fill:#A3A3A3;}
	.st10{fill:none;stroke:#203531;stroke-width:6;stroke-miterlimit:10;stroke-dasharray:10;}
	.st11{opacity:0.1;fill:#FFFFFF;enable-background:new    ;}
</style>
<title>next maps</title>
<g>
	<g id="Layer_2">
		<g id="Layer_6">
			<circle class="st0" cx="317" cy="316.9" r="289.9"/>
			<circle class="st1" cx="317" cy="316.9" r="276.5"/>
			<circle class="st2" cx="360" cy="277.4" r="192.9"/>
			<path class="st3" d="M317.3,39.4c68.8-0.1,135.2,25.5,186.1,71.9l-10.1,4l-5.6,5.9l1.3,6.9l6.7,1l4.2,10.1l11.6-4.7l1.9,13.6
				h-3.5l-9.5-1.4l-10.6,1.8L479.4,163l-14.6,2.2l-2.1,12.5l6.1,1.4l-1.8,8l-14.5-2.9l-13.3,2.9l-2.9,7.4l2.4,15.6l7.7,3.7l13.2-0.2
				l8.8-0.8l2.7-7.1l13.8-18l9.1,1.9l8.8-8l1.8,6.3l22,14.9l-2.6,3.5l-10-0.5l3.7,5.5l6.3,1.3l7.1-3l-0.2-8.5l3.2-1.6l-2.6-2.7
				l-14.6-8.2l-3.9-10.9h12.2l3.9,3.9l10.6,9.2l0.3,10.9l10.9,11.6l4.2-15.9l7.5-4.2l1.4,13l7.4,8.2h3.1c3.1,7.7,5.8,15.6,8,23.6
				h-12.8l-13.8-10.3l-14.4,1.4v8.8H537l-5-3.5l-25-6.4v-16l-31.8,2.4l-9.8,5.3h-12.5l-6.3-0.6l-15.2,8.5v15.9l-31.1,22.6l2.6,9.6
				h6.3l-1.6,9.2l-4.5,1.6l-0.2,23.9l27,30.8h11.7l0.6-1.9h21.2l6.1-5.6h12l6.6,6.6L506,342l-2.4,23.8l19.9,35l-10.4,20.1l0.6,9.3
				l8.2,8.2V461l10.9,14.5v14.4c-50.8,62.8-128.5,103-215.5,103c-143.4,0-261.2-108.8-275.5-248.5l0,0c-0.2-2.1-0.3-4.3-0.5-6.6l0,0
				c-0.6-7.2-0.8-14.5-0.8-21.7v-9l0.2-4l0.2-2.4c0.2-1.8,0.2-3.5,0.3-5.1l0.2-1.3c2.4-30.3,9.7-59.9,21.7-87.8v15.1l11.7,5.6v22.5
				L86,268.8l9.2,1.4l1.3-6.6l-11-16.6l-2.1-16.2h6.4l2.6,16.7l15.7,22.8l-4,7.4l9.8,15.1l24.7,6.3v-4l10,1.4l-1,6.9l7.7,1.4
				l11.9,3.4l17,19.3l21.5,1.6l2.1,17.7L193,357l-0.6,15.7l-2.1,9.6l21.4,26.8l1.6,9.1c0,0,7.7,2.1,8.7,2.1s17.5,12.5,17.5,12.5
				v48.3l5.8,1.6l-4,22.3l10,13.2l-1.9,22.2l13.2,22.8l16.7,14.6l16.7,0.3l1.8-5.3l-12.4-10.4l0.6-5.1l2.3-6.4l0.5-6.4l-8.4-0.2
				L276,539l6.9-6.7l1-5.1L276,525l0.5-4.8l11.1-1.6l16.9-8l5.6-10.4l17.7-22.5l-4-17.7l5.3-9.3l16.2,0.5l10.9-8.7l3.5-34l12-15.4
				l2.2-9.8l-11.1-3.5l-7.4-12l-24.9-0.2L311,360l-1-14.1l-6.6-11.4l-17.8-0.3L275.2,318l-9.2-4.5l-0.5,5l-16.7,1l-6.1-8.5
				l-17.3-3.5l-14.3,16.7l-22.6-3.9l-1.6-25.5l-16.4-2.7l6.6-12.5l-1.9-7.1l-21.7,14.4L140,285l-5-10.6l3.1-10.9l7.5-13.8l17.2-8.8
				h33.4l-0.2,10.3l12,5.5l-1-17.3l8.7-8.7l17.3-11.4l1.3-8l17.3-18.1l18.5-10.3l-1.6-1.3l12.5-11.7l4.5,1.1l2.1,2.6l4.8-5.1
				l1.1-0.6l-5.1-0.6l-5.3-1.8v-5.1l2.7-2.2h6.3l2.7,1.1l2.6,5l2.9-0.5v-0.3l1,0.2l8.7-1.3l1.1-4.2l5,1.1v4.7l-4.7,3.2h0.2l0.6,5
				l15.6,4.8l0.2,0.2l3.5-0.2l0.3-6.9l-12.5-5.6l-0.6-3.4l10.3-3.4l0.5-10l-10.8-6.6l-0.8-16.7l-14.8,7.4h-5.3l1.3-12.7l-20.1-4.8
				l-8.3,6.3v19.3l-14.9,4.7l-6.1,12.5l-6.4,1.1v-16.1l-14.1-1.9l-7.1-4.7l-2.7-10.3l25.2-14.8l12.2-3.9l1.3,8.3l6.9-0.3l0.5-4.2
				l7.2-1.1l0.2-1.4l-3.2-1.3l-0.6-4.3l8.8-0.6l5.3-5.6l0.3-0.3h0.2l1.6-1.8l18.5-2.2l8.2,6.9L290.5,110l27.3,6.6l3.7-9.1h11.9
				l4.3-8l-8.5-2.1V87l-26.5-11.7l-18.3,2.1L274,82.7l0.8,13.2l-10.9-1.6L262,87l10.4-9.5l-18.8-1l-5.5,1.8l-2.4,6.3l7.1,1.3
				l-1.4,6.9l-11.9,0.8l-1.9,4.7l-17.3,0.5c0,0-0.5-9.8-1.1-9.8c-0.8,0,13.5-0.3,13.5-0.3l10.4-10.1l-5.6-2.9l-7.5,7.4l-12.5-0.6
				L210,71.9h-16l-16.7,12.5h15.3l1.4,4.3l-4,3.9l17,0.5l2.6,6.1l-19.1-0.8l-1-4.7l-11.9-2.6l-6.4-3.5l-10.3,0.2
				C206.9,56.2,261.4,39.3,317.3,39.4z M452.9,133.7l2.6-3.9l9.3-1.9l2.4,11.2l4.8,8l3.4,3.7l5.9,2.4l-5.6,6.7l-10.9,1h-8.2l1-9.8
				l6.7-1.3l-0.5-4.7l-6.4-4l-4.5-3.1L452.9,133.7L452.9,133.7z M437.7,151.3l5.6-9l7.7-1.8l5.5,2.2l-0.6,6.3l-11.6,8.2h-6.6V151.3
				L437.7,151.3z M284.2,186.2l-5.9,0.5l0.3-4.2l2.7-3.2l3.5,2.7L284.2,186.2z M304.9,178.9l-4,0.3l-0.8,3.9l-3.2,1.9l-5,0.5
				c-0.1-0.7-0.1-1.4-0.2-2.1h-1.9v-4.2h8l1.6-4.3h3.2l3.7,0.6L304.9,178.9z"/>
			<path class="st4" d="M244.5,110.2L219.3,125l2.7,10.3l4.4,2.9c9.6-9.2,20.1-17.4,31.4-24.4l-1.1-7.3L244.5,110.2z"/>
			<path class="st4" d="M303.6,91.4l-18.5,2.2l-1.6,1.8h-0.2l-0.3,0.3l-5.3,5.6l-8.8,0.6l0.6,4.3l0.6,0.3
				c11.1-5.8,22.7-10.6,34.6-14.1L303.6,91.4z"/>
			<path class="st5" d="M177.6,91.1l11.9,2.6l1,4.7l19.1,0.8l-2.6-6.1l-17-0.5l4-3.9l-1.4-4.3h-15.3L194,71.9h16l7.4,10.4l12.5,0.6
				l7.5-7.4l5.6,2.9l-10.4,10.1c0,0-14.3,0.3-13.5,0.3c0.6,0,1.1,9.8,1.1,9.8l17.3-0.5l1.9-4.7l11.9-0.8l1.4-6.9l-7.1-1.3l2.4-6.3
				l5.5-1.8l18.8,1L262,87l1.6,7.2l10.9,1.6l-0.8-13.2l10.4-5.3l18.3-2.1L329,87l0,0c64.2-10.4,129.4,12.2,173.3,60.2l7.4,1.1h3.5
				l-1.9-13.6l-11.6,4.7l-4.2-10.1l-6.7-1l-1.3-6.9l5.6-5.9l10.1-4c-94.9-86.2-236.6-96-342.4-23.6l10.3-0.2L177.6,91.1z"/>
			<path class="st5" d="M521.9,438.4l-8.2-8.2l-0.6-9.3l10.4-20.1l-6.4-11.3c-43.5,60.9-118.2,91.2-191.8,77.8l2.4,10.4L310,500.2
				l-5.6,10.4l-16.9,8l-11.1,1.6L276,525l7.9,2.1l-1,5.1L276,539l4.2,5.3l8.4,0.2l-0.5,6.4l-2.3,6.4l-0.6,5.1l12.4,10.4l-1.8,5.3
				l-16.7-0.3l-16.7-14.6l-13.2-22.8l1.9-22.2l-10-13.2l4-22.3l-5.8-1.6v-48.3c0,0-16.5-12.5-17.5-12.5s-8.7-2.1-8.7-2.1l-1.6-9.1
				l-21.4-26.8l2-9.4c-10.9-19.1-18.4-39.9-22.3-61.5l-2.9-3.3l-11.9-3.4l-7.7-1.4l1-6.9l-10-1.5v4l-24.7-6.3l-9.8-15.1l4-7.4
				l-15.7-22.8l-2.6-16.7h-6.4l2.1,16.2l10.9,16.7l-1.3,6.6l-9.2-1.4l-11.2-19.1v-22.5L63,221.6v-15.1c-12,27.9-19.3,57.5-21.7,87.8
				l-0.2,1.3c-0.2,1.6-0.2,3.4-0.3,5.1l-0.2,2.4l-0.2,4v9c0,7.2,0.2,14.4,0.8,21.7c0.2,2.2,0.3,4.5,0.5,6.6
				C56,484.1,173.8,592.9,317.2,592.9c87,0,164.7-40.3,215.6-103.1v-14.4L521.9,461V438.4z"/>
			<path class="st4" d="M574.8,214.4h-3.1l-7.4-8.2l-1.4-13l-7.5,4.2l-4.2,15.9l-10.9-11.6l-0.3-10.9l-10.6-9.2l-3.9-3.9h-0.2
				c9.6,15.8,16.8,33,21.5,50.9l9.4-0.9L570,238h12.8C580.5,230,577.8,222.1,574.8,214.4z"/>
			<path class="st4" d="M153.5,286.8l13.6-9c0-0.1,0-0.2,0-0.3c0-12.3,1.2-24.5,3.5-36.5h-7.7l-17.2,8.8l-7.5,13.8l-3.1,10.9l5,10.6
				L153.5,286.8z"/>
			<polygon class="st6" points="523.5,214.5 294,295.5 356.8,339.8 368.8,416 390.9,401.5 412.9,383.4 466.2,421.5 			"/>
			<polygon class="st7" points="546.5,153.5 317,234.5 379.8,278.8 391.8,355 406.8,301.5 489.2,360.5 			"/>
			<polygon class="st8" points="379.8,278.8 546.5,153.5 406.8,301.5 391.8,355 			"/>
			<polygon class="st8" points="406.8,301.5 434.9,321.7 390.9,368.3 			"/>
			<polygon class="st9" points="390.9,368.3 376.9,281 316.6,237.5 317,234.5 379.8,278.8 391.8,355 406.8,301.5 489.2,360.5 
				488.7,363.8 408.4,306.5 			"/>
			<path class="st10" d="M379.8,371.1c-31.7,22.7-71.4,43.8-116.3,60.5C137.8,478.6,37.1,473,13.8,421C8,408,11,364,27.1,341"/>
		</g>
	</g>
	<path class="st7" d="M0,0L0,0L0,0z"/>
	<path class="st7" d="M633.9,633.9L633.9,633.9L633.9,633.9z"/>
	<path class="st7" d="M0,0L0,0L0,0z"/>
	<path class="st7" d="M633.9,633.9L633.9,633.9L633.9,633.9z"/>
	<path class="st7" d="M0,0L0,0L0,0z"/>
	<path class="st7" d="M633.9,633.9L633.9,633.9L633.9,633.9z"/>
	<path class="st7" d="M0,0L0,0L0,0z"/>
	<path class="st7" d="M633.9,633.9L633.9,633.9L633.9,633.9z"/>
	<path class="st7" d="M0,0L0,0L0,0z"/>
	<path class="st7" d="M633.9,633.9L633.9,633.9L633.9,633.9z"/>
	<path class="st7" d="M0,0L0,0L0,0z"/>
	<path class="st7" d="M633.9,633.9L633.9,633.9L633.9,633.9z"/>
	<path class="st7" d="M0,0L0,0L0,0z"/>
	<path class="st7" d="M633.9,633.9L633.9,633.9L633.9,633.9z"/>
	<path class="st7" d="M0,0L0,0L0,0z"/>
	<path class="st7" d="M633.9,633.9L633.9,633.9L633.9,633.9z"/>
	<path class="st7" d="M0,0L0,0L0,0z"/>
	<path class="st7" d="M633.9,633.9L633.9,633.9L633.9,633.9z"/>
	<path class="st7" d="M0,0L0,0L0,0z"/>
	<path class="st7" d="M633.9,633.9L633.9,633.9L633.9,633.9z"/>
	<path class="st7" d="M0,0L0,0L0,0z"/>
	<path class="st7" d="M633.9,633.9L633.9,633.9L633.9,633.9z"/>
	<path class="st7" d="M0,0L0,0L0,0z"/>
	<path class="st7" d="M633.9,633.9L633.9,633.9L633.9,633.9z"/>
	<path class="st7" d="M0,0L0,0L0,0z"/>
	<path class="st7" d="M633.9,633.9L633.9,633.9L633.9,633.9z"/>
	<path class="st7" d="M0,0L0,0L0,0z"/>
	<path class="st7" d="M633.9,633.9L633.9,633.9L633.9,633.9z"/>
	<path class="st7" d="M0,0L0,0L0,0z"/>
	<path class="st7" d="M633.9,633.9L633.9,633.9L633.9,633.9z"/>
	<path class="st7" d="M0,0L0,0L0,0z"/>
	<path class="st7" d="M633.9,633.9L633.9,633.9L633.9,633.9z"/>
	<rect x="633.6" y="633.6" class="st11" width="0.2" height="0.3"/>
	<polygon class="st11" points="0,0 0,0 0,0 	"/>
	<rect class="st11" width="0.2" height="0.3"/>
	<path class="st7" d="M0,0L0,0L0,0z"/>
	<path class="st7" d="M633.9,633.9L633.9,633.9L633.9,633.9z"/>
	<path class="st7" d="M0,0L0,0L0,0z"/>
	<path class="st7" d="M633.9,633.9L633.9,633.9L633.9,633.9z"/>
	<path class="st7" d="M0,0L0,0L0,0z"/>
	<path class="st7" d="M633.9,633.9L633.9,633.9L633.9,633.9z"/>
	<path class="st7" d="M0,0L0,0L0,0z"/>
	<path class="st7" d="M633.9,633.9L633.9,633.9L633.9,633.9z"/>
	<path class="st7" d="M0,0L0,0L0,0z"/>
	<path class="st7" d="M633.9,633.9L633.9,633.9L633.9,633.9z"/>
	<path class="st7" d="M0,0L0,0L0,0z"/>
	<path class="st7" d="M633.9,633.9L633.9,633.9L633.9,633.9z"/>
	<path class="st7" d="M0,0L0,0L0,0z"/>
	<path class="st7" d="M633.9,633.9L633.9,633.9L633.9,633.9z"/>
	<path class="st7" d="M0,0L0,0L0,0z"/>
	<path class="st7" d="M633.9,633.9L633.9,633.9L633.9,633.9z"/>
</g>
</svg>
