<?xml version="1.0" encoding="utf-8"?>
<!-- Generator: Adobe Illustrator 21.0.0, SVG Export Plug-In . SVG Version: 6.00 Build 0)  -->
<svg version="1.1" id="Layer_5" xmlns="http://www.w3.org/2000/svg" xmlns:xlink="http://www.w3.org/1999/xlink" x="0px" y="0px"
	 viewBox="0 0 633.9 633.9" style="enable-background:new 0 0 633.9 633.9;" xml:space="preserve">
<style type="text/css">
	.st0{fill:#CFD1D1;}
	.st1{fill:#ECF0F3;}
	.st2{fill:#66C4FA;}
	.st3{fill:#46ADE0;}
	.st4{fill:#D883E5;}
	.st5{fill:#C167D3;}
	.st6{fill:#BFE048;}
	.st7{fill:#A3BF2C;}
	.st8{fill:#E2406A;}
	.st9{fill:#AD3258;}
	.st10{fill:#C91444;}
	.st11{fill:#F92DE4;}
	.st12{fill:#9E50E1;}
	.st13{fill:#4DC7FA;}
	.st14{fill:#FF9D46;}
	.st15{fill:#D128C9;}
	.st16{fill:#7C42BA;}
	.st17{fill:#36A5CC;}
	.st18{fill:#D67832;}
	.st19{fill:#E5A67C;}
	.st20{fill:#3EED7D;}
	.st21{fill:#3ABA65;}
	.st22{fill:#C4875F;}
	.st23{fill:#FFE826;}
	.st24{fill:#D6BB1E;}
	.st25{fill:#FFBC3D;}
	.st26{fill:#CC943A;}
	.st27{fill:#FFFFFF;}
</style>
<title>periodic table</title>
<g>
	<circle class="st0" cx="316.2" cy="316.9" r="290.1"/>
	<circle class="st1" cx="316.2" cy="316.9" r="279.6"/>
	<path class="st2" d="M85.4,60.3v-9.9h-51l37.7,37.7C76.3,78.7,80.7,69.4,85.4,60.3z"/>
	<path class="st2" d="M85.4,101.4V60.3C80.7,69.4,73.6,76,69.5,85.5L85.4,101.4z"/>
	<path class="st3" d="M72.1,88.1L34.4,50.4v51h32.1C68.3,96.9,70.2,92.5,72.1,88.1z"/>
	<path class="st3" d="M66.5,101.4h18.9L68.3,84.3C66.4,88.7,62.1,97.5,66.5,101.4z"/>
	<path class="st4" d="M65.8,103.3H34.4l22.9,22.9C59.9,118.4,62.7,110.8,65.8,103.3z"/>
	<path class="st4" d="M85.4,154.3v-51H65.8c-3,7.5-5.8,15.2-8.5,22.9L85.4,154.3z"/>
	<path class="st4" d="M48.2,156.1H34.4l11,11C46.3,163.5,47.3,159.8,48.2,156.1z"/>
	<path class="st4" d="M67.5,189.2c5.3-10.4,11.3-20.4,17.9-30.1v-3H48.2c-1,3.7-1.9,7.3-2.8,11L67.5,189.2z"/>
	<path class="st4" d="M85.4,207.2v-48c-6.6,9.6-12.6,19.7-17.9,30.1L85.4,207.2z"/>
	<path class="st4" d="M37.3,209h-2.8l2.5,2.5C37,210.7,37.1,209.9,37.3,209z"/>
	<path class="st4" d="M51.7,226.3c2-5.9,4.2-11.6,6.6-17.3h-21c-0.1,0.8-0.2,1.7-0.3,2.5L51.7,226.3z"/>
	<path class="st4" d="M85.4,260.1v-51H58.3c-2.4,5.7-4.6,11.4-6.6,17.3L85.4,260.1z"/>
	<path class="st4" d="M42.1,261.9h-7.7l6.5,6.5C41.3,266.2,41.7,264.1,42.1,261.9z"/>
	<path class="st4" d="M85.4,312.9v-51H42.1c-0.4,2.1-0.8,4.3-1.2,6.5L85.4,312.9z"/>
	<path class="st4" d="M36.7,316.9c0.9,0.6,1-1.4,1-2.1h-3.3l2.3,2.3C36.7,317,36.6,316.9,36.7,316.9z"/>
	<path class="st4" d="M36.7,317.1l48.8,48.8v-51H36.7c0,0.7,0,1.4,0,2.1C36.7,317,36.7,317,36.7,317.1z"/>
	<path class="st4" d="M42.3,367.7h-1.9c0.5,2.4,0.9,4.9,1.4,7.3l1.3,1.3C42.4,373.5,42.8,370.6,42.3,367.7z"/>
	<path class="st4" d="M85.4,418.7v-51H41.3c0.5,2.9,1.1,5.7,1.7,8.6L85.4,418.7z"/>
	<path class="st4" d="M136,103.3H86.7l24.1,24.1C118.7,118.8,127.1,110.8,136,103.3z"/>
	<path class="st4" d="M110.8,127.4l26.9,26.9v-51H136C127.1,110.8,118.7,118.8,110.8,127.4z"/>
	<path class="st4" d="M87.5,156.1h-0.8l0.5,0.5C87.3,156.5,87.4,156.3,87.5,156.1z"/>
	<path class="st4" d="M137.7,207.2v-51H87.5c-0.1,0.2-0.2,0.3-0.3,0.5L137.7,207.2z"/>
	<polygon class="st4" points="138.2,209 87.2,209 138.2,260.1 	"/>
	<polygon class="st4" points="138.2,261.9 87.2,261.9 138.2,312.9 	"/>
	<polygon class="st4" points="137.7,314.8 86.7,314.8 137.7,365.8 	"/>
	<polygon class="st4" points="138.2,367.7 87.2,367.7 138.2,418.7 	"/>
	<path class="st5" d="M57.3,126.1l-22.9-22.9v51h14.3C51.3,144.8,54.2,135.4,57.3,126.1z"/>
	<path class="st5" d="M48.7,154.3h36.7l-28.1-28.1C54.2,135.4,51.3,144.8,48.7,154.3z"/>
	<path class="st5" d="M34.4,156.1v51h3.1c2.1-13.5,4.7-26.9,7.9-40L34.4,156.1z"/>
	<path class="st5" d="M45.4,167.2c-3.2,13.1-5.8,26.5-7.9,40H59c2.6-6.1,5.4-12.1,8.4-17.9L45.4,167.2z"/>
	<path class="st5" d="M67.5,189.2c-3,5.9-5.8,11.8-8.4,17.9h26.4L67.5,189.2z"/>
	<path class="st5" d="M34.4,209v23.1c0.7-6.9,1.5-13.8,2.5-20.6L34.4,209z"/>
	<path class="st5" d="M36.9,211.5c-1,6.8-1.8,13.7-2.5,20.6V260h8.1c2.4-11.4,5.4-22.7,9.2-33.7L36.9,211.5z"/>
	<path class="st5" d="M51.7,226.3c-3.8,11-6.9,22.3-9.2,33.7h43L51.7,226.3z"/>
	<path class="st5" d="M34.4,261.9v51h2.3c0.2-14.9,1.6-29.8,4.2-44.6L34.4,261.9z"/>
	<path class="st5" d="M40.9,268.4c-2.6,14.7-4,29.6-4.2,44.6h48.7L40.9,268.4z"/>
	<path class="st5" d="M34.4,314.8v11.5c1.3,13.3,3.2,26.5,5.6,39.5h1c-2.8-16.1-4.3-32.4-4.3-48.8L34.4,314.8z"/>
	<path class="st5" d="M35.7,316.1c0,16.7,1.4,33.3,4.3,49.8h45.5L35.7,316.1z"/>
	<path class="st5" d="M41.8,375c3,14.8,6.8,29.4,11.2,43.7h2.9c-5.3-13.7-9.5-27.8-12.5-42.1L41.8,375z"/>
	<path class="st5" d="M43,376.3c3.1,14.5,7.4,28.6,12.8,42.4h29.6L43,376.3z"/>
	<path class="st5" d="M86.7,103.3v51h2.2c6.8-9.4,14.1-18.4,21.9-26.9L86.7,103.3z"/>
	<path class="st4" d="M134.5,108.9H92.2l20.6,20.6C119.6,122.2,126.8,115.4,134.5,108.9z"/>
	<path class="st5" d="M92.2,108.9v43.7h1.9c5.8-8.1,12.1-15.8,18.8-23.1L92.2,108.9z"/>
	<path class="st5" d="M110.8,127.4c-7.9,8.5-15.2,17.5-21.9,26.9h48.9L110.8,127.4z"/>
	<path class="st5" d="M86.7,156.1v1.2c0.2-0.2,0.3-0.5,0.5-0.7L86.7,156.1z"/>
	<path class="st5" d="M137.7,207.2l-50.5-50.5c-0.2,0.2-0.3,0.5-0.5,0.7v49.8H137.7z"/>
	<polygon class="st5" points="87.2,209 87.2,260.1 138.2,260.1 	"/>
	<polygon class="st5" points="87.2,261.9 87.2,312.9 138.2,312.9 	"/>
	<polygon class="st5" points="86.7,314.8 86.7,365.8 137.7,365.8 	"/>
	<polygon class="st5" points="87.2,367.7 87.2,418.7 138.2,418.7 	"/>
	<polygon class="st2" points="191,209 140,209 191,260.1 	"/>
	<polygon class="st2" points="191,261.9 140,261.9 191,312.9 	"/>
	<polygon class="st6" points="191.2,365.8 191.2,314.8 140.2,314.8 	"/>
	<polygon class="st7" points="140.2,365.8 191.2,365.8 140.2,314.8 	"/>
	<polygon class="st8" points="191,367.7 140,367.7 191,418.7 	"/>
	<polygon class="st9" points="140,367.7 140,418.7 191,418.7 	"/>
	<polygon class="st2" points="243.8,209 192.8,209 243.8,260.1 	"/>
	<polygon class="st2" points="243.8,261.9 192.8,261.9 243.8,312.9 	"/>
	<polygon class="st2" points="244,365.8 244,314.8 193,314.8 	"/>
	<polygon class="st2" points="243.8,367.7 192.8,367.7 243.8,418.7 	"/>
	<polygon class="st2" points="296.6,209 245.5,209 296.6,260.1 	"/>
	<polygon class="st2" points="296.6,261.9 245.5,261.9 296.6,312.9 	"/>
	<polygon class="st2" points="296.8,365.8 296.8,314.8 245.7,314.8 	"/>
	<polygon class="st2" points="296.6,367.7 245.5,367.7 296.6,418.7 	"/>
	<polygon class="st3" points="140,209 140,260.1 191,260.1 	"/>
	<polygon class="st3" points="140,261.9 140,312.9 191,312.9 	"/>
	<polygon class="st3" points="192.8,209 192.8,260.1 243.8,260.1 	"/>
	<polygon class="st3" points="192.8,261.9 192.8,312.9 243.8,312.9 	"/>
	<polygon class="st3" points="193,365.8 244,365.8 193,314.8 	"/>
	<polygon class="st3" points="192.8,367.7 192.8,418.7 243.8,418.7 	"/>
	<polygon class="st3" points="245.5,209 245.5,260.1 296.6,260.1 	"/>
	<polygon class="st3" points="245.5,261.9 245.5,312.9 296.6,312.9 	"/>
	<polygon class="st3" points="245.7,365.8 296.8,365.8 245.7,314.8 	"/>
	<polygon class="st3" points="245.5,367.7 245.5,418.7 296.6,418.7 	"/>
	<polygon class="st6" points="168.9,491.8 168.9,440.8 117.9,440.8 	"/>
	<polygon class="st7" points="117.9,491.8 168.9,491.8 117.9,440.8 	"/>
	<polygon class="st6" points="221.7,491.8 221.7,440.8 170.7,440.8 	"/>
	<polygon class="st6" points="274.5,491.8 274.5,440.8 223.4,440.8 	"/>
	<polygon class="st6" points="327.2,491.8 327.2,440.8 276.2,440.8 	"/>
	<polygon class="st6" points="380,491.8 380,440.8 329,440.8 	"/>
	<polygon class="st6" points="432.8,491.8 432.8,440.8 381.8,440.8 	"/>
	<polygon class="st6" points="485.6,491.8 485.6,440.8 434.6,440.8 	"/>
	<polygon class="st7" points="170.7,491.8 221.7,491.8 170.7,440.8 	"/>
	<polygon class="st7" points="223.4,491.8 274.5,491.8 223.4,440.8 	"/>
	<polygon class="st7" points="276.2,491.8 327.2,491.8 276.2,440.8 	"/>
	<polygon class="st7" points="329,491.8 380,491.8 329,440.8 	"/>
	<polygon class="st7" points="381.8,491.8 432.8,491.8 381.8,440.8 	"/>
	<polygon class="st7" points="434.6,491.8 485.6,491.8 434.6,440.8 	"/>
	<polygon class="st8" points="168.9,551.3 168.9,500.3 117.9,500.3 117.9,501.2 168.1,551.3 	"/>
	<path class="st10" d="M165.2,552.2c-0.4-0.3-0.9-0.6-1.3-0.8"/>
	<path class="st10" d="M168.1,551.3h-4.2c0.4,0.3,0.9,0.6,1.3,0.8h3.7L168.1,551.3z"/>
	<path class="st9" d="M168.1,551.3l-50.2-50.2v12.8c14,14.1,29.4,26.6,46,37.4H168.1z"/>
	<polygon class="st8" points="170.7,501.2 220.8,551.3 221.7,551.3 221.7,500.3 170.7,500.3 	"/>
	<polygon class="st8" points="223.4,501.2 273.6,551.3 274.5,551.3 274.5,500.3 223.4,500.3 	"/>
	<polygon class="st8" points="276.2,501.2 326.4,551.3 327.2,551.3 327.2,500.3 276.2,500.3 	"/>
	<polygon class="st8" points="329,501.2 379.2,551.3 380,551.3 380,500.3 329,500.3 	"/>
	<polygon class="st8" points="381.8,501.2 431.9,551.3 432.8,551.3 432.8,500.3 381.8,500.3 	"/>
	<path class="st8" d="M434.6,500.3v0.9l43.7,43.7c2.5-1.8,4.9-3.6,7.4-5.4v-39.1L434.6,500.3L434.6,500.3z"/>
	<polygon class="st10" points="170.7,552.2 221.7,552.2 220.8,551.3 170.7,551.3 	"/>
	<polygon class="st9" points="170.7,551.3 220.8,551.3 170.7,501.2 	"/>
	<polygon class="st10" points="223.4,552.2 274.5,552.2 273.6,551.3 223.4,551.3 	"/>
	<polyline class="st9" points="273.6,551.3 223.4,501.2 223.4,551.3 	"/>
	<polyline class="st10" points="327.2,552.2 326.4,551.3 276.2,551.3 276.2,552.2 	"/>
	<polygon class="st9" points="276.2,551.3 326.4,551.3 276.2,501.2 	"/>
	<polyline class="st10" points="380,552.2 379.2,551.3 329,551.3 329,552.2 	"/>
	<polygon class="st9" points="329,551.3 379.2,551.3 329,501.2 	"/>
	<polygon class="st10" points="381.8,552.2 432.8,552.2 431.9,551.3 381.8,551.3 	"/>
	<polygon class="st9" points="381.8,551.3 431.9,551.3 381.8,501.2 	"/>
	<path class="st10" d="M434.6,551.3v0.8h32.8c0.4-0.3,0.9-0.6,1.3-0.8H434.6z"/>
	<path class="st9" d="M478.2,544.8c-3.1,2.2-6.3,4.4-9.6,6.5"/>
	<path class="st9" d="M478.2,544.8l-43.7-43.7v50.2h34.1C471.9,549.2,475.1,547.1,478.2,544.8z"/>
	<path class="st11" d="M223.4,561.5v0.8l26.1,26.1c8.2,2,16.5,3.6,24.9,4.9v-31.9h-51V561.5z"/>
	<path class="st12" d="M276.2,561.5v0.8l34.1,34.1c2,0,4,0.1,6,0.1c3.7,0,7.3-0.1,11-0.2v-34.7L276.2,561.5z"/>
	<path class="st13" d="M329,561.5v0.8l30.8,30.8c6.8-1.1,13.6-2.4,20.3-3.9v-27.7L329,561.5L329,561.5z"/>
	<path class="st14" d="M381.8,561.5v0.8l20.6,20.6c10.4-3.4,20.5-7.3,30.4-11.9v-9.6L381.8,561.5z"/>
	<path class="st15" d="M223.4,562.4v18.3c8.5,3,17.2,5.6,26.1,7.8L223.4,562.4z"/>
	<path class="st16" d="M276.2,562.4v31.3c11.3,1.6,22.7,2.6,34.1,2.8L276.2,562.4z"/>
	<path class="st17" d="M329,562.4v33.8c10.3-0.5,20.6-1.5,30.8-3.1L329,562.4z"/>
	<path class="st18" d="M381.8,562.4v26.4c7-1.7,13.8-3.6,20.6-5.8L381.8,562.4z"/>
	<polygon class="st4" points="34.4,156.1 85.4,156.1 85.4,207.2 	"/>
	<path class="st4" d="M34.4,207.2"/>
	<polygon class="st4" points="137.7,103.3 86.7,103.3 137.7,154.3 	"/>
	<polygon class="st5" points="86.7,103.3 86.7,154.3 137.7,154.3 	"/>
	<polygon class="st4" points="85.7,103.3 34.7,103.3 85.7,154.3 	"/>
	<polygon class="st5" points="34.7,103.3 34.7,154.3 85.7,154.3 	"/>
	<polygon class="st4" points="85.7,156.3 34.7,156.3 85.7,207.3 	"/>
	<polygon class="st5" points="34.7,156.3 34.7,207.3 85.7,207.3 	"/>
	<polygon class="st4" points="85.7,209.3 34.7,209.3 85.7,260.3 	"/>
	<polygon class="st5" points="34.7,209.3 34.7,260.3 85.7,260.3 	"/>
	<polygon class="st4" points="85.7,262.3 34.7,262.3 85.7,313.3 	"/>
	<polygon class="st5" points="34.7,262.3 34.7,313.3 85.7,313.3 	"/>
	<polygon class="st19" points="349.8,209 298.8,209 349.8,260.1 	"/>
	<polygon class="st19" points="349.8,261.9 298.8,261.9 349.8,312.9 	"/>
	<polygon class="st19" points="349.9,365.8 349.9,314.8 298.8,314.8 	"/>
	<polygon class="st19" points="349.8,367.7 298.8,367.7 349.8,418.7 	"/>
	<polygon class="st20" points="402.6,209 351.5,209 402.6,260.1 	"/>
	<polygon class="st19" points="402.6,261.9 351.5,261.9 402.6,312.9 	"/>
	<polygon class="st19" points="402.6,365.8 402.6,314.8 351.6,314.8 	"/>
	<polygon class="st19" points="402.6,367.7 351.5,367.7 402.6,418.7 	"/>
	<polygon class="st20" points="455.3,209 404.3,209 455.3,260.1 	"/>
	<polygon class="st20" points="455.3,261.9 404.3,261.9 455.3,312.9 	"/>
	<polygon class="st19" points="455.4,365.8 455.4,314.8 404.4,314.8 	"/>
	<polygon class="st19" points="455.3,367.7 404.3,367.7 455.3,418.7 	"/>
	<polygon class="st2" points="508.2,103.3 457.1,103.3 508.2,154.3 	"/>
	<polygon class="st2" points="508.2,156.1 457.1,156.1 508.2,207.2 	"/>
	<polygon class="st2" points="508.1,209 457.1,209 508.1,260.1 	"/>
	<polygon class="st3" points="457.1,103.3 457.1,154.3 508.2,154.3 	"/>
	<polygon class="st3" points="457.1,156.1 457.1,207.2 508.2,207.2 	"/>
	<polygon class="st3" points="457.1,209 457.1,260.1 508.1,260.1 	"/>
	<polygon class="st20" points="508.1,261.9 457.1,261.9 508.1,312.9 	"/>
	<polygon class="st20" points="508.2,365.8 508.2,314.8 457.1,314.8 	"/>
	<polygon class="st21" points="351.5,209 351.5,260.1 402.6,260.1 	"/>
	<polygon class="st21" points="404.3,209 404.3,260.1 455.3,260.1 	"/>
	<polygon class="st21" points="404.3,261.9 404.3,312.9 455.3,312.9 	"/>
	<polygon class="st21" points="457.1,261.9 457.1,312.9 508.1,312.9 	"/>
	<polygon class="st21" points="457.1,365.8 508.2,365.8 457.1,314.8 	"/>
	<polygon class="st19" points="508.1,367.7 457.1,367.7 508.1,418.7 	"/>
	<polygon class="st22" points="298.8,209 298.8,260.1 349.8,260.1 	"/>
	<polygon class="st22" points="298.8,261.9 298.8,312.9 349.8,312.9 	"/>
	<polygon class="st22" points="298.8,365.8 349.9,365.8 298.8,314.8 	"/>
	<polygon class="st22" points="298.8,367.7 298.8,418.7 349.8,418.7 	"/>
	<polygon class="st22" points="351.5,261.9 351.5,312.9 402.6,312.9 	"/>
	<polygon class="st22" points="351.6,365.8 402.6,365.8 351.6,314.8 	"/>
	<polygon class="st22" points="351.5,367.7 351.5,418.7 402.6,418.7 	"/>
	<polygon class="st22" points="404.4,365.8 455.4,365.8 404.4,314.8 	"/>
	<polygon class="st22" points="404.3,367.7 404.3,418.7 455.3,418.7 	"/>
	<polygon class="st22" points="457.1,367.7 457.1,418.7 508.1,418.7 	"/>
	<polygon class="st23" points="560.9,154.3 560.9,103.3 509.9,103.3 	"/>
	<polygon class="st23" points="560.9,207.2 560.9,156.1 509.9,156.1 	"/>
	<polygon class="st23" points="560.9,209 509.9,209 560.9,260.1 	"/>
	<polygon class="st23" points="560.9,261.9 509.9,261.9 560.9,312.9 	"/>
	<polygon class="st23" points="560.9,365.8 560.9,314.8 509.9,314.8 	"/>
	<polygon class="st23" points="560.9,418.7 560.9,367.7 509.9,367.7 	"/>
	<polygon class="st24" points="509.9,154.3 560.9,154.3 509.9,103.3 	"/>
	<polygon class="st24" points="509.9,207.2 560.9,207.2 509.9,156.1 	"/>
	<polygon class="st24" points="509.9,209 509.9,260.1 560.9,260.1 	"/>
	<polygon class="st24" points="509.9,261.9 509.9,312.9 560.9,312.9 	"/>
	<polygon class="st24" points="509.9,365.8 560.9,365.8 509.9,314.8 	"/>
	<polygon class="st24" points="509.9,418.7 560.9,418.7 509.9,367.7 	"/>
	<polygon class="st25" points="613.7,50.4 562.7,50.4 613.7,101.4 	"/>
	<path class="st25" d="M613.7,154.3v-51H574c3.6,9,12.9,18,15.9,27.3L613.7,154.3z"/>
	<path class="st25" d="M580,103.3h-17.4l27.3,27.3C586.9,121.3,583.6,112.2,580,103.3z"/>
	<path class="st25" d="M613.7,207.2v-51h-20.1c3.9,14.6,11.1,29.4,13.6,44.5L613.7,207.2z"/>
	<path class="st25" d="M597.6,156.1h-34.9l44.5,44.5C604.7,185.6,601.5,170.7,597.6,156.1z"/>
	<path class="st25" d="M613.7,260.1v-51h-12.2c2.5,16.6,11,33.5,11.7,50.6L613.7,260.1z"/>
	<path class="st25" d="M608.5,209h-45.9l50.6,50.6C612.6,242.7,611,225.8,608.5,209z"/>
	<path class="st25" d="M613.7,261.9h-0.3c0.2,5.5-0.7,11-0.7,16.5v-0.1L613.7,261.9z"/>
	<path class="st25" d="M612.7,278.4L612.7,278.4c0,0.3,0,0.6,0,0.9V278.4z"/>
	<path class="st25" d="M613.3,261.9h-50.7l45.6,45.6c1.9-9.2,2.7-18.9,4.4-29.1C612.7,272.9,613.5,267.4,613.3,261.9z"/>
	<path class="st25" d="M562.7,314.8l35.7,35.7c2.8-10.9,5.7-22.8,8.4-35.7H562.7z"/>
	<path class="st25" d="M562.7,367.7l23.8,23.8c2.3-7,4.7-14.9,7.3-23.8H562.7z"/>
	<path class="st26" d="M613.7,101.4l-51-51v14.4c6,11.9,11.6,24.1,16.6,36.6H613.7z"/>
	<path class="st26" d="M584.3,101.4c-5-12.5-13.3-27.1-21.6-36.6v36.6H584.3z"/>
	<path class="st26" d="M613.7,154.3l-23.8-23.8c2.6,7.8-2,15.8,0.1,23.8H613.7z"/>
	<path class="st26" d="M589.9,130.5l-27.3-27.3v51H597C594.9,146.3,592.5,138.4,589.9,130.5z"/>
	<path class="st26" d="M613.7,207.2l-6.5-6.5c0.4,2.2-3.3,4.3-2.9,6.5H613.7z"/>
	<path class="st26" d="M607.2,200.7l-44.5-44.5v51h45.6C607.9,205,607.5,202.8,607.2,200.7z"/>
	<path class="st26" d="M613.7,260.1l-0.4-0.4c0,0.1,0,0.3,0,0.4H613.7z"/>
	<path class="st26" d="M613.3,259.6L562.7,209v51h50.6C613.3,259.9,613.3,259.8,613.3,259.6z"/>
	<path class="st26" d="M562.7,261.9v51h44.5c0.4-1.8,0.7-3.6,1.1-5.4L562.7,261.9z"/>
	<path class="st26" d="M562.7,314.8v51h31.6c1.4-4.8,2.7-9.9,4.1-15.3L562.7,314.8z"/>
	<path class="st26" d="M562.7,367.7v51h14.1c2.3-5.9,5.7-15,9.7-27.2L562.7,367.7z"/>
	<path class="st27" d="M0,0L0,0L0,0z"/>
	<path class="st27" d="M633.9,633.9L633.9,633.9L633.9,633.9z"/>
	<path class="st27" d="M0,0L0,0L0,0z"/>
	<path class="st27" d="M633.9,633.9L633.9,633.9L633.9,633.9z"/>
	<path class="st27" d="M0,0L0,0L0,0z"/>
	<path class="st27" d="M633.9,633.9L633.9,633.9L633.9,633.9z"/>
	<path class="st27" d="M0,0L0,0L0,0z"/>
	<path class="st27" d="M633.9,633.9L633.9,633.9L633.9,633.9z"/>
</g>
</svg>
