<?xml version="1.0" encoding="utf-8"?>
<!-- Generator: Adobe Illustrator 21.0.0, SVG Export Plug-In . SVG Version: 6.00 Build 0)  -->
<svg version="1.1" xmlns="http://www.w3.org/2000/svg" xmlns:xlink="http://www.w3.org/1999/xlink" x="0px" y="0px"
	 viewBox="0 0 633 633" style="enable-background:new 0 0 633 633;" xml:space="preserve">
<style type="text/css">
	.st0{display:none;}
	.st1{display:inline;}
	.st2{fill:#686765;}
	.st3{fill:#4599BA;}
	.st4{fill:#2B789E;}
	.st5{fill:#1B638E;}
	.st6{display:inline;fill:#CFD1D1;}
	.st7{fill:none;stroke:#686765;stroke-width:21;stroke-linecap:round;stroke-miterlimit:10;}
	.st8{fill:#CFD1D1;}
	.st9{fill:#F7F7BF;}
	.st10{fill:#F9F8DE;}
	.st11{fill:#FFFEF3;}
	.st12{fill:#FFFFFF;}
	.st13{fill:#1789AD;}
	.st14{clip-path:url(#SVGID_4_);fill:#0D6E8C;}
	.st15{clip-path:url(#SVGID_4_);fill:#23C181;}
	.st16{fill:#0CAA7D;}
	.st17{fill:#E57520;}
	.st18{fill:#DB5207;}
	.st19{fill:#4E8777;}
</style>
<g id="Layer_1">
	<title>ponitics</title>
</g>
<g id="Layer_3" class="st0">
	<g class="st1">
		<g>
			<path class="st2" d="M212.5,484c3-18-6-37.5-5.5-44.5s12-8.5,23.5-15s22-21.5,2.5-38.5s-28.5-35-22-43s42.5-41,42.5-41
				c10.5-7,3.5-21,0.5-26c-3-5-17.5-11-14.5-26.5s15.5-20,31.5-30.5c36.5-16.5,33.5-24,35-43s-30.5-57.5-49.5-72s-42-43-42-43
				l-2.1,0C110.7,101.9,39,201.3,39,317.6c0,89,42.1,168.2,107.4,218.7c7.6-0.6,14.6-1.5,21.1-2.3C197.5,530,209.5,502,212.5,484z"
				/>
		</g>
		<g id="Layer_11">
			<path class="st3" d="M362.2,552.2c0.5-9.3,7.9-16.6,16.5-16.1c93.2,4.8,173.3-73.2,178.3-173.9S490.6,175.8,397.3,171
				c-8.6-0.3-15.2-8.4-14.7-17.7c0.5-9.3,7.9-16.6,16.5-16.1c110.3,5.6,195.2,107.2,189.2,226.5c-6,119.3-100.9,211.7-211.3,206.1
				C368.4,569.3,361.7,561.5,362.2,552.2z"/>
			<path class="st4" d="M338.7,475.4c0.5-9.3,7.9-16.6,16.5-16.1c58,3,107.7-45.7,111-108.3c3.1-62.6-41.4-115.9-99.4-118.9
				c-8.6-0.3-15.2-8.4-14.7-17.7c0.5-9.3,7.9-16.6,16.5-16.1c75.3,3.8,133,73.1,128.9,154.4S428.9,497,353.6,493.2
				C345,492.8,338.2,484.7,338.7,475.4z"/>
			<path class="st5" d="M335.1,430.6c-0.5-0.1-1,0.1-1.7,0.2c-8.2-1.2-14-8.8-12.8-17c1.2-8.2,8.8-13.9,17-12.8
				c29.9,2.7,56.3-18.4,58.9-47c2.6-28.6-19.5-54.1-49.4-56.8c-0.5-0.1-0.8-0.1-1.3-0.2c-8.2-1.2-14-8.8-12.8-17s8.8-13.9,17-12.8
				c47,4.3,81.9,44.4,78,89.4C423.9,401.7,382.2,434.9,335.1,430.6L335.1,430.6z"/>
		</g>
	</g>
</g>
<g id="Layer_2" class="st0">
	
		<image style="display:inline;overflow:visible;" width="1024" height="1024" xlink:href="FC114BA4.jpg"  transform="matrix(0.7793 0 0 0.7793 -86 -81)">
	</image>
	<path class="st6" d="M236.5,74.5c0,0,23,28.5,42,43s51,53,49.5,72s1.5,26.5-35,43c-16,10.5-28.5,15-31.5,30.5s11.5,21.5,14.5,26.5
		s10,19-0.5,26c0,0-36,33-42.5,41s2.5,26,22,43s9,32-2.5,38.5s-23,8-23.5,15s8.5,26.5,5.5,44.5s-15,46-45,50s-71.5,8-129-13V74
		L236.5,74.5z"/>
</g>
<g id="Layer_4" class="st0">
	<g class="st1">
		<g>
			<path class="st2" d="M212.5,484c3-18-6-37.5-5.5-44.5s12-8.5,23.5-15s22-21.5,2.5-38.5s-28.5-35-22-43s42.5-41,42.5-41
				c10.5-7,3.5-21,0.5-26c-3-5-17.5-11-14.5-26.5s15.5-20,31.5-30.5c36.5-16.5,33.5-24,35-43s-30.5-57.5-49.5-72s-42-43-42-43
				l-2.1,0C110.7,101.9,39,201.3,39,317.6c0,89,42.1,168.2,107.4,218.7c7.6-0.6,14.6-1.5,21.1-2.3C197.5,530,209.5,502,212.5,484z"
				/>
		</g>
		<path class="st7" d="M357,187c0,0,86,184-78,348"/>
		<path class="st7" d="M415.3,135c0,0,111.7,239-101.3,452"/>
		<path class="st7" d="M487.4,59c0,0,175.6,326-135.4,604"/>
	</g>
</g>
<g id="Layer_6">
	<g>
		<g>
			<g id="Layer_9">
				<circle class="st8" cx="316.7" cy="316.5" r="289.9"/>
				<ellipse class="st9" cx="317" cy="316.6" rx="276.5" ry="276.5"/>
				<ellipse class="st10" cx="345.2" cy="316.6" rx="248.3" ry="257.4"/>
				<ellipse class="st11" cx="391.7" cy="316.6" rx="201.8" ry="212.4"/>
			</g>
			<path class="st12" d="M0,0L0,0L0,0z"/>
			<path class="st12" d="M0,0L0,0L0,0z"/>
			<path class="st12" d="M0,0L0,0L0,0z"/>
			<path class="st12" d="M0,0L0,0L0,0z"/>
		</g>
		<path class="st12" d="M0,0L0,0L0,0z"/>
		<path class="st12" d="M633.9,633.9L633.9,633.9L633.9,633.9z"/>
		<path class="st12" d="M0,0L0,0L0,0z"/>
		<path class="st12" d="M633.9,633.9L633.9,633.9L633.9,633.9z"/>
		<path class="st12" d="M0,0L0,0L0,0z"/>
		<path class="st12" d="M633.9,633.9L633.9,633.9L633.9,633.9z"/>
		<path class="st12" d="M0,0L0,0L0,0z"/>
		<path class="st12" d="M633.9,633.9L633.9,633.9L633.9,633.9z"/>
		<path class="st12" d="M0,0L0,0L0,0z"/>
		<path class="st12" d="M633.9,633.9L633.9,633.9L633.9,633.9z"/>
		<path class="st12" d="M0,0L0,0L0,0z"/>
		<path class="st12" d="M633.9,633.9L633.9,633.9L633.9,633.9z"/>
		<path class="st12" d="M0,0L0,0L0,0z"/>
		<path class="st12" d="M633.9,633.9L633.9,633.9L633.9,633.9z"/>
		<path class="st12" d="M0,0L0,0L0,0z"/>
		<path class="st12" d="M633.9,633.9L633.9,633.9L633.9,633.9z"/>
		<g>
			<g>
				<defs>
					<rect id="SVGID_1_" x="323.5" y="235.5" width="261.4" height="309"/>
				</defs>
				<clipPath id="SVGID_2_">
					<use xlink:href="#SVGID_1_"  style="overflow:visible;"/>
				</clipPath>
			</g>
			<path class="st13" d="M449.6,485.8c0-4,1.5-8,4.5-11c23-22.5,35.5-53,35.5-84.9c0-32-12.5-62.5-35-84.9c-6-6-6-16,0-22
				c6-6,16-6,22,0c28.5,28.5,44.5,66.9,44.5,107.4c0,40.5-16,78.4-44.5,107.4c-6,6-16,6-22,0C451.6,494.3,449.6,489.8,449.6,485.8
				L449.6,485.8z M449.6,485.8"/>
			<g>
				<defs>
					<rect id="SVGID_3_" x="323.5" y="235.5" width="261.4" height="309"/>
				</defs>
				<clipPath id="SVGID_4_">
					<use xlink:href="#SVGID_3_"  style="overflow:visible;"/>
				</clipPath>
				<path class="st14" d="M504.6,389.9c0-40.5-16-78.4-44.5-107.4c-1-1-2-1.5-3-2.5c-1,0.5-2,1.5-3,2.5c-6,6-6,16,0,22
					c23,23,35.5,53,35.5,84.9c0,32-12.5,62.5-35.5,84.9c-3,3-4.5,7-4.5,11s1.5,8,4.5,11c1,1,2,1.5,3,2.5c1-0.5,2-1.5,3-2.5
					C489.1,468.3,504.6,430.4,504.6,389.9L504.6,389.9z M504.6,389.9"/>
				<path class="st15" d="M496.1,528.8c0-4,1.5-8,4.5-11c34-34.5,53-79.4,53-127.9c0-48.5-19-93.4-53-127.9c-6-6-6-16,0-22
					c6-6,16-6,22,0c40,40,62,93.4,62,149.9c0,56.5-22,109.9-62,149.9c-6,6-16,6-22,0C497.6,536.8,496.1,532.8,496.1,528.8
					L496.1,528.8z M496.1,528.8"/>
			</g>
			<path class="st16" d="M568,389.9c0-56.5-22-109.9-62-149.9c-1-1-1.5-1.5-2.5-2c-1,0.5-2,1.5-2.5,2c-6,6-6,16,0,22
				c33.5,34.5,52.5,79.4,52.5,127.9c0,48.5-19,93.4-53,127.9c-3,3-4.5,7-4.5,11c0,4,1.5,8,4.5,11c1,1,1.5,1.5,2.5,2
				c1-0.5,2-1.5,2.5-2C546.1,499.8,568,446.4,568,389.9L568,389.9z M568,389.9"/>
			<path class="st17" d="M402.2,447.4c0-4,1.5-8,4.5-11c12.5-12.5,19-29,19-46.5c0-17.5-7-34-19-46.5c-6-6-6-16,0-22c6-6,16-6,22,0
				c18.5,18.5,28.5,42.5,28.5,68.5c0,26-10,50-28.5,68.4c-6,6-16,6-22,0C403.7,455.4,402.2,451.4,402.2,447.4L402.2,447.4z
				 M402.2,447.4"/>
			<path class="st18" d="M439.6,389.9c0-26-10-50-28.5-68.5c-0.5-0.5-1.5-1.5-2.5-2c-1,0.5-1.5,1-2.5,2c-6,6-6,16,0,22
				c12.5,12.5,19,29,19,46.5c0,17.5-7,34-19,46.5c-3,3-4.5,7-4.5,11c0,4,1.5,8,4.5,11c0.5,0.5,1.5,1.5,2.5,2c1-0.5,1.5-1,2.5-2
				C429.7,439.9,439.6,415.9,439.6,389.9L439.6,389.9z M439.6,389.9"/>
		</g>
		<g>
			<path class="st19" d="M371.3,309.9c-27.4,8-15.2,17.1-15.2,17.1c5.7,4.6,9.9,17.1-2.3,23.2c-12.2,6.1-27.4,3-25.5,17.5
				s18.2,8.4,16.7,22c-1.5,13.7-10.6,7.2-16.7,14.1c-6.1,6.8,4.9,27-12.2,36.5c-17.1,9.5-59.7,0.8-68.8,1.5
				c-4.6,0.4-8.6,11.3-11.6,22.1c-2,7.4-8.4,70.6-12.3,110.3c-68.8-25.3-124.8-77.3-155.4-143.3c10.5-30,19.1-67.1,13.7-99.3
				c-8.7-51.1-20.6-52.2-29.9-88.4c-2.9-11.4-5.6-26.3-7.7-47.3c-9.1-87.8,65-147.1,143.7-144.8c12.5,0.4,24.9,1.5,36.9,3.5
				C288,65.2,340.5,99,346.2,159.4c6.8,71.8-11.4,73-2.3,87.8c9.1,14.8,31.9,37.6,31.9,37.6S398.7,301.9,371.3,309.9z"/>
		</g>
	</g>
</g>
<g id="Layer_7">
</g>
</svg>
