<?xml version="1.0" encoding="utf-8"?>
<!-- Generator: Adobe Illustrator 21.0.0, SVG Export Plug-In . SVG Version: 6.00 Build 0)  -->
<svg version="1.1" id="Layer_6" xmlns="http://www.w3.org/2000/svg" xmlns:xlink="http://www.w3.org/1999/xlink" x="0px" y="0px"
	 viewBox="0 0 634 634" style="enable-background:new 0 0 634 634;" xml:space="preserve">
<style type="text/css">
	.st0{fill:#D9D9D9;}
	.st1{fill:#32C8CC;}
	.st2{fill:#24ABB5;}
	.st3{fill:#1A91A1;}
	.st4{fill:#FF9E46;}
	.st5{fill:#FFD15D;}
	.st6{clip-path:url(#SVGID_2_);}
	.st7{fill:#285680;}
	.st8{fill:#24AE5F;}
	.st9{fill:#FAC176;}
	.st10{fill:#88C057;}
	.st11{fill:#FFC100;}
	.st12{fill:#FFD304;}
	.st13{fill:#FFE009;}
	.st14{fill:#FFE953;}
	.st15{fill:#FFF086;}
	.st16{fill:#FFFFFF;}
	.st17{fill:#B68057;}
	.st18{fill:#FFD042;}
	.st19{fill:#FF4343;}
	.st20{fill:#DB3A3A;}
	.st21{clip-path:url(#SVGID_4_);}
	.st22{fill:#D49E6C;}
	.st23{fill:#708AFF;}
	.st24{fill:#3D6EDD;}
	.st25{clip-path:url(#SVGID_6_);}
	.st26{fill:#9DC1FF;}
	.st27{fill:#FF9300;}
	.st28{fill:#FF7400;}
	.st29{fill:#FFEDB9;}
	.st30{fill:#D55A00;}
	.st31{opacity:0.1;fill:#FFFFFF;enable-background:new    ;}
</style>
<title>solar systam</title>
<g>
	<g>
		<circle class="st0" cx="316.7" cy="315.6" r="289.9"/>
		<ellipse class="st1" cx="316.7" cy="315.6" rx="276.5" ry="276.5"/>
		<path class="st2" d="M578.2,315.6c0,144.5-117.1,261.6-261.6,261.6S55,460.1,55,315.6S172.1,54,316.6,54S578.2,171.1,578.2,315.6z
			"/>
		<path class="st3" d="M487.5,318.6c0,97.6-79.1,176.8-176.8,176.8s-176.8-79.1-176.8-176.8c0-97.6,79.1-176.8,176.8-176.8l0,0
			C408.3,141.8,487.4,220.9,487.5,318.6z"/>
		<path class="st4" d="M316.7,416.2c-4.8,0-8.6-3.9-8.6-8.6l0,0v-184c0-4.8,3.9-8.6,8.6-8.6s8.6,3.9,8.6,8.6v184
			C325.3,412.3,321.4,416.2,316.7,416.2L316.7,416.2z"/>
		<path class="st4" d="M370.7,398.6c-2.8,0-5.4-1.3-7-3.6L255.6,246.2c-2.8-3.9-1.9-9.2,1.9-12c3.9-2.8,9.2-1.9,12,1.9l108.1,148.8
			c2.8,3.9,1.9,9.2-1.9,12C374.3,398,372.6,398.6,370.7,398.6z"/>
		<path class="st4" d="M404.2,352.6c-0.9,0-1.8-0.1-2.7-0.4l-175-56.8c-4.5-1.5-7-6.3-5.5-10.9c1.5-4.5,6.3-7,10.9-5.5l175,56.8
			c4.5,1.5,7,6.3,5.5,10.9C411.2,350.2,407.9,352.6,404.2,352.6z"/>
		<path class="st4" d="M229.2,352.6c-4.8,0-8.6-3.9-8.6-8.6c0-3.7,2.4-7,6-8.2l175-56.8c4.5-1.5,9.4,1,10.9,5.6
			c1.5,4.5-1,9.4-5.5,10.9l-175,56.8C231,352.5,230.1,352.6,229.2,352.6L229.2,352.6z"/>
		<path class="st4" d="M262.6,398.6c-4.8,0-8.6-3.9-8.6-8.6c0-1.8,0.6-3.6,1.6-5.1l108.1-148.8c2.8-3.9,8.2-4.7,12-1.9
			s4.7,8.2,1.9,12l0,0l-108,148.9C268,397.3,265.4,398.6,262.6,398.6L262.6,398.6z"/>
		<path class="st5" d="M391.4,315.6c0,41.3-33.5,74.7-74.7,74.7S242,356.8,242,315.6s33.5-74.7,74.7-74.7l0,0
			C357.9,240.8,391.4,274.3,391.4,315.6L391.4,315.6L391.4,315.6z"/>
		<g>
			<g>
				<defs>
					<rect id="SVGID_1_" x="375.8" y="418.7" width="195.7" height="199.7"/>
				</defs>
				<clipPath id="SVGID_2_">
					<use xlink:href="#SVGID_1_"  style="overflow:visible;"/>
				</clipPath>
				<g class="st6">
					<path class="st7" d="M569.8,517.4c0,53.6-43.4,97-97,97s-97-43.4-97-97s43.4-97,97-97C526.4,420.4,569.8,463.8,569.8,517.4
						L569.8,517.4z"/>
					<path class="st8" d="M472.8,420.4c-13,0-26,2.6-38,7.7c-0.5,3.2-3.2,8.6-3.1,10.3c0.4,0.1,24.7-24.8,21.7-8
						c-1.9,10.8-21.8,10.7-21,21.6c20.9,8.2,28.1-15.5,45.9-15.4c5.9,0,21-9.3,23.9-7.4c11.7,7.7-2.7,35-11.6,25.9
						c-8.6-8.6-20.9,3-20.3,16.4c4.5,0.2,6.4-12.7,10.4-8.4c4.4,4.7,2.8,14.3-3.3,16.5c-6.2,2.2-30.4-16.3-24.4-2.3
						c6.5,15.6-19.6,27.7,6.8,21.4c12.4-3,8.3,6.5,14.2,11c7,5.4,3.9-7.4,9-5.5c7.4,2.9-1.3,10.3,10.3,4.9
						c13.6-6.2,8.5,3.5,12.7,9.8c7.8,11.8,27,23.1,37.1,7.5c2.4-3.7,0.9-32.8,15.8-13.3c9.5,12.4,6.2-14.7,7.5-21.8
						C554.6,449.5,516.4,420.4,472.8,420.4L472.8,420.4z"/>
				</g>
			</g>
		</g>
		<path class="st9" d="M485.9,561.1L468,547.7l-12,0.5l-12.4-3.9l-9.7-6.7l-22.1,5.1l-9.1,4.4l-10.2,13.6l3.6,16
			c1,1.3,2.1,2.6,3.2,3.9l18.8,8.8l12.7,1.7l7.5,15.5l0.2,1.6c18.7,7.1,39.1,8.2,58.5,3.2l2.6-15.2l11.6-9.4l4.8-15l-24.2-0.1
			L485.9,561.1z"/>
		<path class="st10" d="M377.1,532.9c0.5-0.1,0.5-0.1,0.6-0.1c4.3-4.3,8-5.1,11.6-11.6s-0.7-6.5,0-17.3s-0.7-5.8,0-17.3
			c0.3-4.2-0.2-6.5-5.2-8.1C376.5,495.6,374.1,514.5,377.1,532.9L377.1,532.9z"/>
		<path class="st9" d="M476.2,597.7c-3.6-0.3-17-4.5-20.1-10c-3.1-5.6-9.7-15.1-10-13.4c-0.2,1.1-30.5-9.2-51.3-16.5l-2.2,3l3.6,16
			c1,1.3,2.1,2.6,3.2,3.9l18.8,8.8l12.7,1.7l7.5,15.5l0.2,1.6c18.7,7.1,39.1,8.2,58.5,3.2L499,600c-1.7-0.5-3.7-1.2-6-2.2
			C483.7,594,479.8,597.9,476.2,597.7L476.2,597.7z"/>
		<path class="st10" d="M511.1,586.8l4.8-15l-24.2-0.1l-5.8-10.5L468,547.8l-12,0.5l-12.4-3.9l-9.7-6.7l-22.1,5.1l-9.1,4.4
			l-7.9,10.6c20.8,7.3,51.1,17.7,51.3,16.5c0.3-1.7,7,7.8,10,13.4c3.1,5.6,16.4,9.7,20.1,10c3.6,0.3,7.5-3.6,16.7,0
			c2.3,0.9,4.3,1.6,6,2.2l0.6-3.7L511.1,586.8z"/>
		<path class="st10" d="M509.4,427.6c-0.7,12.2-1.1,21.1-1.1,21.1l-18.8,18.7c0,0,17.5,25.1,18.7,28s15.8,6.4,18.7,4.7
			c2.9-1.7,14-11.1,18.7-4.7c3.3,4.5,2.8,8.4,4.8,11.1c1.4,0,3.1,0.9,5.3,3.1c3,0.9,6.5,1.8,9.6,2.6c1-6,0.3-16.7,1-20.8
			C558.2,462.5,537.2,438.9,509.4,427.6L509.4,427.6z"/>
		<path class="st9" d="M520.7,433.1c-0.6,11.6-1.1,20.7-1.1,20.7l-13.4,13.4c0,0,12.5,18,13.4,20.1c0.9,2.1,11.3,4.6,13.4,3.3
			s10-8,13.4-3.3s1.3,8.4,6.7,10c4.6,1.4,10.9,2.8,12.8,3.2c-0.1-3,0-6.1,0.4-9.1C559.4,466.8,543,445.8,520.7,433.1L520.7,433.1z"
			/>
		<circle class="st11" cx="316.7" cy="315.8" r="73.8"/>
		<circle class="st12" cx="323.2" cy="311.6" r="61.7"/>
		<circle class="st13" cx="330.4" cy="304.4" r="48.6"/>
		<circle class="st14" cx="336.9" cy="297.9" r="34.9"/>
		<circle class="st15" cx="343.5" cy="291.3" r="20.5"/>
		<path class="st16" d="M298.8,175v-0.2c14.9-0.1,19.1-4.3,19.3-19.4h0.2c1.2,14.9,5.3,19.2,19,19.4v0.3
			c-13.5,1.3-17.7,5.5-18.9,18.9h-0.3C317.8,180.5,313.5,176.3,298.8,175L298.8,175L298.8,175z"/>
		<path class="st16" d="M119.8,291v-0.2c14.9-0.1,19.1-4.3,19.3-19.4h0.2c1.2,14.9,5.3,19.2,19,19.4v0.3
			c-13.5,1.3-17.7,5.5-18.9,18.9h-0.3C138.8,296.5,134.5,292.3,119.8,291L119.8,291L119.8,291z"/>
		<path class="st17" d="M220.2,83.5c-0.2-0.6-2-1.5-6.8-1.5c-4.3,0.1-8.5,0.6-12.7,1.4c-12.8,2.4-29.2,7.6-46,14.5
			c-16.8,7-32,14.8-42.8,22.2c-12.4,8.5-14.1,13-13.7,13.9c0.6,1.4,6.5,2.6,20.2,0c-0.4-0.6-0.8-1.3-1.1-2v-0.1
			c-0.2-0.3-0.3-0.6-0.5-0.8l-0.1-0.1c-0.1-0.3-0.3-0.5-0.4-0.8l-0.1-0.2c-0.1-0.3-0.3-0.5-0.4-0.8c0-0.1-0.1-0.2-0.1-0.2
			c-0.1-0.3-0.2-0.5-0.3-0.8c0-0.1-0.1-0.2-0.1-0.3c-0.1-0.3-0.2-0.5-0.3-0.8l0,0c1.8-3.4,11.3-9.5,24.6-16.1
			c5.3-2.6,11.1-5.2,17.4-7.8c22.1-9.1,41.4-14.3,46.6-12.8c1,2.4,1.8,4.8,2.3,7.3C217.5,89.9,220.8,84.9,220.2,83.5L220.2,83.5z"/>
		<path class="st18" d="M168.6,61.7c0.3,0.1,0.6,0.1,0.9,0.2C169.2,61.8,168.9,61.8,168.6,61.7z"/>
		<path class="st18" d="M170.8,62.2c0.3,0.1,0.7,0.2,1,0.3C171.5,62.4,171.2,62.3,170.8,62.2z"/>
		<path class="st18" d="M169.7,61.9c0.3,0.1,0.7,0.1,1,0.2C170.4,62.1,170.1,62,169.7,61.9z"/>
		<path class="st19" d="M207.2,109.7c0-0.3,0-0.6,0-1c0-0.3,0-0.5,0-0.8l0,0c0-1-0.1-2.1-0.2-3.1l0,0c-0.2-2.4-0.6-4.8-1.1-7.1l0,0
			c-0.6-2.5-1.4-4.9-2.3-7.3c-5.2-1.6-24.6,3.6-46.6,12.8c-6.2,2.6-12.1,5.2-17.4,7.8c-3.7,16.5,1.6,33.7,13.8,45.3
			c-8.1-1-15.9-4-22.5-8.9l0,0c21.4,15.6,51.4,11,67-10.4c4.5-6.2,7.5-13.4,8.7-20.9c0,0,0,0-0.1,0
			C206.9,114,207.1,111.9,207.2,109.7L207.2,109.7z"/>
		<path class="st18" d="M187.5,70c-4.7-3.4-10-6-15.6-7.5C177.5,64,182.8,66.6,187.5,70L187.5,70z"/>
		<path class="st18" d="M166.3,61.3c0.3,0,0.5,0.1,0.8,0.1C166.9,61.4,166.6,61.3,166.3,61.3z"/>
		<path class="st18" d="M165.2,61.1c0.3,0,0.5,0.1,0.8,0.1C165.7,61.2,165.4,61.2,165.2,61.1z"/>
		<path class="st18" d="M164,61c0.2,0,0.5,0.1,0.7,0.1C164.5,61.1,164.2,61,164,61z"/>
		<path class="st18" d="M162.8,60.9c0.2,0,0.4,0,0.6,0.1C163.3,60.9,163,60.9,162.8,60.9z"/>
		<path class="st18" d="M160.4,60.8c0.2,0,0.3,0,0.4,0C160.7,60.8,160.6,60.8,160.4,60.8z"/>
		<path class="st18" d="M161.6,60.8c0.2,0,0.4,0,0.6,0C162,60.9,161.8,60.8,161.6,60.8z"/>
		<path class="st18" d="M167.5,61.5c0.3,0.1,0.6,0.1,0.9,0.2C168.1,61.6,167.8,61.5,167.5,61.5z"/>
		<path class="st18" d="M118.4,134c-0.4-0.6-0.8-1.3-1.2-2C117.6,132.7,118,133.3,118.4,134L118.4,134z"/>
		<path class="st18" d="M115.4,128.2c0.1,0.3,0.2,0.5,0.3,0.8C115.6,128.7,115.5,128.4,115.4,128.2z"/>
		<path class="st18" d="M116.3,130.2c0.1,0.3,0.3,0.5,0.4,0.8C116.6,130.7,116.4,130.4,116.3,130.2z"/>
		<path class="st18" d="M116.8,131.1c0.1,0.3,0.3,0.6,0.5,0.8C117.1,131.7,116.9,131.4,116.8,131.1z"/>
		<path class="st18" d="M115.8,129.2c0.1,0.3,0.2,0.5,0.4,0.8C116.1,129.7,115.9,129.4,115.8,129.2z"/>
		<path class="st18" d="M114.9,127.2c0.1,0.3,0.2,0.5,0.3,0.8C115.1,127.7,115,127.4,114.9,127.2z"/>
		<path class="st20" d="M138.4,121.5c0-3.5,0.4-7,1.1-10.5c-13.4,6.6-22.8,12.7-24.6,16.1l0,0c0.1,0.3,0.2,0.5,0.3,0.8
			c0,0.1,0.1,0.2,0.1,0.3c0.1,0.3,0.2,0.5,0.3,0.8c0,0.1,0.1,0.2,0.1,0.2c0.1,0.3,0.2,0.5,0.4,0.8l0.1,0.2c0.1,0.3,0.3,0.5,0.4,0.8
			l0.1,0.1c0.1,0.3,0.3,0.6,0.5,0.8c0,0,0,0,0,0.1c0.4,0.7,0.8,1.3,1.1,2h0.1c1.3,2,2.7,3.9,4.2,5.8c0,0,0,0,0.1,0
			c0.7,0.8,1.3,1.5,2,2.3l0,0c1.9,2,4,3.8,6.2,5.5l0,0c6.6,4.8,14.4,7.9,22.5,8.9C143.8,147.3,138.4,134.7,138.4,121.5L138.4,121.5z
			"/>
		<g>
			<g>
				<defs>
					<rect id="SVGID_3_" x="75.5" y="60.6" width="167.8" height="96.5"/>
				</defs>
				<clipPath id="SVGID_4_">
					<use xlink:href="#SVGID_3_"  style="overflow:visible;"/>
				</clipPath>
				<g class="st21">
					<path class="st20" d="M187.5,70c-4.7-3.4-10-6-15.6-7.5l0,0c-0.3-0.1-0.7-0.2-1-0.3h-0.1c-0.3-0.1-0.6-0.2-1-0.2
						c-0.1,0-0.1,0-0.2,0c-0.3-0.1-0.6-0.1-0.9-0.2c-0.1,0-0.2,0-0.3-0.1c-0.3-0.1-0.6-0.1-0.9-0.2c-0.1,0-0.2,0-0.3-0.1
						c-0.3,0-0.5-0.1-0.8-0.1c-0.1,0-0.3,0-0.4-0.1c-0.3,0-0.5-0.1-0.8-0.1c-0.2,0-0.3,0-0.5-0.1c-0.2,0-0.5-0.1-0.7-0.1
						s-0.4,0-0.5,0c-0.2,0-0.4,0-0.6-0.1c-0.2,0-0.4,0-0.6,0c-0.2,0-0.4,0-0.6,0c-0.3,0-0.5,0-0.8,0c-0.1,0-0.3,0-0.4,0
						c-0.4,0-0.8,0-1.2,0c-23.7,0-43.8,17.2-47.4,40.6c11.8-7,24.1-13.2,36.7-18.4C161.2,77.7,174.2,73.4,187.5,70L187.5,70z"/>
					<path class="st22" d="M242.1,74.4L242.1,74.4c-3.1-7.5-14.6-10.4-33.2-8.3c-7.2,0.9-14.4,2.2-21.5,4l0,0
						c-13.3,3.3-26.3,7.7-38.9,13c-12.7,5.2-25,11.4-36.7,18.4c-23.7,14.3-40.3,30.3-35.5,41.7c2.5,5.9,10.5,9,22.7,9
						c8.7,0,19.5-1.5,31.9-4.6l0,0l0,0c-2.2-1.6-4.3-3.5-6.2-5.5c-7.7,1.8-15.5,2.8-23.4,3c-8.4,0-14-1.8-15.5-5.5
						c-4.4-10.6,25-32.7,65.6-49.5c26.2-10.8,50.7-16.7,65.9-16.7l0,0c8.4,0,14,1.8,15.5,5.5c2.7,6.6-7.7,17.7-25.8,29.2
						c0,0.3,0,0.5,0,0.8s0,0.6,0,1c-0.1,2.2-0.3,4.3-0.6,6.4c0,0,0,0,0.1,0C233.1,100.1,246.4,84.5,242.1,74.4z"/>
				</g>
			</g>
		</g>
		<path class="st22" d="M152.5,92.4c-44,18.2-67.1,39.1-64.2,46c1,2.5,5.8,3.9,13,3.9c7.2-0.2,14.3-1,21.3-2.6
			c-1.5-1.8-2.9-3.7-4.2-5.8c0,0,0,0-0.1,0l0,0c-13.7,2.7-19.6,1.4-20.2,0c-0.4-0.9,1.3-5.4,13.7-13.9c10.8-7.4,26-15.3,42.8-22.2
			c16.8-7,33.1-12.1,46-14.5c4.2-0.9,8.5-1.3,12.7-1.4c4.8,0,6.5,1,6.8,1.5c0.6,1.4-2.8,6.4-14.3,14.2l0,0c0.6,2.3,0.9,4.7,1.1,7.1
			c17-11.1,25.2-20.8,23.4-25.1c-1-2.5-5.8-3.9-13-3.9V73v2.7C201.9,75.9,177.6,82.1,152.5,92.4L152.5,92.4z"/>
		<path class="st17" d="M122.7,139.7L122.7,139.7c-7.1,1.6-14.2,2.5-21.4,2.6c-7.3,0-12-1.4-13-3.9c-2.9-7,20.2-27.8,64.2-46
			c25.1-10.4,49.4-16.5,64.9-16.5v-2.7l0,0c-15.2,0-39.7,5.9-65.9,16.7c-40.6,16.8-70,38.9-65.6,49.5c1.5,3.7,7.1,5.5,15.5,5.5
			c7.9-0.2,15.7-1.2,23.4-3l0,0C124.1,141.2,123.4,140.5,122.7,139.7L122.7,139.7z"/>
		<path class="st17" d="M230.5,79.8c1.8,4.3-6.4,14-23.4,25.1l0,0c0.1,1,0.1,2,0.2,3.1l0,0c18.1-11.5,28.5-22.6,25.8-29.2
			c-1.5-3.7-7.1-5.5-15.5-5.5V76C224.7,75.9,229.4,77.3,230.5,79.8z"/>
		<path class="st23" d="M569.2,135.3c-20.1,0-38.9,9.8-50.4,26.4c2.3-1,4.5-2,6.9-2.9c21.5-8.8,41.9-14.2,57.4-15.8
			c-8.1-10.6-19.5-18.3-32.4-21.8c9.7,2.7,18.6,7.7,25.9,14.6C574.2,135.5,571.7,135.3,569.2,135.3z"/>
		<path class="st23" d="M485.3,216.8c-0.2-0.2-0.4-0.5-0.5-0.7C484.9,216.3,485.1,216.6,485.3,216.8z"/>
		<path class="st23" d="M545.1,119.9c0.4,0.1,0.7,0.1,1.1,0.2C545.8,120,545.4,119.9,545.1,119.9z"/>
		<path class="st23" d="M546.5,120.2c0.4,0.1,0.8,0.2,1.2,0.2C547.3,120.3,546.9,120.2,546.5,120.2z"/>
		<path class="st23" d="M549.3,120.8c0.4,0.1,0.9,0.2,1.3,0.3C550.2,121,549.8,120.9,549.3,120.8z"/>
		<path class="st23" d="M593.2,162.6L593.2,162.6c-1.1-3.7-2.6-7.3-4.4-10.7c-11.8,0-34.5,5.9-59.3,16.1c-6.3,2.6-12.3,5.2-18,7.9
			c-8.2,22.9-2.1,48.5,15.6,65.2c-16.6-2-31.7-10.8-41.7-24.2c0.1,0.2,0.3,0.3,0.4,0.5c20.5,26.9,59,32.1,85.9,11.6
			c15.2-11.6,24.1-29.6,24.1-48.7c0-2.5-0.1-4.9-0.4-7.3l0,0C594.9,169.4,594.2,166,593.2,162.6z"/>
		<path class="st23" d="M479,206.4c0.2,0.3,0.3,0.7,0.5,1C479.4,207.1,479.2,206.7,479,206.4z"/>
		<path class="st23" d="M477.9,203.8c0.1,0.3,0.3,0.6,0.4,1C478.2,204.5,478,204.2,477.9,203.8z"/>
		<path class="st23" d="M477.4,202.5c0.1,0.3,0.3,0.7,0.4,1C477.6,203.2,477.5,202.9,477.4,202.5z"/>
		<path class="st23" d="M476.9,201.2c0.1,0.3,0.3,0.7,0.4,1C477.1,201.9,477,201.5,476.9,201.2z"/>
		<path class="st23" d="M484.3,215.5c0,0,0-0.1-0.1-0.1C484.3,215.4,484.3,215.4,484.3,215.5z"/>
		<path class="st23" d="M478.5,205.1c0.1,0.3,0.3,0.6,0.4,1C478.8,205.8,478.6,205.5,478.5,205.1z"/>
		<path class="st23" d="M475.8,197.9L475.8,197.9c0.3,1,0.6,2.1,1,3.1C476.4,200,476.1,199,475.8,197.9L475.8,197.9z"/>
		<path class="st23" d="M547.9,120.5c0.4,0.1,0.8,0.2,1.2,0.3C548.8,120.6,548.4,120.5,547.9,120.5z"/>
		<path class="st23" d="M473.4,185.5c0-0.2,0-0.4-0.1-0.6C473.4,185,473.4,185.2,473.4,185.5z"/>
		<path class="st23" d="M539.1,119.1c0.3,0,0.5,0,0.8,0.1C539.7,119.2,539.4,119.2,539.1,119.1z"/>
		<path class="st23" d="M473.2,182.3c0-0.2,0-0.3,0-0.5C473.2,182,473.2,182.1,473.2,182.3z"/>
		<path class="st23" d="M537.6,119c0.2,0,0.5,0,0.7,0C538.1,119.1,537.8,119.1,537.6,119z"/>
		<path class="st23" d="M536.1,119c0.2,0,0.4,0,0.6,0C536.4,119,536.2,119,536.1,119z"/>
		<path class="st23" d="M480.2,208.6c-0.2-0.3-0.3-0.7-0.5-1C479.8,208,480,208.3,480.2,208.6z"/>
		<path class="st23" d="M543.6,119.6c0.3,0.1,0.7,0.1,1,0.2C544.3,119.8,544,119.7,543.6,119.6z"/>
		<path class="st23" d="M473.6,187c0-0.2,0-0.4-0.1-0.7C473.5,186.5,473.6,186.8,473.6,187z"/>
		<path class="st23" d="M542.1,119.4c0.3,0,0.6,0.1,1,0.1C542.8,119.5,542.5,119.5,542.1,119.4z"/>
		<path class="st23" d="M540.6,119.3c0.3,0,0.6,0.1,0.9,0.1C541.2,119.3,540.9,119.3,540.6,119.3z"/>
		<path class="st23" d="M473.3,183.9c0-0.2,0-0.4,0-0.6C473.3,183.5,473.3,183.7,473.3,183.9z"/>
		<path class="st24" d="M527.1,241.1c-17.7-16.7-23.8-42.3-15.6-65.2c-16.5,7.9-29.4,15.9-35.7,22c0.3,1,0.7,2.1,1,3.1
			c0,0.1,0,0.1,0.1,0.2c0.1,0.3,0.3,0.7,0.4,1c0,0.1,0.1,0.2,0.1,0.3c0.1,0.3,0.3,0.6,0.4,1c0,0.1,0.1,0.2,0.1,0.3
			c0.1,0.3,0.3,0.6,0.4,1c0,0.1,0.1,0.2,0.1,0.3c0.1,0.3,0.3,0.6,0.4,1c0,0.1,0.1,0.2,0.1,0.3c0.2,0.3,0.3,0.7,0.5,1
			c0,0.1,0.1,0.2,0.1,0.3c0.2,0.3,0.3,0.7,0.5,1l0,0c1.2,2.3,2.6,4.6,4.1,6.7c0,0,0,0.1,0.1,0.1c0.1,0.2,0.3,0.4,0.4,0.6
			c0.2,0.2,0.3,0.5,0.5,0.7l0.1,0.1C495.4,230.3,510.5,239.1,527.1,241.1L527.1,241.1z"/>
		<g>
			<g>
				<defs>
					<rect id="SVGID_5_" x="457.7" y="118.6" width="154" height="123"/>
				</defs>
				<clipPath id="SVGID_6_">
					<use xlink:href="#SVGID_5_"  style="overflow:visible;"/>
				</clipPath>
				<g class="st25">
					<path class="st24" d="M518.9,161.7c12.9-18.7,35.2-28.7,57.8-25.9c-7.3-6.9-16.2-12-25.9-14.6c0,0,0,0-0.1,0
						c-0.4-0.1-0.9-0.2-1.3-0.3c-0.1,0-0.1,0-0.2,0c-0.4-0.1-0.8-0.2-1.2-0.3c-0.1,0-0.2,0-0.3-0.1c-0.4-0.1-0.8-0.2-1.2-0.2
						c-0.1,0-0.2,0-0.3-0.1c-0.4-0.1-0.7-0.1-1.1-0.2c-0.1,0-0.3,0-0.4-0.1c-0.3-0.1-0.7-0.1-1-0.2c-0.2,0-0.3,0-0.5-0.1
						c-0.3,0-0.6-0.1-1-0.1c-0.2,0-0.4,0-0.6-0.1c-0.3,0-0.6-0.1-0.9-0.1c-0.2,0-0.5,0-0.7-0.1c-0.3,0-0.5,0-0.8-0.1
						c-0.3,0-0.5,0-0.8-0.1c-0.2,0-0.5,0-0.7,0c-0.3,0-0.6,0-1,0c-0.2,0-0.4,0-0.6,0c-0.5,0-1,0-1.6,0c-33.9,0-61.3,27.4-61.3,61.3
						l0,0c0,0.5,0,1,0,1.5c0,0.2,0,0.3,0,0.5c0,0.3,0,0.7,0,1c0,0.2,0,0.4,0,0.6c0,0.3,0,0.6,0.1,0.9c0,0.2,0,0.4,0.1,0.6
						c0,0.3,0,0.6,0.1,0.9c0,0.2,0,0.4,0.1,0.7c0,0.2,0,0.4,0.1,0.6C484.5,179,500.3,169.8,518.9,161.7L518.9,161.7z"/>
					<path class="st26" d="M610.8,149.2c-2.4-5.8-12.7-7.8-27.7-6.2c-15.5,1.6-35.9,7-57.4,15.8c-2.3,1-4.6,1.9-6.9,2.9
						c-18.5,8.1-34.3,17.3-45.2,25.9c-11.8,9.3-17.8,17.9-15.5,23.8c2.4,5.8,12.7,7.7,27.7,6.2l-0.1-0.1c-0.1-0.2-0.3-0.3-0.4-0.5
						l-0.1-0.1c-0.2-0.2-0.4-0.5-0.5-0.7s-0.3-0.4-0.4-0.6c0,0,0-0.1-0.1-0.1c-1.5-2.2-2.8-4.4-4.1-6.7l0,0c-4.7,0-7.7-0.9-8.4-2.8
						c-0.8-1.9,0.7-4.7,4.1-7.9c6.3-6.2,19.3-14.2,35.7-22c5.6-2.7,11.6-5.4,18-7.9c24.9-10.1,47.5-16.1,59.3-16.1
						c4.7,0,7.7,0.9,8.4,2.8c0.8,1.9-0.7,4.7-4.1,7.9l0,0c1,3.4,1.7,6.8,2.2,10.3l0,0C607.1,163.6,613.2,155,610.8,149.2
						L610.8,149.2z"/>
				</g>
			</g>
		</g>
		<path class="st16" d="M397.4,143.2v-0.1c7.2-0.1,9.2-2.1,9.3-9.3h0.1c0.6,7.2,2.6,9.3,9.1,9.3v0.1c-6.5,0.6-8.5,2.7-9.1,9.1h-0.1
			C406.6,145.8,404.5,143.8,397.4,143.2L397.4,143.2L397.4,143.2z"/>
		<path class="st16" d="M147.4,151.2v-0.1c7.2-0.1,9.2-2.1,9.3-9.3h0.1c0.6,7.2,2.6,9.3,9.1,9.3v0.1c-6.5,0.6-8.5,2.7-9.1,9.1h-0.1
			C156.6,153.8,154.5,151.8,147.4,151.2L147.4,151.2L147.4,151.2z"/>
		<path class="st16" d="M197.4,391.2v-0.1c7.2-0.1,9.2-2.1,9.3-9.3h0.1c0.6,7.2,2.6,9.3,9.1,9.3v0.1c-6.5,0.6-8.5,2.7-9.1,9.1h-0.1
			C206.6,393.8,204.5,391.8,197.4,391.2L197.4,391.2L197.4,391.2z"/>
		<path class="st16" d="M294.1,491.1L294.1,491.1c2.8-0.1,3.6-0.9,3.6-3.7l0,0c0.2,2.8,1,3.6,3.6,3.6l0,0c-2.5,0.2-3.3,1-3.6,3.6
			l0,0C297.7,492.1,296.9,491.3,294.1,491.1L294.1,491.1L294.1,491.1z"/>
		<path class="st16" d="M484.1,361.1L484.1,361.1c2.8-0.1,3.6-0.9,3.6-3.7l0,0c0.2,2.8,1,3.6,3.6,3.6l0,0c-2.5,0.2-3.3,1-3.6,3.6
			l0,0C487.7,362.1,486.9,361.3,484.1,361.1L484.1,361.1L484.1,361.1z"/>
		<path class="st16" d="M278.1,180.1L278.1,180.1c2.8-0.1,3.6-0.9,3.6-3.7l0,0c0.2,2.8,1,3.6,3.6,3.6l0,0c-2.5,0.2-3.3,1-3.6,3.6
			l0,0C281.7,181.1,280.9,180.3,278.1,180.1L278.1,180.1L278.1,180.1z"/>
		<path class="st16" d="M508.1,299.1L508.1,299.1c2.8-0.1,3.6-0.9,3.6-3.7l0,0c0.2,2.8,1,3.6,3.6,3.6l0,0c-2.5,0.2-3.3,1-3.6,3.6
			l0,0C511.7,300.1,510.9,299.3,508.1,299.1L508.1,299.1L508.1,299.1z"/>
		<path class="st16" d="M302.8,589v-0.2c14.9-0.1,19.1-4.3,19.3-19.4h0.2c1.2,14.9,5.3,19.2,19,19.4v0.3
			c-13.5,1.3-17.7,5.5-18.9,18.9h-0.3C321.8,594.5,317.5,590.3,302.8,589L302.8,589L302.8,589z"/>
		<path class="st16" d="M202.8,69v-0.2c14.9-0.1,19.1-4.3,19.3-19.4h0.2c1.2,14.9,5.3,19.2,19,19.4v0.3
			c-13.5,1.3-17.7,5.5-18.9,18.9h-0.3C221.8,74.5,217.5,70.3,202.8,69L202.8,69L202.8,69z"/>
		<path class="st16" d="M123.9,172.9v-0.1c9.4-0.1,12-2.7,12.2-12.2h0.1c0.7,9.4,3.3,12.1,12,12.2v0.2c-8.5,0.8-11.2,3.5-11.9,11.9
			h-0.2C135.9,176.3,133.2,173.7,123.9,172.9L123.9,172.9L123.9,172.9z"/>
		<path class="st16" d="M532.8,439v-0.2c14.9-0.1,19.1-4.3,19.3-19.4h0.2c1.2,14.9,5.3,19.2,19,19.4v0.3
			c-13.5,1.3-17.7,5.5-18.9,18.9h-0.3C551.8,444.5,547.5,440.3,532.8,439L532.8,439L532.8,439z"/>
		<path class="st16" d="M542.8,229v-0.2c14.9-0.1,19.1-4.3,19.3-19.4h0.2c1.2,14.9,5.3,19.2,19,19.4v0.3
			c-13.5,1.3-17.7,5.5-18.9,18.9h-0.3C561.8,234.5,557.5,230.3,542.8,229L542.8,229L542.8,229z"/>
		<path class="st18" d="M185.5,367.2c0.3,0.3,0.6,0.7,0.9,1C186.1,367.9,185.8,367.5,185.5,367.2z"/>
		<path class="st18" d="M189.6,371.8c0.6,0.7,1.2,1.4,1.7,2.1C190.8,373.2,190.2,372.5,189.6,371.8z"/>
		<path class="st18" d="M186.7,368.5c0.6,0.6,1.2,1.3,1.8,2C187.9,369.8,187.3,369.1,186.7,368.5z"/>
		<path class="st18" d="M173.1,356.4c0.3,0.2,0.6,0.4,0.9,0.7C173.7,356.9,173.4,356.6,173.1,356.4z"/>
		<path class="st18" d="M182.2,364c0.3,0.3,0.6,0.6,1,0.9C182.8,364.6,182.5,364.3,182.2,364z"/>
		<path class="st18" d="M174.7,357.6c0.5,0.4,1,0.7,1.4,1.1C175.7,358.4,175.2,358,174.7,357.6z"/>
		<path class="st18" d="M191.5,374.1c0.3,0.4,0.6,0.8,0.9,1.1C192.1,374.9,191.8,374.5,191.5,374.1z"/>
		<path class="st18" d="M176.7,359.2c0.7,0.6,1.4,1.1,2,1.7C178.1,360.3,177.4,359.8,176.7,359.2z"/>
		<path class="st18" d="M180.2,362.1c0.6,0.6,1.3,1.1,1.9,1.7C181.5,363.3,180.8,362.7,180.2,362.1z"/>
		<path class="st18" d="M178.8,360.9c0.3,0.3,0.6,0.6,1,0.8C179.4,361.5,179.1,361.2,178.8,360.9z"/>
		<path class="st18" d="M188.6,370.6c0.3,0.4,0.6,0.7,0.9,1.1C189.2,371.3,188.9,370.9,188.6,370.6z"/>
		<path class="st18" d="M131.7,530.2c-1.5,0.3-3.1,0.5-4.6,0.7C128.7,530.7,130.2,530.5,131.7,530.2z"/>
		<path class="st18" d="M125.9,531c-0.3,0-0.7,0.1-1,0.1C125.2,531.1,125.6,531.1,125.9,531z"/>
		<path class="st18" d="M133.9,529.9c-0.5,0.1-1,0.2-1.6,0.3C132.9,530,133.4,529.9,133.9,529.9z"/>
		<path class="st18" d="M123.6,531.2c-0.3,0-0.7,0.1-1,0.1C122.9,531.3,123.3,531.3,123.6,531.2z"/>
		<path class="st18" d="M121.2,531.4c-0.3,0-0.6,0-0.9,0C120.6,531.4,120.9,531.4,121.2,531.4z"/>
		<path class="st18" d="M136.1,529.4c-0.6,0.1-1.1,0.2-1.7,0.3C135,529.6,135.5,529.5,136.1,529.4z"/>
		<path class="st18" d="M212.3,426.4c0,0.3,0.1,0.6,0.1,0.9C212.4,427,212.3,426.7,212.3,426.4z"/>
		<path class="st18" d="M212.5,429.3c0,0.3,0,0.5,0,0.8C212.6,429.8,212.5,429.6,212.5,429.3z"/>
		<path class="st18" d="M212.6,431.6c0,0.2,0,0.5,0,0.7C212.6,432.1,212.6,431.9,212.6,431.6z"/>
		<path class="st18" d="M212.1,424c0,0.4,0.1,0.8,0.1,1.2C212.2,424.8,212.1,424.4,212.1,424z"/>
		<path class="st18" d="M165.5,351.3c0.3,0.2,0.6,0.3,0.8,0.5C166,351.7,165.8,351.5,165.5,351.3z"/>
		<path class="st18" d="M139.7,340.6c0.2,0,0.4,0.1,0.6,0.1C140.1,340.7,139.9,340.6,139.7,340.6z"/>
		<path class="st18" d="M137.2,340c0.2,0,0.3,0.1,0.5,0.1C137.6,340.1,137.4,340,137.2,340z"/>
		<path class="st18" d="M144.3,341.9c0.2,0.1,0.4,0.1,0.6,0.2C144.7,342,144.5,341.9,144.3,341.9z"/>
		<path class="st18" d="M135.1,339.5c0.2,0,0.3,0.1,0.5,0.1C135.4,339.6,135.2,339.5,135.1,339.5z"/>
		<path class="st18" d="M171.3,355.1c0.4,0.3,0.8,0.6,1.2,0.8C172.1,355.6,171.7,355.4,171.3,355.1L171.3,355.1z"/>
		<path class="st18" d="M146.4,342.5c0.2,0.1,0.3,0.1,0.5,0.2C146.7,342.7,146.6,342.6,146.4,342.5z"/>
		<path class="st18" d="M125.5,338.1c0.1,0,0.2,0,0.3,0C125.7,338.1,125.6,338.1,125.5,338.1z"/>
		<path class="st18" d="M120.6,337.7c0.1,0,0.1,0,0.2,0C120.7,337.7,120.7,337.7,120.6,337.7z"/>
		<path class="st18" d="M130.3,338.7l0.4,0.1L130.3,338.7z"/>
		<path class="st18" d="M132.5,339c0.2,0,0.3,0.1,0.5,0.1C132.9,339.1,132.7,339.1,132.5,339z"/>
		<path class="st18" d="M141.9,341.2c0.2,0,0.3,0.1,0.5,0.1C142.2,341.2,142,341.2,141.9,341.2z"/>
		<path class="st18" d="M148.7,343.4c0.2,0.1,0.4,0.2,0.7,0.2C149.2,343.5,149,343.4,148.7,343.4z"/>
		<path class="st18" d="M159.4,348c0.3,0.2,0.6,0.3,1,0.5C160,348.3,159.7,348.1,159.4,348z"/>
		<path class="st18" d="M161.5,349.1c0.3,0.1,0.5,0.3,0.8,0.4C162,349.3,161.7,349.2,161.5,349.1z"/>
		<path class="st18" d="M169.4,353.8c0.3,0.2,0.6,0.4,0.9,0.6C170,354.2,169.7,354,169.4,353.8z"/>
		<path class="st18" d="M167.4,352.5c0.4,0.2,0.8,0.5,1.1,0.7C168.2,353,167.8,352.8,167.4,352.5z"/>
		<path class="st18" d="M163.5,350.2c0.4,0.2,0.7,0.4,1.1,0.6C164.2,350.6,163.8,350.4,163.5,350.2z"/>
		<path class="st18" d="M150.8,344.1c0.2,0.1,0.3,0.1,0.5,0.2C151.2,344.3,151,344.2,150.8,344.1z"/>
		<path class="st18" d="M157.3,347c0.3,0.1,0.5,0.2,0.8,0.4C157.9,347.2,157.6,347.1,157.3,347z"/>
		<path class="st18" d="M153.1,345.1c0.2,0.1,0.5,0.2,0.7,0.3C153.6,345.3,153.3,345.2,153.1,345.1z"/>
		<path class="st18" d="M155.2,346c0.3,0.1,0.5,0.2,0.8,0.4C155.7,346.2,155.4,346.1,155.2,346z"/>
		<path class="st18" d="M185.3,367.1c-0.6-0.6-1.2-1.2-1.8-1.8C184.1,365.9,184.7,366.5,185.3,367.1z"/>
		<path class="st18" d="M195.4,379.3c0.5,0.7,0.9,1.3,1.4,2c-0.8-1.2-1.6-2.4-2.5-3.6C194.7,378.3,195,378.8,195.4,379.3
			L195.4,379.3L195.4,379.3z"/>
		<path class="st18" d="M115.7,469.2c-12.5,0-25.1-0.8-37.5-2.5c0.8,4.8,2,9.6,3.5,14.3c-23.6-2.9-43.1-8.8-54.7-16.3c0,0,0,0-0.1,0
			c-0.4-0.2-0.7-0.5-1.1-0.7l-0.1-0.1c-0.4-0.3-0.7-0.5-1.1-0.8l-0.1-0.1c-0.3-0.2-0.6-0.5-0.9-0.7c-0.1-0.1-0.2-0.1-0.2-0.2
			c-0.3-0.3-0.6-0.5-0.9-0.8c3,10.4,7.7,20.3,14,29.1c5.4,2.3,10.9,4.2,16.5,5.8c2.1,0.6,4.3,1.2,6.6,1.7c1.3,0.3,2.5,0.6,3.8,0.8
			l0,0c0,0-0.1-0.1-0.1-0.3c-0.2-0.5-0.6-1.4-1.1-2.6c-0.1-0.3-0.2-0.7-0.4-1c-0.1-0.4-0.2-0.7-0.3-1.1c-0.1-0.3-0.2-0.7-0.3-1
			c-0.2-1-0.4-1.9-0.4-2.9c0-0.2,0-0.3,0-0.5c0-0.3,0.1-0.6,0.1-0.8c0.1-0.2,0.1-0.5,0.3-0.7c0.1-0.1,0.1-0.2,0.2-0.3
			c0.5-0.7,1.4-1.1,2.3-1c0.2,0,0.5,0,0.7,0c0.1,0,0.1,0,0.2,0c0.2,0,0.3,0,0.5,0c0.1,0,0.2,0,0.3,0c0.1,0,0.3,0,0.4,0s0.2,0,0.3,0
			c0.1,0,0.3,0,0.4,0.1c0.1,0,0.2,0,0.3,0.1c0.1,0,0.3,0,0.4,0.1c0.1,0,0.2,0,0.3,0.1c0.1,0,0.2,0,0.4,0.1c0.1,0,0.2,0,0.3,0.1
			c0.1,0,0.2,0.1,0.4,0.1c0.1,0,0.2,0.1,0.4,0.1c0.1,0,0.2,0.1,0.4,0.1c0.1,0,0.2,0.1,0.4,0.1c0.1,0,0.2,0.1,0.4,0.1
			c0.1,0,0.2,0.1,0.4,0.1c0.1,0,0.2,0.1,0.4,0.1c0.1,0,0.2,0.1,0.4,0.1c0.1,0,0.2,0.1,0.4,0.1c0.1,0,0.2,0.1,0.4,0.1
			c0.1,0,0.3,0.1,0.4,0.1s0.2,0.1,0.4,0.1c0.1,0,0.3,0.1,0.4,0.1s0.2,0.1,0.4,0.1c0.1,0,0.3,0.1,0.4,0.1s0.2,0.1,0.4,0.1
			c0.1,0,0.3,0.1,0.4,0.1s0.2,0.1,0.4,0.1c0.1,0.1,0.3,0.1,0.4,0.2c0.1,0,0.2,0.1,0.3,0.1c0.1,0.1,0.3,0.1,0.4,0.2
			c0.1,0,0.2,0.1,0.3,0.1c0.1,0.1,0.3,0.1,0.4,0.2c0.1,0,0.2,0.1,0.3,0.1c0.2,0.1,0.3,0.1,0.5,0.2c0.1,0,0.2,0.1,0.3,0.1
			c0.2,0.1,0.3,0.1,0.5,0.2c0.1,0,0.2,0.1,0.3,0.1c0.2,0.1,0.3,0.1,0.5,0.2c0.1,0,0.2,0.1,0.3,0.1c0.2,0.1,0.3,0.2,0.5,0.2
			c0.1,0,0.2,0.1,0.2,0.1c0.2,0.1,0.4,0.2,0.6,0.3c0.1,0,0.1,0.1,0.2,0.1c0.2,0.1,0.4,0.2,0.6,0.3c0,0,0.1,0,0.1,0.1
			c0.2,0.1,0.5,0.2,0.7,0.3h0.1c1.7,0.8,3.4,1.6,5.1,2.5c-2.3-4.5-4.3-9.1-5.9-13.9c11.3,1.4,22.6,2,34,2c10.4,0,20.8-0.6,31.2-1.7
			l12.7-1.8c22.3-3.7,40.1-10.3,49.4-18.2c-3,10.4-7.7,20.3-14,29.1c-18.4,8.1-47,13.9-79.2,13.4c-9.7-0.1-19.2-4.6-28.2-8.9
			c4.2,8.2,9.6,15.8,15.9,22.5l0,0l0,0c4,0.2,8,0.3,12.1,0.3c22.4,0,43.1-2.5,59.8-6.8c-11.5,9-24.8,15.3-39.1,18.5
			c44.5-9.8,76.2-49.2,76.3-94.8c0,3.2-0.2,6.4-0.5,9.6C200.1,458.6,161.5,469.2,115.7,469.2L115.7,469.2z"/>
		<path class="st18" d="M118.4,337.6c-0.2,0-0.3,0-0.5,0l0,0C118.1,337.6,118.3,337.6,118.4,337.6z"/>
		<path class="st18" d="M193.6,376.8l0.1,0.1c0.2,0.2,0.3,0.5,0.5,0.7c-0.6-0.8-1.1-1.5-1.7-2.3
			C192.8,375.8,193.2,376.3,193.6,376.8L193.6,376.8z"/>
		<path class="st18" d="M123.4,337.9c-0.1,0-0.2,0-0.4,0c0.1,0,0.1,0,0.2,0C123.3,337.9,123.3,337.9,123.4,337.9z"/>
		<path class="st18" d="M198.5,384.1c0.7,1.1,1.3,2.2,1.9,3.3c-17.8,9.6-49.1,16-84.7,16c-8.9,0-17.6-0.4-25.8-1.2
			c-4.2,7.3-7.5,15.1-9.6,23.2l0,0l0,0c3.4,0.4,6.8,0.8,10.4,1.1l0,0c18.4,1.2,30.5,9.1,41.9,11.1c1.9,0.4,3.7-0.9,4.1-2.8
			c0.2-0.9,0-1.8-0.5-2.6l-3.5-5.1c34.4-2,62.9-10.1,75.9-20.9c1.7,5.5,2.9,11.2,3.5,16.9c-1.7-14.9-6.9-29.1-15.1-41.6
			C197.4,382.4,198,383.2,198.5,384.1L198.5,384.1L198.5,384.1z M120.5,428.1c-2.7,0-4.9-1.4-4.9-3.2s2.2-3.2,4.9-3.2
			c2.7,0,4.8,1.4,4.8,3.2S123.2,428.1,120.5,428.1z"/>
		<path class="st18" d="M128.2,338.4c-0.2,0-0.3,0-0.5-0.1C127.9,338.3,128,338.4,128.2,338.4L128.2,338.4L128.2,338.4z"/>
		<path class="st18" d="M118,531.5c0.3,0,0.5,0,0.8,0C118.5,531.5,118.3,531.5,118,531.5z"/>
		<path class="st27" d="M96.9,529.8c-0.6-0.1-1.1-0.2-1.7-0.3C95.8,529.5,96.3,529.6,96.9,529.8z"/>
		<path class="st27" d="M113.3,531.5c-0.3,0-0.5,0-0.8,0C112.8,531.5,113.1,531.5,113.3,531.5z"/>
		<path class="st27" d="M99,530.1c-0.5-0.1-1.1-0.2-1.6-0.3C97.9,529.9,98.5,530,99,530.1z"/>
		<path class="st27" d="M104.3,530.9c-1.6-0.2-3.1-0.4-4.7-0.7C101.1,530.5,102.7,530.7,104.3,530.9z"/>
		<path class="st27" d="M108.7,531.3c-0.3,0-0.7,0-1-0.1C108.1,531.3,108.4,531.3,108.7,531.3z"/>
		<path class="st27" d="M106.5,531.1c-0.3,0-0.7-0.1-1-0.1C105.8,531.1,106.1,531.1,106.5,531.1z"/>
		<path class="st27" d="M111,531.5c-0.3,0-0.6,0-0.9,0C110.4,531.4,110.7,531.4,111,531.5z"/>
		<path class="st27" d="M62.9,515.9c-1.5-1-3-2-4.5-3.1c-0.2-0.1-0.3-0.2-0.5-0.4c-0.7-0.5-1.4-1.1-2.1-1.6l0,0
			c0.8,0.2,1.6,0.4,2.4,0.6c0.1,0,0.2,0.1,0.4,0.1c0.8,0.2,1.7,0.4,2.5,0.6l0,0c13.9,3,28.1,4.8,42.4,5.3
			c-6.4-6.7-11.7-14.3-15.9-22.5c-1.7-0.8-3.4-1.7-5.1-2.5h-0.1c-0.2-0.1-0.5-0.2-0.7-0.3c0,0-0.1,0-0.1-0.1
			c-0.2-0.1-0.4-0.2-0.6-0.3c-0.1,0-0.1-0.1-0.2-0.1c-0.2-0.1-0.4-0.2-0.6-0.3c-0.1,0-0.2-0.1-0.2-0.1c-0.2-0.1-0.3-0.2-0.5-0.2
			c-0.1,0-0.2-0.1-0.3-0.1c-0.2-0.1-0.3-0.1-0.5-0.2c-0.1,0-0.2-0.1-0.3-0.1c-0.2-0.1-0.3-0.1-0.5-0.2c-0.1,0-0.2-0.1-0.3-0.1
			c-0.2-0.1-0.3-0.1-0.5-0.2l-0.3-0.1c-0.1-0.1-0.3-0.1-0.4-0.2c-0.1,0-0.2-0.1-0.3-0.1c-0.1-0.1-0.3-0.1-0.4-0.2
			c-0.1,0-0.2-0.1-0.3-0.1c-0.1-0.1-0.3-0.1-0.4-0.2c-0.1,0-0.2-0.1-0.3-0.1c-0.1-0.1-0.3-0.1-0.4-0.1s-0.2-0.1-0.4-0.1
			c-0.1,0-0.3-0.1-0.4-0.1s-0.2-0.1-0.4-0.1c-0.1,0-0.3-0.1-0.4-0.1s-0.2-0.1-0.4-0.1c-0.1,0-0.3-0.1-0.4-0.1s-0.2-0.1-0.4-0.1
			c-0.1,0-0.2-0.1-0.4-0.1c-0.1,0-0.2-0.1-0.4-0.1c-0.1,0-0.2-0.1-0.4-0.1c-0.1,0-0.2-0.1-0.4-0.1c-0.1,0-0.2-0.1-0.4-0.1
			c-0.1,0-0.2-0.1-0.4-0.1c-0.1,0-0.2-0.1-0.4-0.1c-0.1,0-0.2-0.1-0.4-0.1c-0.1,0-0.2-0.1-0.4-0.1c-0.1,0-0.2,0-0.3-0.1
			c-0.1,0-0.3,0-0.4-0.1c-0.1,0-0.2,0-0.3-0.1c-0.1,0-0.3,0-0.4-0.1c-0.1,0-0.2,0-0.3-0.1c-0.1,0-0.3,0-0.4-0.1c-0.1,0-0.2,0-0.3,0
			c-0.1,0-0.3,0-0.4,0s-0.2,0-0.3,0c-0.2,0-0.3,0-0.5,0c-0.1,0-0.1,0-0.2,0c-0.2,0-0.5,0-0.7,0c-0.9-0.1-1.7,0.3-2.3,1
			c-0.1,0.1-0.1,0.2-0.2,0.3c-0.1,0.2-0.2,0.4-0.3,0.7c-0.1,0.3-0.1,0.6-0.1,0.8c0,0.2,0,0.3,0,0.5c0,1,0.2,2,0.4,2.9
			c0.1,0.3,0.2,0.7,0.3,1c0.1,0.4,0.2,0.8,0.3,1.1c0.1,0.4,0.2,0.7,0.4,1c0.4,1.2,0.8,2.1,1.1,2.6c0.1,0.1,0.1,0.2,0.1,0.3l0,0
			c-1.3-0.3-2.6-0.6-3.8-0.8c-2.3-0.5-4.5-1.1-6.6-1.7c-5.6-1.5-11.2-3.4-16.5-5.8c-6.3-8.9-11-18.7-14-29.1l0,0
			c0.3,0.3,0.6,0.5,0.9,0.8c0.1,0.1,0.2,0.1,0.2,0.2c0.3,0.2,0.6,0.5,0.9,0.7l0.1,0.1c0.4,0.3,0.7,0.5,1.1,0.8l0.1,0.1
			c0.4,0.2,0.7,0.5,1.1,0.7c0,0,0,0,0.1,0c11.7,7.5,31.2,13.4,54.7,16.3c-1.5-4.7-2.7-9.4-3.5-14.3c-24.9-3.5-44.8-10.2-55.2-18.8
			l-0.1-0.1c-0.3-0.3-0.6-0.5-0.9-0.8l-0.1-0.1c-0.3-0.3-0.6-0.6-0.9-0.9l-0.1-0.1c-0.2-0.2-0.5-0.5-0.7-0.7
			c-0.1-0.1-0.1-0.1-0.2-0.2c-0.3-0.3-0.5-0.6-0.8-0.9l0,0c-0.3-3.2-0.5-6.4-0.5-9.6c0,45.6,31.7,85,76.3,94.8
			c-11.3-2.5-22.1-7-31.9-13.3C63,516,62.9,516,62.9,515.9L62.9,515.9z M80.1,496c3.9,2.3,6.7,5.1,6.5,9.7s-18.8-4.9-19.4-9.7
			C66.6,491.2,75.2,493.1,80.1,496z"/>
		<path class="st27" d="M121.5,337.7c0.4,0,0.8,0,1.2,0.1C122.3,337.8,121.9,337.8,121.5,337.7z"/>
		<path class="st27" d="M115.7,337.6c0.6,0,1.2,0,1.7,0C116.8,337.6,116.3,337.6,115.7,337.6z"/>
		<path class="st27" d="M108.6,337.8c0.5,0,0.9-0.1,1.4-0.1C109.6,337.8,109.1,337.8,108.6,337.8z"/>
		<path class="st27" d="M115.7,337.6c-0.6,0-1.1,0-1.7,0c0.1,0,0.2,0,0.2,0C114.7,337.6,115.2,337.6,115.7,337.6L115.7,337.6z"/>
		<path class="st27" d="M198.5,384.1L198.5,384.1c-0.5-0.8-1-1.7-1.6-2.5c0-0.1-0.1-0.1-0.1-0.2c-0.4-0.7-0.9-1.4-1.4-2
			C196.5,380.9,197.5,382.4,198.5,384.1L198.5,384.1z"/>
		<path class="st27" d="M159.1,347.8c0,0,0.1,0,0.1,0.1c0.3,0.2,0.6,0.3,1,0.5c0.2,0.1,0.5,0.2,0.7,0.4c0.2,0.1,0.3,0.2,0.5,0.3
			c0.4,0.2,0.8,0.4,1.2,0.6l0.1,0.1c0.2,0.1,0.4,0.2,0.7,0.4c0.1,0,0.2,0.1,0.2,0.1c2,1.1,3.9,2.3,5.8,3.6c0,0,0,0,0.1,0.1
			c-2.8,0.1-5.5,0.4-8.2,0.7c-2,0.4-4,0.7-6.1,1c-22,4.3-41.9,16.2-56.1,33.5l0,0l0,0c5.4,0.3,11,0.5,16.6,0.5
			c7,0,13.9-0.2,20.5-0.7c1.3-0.1,2.5-0.2,3.8-0.3l11.8-1.3c16.5-2.2,30.8-5.8,41.8-10.5c-0.4-0.5-0.7-1-1.1-1.5l0,0
			c-0.3-0.4-0.6-0.8-0.9-1.1c0-0.1-0.1-0.1-0.1-0.2c-0.6-0.7-1.1-1.4-1.7-2.1c-0.1-0.1-0.1-0.1-0.2-0.2c-0.3-0.4-0.6-0.7-0.9-1.1
			l-0.1-0.1c-0.6-0.7-1.2-1.3-1.8-2c-0.1-0.1-0.2-0.2-0.3-0.3c-0.3-0.3-0.6-0.7-0.9-1l-0.1-0.1c-0.6-0.6-1.2-1.2-1.8-1.8
			c-0.1-0.1-0.2-0.2-0.3-0.3c-0.3-0.3-0.6-0.6-1-0.9l-0.1-0.1c-0.6-0.6-1.3-1.2-1.9-1.7c-0.2-0.1-0.3-0.3-0.4-0.4
			c-0.3-0.3-0.6-0.6-1-0.8l0,0c-0.7-0.6-1.3-1.1-2-1.7c-0.2-0.2-0.4-0.3-0.6-0.4c-0.5-0.4-1-0.8-1.4-1.1c-0.2-0.2-0.5-0.4-0.7-0.5
			c-0.3-0.2-0.6-0.5-0.9-0.7c-0.2-0.2-0.4-0.3-0.7-0.5c-0.4-0.3-0.8-0.6-1.2-0.8c-0.3-0.2-0.7-0.5-1-0.7s-0.6-0.4-0.9-0.6
			c-0.3-0.2-0.5-0.4-0.8-0.5c-0.4-0.2-0.7-0.5-1.1-0.7c-0.4-0.2-0.7-0.5-1.1-0.7c-0.3-0.2-0.6-0.3-0.8-0.5c-0.3-0.2-0.6-0.4-1-0.6
			s-0.7-0.4-1.1-0.6c-0.4-0.2-0.8-0.5-1.2-0.7c-0.3-0.1-0.5-0.3-0.8-0.4c-0.4-0.2-0.8-0.4-1.1-0.6s-0.6-0.3-1-0.5s-0.9-0.4-1.3-0.6
			c-0.3-0.1-0.5-0.2-0.8-0.4c-0.5-0.2-0.9-0.4-1.4-0.6c-0.3-0.1-0.5-0.2-0.8-0.4c-0.5-0.2-0.9-0.4-1.4-0.6c-0.2-0.1-0.5-0.2-0.7-0.3
			c-0.6-0.2-1.2-0.5-1.7-0.7c-0.2-0.1-0.3-0.1-0.5-0.2c-0.5-0.2-1-0.4-1.4-0.5c-0.2-0.1-0.4-0.2-0.7-0.2c-0.6-0.2-1.2-0.4-1.8-0.6
			c-0.2-0.1-0.3-0.1-0.5-0.2c-0.5-0.2-1-0.3-1.5-0.5c-0.2-0.1-0.4-0.1-0.6-0.2c-0.6-0.2-1.3-0.4-1.9-0.6c-0.2,0-0.3-0.1-0.5-0.1
			c-0.5-0.1-1.1-0.3-1.6-0.4c-0.2,0-0.4-0.1-0.6-0.1c-0.7-0.2-1.3-0.3-2-0.5c-0.2,0-0.3-0.1-0.5-0.1c-0.6-0.1-1.1-0.3-1.7-0.4
			c-0.2,0-0.3-0.1-0.5-0.1c-0.7-0.1-1.4-0.3-2-0.4c-0.2,0-0.3-0.1-0.5-0.1c-0.6-0.1-1.2-0.2-1.8-0.3c-0.1,0-0.3,0-0.4-0.1
			c-0.7-0.1-1.4-0.2-2.1-0.3C139,339.8,149.4,343,159.1,347.8L159.1,347.8z"/>
		<path class="st27" d="M195.4,379.3c-0.4-0.5-0.7-1-1.1-1.6c0-0.1-0.1-0.1-0.1-0.2c-0.2-0.2-0.3-0.5-0.5-0.7
			C194.2,377.7,194.8,378.5,195.4,379.3L195.4,379.3z"/>
		<path class="st27" d="M120.9,337.7L120.9,337.7c-0.2,0-0.2,0-0.3,0c-0.3,0-0.6,0-0.9,0C120.1,337.7,120.5,337.7,120.9,337.7z"/>
		<path class="st27" d="M124.4,338c-0.4,0-0.7-0.1-1.1-0.1c-0.1,0-0.1,0-0.2,0C123.6,337.9,124,337.9,124.4,338L124.4,338z"/>
		<path class="st27" d="M128.2,338.4c-0.2,0-0.3,0-0.5-0.1c-0.4,0-0.8-0.1-1.1-0.1C127.1,338.2,127.7,338.3,128.2,338.4z"/>
		<path class="st27" d="M126.3,338.1c-0.1,0-0.3,0-0.4,0s-0.2,0-0.3,0c-0.2,0-0.4,0-0.6-0.1C125.3,338,125.8,338.1,126.3,338.1
			L126.3,338.1z"/>
		<path class="st27" d="M119.2,337.6c-0.2,0-0.5,0-0.7,0s-0.3,0-0.5,0C118.3,337.6,118.8,337.6,119.2,337.6z"/>
		<path class="st27" d="M113.5,337.6L113.5,337.6c-0.2,0-0.3,0-0.5,0s-0.5,0-0.7,0C112.7,337.6,113.1,337.6,113.5,337.6z"/>
		<path class="st27" d="M111.7,337.7c-0.3,0-0.6,0-0.9,0c-0.1,0-0.2,0-0.4,0C110.9,337.7,111.3,337.7,111.7,337.7z"/>
		<path class="st28" d="M115.7,337.6c-0.5,0-1,0-1.5,0C114.7,337.6,115.2,337.6,115.7,337.6z"/>
		<path class="st28" d="M162.5,349.6c-0.4-0.2-0.8-0.4-1.2-0.6C161.7,349.2,162.1,349.4,162.5,349.6z"/>
		<path class="st28" d="M169.4,353.9C169.4,353.8,169.4,353.8,169.4,353.9c-2-1.3-3.9-2.5-5.9-3.6c-0.1,0-0.2-0.1-0.2-0.1
			c-0.2-0.1-0.4-0.2-0.7-0.4c2,1.1,3.9,2.2,5.8,3.5c-2.3,0.5-4.7,1-7.1,1.4C164,354.2,166.7,354,169.4,353.9L169.4,353.9z"/>
		<path class="st28" d="M159.2,347.9c0,0-0.1,0-0.1-0.1C159.1,347.8,159.1,347.9,159.2,347.9z"/>
		<path class="st28" d="M160.9,348.7c-0.2-0.1-0.5-0.2-0.7-0.4C160.4,348.5,160.6,348.6,160.9,348.7z"/>
		<path class="st28" d="M39.9,377.6c0.4,0.1,0.8,0.3,1.1,0.4c0.2,0.1,0.4,0.2,0.6,0.2c0.4,0.1,0.7,0.3,1.1,0.4
			c0.2,0.1,0.4,0.2,0.7,0.2c0.4,0.1,0.8,0.3,1.2,0.4c0.2,0.1,0.4,0.1,0.6,0.2c0.6,0.2,1.1,0.4,1.7,0.6c0.2,0.1,0.5,0.2,0.8,0.2
			c0.4,0.1,0.7,0.2,1.1,0.3c0.3,0.1,0.6,0.2,0.9,0.3c0.3,0.1,0.6,0.2,0.9,0.3c0.3,0.1,0.7,0.2,1,0.3c0.3,0.1,0.6,0.2,0.8,0.2
			c0.4,0.1,0.8,0.2,1.1,0.3c0.2,0.1,0.4,0.1,0.6,0.2c1.5,0.4,3.1,0.8,4.6,1.2c0.1,0,0.3,0.1,0.4,0.1c0.5,0.1,1,0.2,1.6,0.4
			c0.1,0,0.2,0.1,0.4,0.1c0.6,0.1,1.1,0.3,1.7,0.4l0,0c11.9,2.5,24,4,36.1,4.7c14.3-17.3,34.1-29.2,56.1-33.5
			c-13.1,1.9-26.3,2.8-39.5,2.8c-17.7,0.1-35.4-1.6-52.7-5.2c6.5-4.2,13.4-7.6,20.7-10.2c-0.9,0.3-1.7,0.6-2.6,0.9
			c-0.5,0.2-1,0.4-1.5,0.6c-1.3,0.5-2.5,1-3.7,1.6c-0.4,0.2-0.8,0.4-1.3,0.6c-1.5,0.7-3.1,1.5-4.6,2.3c-0.1,0-0.1,0.1-0.2,0.1
			c-1.7,0.9-3.3,1.8-4.9,2.8c-0.1,0.1-0.3,0.2-0.4,0.2c-1.4,0.9-2.8,1.8-4.2,2.8c-0.3,0.2-0.6,0.4-0.9,0.6c-1.2,0.9-2.5,1.8-3.7,2.7
			c-0.3,0.2-0.5,0.4-0.8,0.6c-4.3,3.5-8.4,7.3-12.1,11.5c-0.1,0.2-0.3,0.3-0.4,0.5c-1.1,1.2-2.1,2.5-3.2,3.8
			c-0.2,0.2-0.3,0.4-0.5,0.6c-0.4,0.5-0.8,1-1.2,1.5c0.5,0.2,1.1,0.4,1.6,0.7C39.6,377.5,39.7,377.6,39.9,377.6L39.9,377.6z"/>
		<path class="st28" d="M92,340.5c-0.1,0-0.3,0.1-0.4,0.1c-1.8,0.5-3.6,1-5.3,1.5c-0.4,0.1-0.8,0.3-1.2,0.4H85
			c2.5-0.8,5-1.6,7.5-2.2C92.3,340.4,92.2,340.5,92,340.5L92,340.5z"/>
		<path class="st29" d="M200.4,387.4c-0.6-1.1-1.3-2.2-1.9-3.3c-1-1.6-2-3.2-3.1-4.7l0,0c-0.6-0.8-1.2-1.6-1.7-2.4l-0.1-0.1l0,0
			c-11,4.6-25.3,8.3-41.8,10.5l-11.8,1.3c-1.2,0.1-2.5,0.2-3.8,0.3c-6.6,0.5-13.5,0.7-20.5,0.7c-5.7,0-11.2-0.2-16.6-0.5
			c-3.4,4.1-6.5,8.5-9.2,13.2c-0.1,0-0.2,0-0.3,0c0.1,0,0.2,0,0.3,0c8.2,0.8,16.9,1.2,25.8,1.2C151.3,403.4,182.6,397,200.4,387.4
			L200.4,387.4z"/>
		<path class="st29" d="M38.6,391c-0.2-0.1-0.4-0.2-0.6-0.2C38.2,390.8,38.4,390.9,38.6,391z"/>
		<path class="st29" d="M36.4,390C36.3,390,36.3,390,36.4,390C36.3,390,36.3,390,36.4,390z"/>
		<path class="st29" d="M34.6,389.2c-0.2-0.1-0.3-0.2-0.5-0.2C34.3,389.1,34.5,389.1,34.6,389.2z"/>
		<path class="st29" d="M72.6,400c-0.2,0-0.4-0.1-0.7-0.1C72.1,400,72.4,400,72.6,400z"/>
		<path class="st29" d="M40.5,391.7c-0.2-0.1-0.4-0.1-0.6-0.2C40.1,391.6,40.3,391.6,40.5,391.7z"/>
		<path class="st29" d="M69.7,399.6c-0.3-0.1-0.6-0.1-0.9-0.2C69.1,399.4,69.4,399.5,69.7,399.6z"/>
		<path class="st29" d="M67.2,399.1c-0.3-0.1-0.6-0.1-0.9-0.2C66.6,399,66.9,399,67.2,399.1z"/>
		<path class="st29" d="M30.9,387.4C31,387.4,31,387.4,30.9,387.4C31,387.4,31,387.4,30.9,387.4z"/>
		<path class="st29" d="M61.6,397.9c-0.3-0.1-0.5-0.1-0.8-0.2C61.1,397.8,61.3,397.9,61.6,397.9z"/>
		<path class="st29" d="M56.4,396.7c-0.1,0-0.2-0.1-0.4-0.1C56.2,396.7,56.3,396.7,56.4,396.7z"/>
		<path class="st29" d="M59.2,397.4c-0.3-0.1-0.5-0.1-0.8-0.2C58.7,397.3,59,397.3,59.2,397.4z"/>
		<path class="st29" d="M64.3,398.5c-0.2,0-0.3-0.1-0.5-0.1C63.9,398.4,64.1,398.5,64.3,398.5z"/>
		<path class="st29" d="M54,396.1c-0.2-0.1-0.5-0.1-0.7-0.2C53.5,396,53.8,396,54,396.1z"/>
		<path class="st29" d="M75.6,400.5c-0.3,0-0.6-0.1-1-0.1C75,400.4,75.3,400.5,75.6,400.5z"/>
		<path class="st29" d="M42.4,392.5L42.4,392.5L42.4,392.5z"/>
		<path class="st29" d="M44.9,393.3c-0.2-0.1-0.4-0.1-0.6-0.2C44.5,393.2,44.7,393.2,44.9,393.3z"/>
		<path class="st29" d="M46.9,394c-0.2-0.1-0.4-0.1-0.6-0.2C46.5,393.9,46.7,393.9,46.9,394z"/>
		<path class="st29" d="M51.8,395.5c-0.2-0.1-0.5-0.1-0.7-0.2C51.3,395.3,51.5,395.4,51.8,395.5z"/>
		<path class="st29" d="M49.1,394.7c-0.1,0-0.2,0-0.2-0.1C49,394.7,49.1,394.7,49.1,394.7z"/>
		<path class="st29" d="M33,388.4c-0.2-0.1-0.3-0.2-0.5-0.2C32.6,388.2,32.8,388.3,33,388.4z"/>
		<path class="st29" d="M34,382.3c0.2-0.2,0.3-0.5,0.5-0.7c1.1-1.6,2.2-3.3,3.4-4.8l0,0c0.5,0.2,1.1,0.4,1.6,0.7
			c-0.5-0.2-1.1-0.4-1.6-0.7l0,0c-2.5,3.4-4.8,6.9-6.8,10.6l0,0C31.9,385.7,32.9,384,34,382.3L34,382.3z"/>
		<path class="st29" d="M84.5,401.7c-0.3,0-0.7-0.1-1-0.1C83.8,401.6,84.1,401.6,84.5,401.7z"/>
		<path class="st29" d="M78.3,400.9c-0.3,0-0.6-0.1-1-0.1C77.6,400.8,77.9,400.9,78.3,400.9z"/>
		<path class="st29" d="M87.2,402c-0.3,0-0.7-0.1-1-0.1C86.5,401.9,86.9,401.9,87.2,402z"/>
		<path class="st29" d="M81.3,401.3c-0.3,0-0.5-0.1-0.7-0.1C80.8,401.2,81.1,401.3,81.3,401.3z"/>
		<path class="st29" d="M61.2,384c-0.1,0-0.2-0.1-0.4-0.1C61,383.9,61.1,384,61.2,384z"/>
		<path class="st29" d="M44.6,379.4c-0.4-0.1-0.8-0.3-1.2-0.4C43.9,379.1,44.2,379.2,44.6,379.4z"/>
		<path class="st29" d="M47,380.2c-0.6-0.2-1.2-0.4-1.7-0.6C45.8,379.8,46.4,380,47,380.2z"/>
		<path class="st29" d="M42.8,378.7c-0.4-0.1-0.7-0.3-1.1-0.4C42.1,378.5,42.4,378.6,42.8,378.7z"/>
		<path class="st29" d="M54.2,382.3c-0.2-0.1-0.4-0.1-0.6-0.2C53.8,382.2,54,382.2,54.2,382.3z"/>
		<path class="st29" d="M41.1,378.1c-0.4-0.1-0.8-0.3-1.1-0.4C40.3,377.8,40.7,377.9,41.1,378.1z"/>
		<path class="st29" d="M59.3,383.6c-0.1,0-0.3-0.1-0.4-0.1C59,383.5,59.1,383.5,59.3,383.6z"/>
		<path class="st29" d="M48.8,380.7c-0.4-0.1-0.7-0.2-1.1-0.3C48.1,380.5,48.4,380.6,48.8,380.7z"/>
		<path class="st29" d="M50.7,381.3c-0.3-0.1-0.6-0.2-0.9-0.3C50,381.1,50.3,381.2,50.7,381.3z"/>
		<path class="st29" d="M52.5,381.8c-0.3-0.1-0.6-0.2-0.8-0.2C52,381.7,52.2,381.7,52.5,381.8z"/>
		<path class="st29" d="M62.9,384.4L62.9,384.4L62.9,384.4z"/>
		<path class="st30" d="M92.4,340.4c-2.5,0.6-5.1,1.4-7.5,2.2c-0.4,0.1-0.8,0.3-1.2,0.4c-7.3,2.6-14.3,6-20.7,10.2
			c17.3,3.5,35,5.3,52.7,5.2c13.2,0,26.4-0.9,39.5-2.8c2.1-0.3,4.1-0.6,6.1-1c2.4-0.4,4.8-0.9,7.1-1.4c-1.9-1.2-3.8-2.4-5.8-3.5
			l-0.1-0.1c-0.4-0.2-0.8-0.4-1.2-0.6c-0.2-0.1-0.3-0.2-0.5-0.3c-0.2-0.1-0.5-0.2-0.7-0.4c-0.3-0.2-0.6-0.3-1-0.5c0,0-0.1,0-0.1-0.1
			c-9.7-4.9-20.1-8-30.8-9.4l0,0l0,0c-0.5-0.1-1.1-0.1-1.6-0.2c-0.1,0-0.2,0-0.3,0c-0.5,0-0.9-0.1-1.4-0.1c-0.2,0-0.3,0-0.5,0
			c-0.4,0-0.8-0.1-1.2-0.1c-0.1,0-0.1,0-0.2,0s-0.2,0-0.3,0c-0.4,0-0.8-0.1-1.2-0.1c-0.2,0-0.4,0-0.6,0c-0.4,0-0.8,0-1.1-0.1
			c-0.2,0-0.4,0-0.6,0c-0.4,0-0.8,0-1.2,0l0,0c-0.2,0-0.3,0-0.5,0c-0.6,0-1.2,0-1.7,0s-1,0-1.5,0c-0.1,0-0.2,0-0.2,0
			c-0.2,0-0.3,0-0.5,0c-0.4,0-0.8,0-1.2,0c-0.2,0-0.4,0-0.5,0c-0.4,0-0.8,0-1.3,0.1c-0.1,0-0.3,0-0.4,0c-0.5,0-0.9,0.1-1.4,0.1
			c-0.1,0-0.2,0-0.2,0C103,338.2,97.7,339.1,92.4,340.4L92.4,340.4z"/>
		<path class="st27" d="M132.5,427.2l3.5,5.1c1.1,1.6,0.6,3.8-0.9,4.8c-0.8,0.5-1.7,0.7-2.6,0.5c-11.4-2-23.4-9.8-41.9-11.1l0,0
			c-3.5-0.3-7-0.7-10.4-1.1c-2,7.4-3.1,15.1-3.3,22.8l0,0l0,0c12.8,1.7,25.8,2.5,38.7,2.5c42.6,0,79.4-8.5,96.8-20.9
			c0.1,1.6,0.2,3.2,0.2,4.8c0-0.7,0-1.5,0-2.2c0-0.2,0-0.5,0-0.7c0-0.5,0-1-0.1-1.6c0-0.3,0-0.5,0-0.8c0-0.7-0.1-1.3-0.1-2
			c0-0.3-0.1-0.6-0.1-0.9c0-0.4-0.1-0.8-0.1-1.2c0-0.4-0.1-0.8-0.1-1.2c0-0.3-0.1-0.5-0.1-0.8c-0.7-5.7-1.9-11.4-3.5-16.9
			C195.4,417.1,167,425.1,132.5,427.2z"/>
		<path class="st27" d="M18.9,428c0-0.5,0.1-1,0.1-1.6c0.2-2.1,0.4-4.2,0.7-6.3c0,0,0,0,0-0.1c0.3-2.2,0.8-4.4,1.2-6.5
			c0.1-0.3,0.2-0.7,0.2-1c0.5-2.1,1-4.2,1.7-6.3c10.6,8.8,31.4,15.8,57.3,19.1c2.2-8.1,5.4-15.9,9.6-23.2c-0.1,0-0.2,0-0.3,0
			c-0.8-0.1-1.6-0.1-2.4-0.2c-0.3,0-0.7-0.1-1-0.1c-0.6-0.1-1.2-0.1-1.7-0.2c-0.3,0-0.7-0.1-1-0.1c-0.7-0.1-1.4-0.2-2.1-0.3
			c-0.3,0-0.5-0.1-0.7-0.1c-0.8-0.1-1.5-0.2-2.3-0.3c-0.3,0-0.6-0.1-1-0.1c-0.6-0.1-1.1-0.2-1.7-0.2c-0.3,0-0.6-0.1-1-0.1
			c-0.7-0.1-1.4-0.2-2.1-0.3c-0.2,0-0.4-0.1-0.7-0.1c-0.7-0.1-1.5-0.3-2.2-0.4c-0.3-0.1-0.6-0.1-0.9-0.2c-0.5-0.1-1.1-0.2-1.6-0.3
			c-0.3-0.1-0.6-0.1-0.9-0.2c-0.7-0.1-1.4-0.3-2-0.4c-0.2,0-0.3-0.1-0.5-0.1c-0.7-0.2-1.4-0.3-2.1-0.5c-0.3-0.1-0.5-0.1-0.8-0.2
			c-0.5-0.1-1.1-0.2-1.6-0.4c-0.3-0.1-0.5-0.1-0.8-0.2c-0.7-0.2-1.3-0.3-2-0.5c-0.1,0-0.2-0.1-0.4-0.1c-0.7-0.2-1.4-0.4-2.1-0.5
			c-0.2-0.1-0.5-0.1-0.7-0.2c-0.5-0.1-1-0.3-1.5-0.4c-0.2-0.1-0.5-0.1-0.7-0.2c-0.6-0.2-1.3-0.4-1.9-0.6c-0.1,0-0.2,0-0.2-0.1
			c-0.7-0.2-1.3-0.4-2-0.6c-0.2-0.1-0.4-0.1-0.6-0.2c-0.5-0.2-1-0.3-1.4-0.5c-0.2-0.1-0.4-0.1-0.6-0.2c-0.6-0.2-1.2-0.4-1.8-0.7
			h-0.1c-0.6-0.2-1.2-0.5-1.8-0.7c-0.2-0.1-0.4-0.1-0.6-0.2c-0.4-0.2-0.9-0.3-1.3-0.5c-0.2-0.1-0.4-0.2-0.6-0.2
			c-0.6-0.2-1.1-0.5-1.7-0.7c0,0,0,0-0.1,0c-0.6-0.2-1.1-0.5-1.6-0.8c-0.2-0.1-0.3-0.2-0.5-0.2c-0.4-0.2-0.8-0.4-1.2-0.6
			c-0.2-0.1-0.3-0.2-0.5-0.2c-0.5-0.3-1-0.5-1.5-0.8l0,0c2-3.7,4.3-7.2,6.8-10.6l0,0c0.4-0.5,0.8-1,1.2-1.5c0.2-0.2,0.3-0.4,0.5-0.6
			c1-1.3,2.1-2.6,3.2-3.8c0.1-0.2,0.3-0.3,0.4-0.5c3.7-4.2,7.7-8,12.1-11.5c0.3-0.2,0.5-0.4,0.8-0.6c1.2-0.9,2.4-1.9,3.7-2.7
			c0.3-0.2,0.6-0.4,0.9-0.6c1.4-1,2.8-1.9,4.2-2.8c0.1-0.1,0.3-0.2,0.4-0.2c1.6-1,3.2-1.9,4.9-2.8c0.1,0,0.1-0.1,0.2-0.1
			c1.5-0.8,3-1.6,4.6-2.3c0.4-0.2,0.8-0.4,1.3-0.6c1.2-0.6,2.5-1.1,3.7-1.6c0.5-0.2,1-0.4,1.5-0.6c0.9-0.3,1.7-0.6,2.6-0.9
			c0.4-0.1,0.8-0.3,1.2-0.4h0.1c0.4-0.1,0.8-0.3,1.2-0.4c1.8-0.6,3.5-1.1,5.3-1.5c0.1,0,0.3-0.1,0.4-0.1s0.3-0.1,0.4-0.1
			c5.2-1.3,10.6-2.1,15.9-2.5c-0.1,0-0.2,0-0.3,0c-0.7,0.1-1.4,0.1-2.1,0.2c-0.2,0-0.3,0-0.5,0.1c-0.7,0.1-1.4,0.1-2.1,0.2
			c-0.1,0-0.2,0-0.3,0c-0.6,0.1-1.2,0.2-1.9,0.3c-0.2,0-0.4,0.1-0.5,0.1c-0.7,0.1-1.3,0.2-2,0.3c-0.2,0-0.4,0.1-0.6,0.1
			c-0.6,0.1-1.1,0.2-1.7,0.3c-0.2,0-0.3,0.1-0.5,0.1c-0.6,0.1-1.3,0.3-1.9,0.4c-0.2,0.1-0.5,0.1-0.7,0.2c-0.6,0.1-1.2,0.3-1.8,0.4
			c-0.2,0.1-0.5,0.1-0.7,0.2c-0.4,0.1-0.9,0.2-1.3,0.4c-0.3,0.1-0.5,0.1-0.8,0.2c-0.5,0.2-1.1,0.3-1.6,0.5c-0.3,0.1-0.6,0.2-0.9,0.3
			c-0.4,0.1-0.7,0.2-1.1,0.3c-0.5,0.2-1,0.3-1.4,0.5c-0.3,0.1-0.6,0.2-0.9,0.3c-0.3,0.1-0.7,0.3-1,0.4s-0.5,0.2-0.8,0.3
			c-0.6,0.2-1.2,0.5-1.7,0.7c-0.2,0.1-0.4,0.2-0.6,0.2c-0.8,0.3-1.6,0.7-2.3,1h-0.1c-0.4,0.2-0.9,0.4-1.3,0.6h-0.1
			c-0.8,0.4-1.7,0.8-2.5,1.2l0,0c-29.3,14.6-49.2,43-53.1,75.4c0,0.3-0.1,0.5-0.1,0.8c0,0.4-0.1,0.8-0.1,1.2c0,0.4-0.1,0.8-0.1,1.2
			c0,0.3-0.1,0.6-0.1,0.9c0,0.7-0.1,1.3-0.1,2c0,0.3,0,0.5,0,0.8c0,0.5,0,1-0.1,1.6c0,0.2,0,0.5,0,0.7c0,0.7,0,1.5,0,2.2
			C18.7,432.4,18.8,430.2,18.9,428L18.9,428z"/>
		<path class="st28" d="M115.7,450.7c-13,0-25.9-0.8-38.7-2.5c0,0.8-0.1,1.7-0.1,2.5c0,5.3,0.5,10.7,1.4,16
			c-24.9-3.5-44.8-10.2-55.2-18.7c10.4,8.5,30.3,15.3,55.2,18.8c12.4,1.7,24.9,2.5,37.5,2.5c45.8,0,84.4-10.6,96.5-25
			c0.3-3.2,0.5-6.4,0.5-9.6c0-1.6-0.1-3.2-0.2-4.8C195.1,442.1,158.3,450.7,115.7,450.7L115.7,450.7z"/>
		<path class="st28" d="M19.1,444.2C19.1,444.1,19.1,444.1,19.1,444.2c-0.2-1.6-0.3-3.2-0.4-4.8c-0.1-1.6-0.1-3.2-0.1-4.8
			C18.7,437.8,18.8,441,19.1,444.2L19.1,444.2z"/>
		<path class="st28" d="M19.9,445c-0.3-0.3-0.5-0.6-0.8-0.9C19.4,444.5,19.6,444.7,19.9,445z"/>
		<path class="st28" d="M21.9,447c-0.3-0.3-0.6-0.6-0.9-0.9C21.2,446.4,21.5,446.7,21.9,447z"/>
		<path class="st28" d="M20.8,446c-0.2-0.2-0.5-0.5-0.7-0.7C20.3,445.5,20.6,445.7,20.8,446z"/>
		<path class="st28" d="M22.9,447.9c-0.3-0.3-0.6-0.5-0.9-0.8C22.3,447.4,22.6,447.6,22.9,447.9z"/>
		<path class="st29" d="M194.9,490.5c6.3-8.9,11-18.7,14-29.1c-9.3,8-27,14.5-49.4,18.2l-12.7,1.8c-10.4,1.1-20.8,1.7-31.2,1.7
			c-11.4,0-22.7-0.7-34-2c1.6,4.8,3.5,9.4,5.9,13.9c-1.7-0.8-3.4-1.7-5.1-2.5c1.7,0.8,3.4,1.6,5.1,2.5c8.9,4.3,18.4,8.8,28.2,8.9
			C147.9,504.3,176.5,498.6,194.9,490.5L194.9,490.5z"/>
		<path class="st29" d="M76.8,489.9c-0.1-0.1-0.3-0.1-0.4-0.2C76.5,489.8,76.6,489.8,76.8,489.9z"/>
		<path class="st29" d="M76,489.6c-0.1-0.1-0.3-0.1-0.4-0.2C75.7,489.5,75.9,489.5,76,489.6z"/>
		<path class="st29" d="M74.5,489c-0.1,0-0.3-0.1-0.4-0.1C74.2,488.9,74.4,488.9,74.5,489z"/>
		<path class="st29" d="M77.6,490.2c-0.2-0.1-0.3-0.1-0.5-0.2C77.3,490.1,77.4,490.2,77.6,490.2z"/>
		<path class="st29" d="M75.3,489.3c-0.1-0.1-0.3-0.1-0.4-0.2C75,489.2,75.1,489.2,75.3,489.3z"/>
		<path class="st29" d="M78.3,490.6c-0.2-0.1-0.3-0.1-0.5-0.2C78,490.4,78.2,490.5,78.3,490.6z"/>
		<path class="st29" d="M79.9,491.3c-0.2-0.1-0.3-0.2-0.5-0.2C79.6,491.1,79.7,491.2,79.9,491.3z"/>
		<path class="st29" d="M79.1,490.9c-0.2-0.1-0.3-0.1-0.5-0.2C78.8,490.8,79,490.8,79.1,490.9z"/>
		<path class="st29" d="M69.3,487.3c-0.1,0-0.2-0.1-0.4-0.1C69.1,487.3,69.2,487.3,69.3,487.3z"/>
		<path class="st29" d="M68.6,487.2c-0.1,0-0.2-0.1-0.4-0.1C68.4,487.1,68.5,487.1,68.6,487.2z"/>
		<path class="st29" d="M70.1,487.5c-0.1,0-0.2-0.1-0.4-0.1C69.8,487.5,69.9,487.5,70.1,487.5z"/>
		<path class="st29" d="M80.7,491.7c-0.2-0.1-0.4-0.2-0.6-0.3C80.3,491.5,80.5,491.6,80.7,491.7z"/>
		<path class="st29" d="M70.8,487.7c-0.1,0-0.2-0.1-0.4-0.1C70.5,487.7,70.7,487.7,70.8,487.7z"/>
		<path class="st29" d="M73,488.4c-0.1,0-0.3-0.1-0.4-0.1C72.7,488.4,72.9,488.4,73,488.4z"/>
		<path class="st29" d="M73.7,488.7c-0.1,0-0.3-0.1-0.4-0.1C73.5,488.6,73.6,488.7,73.7,488.7z"/>
		<path class="st29" d="M71.5,488c-0.1,0-0.2-0.1-0.4-0.1C71.3,487.9,71.4,487.9,71.5,488z"/>
		<path class="st29" d="M72.3,488.2c-0.1,0-0.3-0.1-0.4-0.1C72,488.1,72.1,488.1,72.3,488.2z"/>
		<path class="st29" d="M61.4,487.5c0.5-0.7,1.4-1.1,2.3-1c0.2,0,0.5,0,0.7,0c-0.2,0-0.5,0-0.7,0C62.8,486.4,62,486.8,61.4,487.5z"
			/>
		<path class="st29" d="M61.5,493.8c0.1,0.4,0.2,0.8,0.3,1.1C61.7,494.5,61.6,494.2,61.5,493.8z"/>
		<path class="st29" d="M24.5,463c0,0,0.1,0,0.1,0.1C24.6,463,24.5,463,24.5,463z"/>
		<path class="st29" d="M25.7,463.8l0.1,0.1L25.7,463.8z"/>
		<path class="st29" d="M63.3,498.5c0.1,0.1,0.1,0.2,0.1,0.3C63.4,498.7,63.3,498.6,63.3,498.5z"/>
		<path class="st29" d="M23.4,462.1c0.1,0.1,0.2,0.1,0.2,0.2C23.5,462.3,23.5,462.2,23.4,462.1z"/>
		<path class="st29" d="M22.5,461.4c3,10.4,7.7,20.3,14,29.1c5.4,2.3,10.9,4.2,16.5,5.8c-5.6-1.5-11.2-3.4-16.5-5.8
			C30.2,481.7,25.4,471.8,22.5,461.4z"/>
		<path class="st29" d="M26.9,464.7C26.9,464.7,27,464.7,26.9,464.7C27,464.7,26.9,464.7,26.9,464.7z"/>
		<path class="st29" d="M67.9,487c-0.1,0-0.3,0-0.4-0.1C67.6,487,67.8,487,67.9,487z"/>
		<path class="st29" d="M61.2,492.7c0.1,0.3,0.2,0.7,0.3,1C61.4,493.4,61.3,493.1,61.2,492.7z"/>
		<path class="st29" d="M81.5,492c-0.2-0.1-0.4-0.2-0.6-0.3C81.1,491.8,81.3,491.9,81.5,492z"/>
		<path class="st29" d="M67.2,486.9c-0.1,0-0.3,0-0.4-0.1C66.9,486.8,67.1,486.9,67.2,486.9z"/>
		<path class="st29" d="M82.4,492.4c-0.2-0.1-0.4-0.2-0.7-0.3C81.9,492.2,82.1,492.3,82.4,492.4z"/>
		<path class="st29" d="M66.5,486.8c-0.1,0-0.3,0-0.4-0.1C66.2,486.7,66.4,486.8,66.5,486.8z"/>
		<path class="st29" d="M65.8,486.7c-0.1,0-0.3,0-0.4,0C65.5,486.6,65.6,486.7,65.8,486.7z"/>
		<path class="st29" d="M61.3,487.8c-0.1,0.2-0.2,0.4-0.3,0.7C61.1,488.2,61.1,488,61.3,487.8z"/>
		<path class="st29" d="M65.1,486.6c-0.2,0-0.3,0-0.5,0C64.8,486.6,64.9,486.6,65.1,486.6z"/>
		<path class="st28" d="M120.3,531.5c0.3,0,0.6,0,0.9,0c0.5,0,0.9-0.1,1.4-0.1c0.3,0,0.7,0,1-0.1c0.4,0,0.9-0.1,1.3-0.1
			c0.3,0,0.7-0.1,1-0.1c0.4,0,0.8-0.1,1.2-0.1c1.6-0.2,3.1-0.4,4.6-0.7c0.2,0,0.4-0.1,0.6-0.1c0.5-0.1,1-0.2,1.6-0.3
			c0.2,0,0.3-0.1,0.5-0.1c0.6-0.1,1.1-0.2,1.7-0.3c0.1,0,0.2,0,0.3-0.1c14.3-3.1,27.6-9.4,39.1-18.5c-16.7,4.3-37.4,6.8-59.8,6.8
			c-4.1,0-8.2-0.1-12.1-0.3c5,5.2,10.5,9.9,16.5,13.9c-1.4,0.1-2.9,0.2-4.3,0.2c0.8,0,1.6,0,2.3,0c0.3,0,0.5,0,0.8,0
			C119.3,531.5,119.8,531.5,120.3,531.5L120.3,531.5z"/>
		<path class="st28" d="M108.1,531.2c-0.4,0-0.9-0.1-1.3-0.1c-2.4-0.2-4.8-0.5-7.2-0.9c-0.4-0.1-0.8-0.1-1.2-0.2
			c-5-0.9-9.9-2.2-14.7-3.8c-0.1-0.1-0.3-0.1-0.5-0.2c-2.4-0.8-4.7-1.8-7-2.8c-0.1-0.1-0.3-0.1-0.4-0.2c-4.4-2-8.7-4.3-12.8-7
			c9.7,6.3,20.5,10.8,31.9,13.3c0.1,0,0.2,0,0.3,0.1c0.6,0.1,1.1,0.2,1.7,0.3c0.2,0,0.3,0.1,0.5,0.1c0.5,0.1,1,0.2,1.6,0.3
			c0.2,0,0.4,0.1,0.6,0.1c1.5,0.3,3.1,0.5,4.7,0.7c0.4,0,0.8,0.1,1.2,0.1c0.3,0,0.7,0.1,1,0.1c0.4,0,0.8,0.1,1.3,0.1
			c0.3,0,0.7,0.1,1,0.1c0.5,0,0.9,0.1,1.4,0.1c0.3,0,0.6,0,0.9,0c0.5,0,1,0,1.5,0.1c0.3,0,0.5,0,0.8,0c0.8,0,1.5,0,2.3,0
			C113.1,531.6,110.6,531.4,108.1,531.2L108.1,531.2z"/>
		<path class="st28" d="M58.6,511.6c-0.1,0-0.2-0.1-0.4-0.1C58.3,511.5,58.4,511.5,58.6,511.6z"/>
		<path class="st28" d="M61.1,512.1L61.1,512.1L61.1,512.1z"/>
		<path class="st28" d="M55.8,510.9L55.8,510.9L55.8,510.9z"/>
		<path class="st28" d="M58.4,512.8c1.5,1.1,2.9,2.1,4.5,3.1C61.3,514.9,59.8,513.9,58.4,512.8z"/>
		<path class="st28" d="M55.8,510.9c0.7,0.5,1.4,1.1,2.1,1.6C57.2,511.9,56.5,511.4,55.8,510.9z"/>
		<path class="st28" d="M76.9,448.2c0.2-7.7,1.3-15.3,3.3-22.8l0,0l0,0c-25.9-3.4-46.7-10.3-57.3-19.1c-0.6,2.1-1.2,4.2-1.7,6.3
			c-0.1,0.3-0.2,0.7-0.2,1c-0.5,2.2-0.9,4.3-1.2,6.5c0,0,0,0,0,0.1c-0.3,2.1-0.5,4.2-0.7,6.3c0,0.5-0.1,1-0.1,1.6
			c-0.1,2.2-0.2,4.3-0.2,6.6c0-1.6,0.1-3.2,0.2-4.8C30.7,438.2,51.5,444.8,76.9,448.2L76.9,448.2z"/>
		<path class="st30" d="M19.1,444.1L19.1,444.1L19.1,444.1c0.2,0.4,0.5,0.6,0.8,0.9c0.1,0.1,0.1,0.1,0.2,0.2
			c0.2,0.2,0.5,0.5,0.7,0.7l0.1,0.1c0.3,0.3,0.6,0.6,0.9,0.9l0.1,0.1c0.3,0.3,0.6,0.5,0.9,0.8l0.1,0.1c10.4,8.5,30.3,15.3,55.2,18.7
			c-0.9-5.3-1.3-10.6-1.4-16c0-0.9,0-1.7,0.1-2.5l0,0l0,0c-25.4-3.4-46.2-10-58.1-18.4c-0.1,1.6-0.2,3.2-0.2,4.8
			c0,1.6,0,3.2,0.1,4.8C18.9,441,19,442.5,19.1,444.1L19.1,444.1z"/>
		<path class="st18" d="M89.9,402.2c2.7-4.6,5.8-9,9.2-13.2l0,0l0,0c-12.1-0.6-24.2-2.2-36.1-4.7l0,0c-0.6-0.1-1.1-0.2-1.7-0.4
			c-0.1,0-0.2-0.1-0.4-0.1c-0.5-0.1-1-0.2-1.6-0.4c-0.1,0-0.3-0.1-0.4-0.1c-1.6-0.4-3.1-0.8-4.6-1.2c-0.2-0.1-0.4-0.1-0.6-0.2
			c-0.4-0.1-0.8-0.2-1.1-0.3c-0.3-0.1-0.6-0.2-0.8-0.2c-0.3-0.1-0.7-0.2-1-0.3c-0.3-0.1-0.6-0.2-0.9-0.3c-0.3-0.1-0.6-0.2-0.9-0.3
			c-0.4-0.1-0.7-0.2-1.1-0.3c-0.3-0.1-0.5-0.2-0.8-0.2c-0.6-0.2-1.2-0.4-1.7-0.6c-0.2-0.1-0.4-0.1-0.6-0.2c-0.4-0.1-0.8-0.3-1.2-0.4
			c-0.2-0.1-0.4-0.2-0.7-0.2c-0.4-0.1-0.7-0.3-1.1-0.4c-0.2-0.1-0.4-0.2-0.6-0.2c-0.4-0.1-0.8-0.3-1.1-0.4c-0.2-0.1-0.4-0.1-0.5-0.2
			c-0.5-0.2-1.1-0.4-1.6-0.7l0,0c-1.2,1.6-2.3,3.2-3.4,4.8c-0.2,0.2-0.3,0.5-0.5,0.7c-1,1.6-2.1,3.3-3,5l0,0l0,0
			c0.5,0.3,1,0.5,1.5,0.8c0.2,0.1,0.3,0.2,0.5,0.2c0.4,0.2,0.8,0.4,1.2,0.6c0.2,0.1,0.3,0.2,0.5,0.2c0.5,0.3,1.1,0.5,1.6,0.8
			c0,0,0,0,0.1,0c0.6,0.2,1.1,0.5,1.7,0.7c0.2,0.1,0.4,0.2,0.6,0.2c0.4,0.2,0.9,0.4,1.3,0.5c0.2,0.1,0.4,0.1,0.6,0.2
			c0.6,0.2,1.2,0.5,1.8,0.7h0.1c0.6,0.2,1.2,0.4,1.8,0.7c0.2,0.1,0.4,0.1,0.6,0.2c0.5,0.2,0.9,0.3,1.4,0.5c0.2,0.1,0.4,0.1,0.6,0.2
			c0.6,0.2,1.3,0.4,2,0.6c0.1,0,0.2,0,0.2,0.1c0.6,0.2,1.3,0.4,1.9,0.6c0.2,0.1,0.5,0.1,0.7,0.2c0.5,0.1,1,0.3,1.5,0.4
			c0.2,0.1,0.5,0.1,0.7,0.2c0.7,0.2,1.4,0.4,2.1,0.5c0.1,0,0.2,0.1,0.4,0.1c0.7,0.2,1.3,0.3,2,0.5c0.3,0.1,0.5,0.1,0.8,0.2
			c0.5,0.1,1,0.2,1.6,0.4c0.3,0.1,0.5,0.1,0.8,0.2c0.7,0.2,1.4,0.3,2.1,0.5c0.2,0,0.3,0.1,0.5,0.1c0.7,0.1,1.4,0.3,2,0.4
			c0.3,0.1,0.6,0.1,0.9,0.2c0.5,0.1,1.1,0.2,1.6,0.3c0.3,0.1,0.6,0.1,0.9,0.2c0.7,0.1,1.5,0.3,2.2,0.4c0.2,0,0.4,0.1,0.7,0.1
			c0.7,0.1,1.4,0.2,2.1,0.3c0.3,0,0.6,0.1,1,0.1c0.6,0.1,1.1,0.2,1.7,0.2c0.3,0,0.6,0.1,1,0.1c0.8,0.1,1.5,0.2,2.3,0.3
			c0.2,0,0.5,0.1,0.7,0.1c0.7,0.1,1.4,0.2,2.1,0.3c0.3,0,0.7,0.1,1,0.1c0.6,0.1,1.2,0.1,1.7,0.2c0.3,0,0.7,0.1,1,0.1
			c0.8,0.1,1.6,0.2,2.4,0.2C89.7,402.2,89.8,402.2,89.9,402.2L89.9,402.2z"/>
		<path class="st30" d="M120,531.4c-6-4-11.5-8.7-16.5-13.9l0,0l0,0c-14.3-0.5-28.4-2.3-42.4-5.3l0,0c-0.8-0.2-1.7-0.4-2.5-0.6
			c-0.1,0-0.2-0.1-0.4-0.1c-0.8-0.2-1.6-0.4-2.4-0.6l0,0l0,0c0.7,0.5,1.4,1.1,2.1,1.6c0.2,0.1,0.3,0.2,0.5,0.4
			c1.5,1.1,3,2.1,4.5,3.1c0.1,0,0.1,0.1,0.2,0.1c4.1,2.6,8.3,5,12.8,7c0.1,0.1,0.3,0.1,0.4,0.2c2.3,1,4.7,2,7,2.8
			c0.1,0.1,0.3,0.1,0.5,0.2c4.8,1.7,9.7,3,14.7,3.8c0.4,0.1,0.8,0.1,1.2,0.2c2.4,0.4,4.8,0.7,7.2,0.9c0.4,0,0.9,0.1,1.3,0.1
			c2.5,0.2,5,0.3,7.6,0.3C117.1,531.6,118.5,531.5,120,531.4L120,531.4z"/>
		<path class="st18" d="M86.6,505.7c0.2-4.6-2.6-7.4-6.5-9.7c-4.9-2.9-13.5-4.9-12.9,0C67.8,500.9,86.4,510.4,86.6,505.7z"/>
		<path class="st27" d="M125.4,424.9c0,1.8-2.2,3.2-4.8,3.2c-2.7,0-4.9-1.4-4.9-3.2s2.2-3.2,4.9-3.2
			C123.2,421.6,125.4,423.1,125.4,424.9z"/>
	</g>
	<g id="Layer_2_1_">
		<rect x="634.6" y="634.6" class="st31" width="0.2" height="0.3"/>
		<polygon class="st31" points="1,1 1,1 1,1 		"/>
		<rect x="1" y="1" class="st31" width="0.2" height="0.3"/>
	</g>
</g>
</svg>
