<?xml version="1.0" encoding="utf-8"?>
<!-- Generator: Adobe Illustrator 21.0.0, SVG Export Plug-In . SVG Version: 6.00 Build 0)  -->
<svg version="1.1" id="Layer_1" xmlns="http://www.w3.org/2000/svg" xmlns:xlink="http://www.w3.org/1999/xlink" x="0px" y="0px"
	 viewBox="0 0 633.9 633.9" style="enable-background:new 0 0 633.9 633.9;" xml:space="preserve">
<style type="text/css">
	.st0{fill:#CFD1D1;}
	.st1{fill:#E3F3FF;}
	.st2{fill:#ECB928;}
	.st3{fill:#BDD0DB;}
	.st4{fill:#636D85;}
	.st5{fill:#97A1B9;}
	.st6{fill:#8F97AB;}
	.st7{fill:#A3AABB;}
	.st8{fill:#DFE0E7;}
	.st9{fill:#A3ACBB;}
	.st10{fill:#DFE2EA;}
	.st11{fill:#D8DBE3;}
	.st12{fill:#5D6679;}
	.st13{fill:#6C7692;}
	.st14{fill:#6E7894;}
	.st15{fill:#A4B0C3;}
	.st16{fill:#F1F4F9;}
	.st17{fill:#F4F2F9;}
	.st18{fill:#509BB2;}
	.st19{fill:#7FD2E5;}
	.st20{fill:#71BDE2;}
	.st21{fill:#E3E4E8;}
	.st22{font-family:'MyriadPro-Bold';}
	.st23{font-size:72px;}
	.st24{fill:#3D899B;}
	.st25{fill:#F77F7E;}
	.st26{fill:#F7F7F7;}
	.st27{fill:#616868;}
	.st28{fill:#FFFFFF;}
	.st29{opacity:0.1;fill:#FFFFFF;enable-background:new    ;}
</style>
<title>convertion</title>
<g>
	<g id="Layer_2">
		<g id="Layer_19">
			<circle class="st0" cx="315.4" cy="316.9" r="290.1"/>
			<circle class="st1" cx="317.2" cy="318.3" r="278.6"/>
			<path class="st2" d="M312.5,540.5c71.5,31.3,110.2-49.4,110.2-49.4l-40.8-19.6l80.5-31.4l28.1,81.5l-41.1-18.1
				c0,0-28,63.3-92.2,70.6c-80.3,10-107.2-49-107.2-49l13.9,1.5l9.3-17C273.3,509.7,280.2,526.4,312.5,540.5z"/>
			<path class="st2" d="M146.3,141.7l42.6,76l74.5-45.6L219.3,160c-1.5,5.4,13.9-104.7,132.3-60.8c1,1,50.2,0,50.2,0
				s-54.2-57.8-132.3-33.4c-62.6,18.7-79.1,86.7-79.1,86.7L146.3,141.7z"/>
			<polygon class="st3" points="314.3,340.9 327.8,349.2 330.8,401.2 253.3,513.2 125.8,513.2 99.8,475.2 234.7,382.7 			"/>
			<polygon class="st4" points="113.8,230.7 42.8,330.7 43.2,398.7 105.8,498.7 242.8,497.2 312.8,399.7 316.8,333.7 246.8,233.7 
							"/>
			<polyline class="st5" points="123.8,416.7 70.8,341.9 131.1,257.7 230.8,259.8 283.8,341.9 230.8,416.7 123.8,416.7 123.8,416.7 
				230.8,416.7 			"/>
			<polygon class="st6" points="111.8,434.7 105.8,498.9 242.8,497.2 242.8,434.7 			"/>
			<polygon class="st7" points="42.8,330.7 111.8,434.7 125.8,414.7 66.8,330.7 			"/>
			<polygon class="st8" points="228.8,413.7 125.8,413.7 111.8,434.7 242.8,434.7 			"/>
			<polygon class="st9" points="316.8,333.7 242.8,434.7 228.8,413.7 287.8,330.7 			"/>
			<polygon class="st10" points="248.8,231.7 316.8,333.7 287.8,330.7 232.8,245.7 			"/>
			<polygon class="st9" points="111.8,228.7 248.8,231.7 232.8,245.7 125.8,245.7 			"/>
			<polygon class="st11" points="66.8,330.7 125.8,245.7 111.8,228.7 42.8,330.7 			"/>
			<polygon class="st12" points="132.8,260.7 125.8,245.7 232.8,245.7 229.3,260.7 			"/>
			<polygon class="st13" points="278.8,339.7 229.3,260.7 232.8,245.7 287.8,330.7 280.2,341.4 			"/>
			<polygon class="st14" points="125.8,245.7 132.8,260.7 75.4,342.9 66.8,330.7 			"/>
			<path class="st15" d="M229.3,260.7h-96.5l-51.7,73.9c0,0,56.7,10.1,105.7,5.1s69.3-35,69.3-35L229.3,260.7z"/>
			<path class="st4" d="M176.5,299.4h-18.1L143.8,321c-1.5,2.3-3.1,4.6-4.5,7.1h-0.2v-28.7h-14.5v64.9h14.5v-21.2l5.5-6.8l16,28h17
				L155.1,327L176.5,299.4z M210.6,327.2v11.5h10v13.7c-2.3,0.7-4.7,1-7.1,0.9c-12,0-20.5-7.8-20.5-21.3c0-14.2,9.3-21,21.6-21
				c7.1,0,11.5,1.2,15,2.8l3.1-11.8c-3.2-1.4-9.6-3.1-18-3.1c-21.3,0-37,12.3-37.1,33.9c0,9.5,3.3,18,9.2,23.7
				c6,5.7,14.5,8.7,26.4,8.7c7.4-0.1,14.7-1.3,21.7-3.7v-34.2h-24.3L210.6,327.2L210.6,327.2z"/>
			<polygon class="st13" points="232.8,301 232.6,294.8 228.8,307.7 229.5,313.7 			"/>
			<polygon class="st4" points="176.7,299.2 176.5,292.4 169.8,293.7 168,299.7 171,306.5 			"/>
			<polyline class="st4" points="139.1,292.4 139.8,300.7 139.8,324.9 129.8,322.7 			"/>
			<polygon class="st4" points="177.8,357.3 177.8,364.3 171.1,364.3 171.1,354.7 			"/>
			<path class="st16" d="M176.5,292.4h-17.3L143.8,314c-1.5,2.3-3.1,4.6-4.5,7.1h-0.2v-28.7h-14.5v64.9h14.5v-21.2l5.5-6.8l16,28h17
				L155.1,320L176.5,292.4z M210.6,320.2v11.5h10v13.7c-2.3,0.7-4.7,1-7.1,0.9c-12,0-20.5-7.8-20.5-21.3c0-14.2,9.3-21,21.6-21
				c7.1,0,11.5,1.2,15,2.8l3.1-11.8c-3.2-1.4-9.6-3.1-18-3.1c-21.3,0-37,12.3-37.1,33.9c0,9.5,3.3,18,9.2,23.7
				c6,5.7,14.5,8.7,26.4,8.7c7.4-0.1,14.7-1.3,21.7-3.7v-34.2h-24.3L210.6,320.2L210.6,320.2z"/>
			<path class="st8" d="M124.5,339.8v17.5h14.6v-16.6C134.1,340.5,129.2,340.2,124.5,339.8z M219.7,331.6h0.9v13.7
				c-2.3,0.7-4.7,1-7.1,0.9c-7.2,0-13.1-2.8-16.7-7.8c-3.2,0.6-6.5,1.1-10,1.4c-2.1,0.2-4.2,0.4-6.4,0.5c1.5,3.4,3.6,6.5,6.2,9
				c6,5.7,14.6,8.7,26.4,8.7c7.4-0.1,14.7-1.3,21.7-3.7v-30.5C229.9,326.8,224.9,329.4,219.7,331.6z"/>
			<path class="st17" d="M177.6,357.3h-17.1l-9.3-16.3c5.4,0.1,10.9,0.1,16.4-0.1L177.6,357.3z"/>
			<path class="st3" d="M577.5,135.7H370.2c-25.9,0-46.9,21-46.9,46.9l31.2,182.7c0,25.9,21,46.9,46.9,46.9h146.8
				c25.9,0,46.9-21,46.9-46.9l31.2-182.7C626.3,156.7,603.3,135.7,577.5,135.7z"/>
			<path class="st18" d="M585.5,120.7H378.2c-25.9,0-46.9,21-46.9,46.9l31.2,182.7c0,25.9,21,46.9,46.9,46.9h146.8
				c25.9,0,46.9-21,46.9-46.9l29.2-182.7C632.3,141.7,611.3,120.7,585.5,120.7z"/>
			<path class="st19" d="M576.7,131.1H382.4c-24.3,0-44,19.7-44,43.9l0,0l0,0l29.3,171.4c0,24.3,19.7,43.9,44,43.9h137.7
				c24.3,0,44-19.7,44-43.9l0,0L620.7,175C620.7,150.8,601,131.1,576.7,131.1L576.7,131.1z"/>
			<path class="st20" d="M580.4,130.1h-97.6v259.3h69.8c24.6,0,44.6-19.7,44.6-43.9l27.7-171.4C624.9,149.8,605,130.1,580.4,130.1z"
				/>
			<path class="st18" d="M420.3,288.6h125c6.6,0,12,5.4,12,12V346c0,6.6-5.4,12-12,12h-125c-6.6,0-12-5.4-12-12v-45.4
				C408.3,294,413.7,288.6,420.3,288.6z"/>
			<text transform="matrix(1 0 0 1 447.48 347.7363)" class="st21 st22 st23">LB</text>
			<path class="st24" d="M418.1,142.2h126.7c9.9,0,17.9,8,17.8,17.9l-17.8,57.2c0,9.9-8,17.9-17.8,17.9h-91c-9.9,0-17.9-8-17.8-17.9
				l-17.8-57.2C400.2,150.3,408.2,142.2,418.1,142.2z"/>
			<path class="st25" d="M425.3,149h110.6c9.2,0.1,16.6,7.6,16.6,16.8l-14.8,45.9c0.1,9.2-7.4,16.7-16.6,16.8h-81
				c-9.2-0.1-16.6-7.6-16.6-16.8l-14.8-45.9C408.7,156.6,416.1,149.1,425.3,149z"/>
			<path class="st21" d="M433.3,154.1h96.3c8,0.1,14.5,6.6,14.4,14.6l-12.9,40.1c0.1,8-6.4,14.6-14.4,14.6h-70.5
				c-8-0.1-14.5-6.6-14.4-14.6l-12.9-40.1C418.8,160.7,425.3,154.1,433.3,154.1z"/>
			<path class="st26" d="M473.8,172.7c-18.3,0-35,3.6-47.5,9.4l-4.1-12.7c0-7.5,6-13.5,13.5-13.6h89.7c7.5,0,13.5,6.1,13.5,13.6
				l-6.3,19.5C520.1,179.1,498.4,172.7,473.8,172.7z"/>
			<path class="st27" d="M489.3,199.8c0,3.8-3.1,7-6.9,7s-7-3.1-7-6.9c0-2.7,1.6-5.2,4-6.3l3.6-29.7l2.3,29.7
				C487.7,194.6,489.3,197.1,489.3,199.8z"/>
		</g>
	</g>
	<path class="st28" d="M0,0L0,0L0,0z"/>
	<path class="st28" d="M633.9,633.9L633.9,633.9L633.9,633.9z"/>
	<path class="st28" d="M0,0L0,0L0,0z"/>
	<path class="st28" d="M633.9,633.9L633.9,633.9L633.9,633.9z"/>
	<path class="st28" d="M0,0L0,0L0,0z"/>
	<path class="st28" d="M633.9,633.9L633.9,633.9L633.9,633.9z"/>
	<path class="st28" d="M0,0L0,0L0,0z"/>
	<path class="st28" d="M633.9,633.9L633.9,633.9L633.9,633.9z"/>
	<path class="st28" d="M0,0L0,0L0,0z"/>
	<path class="st28" d="M633.9,633.9L633.9,633.9L633.9,633.9z"/>
	<path class="st28" d="M0,0L0,0L0,0z"/>
	<path class="st28" d="M633.9,633.9L633.9,633.9L633.9,633.9z"/>
	<path class="st28" d="M0,0L0,0L0,0z"/>
	<path class="st28" d="M633.9,633.9L633.9,633.9L633.9,633.9z"/>
	<path class="st28" d="M0,0L0,0L0,0z"/>
	<path class="st28" d="M633.9,633.9L633.9,633.9L633.9,633.9z"/>
	<g id="Layer_2_1_">
		<rect x="633.6" y="633.6" class="st29" width="0.2" height="0.3"/>
		<path class="st29" d="M0,0L0,0L0,0z"/>
		<rect class="st29" width="0.2" height="0.3"/>
	</g>
</g>
</svg>
