<?xml version="1.0" encoding="utf-8"?>
<!-- Generator: Adobe Illustrator 21.0.0, SVG Export Plug-In . SVG Version: 6.00 Build 0)  -->
<svg version="1.1" id="Layer_1" xmlns="http://www.w3.org/2000/svg" xmlns:xlink="http://www.w3.org/1999/xlink" x="0px" y="0px"
	 viewBox="0 0 633.9 633.9" style="enable-background:new 0 0 633.9 633.9;" xml:space="preserve">
<style type="text/css">
	.st0{fill:#CFD1D1;}
	.st1{fill:#5BD1DD;}
	.st2{opacity:0.49;fill:#3CBFB8;enable-background:new    ;}
	.st3{fill:#F2F266;}
	.st4{fill:#48A3A3;}
	.st5{fill:#A4BC4A;}
	.st6{fill:#FFFFFF;}
	.st7{fill:#06ADC7;}
	.st8{fill:none;stroke:#143C4A;stroke-width:3.6631;stroke-miterlimit:10;}
	.st9{fill:#306275;}
	.st10{fill:#265364;}
	.st11{fill:#98B33B;}
	.st12{opacity:0.1;fill:#FFFFFF;enable-background:new    ;}
</style>
<g>
	<g id="Layer_1_1_">
		<title>World Timezones</title>
		<g id="Layer_2">
			<g id="Layer_1-2">
				<circle class="st0" cx="316.4" cy="315.9" r="289.9"/>
				<path class="st1" d="M593.4,315.5c0,152.9-124,276.9-276.9,276.9S39.6,468.4,39.6,315.5c0-153,124-276.9,276.9-276.9
					C469.5,38.6,593.4,162.5,593.4,315.5z"/>
				<path class="st2" d="M316.5,38.6c-152.9,0-276.9,124-276.9,276.9s124,276.9,276.9,276.9s276.9-124,276.9-276.9
					C593.4,162.5,469.5,38.6,316.5,38.6z M346.6,498.9c-117.9,0-213.5-95.6-213.5-213.5S228.7,71.9,346.6,71.9
					s213.5,95.6,213.5,213.5S464.5,498.9,346.6,498.9L346.6,498.9z"/>
				<path class="st3" d="M474.8,450.3c-0.5,1-1,2.1-1.5,3.2c-1.2,2.5-1.6,5.3-1.3,8c0.6,3.7,2.9,1,4.2,3c0,0.1,0,0.2-0.1,0.3
					c3.1,4.5,12.7-14.1,14.7-17.2c2.3-3.6,4.4-7.4,6.2-11.3c1.1-2.6,1.8-5.4,2.1-8.2C491.7,436.1,483.5,443.5,474.8,450.3z"/>
				<path class="st3" d="M499.2,428.1c0.3-1.7,0.5-3.3,0.9-5.1c1.5,4.1,3.3-4.8,3.4-6.6c0.1-2.6,0.6-7,0.1-9.5
					c-2,0.4-3.8,4.4-5.3,6.5c-3,4.1-6.6,7.8-10.8,10.8c-5.5,4.3-7.1,8.1-8.5,14.6c-1,4-2.4,7.9-4.3,11.5
					C483.5,443.5,491.7,436.1,499.2,428.1z"/>
				<path class="st3" d="M505.1,112.7c-0.4-0.2-14.4,1.2-14.6,1c-2.5-1.4-5.9-5.4-7.9-5.6c1.4,3,4.5,6,7.1,9.3
					c1.5,1.8,2.8,3.8,3.6,6c0.7,1.9,0.6,4-2.4,0.4c-2.3-2.6-1.7-3.8-2.5-5.7c-1.4-2.4-3-4.7-4.9-6.8c-3.2-3.9-6.5-8.4-10.2-10.6
					c-3.4-2-2.6,3.3,0.1,7.1c1.4,2,4.7,4.7,1.6,3.4c-2-0.8-4.1-3.9-6.2-5.7c-4.2-3.7-7.7-2.5-11.1-3.5c-1.4-0.4-2.8-1-4.1-1.4
					c59.4,35.4,97.8,97.7,102.8,166.7c1.6,1.3,3,2.8,4.3,4.4c1.7,2.2,1.2,4.4,3.1,6.6c1.4,1.5,4.4,4,6.1,3.8
					c0.2-1.8,0.7-3.9,2.7-3.1c3.3,1.3,3.1,6.3,3.5,8.8c0.9,5.6,5.4,11.9,7.5,17.1c2.2,5.4,2.3,11.4,3.4,17c0.7,3.6,4.9,5.5,6.3,4.6
					C597.9,218.3,539.4,143.6,505.1,112.7z"/>
				<path class="st3" d="M395.5,495c1.4,4.3-1.7,11.3,2.5,12.6c0.4,1.4,0.6,2.1,0.9,3.4c2.4-0.4,4.2-1.4,6.3-2.8
					c2.8-1.9,3.7-1.2,6.6-1.8c4.6-1.1,9.2-5.9,13.1-9.5c4.6-4.1,8.4-7.6,12-12.9c1.6-2.3,2.7-5,3.3-7.7c0.3-1.4,0-2.8,0.1-4.2
					c-14.8,7.5-30.5,13.2-46.7,17C394.4,491,395,493,395.5,495z"/>
				<path class="st3" d="M453.6,100.7c-2.7-0.9-5.1-1.6-7.2-0.3c-1.3,0.9-2.3,2.7-4.8,0c-2-2.2-2.8-5.6-5.3-4.7
					c-1.9,0.7,0.1,3.4-0.3,5.3s-2.6,1.3-3.9,2.3c-1.6,1.2-1.4,2.1-4.2,1.1c-1.9-0.7-5.2-1.9-4.5-4.6c0.6-2.1,10.9,3.5,7.6-3.1
					c-1.7-3.3-9-7.4-11.4-8.5c-2.2-1.1-4.4-1.7-6.7-2.7c-2.3-1.1-3.2-2-5.2-3.6c-3.9-3.2-8.4-3.1-12-3.1c-3.7-0.1-7.4,0.4-11,1.2
					c-3.5,1-5.7,5.7-8.2,8.6c-2.6,3-5.8,5.2-8.8,8.1c-2,1.9-3.4,2.5-5.9,3.7c-1.9,0.9-3.6,1.8-3.4,4.8c0.2,2.3,2,5.6,3.1,7.6
					c1.9,3.6,2.8,3.4,5.6,2.3c4.6-1.8,7.8-1,10.9,5.4c1.2,2.4,0.3,6.7,2.4,8.6c1.5,1.4,4.4,0.1,5.4-1.3c1.4-2,0.2-3.8,0.7-6.1
					c0.5-2.4,2.6-4.5,3.7-6.4c1.6-2.8,0.6-2.6-0.3-5.9c-0.6-2.2-0.3-5.2,0.7-6.7c1.2-1.7,3-2,4.1-3.7c0.8-1.2,3.3-4,5.7-1.1
					c2.3,2.8-4.2,8.1-4.1,11.1c0.1,6.9,7,7.3,10.7,6.9c1.8-0.2,4.5-1.9,6.7-0.7c2.8,1.6,2.6,3.8,0.4,3.9c-1.9,0.1-5.2-2-7-1.2
					c-2.5,1.1,0.4,3.4,0.3,6c-2.2,0-4.1-2.9-6.2-2.6c-2.7,0.4-1.4,4.1-1.1,6.7c1.1,8.7-5.5,1.9-10.4,2.6c-2.8,0.4-3.3,2.3-6.3,1.6
					c-2-0.5-4.4-0.2-6.3-1.2c-3.6-1.9-2.6-3.7-2.4-6.5s-0.9-4.7-1.6-7.5c-3.3-1-5.5,5.1-4.9,8.3c1,5.3,2.9,6.8-3.1,6.6
					c-5.4-0.2-6.8,4.8-10.8,8c-3.5,2.8-7.2,6.6-11.5,8.8c-2,1-14.4-1.8-9.6,5.4c3.1,4.6,8.6,5.4,8.4,12.9c-0.2,7.7-7.3,3.8-12.3,3.4
					c-2.5-0.2-5.9-0.2-7.9,1.4c-2.7,2.2-1.8,4.5-2.3,7.7c-0.7,5.5-3.6,10.3-2,16c2.1,7.2,8.9-1.3,10.8,7.2c0.7-0.6,1-0.9,1.7-1.5
					c1.2,1.9,6.2,0.4,8.1-0.3c5.5-1.8,6.9-7.2,10.1-11.7c1.8-2.5,4.1-2.9,6-5.1c2.4-2.8,0.8-5.1,1.9-8c1.3-3.1,4-0.7,6.4-0.4
					c3.9,0.5,3.3-1.5,5.7-3.2c3.1-2.3,9.9,2.6,12.9,5.5c3.7,3.5,8.9,6.6,12,10.8c1.5,2,2.1,5.3,0.1,7c-1.6,1.4-6.2-2-6.7,1
					c-0.3,1.7,4,4.9,5.1,5.2c2.4,0.6,3.5-1.4,5.2-3.1c2-2,2.3-3.1,1.9-6.3c-0.6-4.2-0.9-3.8,3.1-3.8c-0.5-2.7-3.6-3.2-5.4-4.2
					c-2.3-1.4-2.7-2.7-4.4-4.7c-2.8-3.1-9.3-6.6-10.2-11.2c-1.5-8.2,8.4,0.8,10.4,2.7c3.9,3.7,9.6,6.9,12.3,12
					c1.6,2.9,1.3,6.1,2.8,8.9c1.1,2.2,3.2,3.7,4.1,6c1.1,2.6,1,6.7,4.3,7.2c3.9,0.7,1.7-3.6,1.1-6c3.6,0.9,1.9-1.6,1.1-3.4
					c-1.1-2.6-2.9-4.4-1.2-7c2.6-3.8,7.6-0.2,11.1,0.5c9.6,1.9-0.9-6.7,0-11c0.7-3.4,4.4-9.9,7.6-9.2c1.3,0.4,2.5,1,3.5,1.8
					c0.9,0.9,0.5,2.1,1.5,3.1c2.6,2.6,4,0.2,6.4,0c3.9-0.3,9.2,4.9,12.9,7.7c4,3.1,11.7,7,7,11c-3.7,3.1-8.7-1.4-13.9-1.8
					c-2.4-0.2-4.5,0.3-7.1-0.3s-5.1-1.8-7.6-1.3c-2.1,0.4-3.4,2.3-5.4,2.8c-2.9,0.8-5.1-1.4-4.2,2.7c1.3,5.8,3.3,10.9,9.1,11.5
					c5,0.5,9.7-0.2,14.6,0.2c3.8,0.3,4.3,0.9,4.2,4.7c-0.1,2.8,0,5.5,0.3,8.3c0.5,5.6,1.1,11.9-5,11.9c-5,0-10.7-1.6-16.1-2
					c-2.6-0.2-5.3-0.2-7.8-1.2c-2.4-1-4.9-2.5-7.5-3.1c-1.7-0.4-6.7-1.3-8-0.3s-0.1,2.5-1.1,3.7c-0.9,1.2-1.5,0.6-2.9,0.9
					c-6.3,1.6-7.3-2.9-12.4-6.3c-2.5-1.7-5.4-2.6-7.7-4.5c-2.3-1.9-2.3-4.1-4.2-6.5c-1-1.3-2.6-1.8-3.2-3.4
					c-0.5-1.3,0.3-3.2-0.2-4.5c-1.4-3.7-3.9-1.9-7-2.5c-5.1-1-10.3-1.3-15.4-1.1c-5.3,0.1-9.1,2.7-13.8,5.2c-2.2,1.2-4.4,3.1-7,3
					c-2.4-0.1-3.9-2.3-6.4-2.4c-5.5-0.1-8,6-11.4,10.2c-1.4,1.8-4.1,3.3-5.2,5.3c-1.6,2.8-0.3,5.9-1.3,9
					c-5.3,16.1-33.9,17.6-35.7,36.8c-0.5,6,3.1,12.2,3,18.6s-2.2,11.4-2.2,17.8c0,12,7.7,23.7,18.6,29c7.5,3.6,6,5.1,10.4,11.9
					c4,6.1,9.3,6.6,16.3,6.7c6.8,0.1,12.3-0.1,18.6-2.8c6-2.6,10.5-7.2,16.1-2.3c10,8.6,10.7,22.8,11.3,34.7
					c0.6,12.4,9.3,19.2,11.1,30.4c2.3,14.1-2.3,28.1-2.2,42.1c0.1,15,8.4,22.1,15.1,34.2c0.1,0.2,0.2,0.4,0.3,0.6
					c16.2-3.8,31.9-9.5,46.7-17c0.1-1,0.5-2,1.1-2.8c0-0.2,0-0.4,0.1-0.6c3.8-2.8,10.3-5.1,10.7-11.6c0.2-2.8-2-3.8-1.2-7.1
					c0.7-2.8,3.2-5.8,5-8.1c2.3-3,4.5-6.3,7.3-8.8c2.5-2.1,5-3,7-5.9c4-5.9,3.1-11.6,4.6-17.8c1.1-4.4,0.5-4.1-0.9-7.8
					c-1-2.3-1.1-4.9-0.3-7.3c0.6-1.4,1.7-1.1,1.9-3.2c0.1-1.5-1.2-1.8-1.2-3c-0.2-3,1.5-5.2,2.6-7.9c1.2-2.9,1.7-5.1,3.5-7.8
					c2-2.5,4.1-4.9,6.4-7.1c4.7-4.9,8.3-10.6,13.1-15c7.8-7,11.3-20.7,13.1-30.9c0.5-2.8,2.1-5.6-0.4-6.8c-2-1-5,0.3-6.7,1.3
					c-4.2,2.5-8.8,5.9-13.7,5.5c-5.4-0.4-8-5.6-9.1-11.3c-2.2-1.4-2.5-3.8-4.1-5.9c-1.5-2.1-3.8-3.1-5.1-5.3
					c-1.3-2.2-1.4-5.3-2.8-7.4c-1.9-3.1-3.3-3.2-3.9-7.1c-0.5-3.1-0.3-5.7-1.9-8.5c-1.7-2.9-3.8-2.9-5.8-4.9c-5-5.1-4.6-11-6.7-17.3
					c-1-3-5.4-13.6-2.7-15.7c2.3,3,3.2,4.5,5.8,3.7c2.8-0.9,2.8-2.5,5,1.8c2.5,4.7,3.6,8.1,7.1,12.4c3.6,4.4,6.6,9.2,8.9,14.5
					c1.3,3.1,1.4,6,2.3,9.1c0.8,3.1,2.3,3.6,4.4,5.9c3.4,3.6,7.5,8.3,8.1,13.3c0.7,5.1-1.7,13.2,5.2,13.1c4.5-0.1,9.7-4.1,13.9-5.6
					c6-2,8-6.4,12.1-11.2c3.7-4.3,7.5-7.1,8.4-13c0.2-1.5-0.1-2.2,0.6-3.6c0.7-1.4,2.4-1.5,2-3.8c-0.4-1.9-3.1-3.9-4.5-5.4
					c-1.6-1.7-3-3.8-4.3-5.3c-2.5-2.8-2.7-1.5-3.9,1c-1.9,3.7-9.2,5.1-12.4,0.5c-2.1-3-1-5.3-4.6-7.7c-2.6-1.7-4.7-1.7-5.9-5.4
					c-1.5-4.6-2.9-15,3.9-9.8c2,1.6,2.7,4,4.1,6c1.8,2.6,3.9,5,6.2,7.2c4.1,3.7,8.8,1.8,12.5,5.9c2.1,2.3,2.2,2.8,4.9,3.8
					c2,0.7,4.3,1.9,6.3,2.5c5.2,1.6,9.3-2,14.3-1c2.1,0.5,4,1.4,5.7,2.8C551.4,198.4,513,136.2,453.6,100.7z"/>
				<path class="st3" d="M327.6,127.1c-1.4,0.8-2.2,2.6-3.4,3.6c-1.8,1.5-4.1,0.9-5.9,2.3c-1.3,1.5-1.7,3.5-1.1,5.4
					c0.8,1.9,3.6,1.4,3.5,3.5v0.3c0.6,0,0.9,0,1.4,0c2.4-2.2,6.9-3.3,7.7-7.3c0.1-1.1,0.2-2.1,0.5-3.2c0.4-1.1,1.2-0.9,1.3-2.3
					C331.7,126.6,329.2,126.2,327.6,127.1z"/>
				<path class="st3" d="M314.7,83.3c0.2-2.5-2.2-2.8-3.7-2c-1.4,0.8-2.1,2.5-3.3,3.5c-1.7,1.5-3.8,0.9-5.5,2.4
					c-1,0.9-6.6,3.8-6,5.5c0.7,1.8,3.2,1.2,3.1,3.1c0,0.1,4.9-0.2,4.9-0.2c0.5,0,0.8,0,1.3,0c2.3-2.2,10.5-1.9,11.3-5.6
					c0.2-1-0.4-2.7,0-3.7C317.2,85.2,314.6,84.6,314.7,83.3z"/>
				<path class="st3" d="M346.2,134c-0.5-1.5-0.8-0.9-1.6-1.7c-0.9-0.9-2.9-2.2-3.2-3.8c-0.3-1.8,0.9-1.6,1.1-2.7
					c0.3-1.4-0.2-1.1-0.4-2.4c-0.3-1.5-0.4-1.1-0.1-2.3c0.2-1,1.2-1.2,0.9-2.5c-0.6-2.6-3.4-1.1-4.5-3.3c1.3-0.7,2.5-2.7,0.7-4.3
					c-1.4-1.3-3.8,0.2-4.9,1.3c-2.4,2.5-3.5,8.5-1.6,11.9c0.9,1.7,2.6,2.2,2.9,4.2c0.3,1.9-0.8,3.5-1.1,5.2c-0.2,1.9,0.6,4.4-0.3,6
					c-1.3,2.3-2.5,2.2-2.7,5.3c0.6,0.4,0.9,0.7,1.4,1.1c0.7-1.1,3.7-0.5,5-0.9c1.7-0.5,2.7-2.4,4.4-3c1.2-0.5,4.7,0.7,5.5-0.2
					c1.8-1.8-1.6-3.5-2-5.1C345.6,135.9,346.5,135.2,346.2,134z"/>
				<path class="st3" d="M301.4,72.4c1.7-0.9,3.6,1.4,4.4-0.9c0.8-2.2-2.1-2.9-1.4-5s3.6-1.1,5.1-1.3c3.5-0.5,3.7-3.5,3.8-6.9
					c1.8-0.9,2.4-1.9,2.6-4c0.3-2.7,0.4-3.7,2.6-5.1c2.9-1.8,6.1-2.2,8.7-4c0.7-0.5,3-2,2.6-3.3c-0.4-1.2-3.5-0.9-4.5-0.8
					c-4.4,0-8.8,2.1-13.4,2c-8.3-0.4-15.7-3.7-23.8-2.9c-5.4,0.5-10.7,2-15.5,4.4c-5,2.6-9.8,3.8-14.8,5.5c-2.4,0.8-4.5,2-7,2.6
					c-2.5,0.7-4.9,1.7-7.1,3.1c-3.5,2-7.2,5.1-10.5,6.6c-2.4,1-8.5,3.1-5.2,5.9c1.8,1.5,4.9,0.2,7.6-0.1c1.8-0.1,3.6,0.5,4.9,1.6
					c2,1.7,0.3,2.4-0.4,5.1c-0.8,3.2,1.8,1.4,3,2.3c2,1.5-1.4,2.3-2.8,3c-0.4,2-0.3,3-1.8,4.4c-1.3,1.3-2.4,1.6-3.7,3.4
					c-2.2,3.3-3.6,7-4.3,10.9c-0.3,1.8-0.4,3.7-0.3,5.5c21.4-13.8,45.1-23.6,70-28.9C300.3,74.3,299.7,73.2,301.4,72.4z"/>
				<path class="st3" d="M234.5,114.5c0.6-0.3,0.9-0.4,1.6-0.7c1.4,5.6,7.7,0.3,10.3-3c1.5-1.9,2.4-3.9,4.2-5.7
					c1.8-1.7,3.9-3,5.6-4.8c1.8-1.8,2.8-3.7,4.2-5.6c1.5-2.1,3.3-2.6,5.3-3.3c3.9-1.4,7.7-1.4,11.1-4.6c3.2-3.4,7.5-5.4,12.1-5.8
					c2.6-0.3,10-0.7,11.3-4.2c0.1-0.4,0.2-0.8,0.1-1.3c-24.9,5.3-48.6,15.1-70,28.9C230.4,109.9,231.3,116.8,234.5,114.5z"/>
				<path class="st3" d="M198.9,77.4c1.4-0.3,3-1.4,4.4-2.1c2.6-1.1,6-0.5,8.8-2.6c1.1-0.8,3.1-3.5,4.4-4.6c1.6-1.2,3.3-2.3,5-3.2
					c2-1.2,4.1-2.3,6.3-3.2c2-0.8,2.9-2,4.9-3.4c3.3-2.4,6.7-3.1,10-4.8c3.3-1.8,6.6-4,9.8-5.6c1.5-3.2-6.2,0-7.5,0.2
					c-4.1,1-8.1,2.3-12,4.1c-6.3,2.6-12.2,3.2-18.3,6.4c-1.6,0.9-7.4,3.7-5.7,5.3c0.8,0.7,6.9-2.3,4.2,1.8c-1.5,2.2-6.4,4.6-8.2,5.6
					c-2.9,1.7-5.5,3.4-8.3,5.3c-0.6,0.5-1,0.7-1.6,1.2C196.5,76.6,197.7,77.6,198.9,77.4z"/>
				<path class="st3" d="M195.4,74.2c1.5-0.3,3-0.9,4.3-1.7c1.6-1,3.1-2.1,4.7-2.9c0.7-0.4,1.5-0.8,2.3-1.1c0.7-0.1,1.4-0.3,2-0.6
					c0.4-0.3,0.7-0.5,1.1-0.9c0.2-0.4,0.3-0.6,0.6-1.1c-0.8-0.7-2.1-0.5-3-1s-2.4,0-4.1,1.1c-1.1,0.7-2,1.7-3.1,2.4
					c-0.8,0.6-1.7,1.1-2.5,1.6c-0.7,0.4-3.8,1.4-4.3,2.3C193,73.3,194.8,74.3,195.4,74.2z"/>
				<path class="st3" d="M181.7,97.6c2.7-0.7,5.3-1.7,7.8-3.1c1-0.6,2.2-1.4,3-1.5c0.3,0,0.2,0.4,0.7,0.3s0.8-0.6,1.3-0.9
					c2.3-1.6,2.1,1.4,2.7,2.6c0.9,1.9,0.6,4.7-2.3,7.4c-1.1,1-2.2,2.1-3.1,3.2c-0.6,1-1.6,1.8-2.8,2.1c-0.3,0.1-0.5,0.2-0.8,0.2
					c-0.7,0-1.1,0-1.8,0c-1-0.2-2-0.1-3,0.1c-1.2,0.3-1.9,1.1-3.1,2.2c-3.3,3.1-0.6,3.3,1.5,2.6c2.6-0.8,4.6-1.8,5.9-0.1
					c1.2,1.5,2.2,3.1,4.2,3.7c0.7,0.2,2.8,0.9,3.8,0c1.6-1.5,0.3-2.6,0.5-3.6c0.2-1.2,1.5-1.3,2.2-1.4c1.3-0.1,2.2-0.3,3.5-2.1
					c2.4-3.3,1.7-4.6,1.5-7.2c0-1.4,0.9-2.6,2.3-3c1.3-0.2,1,1.9,2,2.3c2.6,1,9.3-5.8,5.3-6.6c-1.7-0.3-4.2,0.4-4.6-1.6
					c-0.4-1.7,0.4-2.3,1.8-4.1c2.8-3.6-2.8-4.7-4.5-4.8c-1.3-0.1-2.5,0.1-3.7,0.5c-1.8,0.6-3,0.6-4.9,1.9c-1.1,0.7-3,2.4-3.3,1.6
					c-0.3-0.9,0.6-2.3-0.8-2.1c-1.3,0.3-2.8,2.2-4.2,3.5c-1.1,1.1-2.3,2.1-3.7,2.9c0-1.2,0.5-2.3,1.4-3.2c1.1-1.3,1.5-2,0.1-1.6
					c-1.6,0.5-4.7,3.7-6.3,5.4c-1.1,1.2-2.3,3-2,3.8C178.8,98.4,180.5,98,181.7,97.6z"/>
				<path class="st3" d="M201.8,84c0.1,0.3,0.1,0.5,0.2,0.8c0.7-0.3,1.8-1.5,2.7-2c0.7-0.3,1.5-0.6,2.2-0.9c0.8-0.6,1.2-1.6,0.5-1.8
					c-0.4-0.2-1.4,0.4-1.9,0.4c-1.2,0.2-2.5-0.3-4,0.6c-0.9,0.5-1.5,1.4-1.6,2.5C199.9,84.3,201.1,84.1,201.8,84z"/>
				<path class="st3" d="M176.7,94c1.4-0.8,2-0.7,3.5-1.9c1.3-0.9,2.4-2,3.3-3.2c0.2-0.3,0.4-0.5,0.6-0.8c-1.5,0.5-3.4,1.5-4.8,1.8
					c-0.5,0-1,0.1-1.5,0.3c-0.4,0.3-0.6,0.8-0.9,1.2c-0.4,0.4-0.7,0.7-1.1,1c-0.9,0.8-3.7,3.3-3,3.9C173.3,96.8,175.7,94.6,176.7,94
					z"/>
				<path class="st3" d="M191.7,84c1.2-0.6,2.4-1,3.6-1.4c1-0.2,1.7,0.4,2.8,0c0.3-0.1,0.4-0.1,0.7-0.2c0.8-1.3,3.4-2.2,4.5-3.3
					c0.7-0.7,1.9-2.2,1.9-3s-1.3-0.3-2,0c-1.1,0.6-2.2,1.2-3.2,1.9c-1.2,0.7-2.6,1.3-4,1.5c-1.6,0.3-3.7,1-4.8,0.6
					c-0.7-0.2-1.3-0.4-2.6,1.3c-0.9,1.4-2,2.6-3.1,3.8C185.9,86.8,189.7,84.8,191.7,84z"/>
				<path class="st3" d="M162.5,103.6c0-0.1,0-0.1,0-0.2c1.4-0.2,3.8-2.1,5.5-3.9c0.8-0.9,1.6-1.9,2.3-2.8c0.6-0.8,1.8-2,2-2.8
					c0.1-0.8-1.3,0.1-2.1,0.7c-1.1,0.8-2.3,1.5-3.6,2.1c-1,0.3-1.2,0.3-2.4,2c-0.7,1.1-1.6,2-2.7,2.7c-1.4,0.9-1.5,1.4-1.2,2.2
					C160.5,104.1,161.3,104.3,162.5,103.6z"/>
				<path class="st3" d="M175.2,89.4c0.7-0.4,1.4-0.8,2-1.4c0.7-0.7,1.5-1.3,2.3-1.8c0.7-0.4,1.6-0.9,1.7-1.9c0.1-1.4-2.2-0.1-3.5,1
					c-0.7,0.6-1.3,1.2-1.9,1.8c-0.7,0.7-1.5,1.1-2.2,1.9c0.1,0.1,0.1,0.1,0.2,0.2C173.3,89.9,174.7,89.6,175.2,89.4z"/>
				<path class="st3" d="M162.5,122.1c1.4-0.6,2.6-1.4,3.6-2.5c1-1,1.7-1.2,2.4-1c0.5,0.1,1.1,1.2,2.1,0.4c0.7-0.8,0.9-2,0.5-2.9
					c-0.4-0.8-0.9-0.9-1.1-1.9c-0.2-1.3-1.9-1.3-3.7,1.1c-0.7,1.1-1.5,2.1-2.4,3s-2.8,2.2-3.3,3.5v-0.1
					C159.9,123.3,161.5,122.4,162.5,122.1z"/>
				<path class="st3" d="M151.1,103.3c1.7-1.1,3.4-2,5.2-2.9c2.1-0.8,4-1.8,5.8-3.1c-0.2,0.1-0.3,0.1-0.5,0.2
					c0.6-0.4,4.7-3.1,3.9-3.6c-0.2-0.1-0.7,0.3-0.9,0.3c-0.4,0-0.1-0.2-0.1-0.6c0-0.6-0.1-0.8-1.1-0.2c-0.9,0.6-1.8,1.7-2.8,2.5
					c-1.1,0.8-1.7,1-2.2,0.9c-0.9-0.2-2.1,0.4-4.1,2.1c-1.5,1.3-4.3,2.8-5.5,4.8C147.8,105.5,149.9,104,151.1,103.3z"/>
				<path class="st3" d="M136.8,120.3c2.2-1.5,4.4-3.3,6.1-3.8c0.9-0.3,2.9-1.5,3-0.6c0.6,0,0.8-0.1,1.4-0.1c1.8-1.3,3.4-2.7,5-4.3
					c2.3-2.5,0.1-2.1,1.4-4.3c0.6-1,1.6-1.8,2.1-2.9c0.6-1.1,0.4-1.5-0.6-1c-1.5,0.8-5.7,6.3-6.2,5.2c-0.2-0.4,0.4-1.2-0.8-0.5
					c-0.7,0.4-1.9,1.6-2.5,1.9c-0.7,0.3-0.3-0.5-1.1-0.2c-0.5,0.2-1.6,1.2-1.9,1.3c-0.5,0.1,0.2-0.9,0.4-1.4c0.4-1-0.2-0.7-1-0.2
					c-0.8,0.4-1.5,0.9-2.2,1.2c-0.6,0.3-1,0.3-1.6,0.7c-1.5,0.9-3.7,2.8-5.5,4.1c-2.3,1.7-5.2,4.8-7.6,6.8c-0.6,0.5-2.4,2-2.6,2.7
					c-0.1,0.2,0.7-0.1,0.9-0.2c0.9-0.6,1.7-1.3,2.5-2c1.4-1.2,2.4-1.7,3.8-2.7c1.1-0.9,2.2-1.8,3.4-2.5c0.5-0.1,0,0.3-0.7,1.1
					c0.1,0,0.2,0.2,0.4,0.2s0.9-0.5,0.9-0.3c0,0.6-1.9,1.9-2.4,2.2c-0.9,0.5-1.5,1-1.6,1.8c-0.1,0.6,0.3,0.5-1.1,1.8
					c0.1,0.3,1-0.3,1.4-0.3c0.5,0-0.1,0.8,0.4,0.7c0.6-0.1,2.2-1.5,3-2.2C134.7,121.6,135.7,121.1,136.8,120.3z"/>
				<path class="st3" d="M199.8,155.3c-0.9,0.1-1.6,1-2.3,1.4c-0.5,0.4-0.8,0.6-1.3,1c-3.1,1.4-3.5-2-1.3-4.6c0.7-0.9,2.5-2,2.4-3.4
					c-0.2-2-2.3,0.4-3,1.4c-2.8,3.5-4.8,8-8.4,10.6c-1.5,1.1-3,1.6-4.2,3.3c-1.2,1.6-1.7,2.9-0.3,3.3c1.3,0.2,2.6-0.1,3.8-0.7
					c1.3-0.7,2.3-2.2,3.7-2.6c1.1-0.1,2.3-0.1,3.3,0.3c1.1,0.2,1.7,1.3,2.8,1.5c3.4,0.9,2.9-2.6,3.6-5c0.4-1.2,0.7-3,1.2-4.1
					C200.3,156.4,201.9,154.9,199.8,155.3z"/>
				<path class="st3" d="M161.2,166.9c0.1-4.7,6.8-5.9,10.7-6.4c6.6-9.3,13.9-18.1,21.9-26.2c0-0.3,0-0.5,0-0.8c0.4-5.4,4-14-4-7.8
					c-1.9,1.4-5.2,3.6-6.4,2.3c-1.1-1.2,0.1-4-0.9-5.2c-1.4-1.8-5.7-3.6-9-1.2c-1.5,1.1-4.5,6-5.9,7.8c-1.6,2-4.9,4.6-5.9,6.5
					c-0.7,1.3-0.2,2.2-0.8,3.6c-0.9,1.6-2.1,3.1-3.4,4.3c-2.4,2.6-5.2,4.3-7.5,7.2c-2.4,3.1-3.3,5-6.3,7.7c-2,1.8-4.3,3.9-6.4,5.6
					c-0.2-1.7,1.1-5,2.2-7.2c1.8-3.7,2.7-4,0.4-5c-2.5-1.1-5.5-2.2-9-1.2c-2.2,0.7-4.4,2-3.5-0.9c0.4-1.3,1.6-2.3,2-3.4
					c0.5-1.3-0.1-1.6,0.3-2.7c1.4-4.1,8.9-8.5,12.3-11.2c2.7-2.1,5.2-3.5,7.8-5.3c2.5-1.9,4.9-4,7.1-6.2c4.1-4,8.5-7.7,13.1-11.1
					c3.7-2.6,7.1-1.8,10.6-7.7c4.3-7.3-7,4.4-8.6,5.7c-2.4,1.8-4.2,2.2-2-1.4c-0.5,0.1-0.7-0.3-1.4,0c1.2-2.4-0.3-2.1-1.9-1.3
					c-0.1-1.1,1-2.7,2.3-3.9c-3.9-0.2-7,6.8-10.8,10.4c-4.6,4.3-6.6,3.5-11,6.4c-2.1,1.4-4.5,3.3-6.3,3.9c-1.7,0.6-2.7-0.1-4.6,0.7
					c-4.1,1.8-9.2,5.4-13.4,7.7c-2.7,1.4-2.7,0.6-3.8,0.4c-1.1-0.2-3.7,1.6-6.1,3.2c-2.4,1.6-4.8,3.5-7.2,5.3
					c-2.3,1.7-3.5,2.2-5.2,3.3c-0.5,0.3-1,0.7-1.6,1C70.2,185,53.3,223.7,42.8,273c0.5-1.4,1.1-2.7,1.8-4.1c1-2.2,2.1-5.4,3.4-7.5
					c1.8-2.9,8.4-7.8,11.4-9.2c4.2-1.9,6.5,1.9,10.7-1.9c2.5-2.3,3-2.8,6.1-3.9c2.4-0.9,4.6-2.1,7-2.1c6,0,2.9,6.6,2.7,11.8
					c-0.4,7.6,6.2,6.8,8.5-1c0.9-3.2,0.2-5.8,1-9c1-3.9,3-5.6,5.7-8.6c3.4-3.7,5.8-6.9,9.5-10.2c3.3-2.9,6.2-6.3,8.5-10.1
					c4.1-7.1,10.6-13,17-18.3c3.1-2.5,5.7-4.3,8.5-7.3c2.3-2.6,4.8-4.9,7.4-7.1c2.3-1.9,4.9-3.7,7.5-5.1c-0.2,0.6-0.3,1-0.5,1.5
					c3-5.5,6.2-10.8,9.7-15.9C166.2,165.3,162.6,166.7,161.2,166.9z M122.8,189.9c-1.9,0.6-3.2,0.9-5,2.9c-1.4,1.6-2.2,3.6-1.8,5
					c2-0.3,3.7-1.5,5.8-2.3c0,0.4,0,0.5-0.1,0.9c-1.3,1.3-2.4,2.8-3.9,4c-1.6,1.3-3.2,2.4-5.1,3.3c-1.5,0.7-3.6,1-4.2-0.2
					c-0.8-1.4,1.3-3,2.6-4.6c1-1.3,1.6-2.4,1.3-3.4c-0.4-1.1-1.2-0.4,0.3-2.3c0.8-1,2.4-2.4,2.6-3.4c0.3-1.4-0.9-0.8-1.9-0.2
					c-2.5,1.7-4.7,3.9-6.4,6.5c-1.1,1.5-2.2,3-3.4,4.3c-1.1,1.4-2.2,2.8-3.4,4c-3.2,2.7-2.2-1.1-1.2-3.1c1.3-2.5,2.9-4.9,4.9-7
					c2.3-2.8,2.7-4.1,5.6-5.6c1-0.6,2.1-1,3.3-1.3c0.8-0.2,2.7-0.3,2.8-1.7c-0.4,0-0.7-0.1-1,0c-1,0.1-2,0.3-3,0.6
					c-1,0.2-1.9,0-2.9,0.2c-2.2,0.4-4.6,1.8-6.9,2.8c-0.8,0.3-2.8,1-2.6-0.1c0.2-1,2.2-2,3-2.4c1.2-0.7,2.3-0.9,3.6-1.8
					c1.3-0.9,2.6-2.2,3.9-3.3c2.4-2,5.1-4.3,6.9-3.8c0.8,0.2,1.8,0.3,2,1.3c0.2,1.2-0.9,2.9-0.8,4.1c0.1,1.5,3.2,1.5,4.4,1.7
					C124.8,185.1,124.3,187,122.8,189.9L122.8,189.9z"/>
				<path class="st3" d="M174.1,160.2c2.4-0.4,4.6-0.4,7.1-1.4c2.4-1,4.8-3.2,7.3-5c4.3-3.1,9.7-3.4,10.3-9.5
					c0.5-5.2-4.7-5.4-4.9-10.1c-8,8.1-15.3,16.9-21.9,26.2C172.8,160.4,173.6,160.3,174.1,160.2z"/>
				<path class="st3" d="M164.1,182.9c3.6-1.7,9.9-2.9,6-6.4c-1.4-1.3-2.7-0.7-1.4-4.3c0.6-1.7,3.2-4.7,2.9-6.2
					c-0.2-1-1.3-1.2-2.8-1.1c-3.5,5.2-6.7,10.5-9.7,15.9C158,185,160.3,184.8,164.1,182.9z"/>
				<path class="st3" d="M135.9,317.6c-11-6.7-21.8-9.6-28.6,4.7c-1.6-4.7,0.5-6.9,0.1-11.1c-3.3,2.2-7.3,3-10.8,4.7
					c-2,0.9-3.6,2.7-4.1,4.8c-0.5,1.8-0.3,3-1.3,4.4c-0.7,1-1.7,1.4-2.3,2.5c-0.7-0.9-1.1-1.4-1.8-2.4c-1.6-5.7-7.2-0.2-10.3-1.4
					c-3.5-1.4-5.5-6.3-5.3-10.2c0.2-3.7,1.8-11.1-0.9-13.2c-2.6-2-8.4,0.1-11.5-0.9c-0.3-3.5,3.1-6.2,4.6-8.9
					c0.8-1.5,1.2-3.3,1.9-4.8c0.6-1.2,2.1-3.2,2.4-4.4c1.4-5.2-3.4-2.9-6.1-2.3c-4.5,1-4.5,3.7-5.9,8c0,0.2,0,0.4,0,0.6
					c-2.7,2.9-10.6,5.5-13.3,3c-1.4-1.3-0.7-5.2-0.8-7.2c-0.1-1.3-0.2-2.5-0.3-3.7c-1.1,8.9-1.5,13.4-2,22.5
					c1.7,0.3,3.4,0.4,5.1,0.2c4.2-0.4,6,4.2,10,5.9c4.1,1.7,6.6,2.7,9.2,7.5c1.2,2.3,0.9,4.5,2.3,6.7c1.2,2,3.6,3.7,5.4,5
					c1.8,1.5,3.7,2.7,5.8,3.6c2.7,0.9,2.8-0.5,4.8-1.7c5.5-3.2,5.9,6.3,6.1,10.3c0.3,2.4-0.2,4.9-1.3,7.1c-0.9,2.3-1.3,3.4-2.1,5.7
					c0.5,0.4,0.9,0.3,0.6,1.3c-3.8,1-2.8,3-3.7,6.7c-0.8,3.7,0.3,5.4,0.8,9.1c0.4,3.1-1.7,2.8-2,5.1c-0.2,1.8,2.4,5.1,3.5,6.8
					c1.3,2.2,2.8,5.5,4.6,7.6c2.5,2.8,4.3,4,6.4,7.4c2.8,4.8,4.7,11.2,8.5,15.5c3.3,3.8,8,6.3,11.6,9.4c4.6,3.9,10.5,12.1,12.2,17.5
					c2.4,7.8,3.8,14.9,5.7,22.4c2.1,8.5,6.7,16.5,9.2,24.5c2.3,7.1,5.4,14,9.2,20.4c3.3,5.8,8,9.7,11.7,15.9c3.8,6.3,7.7,12.7,12,19
					c3.4,4.9,8,12.5,12.2,14.4c2.7,1.2,2,0.5,4.8,4.4c2.3,3.1,3.6,3.4,5.6,5.5c-0.2-0.1-0.3-0.1-0.4-0.2c1.4,0.6,5.1,3.2,5.8,2.7
					c1.3-1-2.2-3.7-3.8-5.1c-4.1-3.6-7.7-7.7-10.8-12.1c-2.3-3.2-0.7-6.6-1.8-10.2c-1.7-5.8-4.9-9.7-5.5-16.4
					c-1.1-10.2,0.5-6.9,7.4-11.3c8.2-5.2,3.6-10.6,5.2-17.7c1.4-6.6,8.3-5.6,10.5-11.8c2.5-7.3-2.3-10.1,4.4-15.6
					c4.4-3.6,11-4,13.6-9.6c0.3-0.6,0.5-1.3,0.5-2C176.6,423.5,145.2,373.6,135.9,317.6z"/>
				<path class="st3" d="M228.9,439.6c0.8-5.6-2.1-11.5-2.1-17.8c0-6.8-0.1-12.4,2.2-18.6c0.4-1,0.8-1.9,1.1-2.7
					c1.9-4.4,3-6.8,0.4-12.1c-5.5-10.8-19.9-15.2-29.6-19.9c-11.7-5.6-17.9-13.8-26.6-22.6c-4.7-4.8-6.3-8.5-12-10.9
					c-7.5-3.2-17-11.7-26.3-17.4c9.3,56,40.7,106,87.2,138.6c0.3-2.3-0.1-4.7,0.6-6.9C224.7,445.8,228.3,443.6,228.9,439.6z"/>
				<path class="st3" d="M75.8,276.6c-2.8-1-0.2-3.9,1.7-4.7c1.8-0.8,4-0.6,5.9-0.8c2-0.2,4.1-1,5.9-0.2c1.7,0.8,3,2.7,4.6,3.6
					s10.6,4.4,7.6,8.1c-1.1,1.3-4.5,0.7-5.9,0.8c-3,0.4-3.6,1.5-3.9-2c-0.4-4-2.5-4.4-5.7-5.5c-0.9-0.3-2.5-1.6-3.3-1.7
					c-1.8-0.1-2.8,2-4.6,1.7C77.1,276.3,76.7,276.4,75.8,276.6z"/>
				<path class="st3" d="M104,290.2c-0.7-0.2-2.3-0.9-2.3-1.9c0.1-1.7,1.2-1,2.2-1.5c3.4-1.4,2.1-1.7,2.7-5.2
					c0.2-1.3-0.8-0.8,0.9-1.5c1.2-0.5,2,0.2,2.9,0.6c2.1,0.9,9.6,2.2,9.1,5.6c-0.4,2.8-3.3,1.5-5.1,2c-1.3,0.3-1.4,0.8-2.4,1.5
					C111,290.4,105.8,290.7,104,290.2z"/>
				<circle class="st4" cx="434.8" cy="204.6" r="178.6"/>
				<circle class="st5" cx="434.8" cy="204.6" r="166.7"/>
				<circle class="st6" cx="434.8" cy="204.6" r="142.3"/>
				<path class="st7" d="M440,92.2c0,2.8-2.3,5.1-5.1,5.1l0,0l0,0c-2.8,0-5.1-2.3-5.1-5.1V76.8c0-2.8,2.3-5.1,5.1-5.1l0,0
					c2.8,0,5.1,2.3,5.1,5.1l0,0V92.2z"/>
				<path class="st7" d="M440,332.4c0,2.8-2.3,5.1-5.1,5.1l0,0c-2.8,0-5.1-2.3-5.1-5.1V317c0-2.8,2.3-5.1,5.1-5.1l0,0
					c2.8,0,5.1,2.3,5.1,5.1V332.4z"/>
				<path class="st7" d="M322.4,199.4c2.8,0,5.1,2.3,5.1,5.1l0,0c0,2.8-2.3,5.1-5.1,5.1l0,0H307c-2.8,0-5.1-2.3-5.1-5.1l0,0l0,0l0,0
					c0-2.8,2.3-5.1,5.1-5.1H322.4z"/>
				<path class="st7" d="M562.6,199.4c2.8,0,5.1,2.3,5.1,5.1l0,0l0,0c0,2.8-2.3,5.1-5.1,5.1l0,0h-15.4c-2.8,0-5.1-2.3-5.1-5.1l0,0
					l0,0l0,0c0-2.8,2.3-5.1,5.1-5.1H562.6z"/>
				<path class="st7" d="M383.5,104.4c1.4,2.5,0.5,5.6-1.9,7l0,0c-2.5,1.4-5.6,0.6-7-1.9l0,0l0,0L367,96.1c-1.4-2.5-0.6-5.6,1.9-7
					l0,0l0,0l0,0c2.5-1.4,5.6-0.6,7,1.9l0,0l0,0L383.5,104.4z"/>
				<path class="st7" d="M502.7,313c1.4,2.5,0.6,5.6-1.9,7l0,0l0,0l0,0c-2.5,1.4-5.6,0.6-7-1.9l-7.6-13.4c-1.4-2.5-0.6-5.6,1.9-7
					l0,0l0,0l0,0c2.5-1.4,5.6-0.6,7,1.9l0,0l0,0L502.7,313z"/>
				<path class="st7" d="M334.7,255.9c2.5-1.4,5.6-0.6,7,1.9l0,0c1.4,2.5,0.5,5.6-1.9,7l-13.4,7.6c-2.5,1.4-5.6,0.6-7-1.9l0,0
					c-1.4-2.5-0.6-5.6,1.9-7L334.7,255.9z"/>
				<path class="st7" d="M543.2,136.7c2.5-1.4,5.6-0.6,7,1.9l0,0l0,0l0,0c1.4,2.5,0.6,5.6-1.9,7l-13.4,7.6c-2.5,1.4-5.6,0.6-7-1.9
					l0,0l0,0c-1.4-2.5-0.6-5.6,1.9-7l0,0l0,0L543.2,136.7z"/>
				<path class="st7" d="M340.6,143.1c2.4,1.4,3.3,4.6,1.8,7l0,0l0,0c-1.4,2.4-4.6,3.3-7,1.8l-13.3-7.8c-2.4-1.4-3.3-4.6-1.8-7l0,0
					c1.4-2.4,4.6-3.3,7-1.8l0,0L340.6,143.1z"/>
				<path class="st7" d="M547.6,265c2.4,1.4,3.3,4.6,1.8,7l0,0l0,0c-1.4,2.4-4.6,3.3-7,1.8l0,0l0,0l-13.3-7.8
					c-2.4-1.4-3.3-4.6-1.8-7l0,0l0,0c1.4-2.4,4.6-3.3,7-1.8L547.6,265z"/>
				<path class="st7" d="M373.4,298.8c1.4-2.4,4.6-3.3,7-1.8l0,0l0,0c2.4,1.4,3.3,4.6,1.8,7l-7.8,13.3c-1.4,2.4-4.6,3.3-7,1.8l0,0
					l0,0l0,0c-2.4-1.4-3.3-4.6-1.8-7L373.4,298.8z"/>
				<path class="st7" d="M495.2,91.8c1.4-2.4,4.6-3.3,7-1.8l0,0l0,0l0,0c2.4,1.4,3.3,4.6,1.8,7l-7.8,13.3c-1.4,2.4-4.6,3.3-7,1.8
					l0,0l0,0c-2.4-1.4-3.3-4.6-1.8-7l0,0l0,0L495.2,91.8z"/>
				<circle class="st8" cx="434.8" cy="204.6" r="20.5"/>
				<path class="st9" d="M442.8,204.1c0,4.2-3.4,7.6-7.6,7.6l0,0c-4.2,0-7.6-3.4-7.6-7.6l0,0V111c0-4.2,3.4-7.6,7.6-7.6l0,0
					c4.2,0,7.6,3.4,7.6,7.6V204.1z"/>
				<path class="st10" d="M437.8,211.1c3.9-1.4,6.1-5.7,4.7-9.6l0,0c-1.4-3.9-5.7-6-9.6-4.7L379,214.3c-3.9,1.4-6.1,5.7-4.7,9.6l0,0
					c1.4,3.9,5.6,6.1,9.6,4.7L437.8,211.1z"/>
				<path class="st11" d="M518.3,276.4c-15.2-10.4-29.7-21.7-43.7-33.7c-13.9-12-27.2-24.8-39.8-38.2
					C465.2,225.4,493.1,249.5,518.3,276.4z"/>
				<circle class="st11" cx="434.8" cy="204.6" r="4.3"/>
			</g>
		</g>
	</g>
	<g id="Layer_2_1_">
		<rect x="633.6" y="633.6" class="st12" width="0.2" height="0.3"/>
		<polygon class="st12" points="0,0 0,0 0,0 		"/>
		<rect class="st12" width="0.2" height="0.3"/>
	</g>
</g>
</svg>
